<svg xmlns="http://www.w3.org/2000/svg" viewBox="0 0 100 62.88873" style="fill:white">
  <polygon class="spark" points="3.106 11.933 3.945 14.2 6.212 15.039 3.945 15.877 3.106 18.144 2.267 15.877 0 15.039 2.267 14.2 3.106 11.933"/>
  <polygon class="spark" points="82.637 33.62 83.476 35.887 85.743 36.726 83.476 37.565 82.637 39.832 81.798 37.565 79.531 36.726 81.798 35.887 82.637 33.62"/>
  <polygon class="spark" points="54.667 0 55.506 2.267 57.773 3.106 55.506 3.945 54.667 6.212 53.828 3.945 51.562 3.106 53.828 2.267 54.667 0"/>
  <polygon class="spark" points="41.427 18.427 42.619 21.648 45.841 22.84 42.619 24.032 41.427 27.254 40.235 24.032 37.014 22.84 40.235 21.648 41.427 18.427"/>
  <polygon class="spark" points="10.663 34.111 11.855 37.332 15.076 38.524 11.855 39.716 10.663 42.937 9.471 39.716 6.249 38.524 9.471 37.332 10.663 34.111"/>
  <polygon class="spark" points="58.626 46.778 59.818 50 63.039 51.192 59.818 52.384 58.626 55.605 57.434 52.384 54.212 51.192 57.434 50 58.626 46.778"/>
  <polygon class="spark" points="78.224 6.212 79.416 9.433 82.637 10.625 79.416 11.817 78.224 15.039 77.032 11.817 73.81 10.625 77.032 9.433 78.224 6.212"/>
  <polygon class="spark" points="97.879 17.237 98.452 18.785 100 19.357 98.452 19.93 97.879 21.478 97.307 19.93 95.759 19.357 97.307 18.785 97.879 17.237"/>
  <polygon class="spark" points="34.893 37.711 35.466 39.259 37.014 39.832 35.466 40.404 34.893 41.952 34.32 40.404 32.772 39.832 34.32 39.259 34.893 37.711"/>
  <polygon class="spark" points="63.451 26.274 64.024 27.822 65.572 28.395 64.024 28.968 63.451 30.516 62.878 28.968 61.33 28.395 62.878 27.822 63.451 26.274"/>
  <polygon class="spark" points="18.698 58.647 19.271 60.195 20.819 60.768 19.271 61.341 18.698 62.889 18.126 61.341 16.578 60.768 18.126 60.195 18.698 58.647"/>
  <polygon class="spark" points="24.136 5.571 24.708 7.118 26.256 7.691 24.708 8.264 24.136 9.812 23.563 8.264 22.015 7.691 23.563 7.118 24.136 5.571"/>
  <polygon class="spark" points="87.292 55.605 87.865 57.153 89.413 57.726 87.865 58.299 87.292 59.847 86.72 58.299 85.172 57.726 86.72 57.153 87.292 55.605"/>
</svg>
