<svg xmlns="http://www.w3.org/2000/svg" viewBox="0 0 100 73.03464" style="fill:white">
  <polygon class="spark" points="96.712 3.288 97.6 5.687 100 6.575 97.6 7.463 96.712 9.863 95.824 7.463 93.425 6.575 95.824 5.687 96.712 3.288"/>
  <polygon class="spark" points="39.083 0 39.971 2.4 42.371 3.288 39.971 4.176 39.083 6.575 38.195 4.176 35.796 3.288 38.195 2.4 39.083 0"/>
  <polygon class="spark" points="29.346 39.161 30.234 41.561 32.633 42.449 30.234 43.337 29.346 45.737 28.458 43.337 26.058 42.449 28.458 41.561 29.346 39.161"/>
  <polygon class="spark" points="69.893 66.459 70.781 68.859 73.181 69.747 70.781 70.635 69.893 73.035 69.005 70.635 66.606 69.747 69.005 68.859 69.893 66.459"/>
  <polygon class="spark" points="8.461 5.191 9.722 8.601 13.132 9.863 9.722 11.125 8.461 14.535 7.199 11.125 3.789 9.863 7.199 8.601 8.461 5.191"/>
  <polygon class="spark" points="50.391 21.953 51.653 25.363 55.063 26.625 51.653 27.887 50.391 31.297 49.129 27.887 45.719 26.625 49.129 25.363 50.391 21.953"/>
  <polygon class="spark" points="78.439 37.777 79.701 41.187 83.111 42.449 79.701 43.711 78.439 47.121 77.177 43.711 73.767 42.449 77.177 41.187 78.439 37.777"/>
  <polygon class="spark" points="14.742 60.403 16.004 63.813 19.414 65.075 16.004 66.337 14.742 69.747 13.481 66.337 10.071 65.075 13.481 63.813 14.742 60.403"/>
  <polygon class="spark" points="72.138 11.188 72.745 12.826 74.383 13.433 72.745 14.039 72.138 15.678 71.532 14.039 69.893 13.433 71.532 12.826 72.138 11.188"/>
  <polygon class="spark" points="43.655 57.298 44.262 58.936 45.9 59.542 44.262 60.149 43.655 61.787 43.049 60.149 41.41 59.542 43.049 58.936 43.655 57.298"/>
  <polygon class="spark" points="91.843 58.158 92.45 59.797 94.088 60.403 92.45 61.009 91.843 62.648 91.237 61.009 89.598 60.403 91.237 59.797 91.843 58.158"/>
  <polygon class="spark" points="2.245 34.48 2.851 36.118 4.49 36.725 2.851 37.331 2.245 38.969 1.639 37.331 0 36.725 1.639 36.118 2.245 34.48"/>
  <polygon class="spark" points="91.843 22.891 92.45 24.53 94.088 25.136 92.45 25.742 91.843 27.381 91.237 25.742 89.598 25.136 91.237 24.53 91.843 22.891"/>
</svg>
