<svg xmlns="http://www.w3.org/2000/svg" viewBox="0 0 99.33326 100" style="background:none; fill:white">
  <polygon class="spark" points="42.568 0 43.412 2.283 45.695 3.127 43.412 3.972 42.568 6.254 41.723 3.972 39.441 3.127 41.723 2.283 42.568 0"/>
  <polygon class="spark" points="62.461 18.599 63.709 21.973 67.082 23.221 63.709 24.469 62.461 27.843 61.213 24.469 57.839 23.221 61.213 21.973 62.461 18.599"/>
  <polygon class="spark" points="95.716 38.927 96.693 41.567 99.333 42.544 96.693 43.52 95.716 46.16 94.739 43.52 92.099 42.544 94.739 41.567 95.716 38.927"/>
  <polygon class="spark" points="35.824 23.221 36.258 24.394 37.431 24.829 36.258 25.263 35.824 26.436 35.39 25.263 34.216 24.829 35.39 24.394 35.824 23.221"/>
  <polygon class="spark" points="70.179 42.544 70.849 44.353 72.659 45.023 70.849 45.693 70.179 47.502 69.509 45.693 67.7 45.023 69.509 44.353 70.179 42.544"/>
  <polygon class="spark" points="41.145 46.635 42.374 49.956 45.695 51.185 42.374 52.414 41.145 55.736 39.916 52.414 36.594 51.185 39.916 49.956 41.145 46.635"/>
  <polygon class="spark" points="65.629 90.899 66.858 94.221 70.179 95.45 66.858 96.679 65.629 100 64.4 96.679 61.078 95.45 64.4 94.221 65.629 90.899"/>
  <polygon class="spark" points="22.334 59.378 22.826 60.707 24.155 61.199 22.826 61.69 22.334 63.02 21.842 61.69 20.513 61.199 21.842 60.707 22.334 59.378"/>
  <polygon class="spark" points="60.64 67.128 61.132 68.457 62.461 68.949 61.132 69.441 60.64 70.77 60.148 69.441 58.819 68.949 60.148 68.457 60.64 67.128"/>
  <polygon class="spark" points="18.304 93.96 18.796 95.289 20.125 95.781 18.796 96.273 18.304 97.602 17.813 96.273 16.483 95.781 17.813 95.289 18.304 93.96"/>
  <polygon class="spark" points="92.611 87.749 93.45 90.016 95.716 90.854 93.45 91.693 92.611 93.96 91.772 91.693 89.506 90.854 91.772 90.016 92.611 87.749"/>
  <polygon class="spark" points="5.923 38.593 6.595 40.409 8.412 41.081 6.595 41.753 5.923 43.57 5.251 41.753 3.435 41.081 5.251 40.409 5.923 38.593"/>
  <polygon class="spark" points="86.094 62.126 87.016 64.616 89.506 65.537 87.016 66.459 86.094 68.949 85.173 66.459 82.683 65.537 85.173 64.616 86.094 62.126"/>
  <polygon class="spark" points="37.431 78.321 38.27 80.586 40.535 81.424 38.27 82.263 37.431 84.528 36.593 82.263 34.328 81.424 36.593 80.586 37.431 78.321"/>
  <polygon class="spark" points="3.435 66.808 4.363 69.315 6.87 70.242 4.363 71.17 3.435 73.677 2.507 71.17 0 70.242 2.507 69.315 3.435 66.808"/>

</svg>
