<svg xmlns="http://www.w3.org/2000/svg" viewBox="0 0 100 93.64416">
    <defs>
        <style>
            .cls-1{fill:#b2936d;}.cls-2{fill:#ddbf9e;}
        </style>
    </defs>
        
    <g id="Capa_2" data-name="Capa 2">
        <g id="Capa_1-2" data-name="Capa 1">
            <path class="cls-1" d="M97.16965,41.21082l-.06532-.56918a46.75277,46.75277,0,0,0-92.70331,0c-.04664.35455-.08394.70909-.12129,1.06364a47.96826,47.96826,0,0,0-.27055,5.03825,48.75177,48.75177,0,0,0,.35454,5.82194A46.53521,46.53521,0,0,0,19.24516,81.26472V81.33l.07459.00929A46.64849,46.64849,0,0,0,31.1876,89.2046a46.143,46.143,0,0,0,13.77116,3.92791l.5411.056a47.32917,47.32917,0,0,0,5.25282.29857,48.05128,48.05128,0,0,0,5.2715-.29857l.52248-.056A46.52351,46.52351,0,0,0,82.027,81.47l.084-.06532a46.71007,46.71007,0,0,0,15.38524-34.6611A47.70627,47.70627,0,0,0,97.16965,41.21082Zm-46.417-39.97A45.64888,45.64888,0,0,1,95.83546,40.5577H83.1V30.05206H80.93541C74.507,12.55821,60.80115,7.30539,56.63065,6.08315V3.58271H44.87476V6.04585c-4.18918,1.20356-17.979,6.42837-24.43539,24.00621H18.40543V40.5577H5.66061A45.65831,45.65831,0,0,1,50.75268,1.24086Zm26.3014,40.567V65.76752c-5.86858-11.98915-14.3216-17.91371-20.42343-20.7687V41.8079Zm-32.17932,0v3.13494c-6.14847,2.83631-14.64818,8.74225-20.55406,20.806V41.8079ZM27.89407,25.46169v4.59037H21.76422a40.30657,40.30657,0,0,1,2.05262-4.59037Zm-3.40543-1.25025a38.58856,38.58856,0,0,1,3.40543-5.04754v5.04754Zm4.64634,0-.028-6.49368a36.20314,36.20314,0,0,1,4.56235-4.3385V24.21144Zm4.53439,1.25025v4.59037H29.135V25.46169Zm1.25025-1.25025-.03736-11.76518A35.84838,35.84838,0,0,1,39.454,9.6006V24.21144ZM39.454,25.46169v4.59037H34.91962V25.46169Zm5.42075,0v4.59037H40.69492V25.46169Zm-4.17984-1.25025V8.97545a31.15764,31.15764,0,0,1,4.17984-1.642v16.878Zm19.98494,1.25025v4.59037H56.63065V25.46169Zm-4.04921-1.25025V7.38a31.95008,31.95008,0,0,1,4.04921,1.59541v15.236Zm9.82451,1.25025v4.59037H61.92077V25.46169Zm-4.53439-1.25025V9.6006a41.69329,41.69329,0,0,1,4.53439,2.771V24.21144Zm10.319,1.25025v4.59037H67.70541V25.46169Zm-4.53439-1.25025V13.37926a39.07489,39.07489,0,0,1,4.53439,4.27318v6.559Zm9.85253,1.25025a39.52622,39.52622,0,0,1,2.04328,4.59037H73.48071V25.46169Zm-4.07723-1.25025V19.1639a39.54029,39.54029,0,0,1,3.40543,5.04754Zm-67.99737,28.27a.45709.45709,0,0,1-.00934-.10262l.70909-1.01694A8.87419,8.87419,0,0,1,11.21194,48.255c1.06364.23326,6.06453,1.59541,6.06453,6.63366V71.84133l-4.609.0467A45.80376,45.80376,0,0,1,5.48334,52.48148ZM13.57247,72.961h4.82362V54.88865c0-6.4844-7.10949-7.76261-7.21211-7.77195a10.28119,10.28119,0,0,0-5.7753,3.40549c-.10261-1.28755-.15859-2.55643-.15859-3.77866a45.39122,45.39122,0,0,1,.27055-4.93563H23.07045l.00934,26.67464a62.78889,62.78889,0,0,0-3.53607,11.35465A44.40594,44.40594,0,0,1,13.57247,72.961Zm17.55915-3.53607V87.79575a46.578,46.578,0,0,1-10.52431-6.92294C25.08572,58.85392,37.672,49.7758,44.87476,46.31433V69.42488ZM45.0054,92.0129a45.15833,45.15833,0,0,1-12.75416-3.55475V70.5445H45.0054Zm24.24877-3.55475A45.07293,45.07293,0,0,1,56.5,92.0129V70.5445H69.25417Zm1.11962-.6624V69.42488H56.63065V46.37964C63.8054,49.86907,76.3357,58.97521,80.81411,80.88215A44.51112,44.51112,0,0,1,70.37379,87.79575ZM88.91258,71.84133H84.09825V54.88865c0-5.05688,5.01029-6.4004,6.07387-6.63366a8.60832,8.60832,0,0,1,5.1129,3.26552l.69975,1.20356A46.39033,46.39033,0,0,1,88.91258,71.84133Zm7.16547-21.15121A10.06208,10.06208,0,0,0,90.1535,47.1167c-.06532.00934-7.17481,1.28755-7.17481,7.77195V72.961h4.95425a44.417,44.417,0,0,1-6.08321,6.97886,63.45138,63.45138,0,0,0-3.5454-11.41063V41.8079H95.98477a45.3887,45.3887,0,0,1,.27055,4.93563C96.25532,48.06838,96.19935,49.38389,96.07805,50.69012Z"/><path class="cls-2" d="M82.14708,2.82493H82.147a9.78762,9.78762,0,0,1-9.78761,9.78761A9.78758,9.78758,0,0,1,82.147,22.40015h.00006a9.78757,9.78757,0,0,1,9.78761-9.78761A9.78761,9.78761,0,0,1,82.14708,2.82493Z"/><path class="cls-2" d="M23.85844,75.879h-.00008a8.88255,8.88255,0,0,1-8.88259,8.88259v.00008a8.88254,8.88254,0,0,1,8.88259,8.88252h.00008A8.88254,8.88254,0,0,1,32.741,84.76164v-.00008A8.88255,8.88255,0,0,1,23.85844,75.879Z"/><path class="cls-2" d="M8.053,23.421A8.053,8.053,0,0,1,0,31.47394V31.474a8.05294,8.05294,0,0,1,8.053,8.05293A8.05294,8.05294,0,0,1,16.106,31.474v-.00006A8.053,8.053,0,0,1,8.053,23.421Z"/><path class="cls-2" d="M92.69792,59.78116h-.00006a7.30207,7.30207,0,0,1-7.30207,7.30208v.00006a7.30207,7.30207,0,0,1,7.30207,7.30208h.00006A7.30208,7.30208,0,0,1,100,67.0833v-.00006A7.30208,7.30208,0,0,1,92.69792,59.78116Z"/><path class="cls-2" d="M81.6979,31.4542H55.22846V4.98476H46.27689V31.4542H19.80746v8.95156H46.27689V92.18863a23.557,23.557,0,0,0,4.47464.28565,29.24829,29.24829,0,0,0,4.47693-.28565V40.40576H81.6979Z"/>
        </g>
    </g>
</svg>