<svg xmlns="http://www.w3.org/2000/svg" xmlns:xlink="http://www.w3.org/1999/xlink" viewBox="0 0 94.2131 71.63094">
<defs>
    <style>.cls-1{fill:url(#Degradado_sin_nombre_8);}.cls-2{fill:#fff;}</style>
    <linearGradient id="Degradado_sin_nombre_8" x1="47.10655" y1="71.63094" x2="47.10655" y2="22.88889" gradientUnits="userSpaceOnUse">
        <stop offset="0" stop-color="#fff"/>
        <stop offset="1" stop-color="#fff" stop-opacity="0"/>
        </linearGradient>
</defs>

<path class="cls-1" d="M4.43838,22.88889H89.77471a3.037,3.037,0,0,1,2.14745,5.18439L49.254,70.74144a3.03693,3.03693,0,0,1-4.29489,0L2.29094,28.07328A3.03694,3.03694,0,0,1,4.43838,22.88889Z"/><path class="cls-2" d="M2.053,0H92.16011a2.04888,2.04888,0,0,1,1.44878,3.49766L48.55533,48.55122a2.04888,2.04888,0,0,1-2.89756,0L.60421,3.49766A2.04888,2.04888,0,0,1,2.053,0Z"/>
</svg>