<svg id="Capa_1" data-name="Capa 1" xmlns="http://www.w3.org/2000/svg" viewBox="0 0 72.46808 100"><defs><style>.cls-1{fill:#D5B88F;}.cls-2{fill:#7c614e;}</style></defs><path class="cls-1" d="M35.28726,100s-.04921-.03249-.14764-.10839C33.171,98.46056,11.86907,82.26367,0,43.35429c0,0,3.83061-10.42931,6.93935-15.49217A28.54451,28.54451,0,0,1,2.633,18.9831S6.93935,4.10889,20.58836,0c0,0-24.41071,25.24939,14.55126,99.71818C35.18883,99.81572,35.23805,99.90247,35.28726,100Z"/><path class="cls-1" d="M35.13124,13.9138,26.1956,26.56505S15.21753,12.08321,20.83422,2.53136C20.83422,2.53136,21.60013,13.9138,35.13124,13.9138Z"/><path class="cls-1" d="M35.20855,16.00435V34.49008l.07871,61.07227c-1.28569-2.37424-7.233-13.16859-8.09882-17.39665,0,0,2.65882-35.52691,6.04353-47.60412-1.67928-1.20336-3.1486-3.621-4.21559-5.80006Z"/><path class="cls-2" d="M35.28726,100s-.065-.03249-.19513-.10839v-.17343C35.15717,99.81572,35.22222,99.90247,35.28726,100Z"/><path class="cls-1" d="M37.13029,78.9571c-.03255.01085-.07589.0217-.10845.03255C37.02184,78.98965,37.0544,78.9788,37.13029,78.9571Z"/><path class="cls-1" d="M69.36684,69.57494s-12.039,18.17024-32.113,30.41931l-.02621-17.51372c3.71546-1.28659,19.0367-7.07642,28.27932-18.354A14.85925,14.85925,0,0,1,69.36684,69.57494Z"/><path class="cls-1" d="M37.22767,79.5397,37.1489,34.4818S56.76327,32.17113,56.67136.00567A27.10019,27.10019,0,0,1,66.8379,3.87547a69.21543,69.21543,0,0,0,3.21166,26.11632c3.75769,11.3456,3.17714,19.61436-4.81823,31.04946,0,0-.2101.302-.63023.8534C62.31671,64.75671,53.86178,74.1438,37.22767,79.5397Z"/><path class="cls-1" d="M50.72211,5.6411a1.77258,1.77258,0,0,1-1.76563,1.77748,1.60468,1.60468,0,0,1-.67545-.14219A1.93384,1.93384,0,0,1,48.93276,8.734a1.94879,1.94879,0,0,1-2.96248,1.6708A1.95937,1.95937,0,0,1,46.468,11.732a2.05072,2.05072,0,0,1-2.05008,2.05,2.02652,2.02652,0,0,1-1.42194-.56877,2.08244,2.08244,0,0,1,.49768,1.37463,2.19744,2.19744,0,0,1-2.19228,2.20406,2.14413,2.14413,0,0,1-1.75376-.88874,2.88542,2.88542,0,0,1,.05923.56877,2.50345,2.50345,0,0,1-2.47659,2.50032V13.95976a2.529,2.529,0,0,1,2.0145,1.0428,1.64965,1.64965,0,0,1-.04744-.41472,2.2,2.2,0,0,1,2.20406-2.20414,2.15351,2.15351,0,0,1,1.505.60436,1.9621,1.9621,0,0,1-.45031-1.25609A2.06336,2.06336,0,0,1,44.418,9.6701a1.89739,1.89739,0,0,1,1.05466.3081A1.90664,1.90664,0,0,1,45.0223,8.734a1.95718,1.95718,0,0,1,1.95527-1.95527,2.01486,2.01486,0,0,1,.75841.15406A1.77038,1.77038,0,1,1,50.72211,5.6411Z"/><path class="cls-1" d="M51.291,2.37051A1.58792,1.58792,0,1,1,49.703.78266,1.588,1.588,0,0,1,51.291,2.37051Z"/></svg>