<svg id="Capa_1" data-name="Capa 1" xmlns="http://www.w3.org/2000/svg" viewBox="0 0 60.68166 100">
  <defs>
    <style>
      .cls-1 {
        fill: #686868;
      }

      .cls-2 {
        fill: #9d9d9d;
      }
    </style>
  </defs>
  <path class="cls-1" d="M47.6469,40.60238a38.90438,38.90438,0,0,0,2.70107-2.962,7.88292,7.88292,0,0,0,.49719-2.29189,26.88813,26.88813,0,0,0-.91542-7.9984A11.30185,11.30185,0,0,0,47.316,23.15018a5.43509,5.43509,0,0,0-1.9779-1.71214,1.28837,1.28837,0,0,0-.93411-.25432,3.5381,3.5381,0,0,0-1.44878-.04158,1.53045,1.53045,0,0,0-1.8417-.55987,1.34556,1.34556,0,0,1-.33688-.06507,2.563,2.563,0,0,0-1.1107-1.68864s.84554-.16514.72319-.39172c-.12174-.22661-1.51567-.35738-2.41361-.99317a2.5074,2.5074,0,0,1-.80576-2.02071c.24168-.54239-.30374-1.13056-.30374-1.13056.14043-1.05526-1.68922-1.83268-2.12735-2.03516a8.51246,8.51246,0,0,1-1.75793-1.17638,3.61377,3.61377,0,0,0-1.33307-.66653,2.73363,2.73363,0,0,0-1.52894-.399,3.84286,3.84286,0,0,0-1.69225.50322,5.925,5.925,0,0,0-2.35276,2.00623,1.29808,1.29808,0,0,0-.1609,1.35477c-.84913,1.69044.57252,4.29148.57252,4.29148a2.11245,2.11245,0,0,0-.37242.49,1.07406,1.07406,0,0,0,.03251.59482c-.15.09281-.09039.17659-.09039.17659a.40851.40851,0,0,0-.088.0904c-.02169.03917.06089.17537.10909.19224.04761.01748.11632-.05545.11632-.05545a.12122.12122,0,0,0,.08074.04459.26706.26706,0,0,0,.13681-.0464,4.59084,4.59084,0,0,0,.52311.41463,2.19814,2.19814,0,0,0,.71777.35978,1.79586,1.79586,0,0,0,.50984.71415c-.693.40076.16994,1.18964.16994,1.18964-.0874.70087.69243,1.19143.69243,1.19143-.19825.16333,0,.17658,0,.17658a2.55444,2.55444,0,0,0-1.09984,2.13218c.52494,1.8405-.90878,6.942-.90878,6.942a5.44083,5.44083,0,0,0,.27058,3.43512l-.03255-.03014a4.98456,4.98456,0,0,0-.74907-.60746,9.26724,9.26724,0,0,0-1.07212-.45863,10.35774,10.35774,0,0,0,.51949,1.24992,8.52186,8.52186,0,0,0,.73825.96424c-.15308.07713-.40017.11871-.45682.24467-.23082.51708-.59965.52792-1.06129.40318a2.77407,2.77407,0,0,0-.71294-.08377c-.44355.0006-.9347-.05544-1.02689.58336a.23991.23991,0,0,1-.1085.13922,1.2691,1.2691,0,0,0-.55683.94133c-.01931.11512-.03134.23384-.04158.35316-.02834.33267-.05.66654-.07654,1.02994-.23023-.30977-.42789-.57554-.62558-.8413l-.10787.05061.05243.64665c-.25854-.18742-.48874-.355-.7991-.58035.04641.27059.07292.42486.10064.58457-.29409-.05-.5659-.09641-.85216-.14523.01448.14764.02351.23623.02834.28083l-.59965.05664c.05664.34351-.23082.22057-.38087.27542-.144.053-.29591.08557-.44416.12656.003.0241.006.0482.00965.07171.24106.03555.48212.07051.79307.11571-.28685.16633-.5044.29229-.722.41884.01627.05183.03316.10427.04943.15669.3658-.04519.731-.09039,1.10105-.13559-.26519.21756-.51408.42185-.76356.62615.02652.03435.05241.06871.07893.103.41885-.21093.83709-.42186,1.33969-.67557-.22658.29289-.39352.508-.55984.72259.0259.02109.0512.04217.07713.06266l1.09019-.69244.08919.13439c-.34291.24709-.69546.48272-1.0263.74549a2.98961,2.98961,0,0,0-.44175.47609c-.094.11691-.135.28807-.24648.37726-.26157.20912-.20793.36822.03617.5213.20789.13077.423.2507.67736.39955-.17659.11512-.2935.19164-.508.33086.42247.03735.74248.06569,1.039.0922.09885.36763.35556.77863.26034,1.07574-.21876.67919.217.75813.62978.94194.12656.056.21634.19767.41824.39233.15125.00422.44175.01265.8443.0247-.25492.35918-.455.64184-.73342,1.03356a8.95637,8.95637,0,0,0,1.403.46887,5.00308,5.00308,0,0,0,.95038.05664A10.83557,10.83557,0,0,0,26.68,49.00215c-.33687,1.409-1.29932,5.49257-2.26536,10.098l-.00058.00422c-.85761,4.092-1.71756,8.59443-2.14366,11.99821a28.216,28.216,0,0,1-5.09723,13.21315c1.456.50322,2.80415.00542,4.08176-.15368a3.58747,3.58747,0,0,1,1.79954.15368,3.27014,3.27014,0,0,0,.7057,2.90177c4.19564-.03917,5.64625-1.41141,5.64625-1.41141l.15669,1.05826c4.15648.314,3.99919-.50925,3.99919-.50925a13.69372,13.69372,0,0,1,.23565,2.22138c-.36583,1.07212-.06571,1.42045-.17,2.51849a18.76685,18.76685,0,0,1-1.2776,3.68943,1.6027,1.6027,0,0,0-.48333.09161.819.819,0,0,0-.30436.42485l-.15669.09826a4.21792,4.21792,0,0,0-.42124.784c.11691.05124.44175-.16993.45982-.18259-.00421.00963-.08316.18018-.37184.813-.29711.65388-.03916.93773.21576.98351a13.20938,13.20938,0,0,0,3.52852-.28081c1.30715-.33991,1.33969-.634,1.64043-2.307a3.931,3.931,0,0,1,1.19565-2.3654,6.24162,6.24162,0,0,1-.16332,1.80374c-.085.26155.09161.30675.09161.30675a.318.318,0,0,0-.00662.1832c.02651.10487.25492.20251.42486.21575a1.78527,1.78527,0,0,0,.54238-.144,2.99021,2.99021,0,0,0-.37545,1.0655,2.27219,2.27219,0,0,1-.75152-.01324c-.04579.02951-.0723.18983-.0723.18983l-.27422-.01027a4.9604,4.9604,0,0,0-.03614,1.05526,2.29427,2.29427,0,0,0,.90215-.10426,2.36553,2.36553,0,0,0,.79069,2.25453,6.91522,6.91522,0,0,0,3.88169-1.34635c.58818-.50984.5707-2.05622.784-2.9795a21.215,21.215,0,0,0,.41162-3.06509,1.09716,1.09716,0,0,0,.15007-.69244c-.03919-.42488-.258-.53275-.258-.53275a.35792.35792,0,0,0-.15125-.11029s-.01748-.33929-.10488-1.37645a6.57409,6.57409,0,0,1,.4502-2.40037,6.13978,6.13978,0,0,0,2.99154-.23985c2.4052,1.25472,6.03859.28746,6.03859.28746a6.65974,6.65974,0,0,0-.18321-2.22137c1.82964-1.7254,4.49579.62736,7.946-1.2023C54.56533,72.2133,54.87872,46.23116,47.6469,40.60238ZM26.348,19.26006a1.13588,1.13588,0,0,1-.06089-.4532.7597.7597,0,0,1,.31822-.50984l.47667.63089Zm.22237.26155.60557-.31383a2.75692,2.75692,0,0,0,.47379,1.02736A3.08011,3.08011,0,0,1,26.57034,19.52161Z"/>
  <path class="cls-2" d="M27.0145,32.77814s1.43372-5.10145.90878-6.942c0,0-.5689-2.20209-.75149-2.90116-.18321-.69969-.32725-1.58136-.59483-2.35939a1.62992,1.62992,0,0,0-.98655-.99317c-.44475-.67978-1.412-.79731-2.02609-1.098s-2.45039-1.324-2.45039-1.324c.10667-.18079.07774-.26878.11088-.878a2.7056,2.7056,0,0,1,.3399-1.28727.67358.67358,0,0,0,.06209-.45079c.13377-.09824.379-.39534.34953-.58157a1.07349,1.07349,0,0,1,.00362-.34652.69181.69181,0,0,0,.54238-.16694.7099.7099,0,0,0,.15005-.6599,1.204,1.204,0,0,0,.81358-.39172,7.66592,7.66592,0,0,0,.72559-1.36078c.05185-.13018.14766-.17838.2242-.35256.07592-.17417.03676-.20069-.08919-.25914a.31173.31173,0,0,0-.22058-.02591l-1.145-.54239c.30133-.30132.12053-.904.12053-.904a2.20464,2.20464,0,0,0,1.08478-2.7722c.48212-.904-.48213-1.56689-.48213-1.56689a2.0638,2.0638,0,0,0-1.3861-1.808C19.54582,1.48,18.76238.21444,17.316.03364c-2.1822-.273-2.5914,1.2053-2.5914,1.2053a1.9604,1.9604,0,0,0-2.80113.93894,7.31084,7.31084,0,0,0-1.01065,3.0675c-.10426.31337-.52249.73162-.12174,2.94455.40076,2.21355.12174,3.79912,1.14987,4.63561a6.48526,6.48526,0,0,0-1.89053,1.908,16.83315,16.83315,0,0,1-2.37023.92387c-.84492.20008-3.65508.34411-4.70069,1.29811,0,0-1.01907.20912-1.39814,2.52211A27.47656,27.47656,0,0,0,0,25.83619C-.05244,28.07745.35256,36.11563.954,37.553a21.47906,21.47906,0,0,0,2.70953,3.8859S1.79048,50.07367.92808,52.00817a2.45024,2.45024,0,0,0,1.71635.09583l-.18321,1.44636a.68787.68787,0,0,0,.44478.25251s.45258,14.82947,1.21072,17.862c0,0,.03917,12.33749.35315,14.45461a28.65014,28.65014,0,0,1,.53576,3.32c-.01024.66833-.30071,1.3198-.30071,2.20872a16.43825,16.43825,0,0,0,.44414,2.70531,10.22867,10.22867,0,0,0-1.58135,3.13679,11.0512,11.0512,0,0,0-.17,2.10387,10.07022,10.07022,0,0,0,3.50262.33991,2.79083,2.79083,0,0,0,2.19606-2.627,1.58869,1.58869,0,0,1,.56169-1.12394c.52308-.35314,1.268-.75814,1.268-1.5681a2.45323,2.45323,0,0,0,1.31981-1.72538c.36641-1.37224-.47009-4.10407-1.09743-5.71134,0,0,.87985-.03074.79248-2.85356-.08678-2.82282-.01748-9.044.12232-9.77623a12.40131,12.40131,0,0,0,.66233-3.79852c.19163-2.771.92326-7.964.92326-7.964s-.09582,8.774,1.02812,11.78a34.63089,34.63089,0,0,0-.13921,5.29732,6.407,6.407,0,0,1-.06989,3.2941c-.34835,1.3415-1.88211,3.99015-.80154,5.94214a9.36564,9.36564,0,0,0-.62314,2.43712,3.35786,3.35786,0,0,0,.719,1.59463,3.00188,3.00188,0,0,1,.13077,1.15649s.28746.50984,1.61209.91061l.62734-.06088a3.33643,3.33643,0,0,1,.8624,1.14986c.2001.584.55746,1.70791,3.25856,2.51849,0,0,2.42206-.179,3.18017-.93653a8.25094,8.25094,0,0,0-1.37221-2.87584c-.87567-.954-1.4506-1.17156-2.078-2.24308l1.2716-8.5884c-1.27761.1591-2.62575.6569-4.08176.15368a28.216,28.216,0,0,0,5.09723-13.21315c.4261-3.40378,1.28605-7.90619,2.14366-11.99821l.00058-.00422a17.35493,17.35493,0,0,0-.00058-3.94675,2.56608,2.56608,0,0,0,.8232-1.01065,4.20928,4.20928,0,0,1-.19166-1.56811,11.48587,11.48587,0,0,0-.14039-3.33327,5.00308,5.00308,0,0,1-.95038-.05664,8.95637,8.95637,0,0,1-1.403-.46887c.27843-.39172.4785-.67438.73342-1.03356-.40255-.01205-.693-.02048-.8443-.0247-.2019-.19466-.29168-.33629-.41824-.39233-.41282-.18381-.84854-.26275-.62978-.94194.09522-.29711-.16149-.70811-.26034-1.07574-.2965-.02651-.61651-.05485-1.039-.0922.21454-.13922.33145-.21574.508-.33086-.25433-.14885-.46947-.26878-.67736-.39955-.2441-.15308-.29774-.31218-.03617-.5213.1115-.08919.15246-.26035.24648-.37726a2.98961,2.98961,0,0,1,.44175-.47609c.33084-.26277.68339-.4984,1.0263-.74549l-.08919-.13439-1.09019.69244c-.02593-.02049-.05123-.04157-.07713-.06266.16632-.21455.33326-.4297.55984-.72259-.5026.25371-.92084.46464-1.33969.67557-.02652-.03434-.05241-.0687-.07893-.103.24948-.2043.49837-.40859.76356-.62615-.37.0452-.73525.0904-1.10105.13559-.01627-.05242-.03316-.10486-.04943-.15669.21757-.12655.43512-.25251.722-.41884-.311-.0452-.552-.08016-.79307-.11571-.00362-.02351-.00665-.04761-.00965-.07171.14825-.041.30012-.07353.44416-.12656.15005-.05485.43751.06809.38087-.27542l.59965-.05664c-.00483-.0446-.01386-.13319-.02834-.28083.28626.04882.55807.09521.85216.14523-.02772-.15971-.05423-.314-.10064-.58457.31036.22539.54056.39293.7991.58035l-.05243-.64665.10787-.05061c.19769.26576.39535.53153.62558.8413.02651-.3634.0482-.69727.07654-1.02994.01024-.11932.02227-.238.04158-.35316.05361-.93411-.39293-1.32642,0-3.31276a19.67225,19.67225,0,0,1,1.13838-3.67258A5.25021,5.25021,0,0,0,25.95083,36.367a10.35774,10.35774,0,0,1-.51949-1.24992,9.26724,9.26724,0,0,1,1.07212.45863,4.98456,4.98456,0,0,1,.74907.60746l.03255.03014A5.44083,5.44083,0,0,1,27.0145,32.77814Zm-4.365-22.6549a.85139.85139,0,0,0,.232-.12715l.83647.41462a3.20859,3.20859,0,0,0-1.02933.229,2.41756,2.41756,0,0,0-.08136-.32183A.36264.36264,0,0,0,22.64948,10.12324Zm.00421.99017a1.324,1.324,0,0,1,.77983-.43994c.54059-.1115.584-.00905.584.135A4.40054,4.40054,0,0,1,23.351,12.15c-.36159.50984-.74369.45741-.74369.45741A3.41382,3.41382,0,0,0,22.65369,11.11341Z"/>
</svg>
