<svg id="Capa_1" data-name="Capa 1" xmlns="http://www.w3.org/2000/svg" viewBox="0 0 46.42454 100">
  <defs>
    <style>
      .cls-1 {
        fill: #686868;
      }

      .cls-2 {
        fill: #9d9d9d;
      }
    </style>
  </defs>
  <path class="cls-1" d="M36.19317,43.97738a1.59723,1.59723,0,0,0,1.60983.35437c-2.53793-1.30609-1.26895-4.41609-1.26895-4.41609a2.49448,2.49448,0,0,1,.4033,1.45122c.378-2.15827-.76273-2.32364-.89774-3.25006-.13332-.9281.64631-.83022.702-1.60477.054-.77454-.62775-1.44616-1.09854-2.76913a2.11616,2.11616,0,0,1,.17212-2.06714c-.15694,1.15253.42018,1.39047.42018,1.39047a2.07207,2.07207,0,0,1-.01856-1.88489,1.629,1.629,0,0,0-.41173-1.7381,2.42962,2.42962,0,0,1-.50288-1.053l.34761-.78636a1.99407,1.99407,0,0,0-.06411-1.90346,2.57168,2.57168,0,0,1-.37461-.61255,1.43177,1.43177,0,0,0-.19239-1.14409c1.31791-1.28923.18563-2.12453.18563-2.12453a2.11854,2.11854,0,0,0-.33242-1.32465c2.23589-1.98108-.12318-2.60039-.0152-4.37222a7.88215,7.88215,0,0,0-1.12553-4.514,3.09418,3.09418,0,0,0-1.93889-1.36685.94136.94136,0,0,0-.57712-.31386c-.27168-.36618-.92306-.31725-.92306-.31725a.58481.58481,0,0,0-.51635-.12993.42773.42773,0,0,0-.432-.04894c-.14683-.21431-.48263-.15862-.48263-.15862-.23792-.22612-.63449-.01181-.63449-.01181-1.06647-.34762-2.08737,1.07829-2.08737,1.07829a1.37387,1.37387,0,0,0-.55349.43536,7.02437,7.02437,0,0,1-.64463.572,1.42015,1.42015,0,0,0-.35772.65136.22712.22712,0,0,0-.189.11812.69105.69105,0,0,0-.18562-.06749.86147.86147,0,0,0-.02025-.34594.73066.73066,0,0,0-.4438-.45224c-.21094-.04555-.34254.38137-.34254.38137a.15791.15791,0,0,0-.14514.108c-.054.11644,0,.16875,0,.16875a7.18108,7.18108,0,0,0-.33581,1.328.59509.59509,0,0,0-.38474.50962c0,.24636.319.49611.319.49611a.88331.88331,0,0,1-.10633.44717.46122.46122,0,0,0-.02192.38981c-.4067-.01013-.4067.64968-.48094.79142-.07255.14175-.653.46236-.69017.93654a1.17557,1.17557,0,0,0,.43367.98042,1.95422,1.95422,0,0,1,.3122.90448c-.79481-.19237-3.925-.31893-3.925-.31893-1.08843-.60581-2.50928-1.61322-3.85418-2.57a27.32019,27.32019,0,0,0-3.67192-2.3962A5.16666,5.16666,0,0,0,8.161,13.1525a5.55376,5.55376,0,0,0-1.25041.20587l.38979-.57205a11.6384,11.6384,0,0,0-1.34153-.22612,2.09789,2.09789,0,0,0-1.22341.405c-.329.01013-.61253.33412-.77285.47587a1.09691,1.09691,0,0,0-.37463.599c-.05566.26663-.09615.33412-.2244.91123a2.35248,2.35248,0,0,0,0,1.058,1.1085,1.1085,0,0,0,.06072.45393,2.15391,2.15391,0,0,1,.16706.47586,2.59815,2.59815,0,0,0,.44044.67161l.00676.15357c-.17888.10293-.36956.64123-.2835.68173.08437.0405.19406-.07594.19406-.07594a.41308.41308,0,0,0,.21262.02194.55261.55261,0,0,0,.29869-.17044.93363.93363,0,0,0,0,.72224c.2244-.0135.33411-.46067.33411-.46067a5.94,5.94,0,0,0,.74585-1.27236,1.59222,1.59222,0,0,1,1.52885-.90616,4.5263,4.5263,0,0,0,1.81064-.567c.135.58555,3.569,1.39047,5.4775,5.135a11.9736,11.9736,0,0,0,2.99694,3.29393v.00169c1.03441.842,1.90684,1.41409,1.90684,1.41409a28.04448,28.04448,0,0,1-1.20485,2.64595,22.47477,22.47477,0,0,1-.13668,5.0067,10.14,10.14,0,0,0,1.112,2.133,1.86035,1.86035,0,0,1,.97874.42018.34513.34513,0,0,0,.33918.081,1.28277,1.28277,0,0,1,1.02768.07932,9.47189,9.47189,0,0,0,.94327.52142c.20082.06412.77625-.15693,1.11543,0,.33918.15524.46743.24637.64967.24637a1.72854,1.72854,0,0,1,1.01079-.05738.33924.33924,0,0,0,.37294-.1198,2.08859,2.08859,0,0,1,1.08672-.82855c.68512-.13837,2.36076-1.107,2.58013-1.053.21936.05568.32905.59567.15524.8606a12.62771,12.62771,0,0,1-1.62.92305c-.09956.11981.98885.5518,1.34828.52142a8.6501,8.6501,0,0,1,1.8174.00168c.6041.09619.702.20081.70706.378.00673.17551-.24639.43032-1.15086.56531l-.02532.00169-.702.06075s1.32974.059,1.67228.03037a.39279.39279,0,0,1,.22443.71886,17.95507,17.95507,0,0,1-1.84777.34762s1.13228-.06244,1.8731-.14007a.34439.34439,0,0,1,.26659.59568,3.65678,3.65678,0,0,1-2.15656.6058s.56361.10631.815.12825a5.17346,5.17346,0,0,1,.9686.10969.32218.32218,0,0,1,.21093.30711c0,.14681-.15523.21431-.39317.26493s-.85046.10125-1.32634.16538a8.76968,8.76968,0,0,1-4.5646-.18225s-.71886,1.03779-1.598,1.01922c-.87747-.01856-1.39047-.65979-3.58586-1.00741L19.08736,40.724c-.6716,2.3675-1.05973,4.71814-1.05973,4.71814-.26325,1.3061-1.01416,5.09277-1.77014,9.36374l-.00169.00336c-.66823,3.79343-1.33984,15.8571-1.67226,19.01434a28.88843,28.88843,0,0,1-3.98412,12.251c1.13735.46742,2.19032.00506,3.18931-.14175a2.39379,2.39379,0,0,1,1.40565.14175,3.40429,3.40429,0,0,0,.5518,2.69151c3.27875-.03713,4.41272-1.30948,4.41272-1.30948l.12151.98211.02023.00337.923.02362h.00169a21.7208,21.7208,0,0,0,3.87611-.56529,21.86329,21.86329,0,0,1-.28,4.61927c-.09027.43789-1.512,3.10494-1.512,3.10494a.88283.88283,0,0,1-.38475.21261s-.14679-.378-.24467-.41511c-.09787-.03544-1.04285.35436-1.04285.49442s.29362.25987.29362.25987c-2.07728.4843-2.12284.9686-2.07728,1.161A6.97573,6.97573,0,0,0,24.07056,98.5c1.922-.18394,2.71346-2.42488,3.78835-2.94125,1.07493-.51805,1.39553.05063,1.36348.621a9.89285,9.89285,0,0,1-.37123,1.67058l.82853.12825.14683-.14681a8.30441,8.30441,0,0,1-.06415-1.51872c.03545-.896.92811-1.59127,1.00574-1.89332s.07762-.76443-.0827-.87411-.43365.03206-.43365.03206a9.39065,9.39065,0,0,1-.21191-5.09008c.60917.09788.89012.18056,1.42674.23118.0523.00338.10462.00844.15525.01351l1.04115.027h.00676a4.21411,4.21411,0,0,0,1.14073-.28518,3.431,3.431,0,0,0,.37292.19912c.9548.77123.731,4.07794.75636,4.36313a7.85518,7.85518,0,0,0,0,2.20382l-.054.39487s-1.06142-.01519-1.23524.19574v1.06986a2.34445,2.34445,0,0,0,.70368-.21431s-.01349.22443.05061.24636c.06415.02363.2329-.059.2329-.059s-.05908,1.83933.17886,2.01314,1.77521-.61255,2.63919-1.27235a3.02662,3.02662,0,0,0,1.54908-2.70669c-.10291-1.28585-.10967-2.00639-.10967-2.00639l.36617-.01181a.78043.78043,0,0,0,.2565-.567l-.44717-1.1171c-.78432-.82734-.68547-4.52344-.68547-4.52344,1.42929-1.59971,3.51329.58049,6.20816-1.11541C40.93156,77.3554,39.03486,50.13831,36.19317,43.97738ZM23.59626,12.98882l-.44547.15186a5.15013,5.15013,0,0,1,.46405-1.539c.14341-.17718.23792-.20081.33411.08268A1.93454,1.93454,0,0,1,23.59626,12.98882Z"/>
  <g>
    <path class="cls-2" d="M18.67563,4.6865s.15861-.464-.43875-.70874a2.22271,2.22271,0,0,0-1.17109-1.31622A13.68322,13.68322,0,0,1,14.34558,1.185c-.31723-.4033-3.51327-2.45188-5.01345,0,0,0-3.1471.09787-3.23316,3.84235,0,0-.567.44549-.12825,2.69657.43873,2.24938.71379,4.19.98885,4.4819a.64161.64161,0,0,0,.68172.12319l-.34087.4573-.38979.57205A5.55376,5.55376,0,0,1,8.161,13.1525a5.16666,5.16666,0,0,1,2.68981.25481,27.32019,27.32019,0,0,1,3.67192,2.3962c.23963-.11982.9163.16367,1.485-.18394.567-.34762.37631-1.47315.47081-1.6284.09618-.15694.48935-.59568.3611-.99729,0,0,.31727-.31218.33581-.53156a1.71828,1.71828,0,0,0-.10461-.56023s.58048.21261.83022.04219.26832-.53156.08438-.945a5.32173,5.32173,0,0,1-.28518-.91629s.38306-.87072.39318-.97872c.00842-.10632-.25986-.17887-.29362-.09957l-.18224-.05906a2.6581,2.6581,0,0,0,.34761-.761c.06919-.34255.04556-.37462.04556-.37462a1.88462,1.88462,0,0,0,.80493-1.22509.34069.34069,0,0,0,.35774-.14176A1.71049,1.71049,0,0,0,18.67563,4.6865Zm-.96524,4.649a1.44613,1.44613,0,0,1-.189.39824s-.1755-.40162-.01349-.62268C17.61928,9.1414,17.75258,9.1549,17.71039,9.33546Z"/>
    <path class="cls-2" d="M31.85469,39.52248a3.65678,3.65678,0,0,1-2.15656.6058s.56361.10631.815.12825a5.17346,5.17346,0,0,1,.9686.10969.32218.32218,0,0,1,.21093.30711c0,.14681-.15523.21431-.39317.26493s-.85046.10125-1.32634.16538a8.76968,8.76968,0,0,1-4.5646-.18225s-.71886,1.03779-1.598,1.01922c-.87747-.01856-1.39047-.65979-3.58586-1.00741L19.08736,40.724c-.6716,2.3675-1.05973,4.71814-1.05973,4.71814-.26325,1.3061-1.01416,5.09277-1.77014,9.36374l-.00169.00336c-.66823,3.79343-1.33984,15.8571-1.67226,19.01434a28.88843,28.88843,0,0,1-3.98412,12.251c1.13735.46742,2.19032.00506,3.18931-.14175l-.57881,4.5899a21.63644,21.63644,0,0,0,2.48227-.0793,1.54442,1.54442,0,0,1,1.43939.20755,1.11475,1.11475,0,0,1,.39657,1.29935c-.2008.58554-2.75564,1.83089-5.7087,2.00133a1.54119,1.54119,0,0,1,.20755.71886,21.74561,21.74561,0,0,0,3.1117,2.06207c1.20654.56193,1.63685.73573,1.75158,1.12892,0,0,.19576.00337.297.29193a.51141.51141,0,0,1-.23792.6733c-.27845.20081-1.59466,1.48666-5.12991,1.10191-3.53354-.38474-3.89128-1.69252-5.24463-2.24095l-.29361.65811a7.05853,7.05853,0,0,1-2.45187-.82349c-.63113-.52985-.238-1.85788-.238-1.85788A6.07745,6.07745,0,0,1,3.79389,93.744c.25481-.57712.50286-1.21666.50286-1.21666a2.02856,2.02856,0,0,1-.07426-.73236s-.52985,0-.43872-1.60141.44885-6.679.59566-9.1123a42.15629,42.15629,0,0,1,.50288-5.16869,5.75334,5.75334,0,0,1,.58555-1.05129,9.42275,9.42275,0,0,1-.26495-2.1144c.09958-1.05128.25481-12.40791.25481-12.40791s-.83528-3.79679-1.25039-5.94325a18.65961,18.65961,0,0,1-.41344-2.80624,4.10993,4.10993,0,0,1-1.13566-.39994c-.25481-.21093-.35605-.9146-.60242-1.33477-.24807-.42187-.28519-.64124-.13838-1.48328s.85049-8.85918,1.09516-11.93205c.24467-3.07456.07255-9.71135.12149-12.41805a22.0244,22.0244,0,0,1,1.02768-5.62937.55261.55261,0,0,0,.29869-.17044.93363.93363,0,0,0,0,.72224c.2244-.0135.33411-.46067.33411-.46067a5.94,5.94,0,0,0,.74585-1.27236,1.59222,1.59222,0,0,1,1.52885-.90616,4.5263,4.5263,0,0,0,1.81064-.567c.135.58555,3.569,1.39047,5.4775,5.135a11.9736,11.9736,0,0,0,2.99694,3.29393v.00169a20.50992,20.50992,0,0,1,.702,4.06,22.47477,22.47477,0,0,1-.13668,5.0067q-.07595.53915-.18563,1.08841a.33861.33861,0,0,0,.08437.30036,3.77759,3.77759,0,0,0,.70535.62943,2.07875,2.07875,0,0,0,.50792.11475,1.86035,1.86035,0,0,1,.97874.42018.34513.34513,0,0,0,.33918.081,1.28277,1.28277,0,0,1,1.02768.07932,9.47189,9.47189,0,0,0,.94327.52142c.20082.06412.77625-.15693,1.11543,0,.33918.15524.46743.24637.64967.24637a1.72854,1.72854,0,0,1,1.01079-.05738.33924.33924,0,0,0,.37294-.1198,2.08859,2.08859,0,0,1,1.08672-.82855c.68512-.13837,2.36076-1.107,2.58013-1.053.21936.05568.32905.59567.15524.8606a12.62771,12.62771,0,0,1-1.62.92305c-.09956.11981.98885.5518,1.34828.52142a8.6501,8.6501,0,0,1,1.8174.00168c.6041.09619.702.20081.70706.378.00673.17551-.24639.43032-1.15086.56531l-.02532.00169-.702.06075s1.32974.059,1.67228.03037a.39279.39279,0,0,1,.22443.71886,17.95507,17.95507,0,0,1-1.84777.34762s1.13228-.06244,1.8731-.14007A.34439.34439,0,0,1,31.85469,39.52248Z"/>
  </g>
</svg>
