<svg id="Capa_1" data-name="Capa 1" xmlns="http://www.w3.org/2000/svg" viewBox="0 0 46.42454 100">
  <defs>
    <style>
      .cls-1 {
        fill: #686868;
      }

      .cls-2 {
        fill: #9d9d9d;
      }
    </style>
  </defs>
  <path class="cls-1" d="M37.30493,47.74384a1.734,1.734,0,0,0,1.7477.38472c-2.75529-1.41795-1.37764-4.79431-1.37764-4.79431a2.708,2.708,0,0,1,.43785,1.57551c.41036-2.34312-.82806-2.52265-.97463-3.52841-.14473-1.00759.70167-.90133.76211-1.74222.05862-.84087-.68151-1.57-1.19262-3.00628a2.29739,2.29739,0,0,1,.18687-2.24419c-.17039,1.25124.45616,1.50956.45616,1.50956a2.24952,2.24952,0,0,1-.02015-2.04633,1.76847,1.76847,0,0,0-.447-1.88695,2.63785,2.63785,0,0,1-.546-1.14316l.37738-.8537a2.16482,2.16482,0,0,0-.06959-2.06648,2.79162,2.79162,0,0,1-.4067-.665,1.55438,1.55438,0,0,0-.20887-1.24208c1.43079-1.39964.20154-2.30647.20154-2.30647a2.30006,2.30006,0,0,0-.3609-1.43811c2.42738-2.15075-.13373-2.82309-.0165-4.74668a8.55717,8.55717,0,0,0-1.22192-4.90056,3.35917,3.35917,0,0,0-2.105-1.48391,1.02194,1.02194,0,0,0-.62655-.34074c-.295-.39754-1.00211-.34442-1.00211-.34442a.63492.63492,0,0,0-.56058-.14107.46438.46438,0,0,0-.469-.05312c-.1594-.23267-.524-.17221-.524-.17221-.2583-.24549-.68883-.01282-.68883-.01282C27.4983,9.677,26.39,11.225,26.39,11.225a1.49158,1.49158,0,0,0-.60089.47264,7.624,7.624,0,0,1-.69984.62105,1.54181,1.54181,0,0,0-.38835.70714.24661.24661,0,0,0-.20521.12825.75.75,0,0,0-.20151-.07328.9353.9353,0,0,0-.022-.37556.7932.7932,0,0,0-.48182-.491c-.229-.04946-.37187.414-.37187.414a.17142.17142,0,0,0-.15757.11725c-.05862.1264,0,.1832,0,.1832a7.79555,7.79555,0,0,0-.36457,1.44177.64607.64607,0,0,0-.4177.55326c0,.26746.34627.53861.34627.53861a.959.959,0,0,1-.11543.48546.50072.50072,0,0,0-.0238.42319c-.44154-.011-.44154.70532-.52213.85921-.07876.15389-.709.502-.74928,1.01675a1.27626,1.27626,0,0,0,.47081,1.06439,2.12149,2.12149,0,0,1,.33894.98194c-.86288-.20885-4.2612-.34625-4.2612-.34625-1.18165-.65768-2.72419-1.75137-4.18428-2.79011a29.66042,29.66042,0,0,0-3.9864-2.60142A5.60916,5.60916,0,0,0,6.872,14.279a6.029,6.029,0,0,0-1.3575.22351l.42317-.621a12.63342,12.63342,0,0,0-1.45642-.24549A2.27755,2.27755,0,0,0,3.153,14.0756c-.35723.011-.665.36273-.839.51662a1.19091,1.19091,0,0,0-.40672.65035c-.06042.28946-.10439.36273-.24362.98927a2.5541,2.5541,0,0,0,0,1.14866,1.20335,1.20335,0,0,0,.06593.4928,2.33875,2.33875,0,0,1,.18136.51663,2.82094,2.82094,0,0,0,.47817.72912l.00733.16672c-.1942.11175-.40121.69615-.30778.74012.0916.044.21068-.08244.21068-.08244a.44841.44841,0,0,0,.23084.02381.59982.59982,0,0,0,.32426-.185,1.01364,1.01364,0,0,0,0,.7841c.24362-.01466.36273-.50013.36273-.50013a6.44838,6.44838,0,0,0,.80972-1.38133,1.72858,1.72858,0,0,1,1.65979-.98377,4.914,4.914,0,0,0,1.96572-.61555c.14657.6357,3.87463,1.50956,5.94662,5.57474a12.99923,12.99923,0,0,0,3.25361,3.576v.00183c1.123.91416,2.07015,1.53519,2.07015,1.53519a30.444,30.444,0,0,1-1.308,2.87257,24.39917,24.39917,0,0,1-.14838,5.4355,11.008,11.008,0,0,0,1.20726,2.31563,2.01979,2.01979,0,0,1,1.06256.45616.37469.37469,0,0,0,.36823.08794,1.3926,1.3926,0,0,1,1.11569.08611,10.28236,10.28236,0,0,0,1.02405.56607c.218.06962.84274-.17037,1.211,0,.36823.16854.50746.26748.70531.26748a1.87657,1.87657,0,0,1,1.09736-.0623.36831.36831,0,0,0,.40488-.13006,2.26746,2.26746,0,0,1,1.17979-.89951c.7438-.15022,2.563-1.20178,2.80111-1.14316.23815.06046.35723.6467.16853.93431a13.70784,13.70784,0,0,1-1.7587,1.0021c-.10808.13008,1.07354.59907,1.46375.56608a9.39171,9.39171,0,0,1,1.97306.00183c.65584.10443.76211.218.76761.41037.00731.19053-.26748.46716-1.24943.61372l-.02748.00183-.76211.066s1.44362.06412,1.8155.033a.42642.42642,0,0,1,.24365.78042,19.49039,19.49039,0,0,1-2.006.37739s1.22926-.06778,2.03352-.15206a.37389.37389,0,0,1,.28943.6467,3.97,3.97,0,0,1-2.34126.65768s.61187.11541.88484.13923a5.61773,5.61773,0,0,1,1.05156.11908.34979.34979,0,0,1,.229.33343c0,.15938-.16852.23265-.42684.28761s-.92331.10993-1.43994.17954a9.5206,9.5206,0,0,1-4.95553-.19786s-.78043,1.12668-1.73489,1.10652c-.95262-.02015-1.50955-.7163-3.893-1.09369l-1.23475-.22717c-.72913,2.57028-1.1505,5.12223-1.1505,5.12223-.2858,1.418-1.101,5.52895-1.92175,10.1657l-.00183.00366c-.72546,4.11831-1.45459,8.65064-1.81549,12.07828A31.3626,31.3626,0,0,1,9.51919,84.88187c1.23475.50745,2.37791.00549,3.46245-.15389a2.5988,2.5988,0,0,1,1.526.15389,3.69585,3.69585,0,0,0,.59906,2.922c3.55956-.04031,4.79065-1.42162,4.79065-1.42162l.13192,1.06621.022.00366,1.00209.02565h.00184a23.58138,23.58138,0,0,0,4.20809-.61371,8.75789,8.75789,0,0,1-.08979,1.07354,37.31377,37.31377,0,0,1-1.64145,3.37086.95839.95839,0,0,1-.4177.23082s-.15936-.41036-.26563-.45066c-.10625-.03848-1.13216.38471-1.13216.53677s.31877.28212.31877.28212c-2.25519.52578-2.30466,1.05156-2.25519,1.26041a7.57311,7.57311,0,0,0,4.57813,1.26224c2.08664-.19969,2.94585-2.63256,4.1128-3.19315,1.167-.56242,1.51506.055,1.48026.67417a10.73964,10.73964,0,0,1-.403,1.81366l.89948.13923.15941-.15938a9.01581,9.01581,0,0,1-.06964-1.64879c.03849-.97278,1.00759-1.72756,1.09188-2.05548s.08426-.8299-.08979-.949-.47079.03481-.47079.03481a2.05408,2.05408,0,0,0-.7951-1.58467c.66135.10626,1.31719.196,1.89977.251.05678.00367.11359.00916.16855.01466l1.13033.0293h.00733a4.57491,4.57491,0,0,0,1.23843-.3096,3.72269,3.72269,0,0,0,.40486.21617c.08059.36091.22349,1.02409.251,1.33369a8.52808,8.52808,0,0,0,0,2.39258l-.05864.42869s-1.15232-.0165-1.341.2125v1.16149a2.54516,2.54516,0,0,0,.76394-.23267s-.01464.24366.05495.26746c.06964.02565.25284-.06411.25284-.06411s-.06414,1.99687.19418,2.18556,1.92725-.665,2.86523-1.38132a3.28585,3.28585,0,0,0,1.68175-2.93851c-.11173-1.396-.11906-2.17822-.11906-2.17822l.39752-.01283a.84724.84724,0,0,0,.27847-.61554l-.48546-1.21278a7.44564,7.44564,0,0,0-.17405-1.50773c1.55171-1.73672,3.81418.6302,6.73986-1.21094C42.44914,75.416,40.39,54.43242,37.30493,47.74384ZM23.62915,14.10125l-.48363.16487a5.59121,5.59121,0,0,1,.5038-1.67077c.15569-.19235.25829-.218.36273.08977A2.1003,2.1003,0,0,1,23.62915,14.10125Z"/>
  <g>
    <path class="cls-2" d="M18.28709,5.08788s.1722-.5038-.47633-.76944a2.41307,2.41307,0,0,0-1.27139-1.42895,14.85489,14.85489,0,0,1-2.95318-1.603c-.3444-.43784-3.81417-2.66188-5.44283,0,0,0-3.41663.10625-3.51007,4.17143,0,0-.61556.48365-.13923,2.92752.47631,2.442.77493,4.54882,1.07354,4.86576a.69657.69657,0,0,0,.74011.13373l-.37007.49647-.42317.621A6.029,6.029,0,0,1,6.872,14.279a5.60916,5.60916,0,0,1,2.92018.27663,29.66042,29.66042,0,0,1,3.9864,2.60142c.26015-.13007.99478.1777,1.61216-.19969.61554-.37739.40853-1.59932.51113-1.76786.10441-.17038.53126-.6467.392-1.08271,0,0,.34443-.33891.36456-.57708a1.86554,1.86554,0,0,0-.11356-.60821s.63019.23082.90132.0458.29131-.57708.0916-1.02592a5.77753,5.77753,0,0,1-.30959-.99477s.41586-.9453.42684-1.06255c.00915-.11541-.28211-.19419-.31876-.10809l-.19785-.06411a2.886,2.886,0,0,0,.37738-.82623c.07512-.37189.04947-.4067.04947-.4067a2.04606,2.04606,0,0,0,.87386-1.33.36985.36985,0,0,0,.38838-.15389A1.857,1.857,0,0,0,18.28709,5.08788ZM17.23918,10.135a1.57007,1.57007,0,0,1-.20518.43234s-.19054-.436-.01465-.676C17.14027,9.92431,17.285,9.939,17.23918,10.135Z"/>
    <path class="cls-2" d="M32.59488,42.9074a3.97,3.97,0,0,1-2.34126.65768s.61187.11541.88484.13923a5.61773,5.61773,0,0,1,1.05156.11908.34979.34979,0,0,1,.229.33343c0,.15938-.16852.23265-.42684.28761s-.92331.10993-1.43994.17954a9.5206,9.5206,0,0,1-4.95553-.19786s-.78043,1.12668-1.73489,1.10652c-.95262-.02015-1.50955-.7163-3.893-1.09369l-1.23475-.22717c-.72913,2.57028-1.1505,5.12223-1.1505,5.12223-.2858,1.418-1.101,5.52895-1.92175,10.1657l-.00183.00366c-.72546,4.11831-1.45459,8.65064-1.81549,12.07828A31.3626,31.3626,0,0,1,9.51919,84.88187c1.23475.50745,2.37791.00549,3.46245-.15389l-.62838,4.983a23.48711,23.48711,0,0,0,2.69487-.0861,1.67669,1.67669,0,0,1,1.56267.22534,1.21022,1.21022,0,0,1,.43053,1.41063c-.218.63569-2.99165,1.9877-6.19762,2.17273a1.67339,1.67339,0,0,1,.22533.78043,23.608,23.608,0,0,0,3.37819,2.23868c1.30988.61005,1.777.79874,1.90161,1.2256,0,0,.21251.00367.32243.31694a.55522.55522,0,0,1-.2583.731c-.3023.218-1.73124,1.614-5.56926,1.19628C7.00754,99.50479,6.61916,98.085,5.1499,97.4896l-.31876.71447a7.6631,7.6631,0,0,1-2.66186-.894c-.68518-.57524-.25834-2.017-.25834-2.017a6.59811,6.59811,0,0,1,.21985-2.0848c.27663-.62655.54593-1.32087.54593-1.32087a2.20254,2.20254,0,0,1-.08062-.79508s-.57522,0-.47629-1.73856.48729-7.251.64668-9.89272a45.76257,45.76257,0,0,1,.54595-5.61138,6.24642,6.24642,0,0,1,.63569-1.14132,10.2302,10.2302,0,0,1-.28763-2.29549c.1081-1.14132.27663-4.906.27663-4.906s-.90683-4.122-1.35749-6.45226a20.25794,20.25794,0,0,1-.44885-3.04658,4.46248,4.46248,0,0,1-1.23292-.43419c-.27663-.229-.38655-.99294-.654-1.4491-.26932-.458-.30962-.69615-.15024-1.61031s.92333-9.61793,1.189-12.954c.26563-3.33787.07876-10.54308.1319-13.48159a23.90949,23.90949,0,0,1,1.1157-6.11151.59982.59982,0,0,0,.32426-.185,1.01364,1.01364,0,0,0,0,.7841c.24362-.01466.36273-.50013.36273-.50013a6.44838,6.44838,0,0,0,.80972-1.38133,1.72858,1.72858,0,0,1,1.65979-.98377,4.914,4.914,0,0,0,1.96572-.61555c.14657.6357,3.87463,1.50956,5.94662,5.57474a12.99923,12.99923,0,0,0,3.25361,3.576v.00183a22.26452,22.26452,0,0,1,.76211,4.40776,24.39917,24.39917,0,0,1-.14838,5.4355q-.08244.58531-.20153,1.18163a.36763.36763,0,0,0,.0916.32609,4.102,4.102,0,0,0,.76576.68334,2.257,2.257,0,0,0,.55143.12457,2.01979,2.01979,0,0,1,1.06256.45616.37469.37469,0,0,0,.36823.08794,1.3926,1.3926,0,0,1,1.11569.08611,10.28236,10.28236,0,0,0,1.02405.56607c.218.06962.84274-.17037,1.211,0,.36823.16854.50746.26748.70531.26748a1.87657,1.87657,0,0,1,1.09736-.0623.36831.36831,0,0,0,.40488-.13006,2.26746,2.26746,0,0,1,1.17979-.89951c.7438-.15022,2.563-1.20178,2.80111-1.14316.23815.06046.35723.6467.16853.93431a13.70784,13.70784,0,0,1-1.7587,1.0021c-.10808.13008,1.07354.59907,1.46375.56608a9.39171,9.39171,0,0,1,1.97306.00183c.65584.10443.76211.218.76761.41037.00731.19053-.26748.46716-1.24943.61372l-.02748.00183-.76211.066s1.44362.06412,1.8155.033a.42642.42642,0,0,1,.24365.78042,19.49039,19.49039,0,0,1-2.006.37739s1.22926-.06778,2.03352-.15206A.37389.37389,0,0,1,32.59488,42.9074Z"/>
  </g>
</svg>
