<svg id="Capa_1" data-name="Capa 1" xmlns="http://www.w3.org/2000/svg" viewBox="0 0 48.46127 100">
  <defs>
    <style>
      .cls-1 {
        fill: #686868;
      }

      .cls-2 {
        fill: #9d9d9d;
      }
    </style>
  </defs>
  <path class="cls-1" d="M39.98133,46.3624c.38455.08045.70943,1.33685,1.14516,2.0863s.92267.88264,1.07394.88264c.14243,0,.32835-.23134.35222-.26059a3.32807,3.32807,0,0,0,.05274,1.61746,2.45133,2.45133,0,0,0,1.03237,1.49737,3.63376,3.63376,0,0,1-.383-1.87114,2.83144,2.83144,0,0,0,1.25449,1.59745,1.6319,1.6319,0,0,1-.2225-.73675,1.11478,1.11478,0,0,0,.89187.15128c-.62742-.09123-1.1232-1.03392-1.1232-1.03392a2.40717,2.40717,0,0,0,.71826-1.012A4.79545,4.79545,0,0,0,46.1598,51.062a5.98762,5.98762,0,0,1-1.20367-2.02433,2.53193,2.53193,0,0,0,.2552-1.78144,1.47186,1.47186,0,0,1,.42342,1.88191c1.094-.84068-.19169-2.31072-.19169-2.31072a3.591,3.591,0,0,0,.26253-.76946,2.647,2.647,0,0,0,.58739.6382,2.48128,2.48128,0,0,1-.30294-1.7414,6.23274,6.23274,0,0,0,.78064,1.13437,2.00319,2.00319,0,0,1,.49616,1.36765c.527-1.0139-.74984-2.11748-.87186-2.544-.122-.425.34489-.98118.76063-1.49929a.93653.93653,0,0,0-.03119-1.1032s1.31144-1.40614,1.33685-2.36537-1.30952-1.79607-1.39152-2.41811c-.08-.62012.93192-2.161.87918-2.97048-.055-.81181-.68941-1.7033-.75677-2.68833a5.28227,5.28227,0,0,1,.76409-2.49663c.33372-.8095-.23365-1.94388-.7714-2.83576-.53619-.89149-.30294-1.31837-.30294-1.31837a.84278.84278,0,0,0,.96117-.16051c-.70749.09122-.52542-.4469-.52542-.4469.30294-1.07395,1.24562-1.76335,1.13437-2.31033-.11123-.54737-.57816-.77871-1.12514-1.94427-.547-1.16517.102-3.0798-.142-4.90358-.24289-1.82378-.97771-2.1629-.97771-2.1629a1.74076,1.74076,0,0,0-1.59553-1.01929c-.19169-.55621-.97771-.56738-.97771-.56738a.42543.42543,0,0,0-.36451-.13665c-.04582-.08045-.21711-.08045-.21711-.08045-.082-.34451-.36491-.25867-.36491-.25867-.122-.31371-.41573-.05119-.41573-.05119-.15126-.33373-.567-.1405-.567-.1405-.09124-.30448-.43573-.18246-.43573-.18246-.06043-.18206-.38493-.09084-.38493-.09084-.34452-.32488-.92268-.042-.92268-.042-1.60128-.63859-2.76493,1.7033-2.76493,1.7033a2.00044,2.00044,0,0,0-.52694.47231c-.66939-.04773-1.08858,1.20905-1.08858,1.20905a.90145.90145,0,0,0-.179.03465s-.18207-.25175-.587.0254a2.41429,2.41429,0,0,0-.65823.99927c-.13165-.04542-.219.17322-.219.221a.132.132,0,0,0,.03655.08353.50051.50051,0,0,0-.18244.38146.41915.41915,0,0,0,.1478.34836,1.44255,1.44255,0,0,0,.00731.587.49153.49153,0,0,0,.3811-.03271A2.24714,2.24714,0,0,0,33.943,17.939a.40346.40346,0,0,0-.18209.43574.99325.99325,0,0,1-.00923.47076s-.62936.649-.60894,1.094c.02.445.244.56738,1.0339,1.2768a7.08114,7.08114,0,0,1,1.37843,2.1683,4.26324,4.26324,0,0,1-1.05393,1.76334c-.70019.73868-3.73495,1.55934-3.73495,1.55934a1.41567,1.41567,0,0,0-.62011.082c-.164-.19323-.55237-.64744-.85338-1.00119a4.55066,4.55066,0,0,1-.84955-1.552,2.26771,2.26771,0,0,0-.71671-1.271,6.44187,6.44187,0,0,0-.79719-1.39151s-.10739-.9446-.2171-.89187c-.1074.055-.1074.2171-.1074.2171a.17011.17011,0,0,0-.20248.09507,3.27752,3.27752,0,0,1,.26985.82952c.06773.42689.09508,1.08165.09508,1.08165a1.68923,1.68923,0,0,1,.26983.87724,10.82217,10.82217,0,0,1,.66208,2.43813,3.45034,3.45034,0,0,1,.485,1.49159c-.92651.51965-1.96967,1.171-2.95623,1.79106a3.80948,3.80948,0,0,0-1.60861,3.96629,2.8178,2.8178,0,0,1,.56739.60009A3.01142,3.01142,0,0,0,25.403,35.096a3.64612,3.64612,0,0,1,1.16326,1.08318c-.05274-.01616-.9042-.28793-2.3288-.81874a41.88564,41.88564,0,0,1-4.22534-2.10824,2.19666,2.19666,0,0,1-1.07395-1.0139,4.85236,4.85236,0,0,0-.99235-1.57935c-.33718-.34451-1.52623-1.47889-1.91115-1.89115a2.50337,2.50337,0,0,0-.62166-.527c-.15511-.2298-.51234-.39917-.67476-.2298-.16245.16975-.00734.47962-.00734.47962.02733.96655,1.36035,1.9458,1.4023,2.15751.04.21325-.204.25328-.204.25328-.2937-.142-.59664.13126-.73866.08238-.14243-.0512-.49617-.12241-.49617-.12241a.63832.63832,0,0,0-.53775-.27368l-.13127-.20209a.73062.73062,0,0,0-.445.62705c-.09123.52734.73828,1.17633.73828,1.17633a1.24775,1.24775,0,0,0,.18246,1.16556.839.839,0,0,0,.23365.67824,1.10453,1.10453,0,0,0,.64706.84068,1.32233,1.32233,0,0,0,1.43.5874c.547-.04042.97194.28446,1.47889.89149.507.60741,3.50514,3.08018,3.50514,3.08018s4.68111,3.30267,6.62536,3.76958a2.2567,2.2567,0,0,0,1.66289.32258c1.09434-.14012,1.94426-.45769,3.52516-2.03126l.40493.36991-.40493.54737a5.11718,5.11718,0,0,0,1.12706-.04735,3.32046,3.32046,0,0,1,2.35074.74406,1.0901,1.0901,0,0,1,0,1.55357,1.39771,1.39771,0,0,1,.39224.91728.65476.65476,0,0,1-.445.55429.59364.59364,0,0,1,.22981.63475.76861.76861,0,0,1-.56931.4723s.47422.24443.40686.63667c-.06736.38993-.29715.4723-.63473.49964,0,0,.63473.29716.52542.64744-.10777.35183-1.107.35183-2.48586-.48693-1.37688-.83722-2.76839-3.28266-3.2276-3.29536-.45961-.01308-.64745.44652-.75716.607a4.55436,4.55436,0,0,1-.49964.51426,87.15978,87.15978,0,0,1-8.49648-6.49217C19.42125,43.5305,18.16139,51.78794,17.25681,60.182c-.5616,5.20844-1.20019,9.29174-1.84034,12.48317v.00154c-1.85265,9.24978-3.71106,11.02044-3.71106,11.02044a14.32717,14.32717,0,0,0,3.68759-.89187v1.09435a9.46188,9.46188,0,0,0,2.18831-.07468,7.77066,7.77066,0,0,0,2.02586-.56007,3.01959,3.01959,0,0,0,2.06629.43227,63.46724,63.46724,0,0,1,1.7745,6.81706s.00925.32641-.02733,1.25255c-.00191.02386-.00191.04926-.00383.07506a9.74292,9.74292,0,0,1-.68364,3.54132,3.39193,3.39193,0,0,0-.49078,1.15786l-.32988.199a2.66137,2.66137,0,0,0-.888-.76408s-.61088.425-.72057.50156c-.10931.0766-.33181.246-.31179.38647.02.14242.124.14242.2683.14242.14589,0,.16936.08391.16936.08391a.18519.18519,0,0,0,.05658.28986c-1.676.83875-2.04049,1.094-2.02778,1.3915.01462.29717.28444.40456,1.48619.74407A21.32675,21.32675,0,0,0,24.49112,100c1.13438,0,1.96581-1.512,2.94891-2.91967.98119-1.40806,1.92734-1.2768,1.92734-1.2768a12.99272,12.99272,0,0,1-.05465,1.33146c-.06005.47962-.18784,1.0266-.18784,1.0266l.32294.3576.84415-.10778a13.02838,13.02838,0,0,1-.1074-2.04781,3.05366,3.05366,0,0,1,.96309-1.59783.59183.59183,0,0,0,.19863-.54891c-.02733-.28445-.08047-.3318-.08047-.3318a1.35893,1.35893,0,0,1,.85724-.34452c1.32414,0,1.33145.56162,1.33145,1.074a10.51371,10.51371,0,0,1-.33756,1.75641l.80256.1967.26984-.2298a9.197,9.197,0,0,0,.01462-1.169,2.791,2.791,0,0,1,.76946-2.25567.89973.89973,0,0,0,.487-1.067c-.062-.30448-.73676-.0893-.73676-.0893a2.08387,2.08387,0,0,0-.64937-1.84919,5.92551,5.92551,0,0,1-.485-3.36465c.24251-.9319.56739-2.85577.56739-2.85577a3.92937,3.92937,0,0,0,2.67524-1.01389l-.04195-.89188c2.23026,2.06629,6.32242,1.05432,6.32242,1.05432l-.3245-1.58128c1.45886.122,2.14827,1.13438,3.36464,1.17634a4.464,4.464,0,0,0,2.30879-.6894C41.70658,71.14975,40.924,54.71107,40.884,51.46884A13.567,13.567,0,0,0,39.98133,46.3624Zm-5.5002-29.80371s-.32836.142-.35568-.03657a1.43179,1.43179,0,0,1,0-.23711,3.23025,3.23025,0,0,0,.43766.164Zm1.06315-1.82763a.85067.85067,0,0,0-.19322.41611,3.40192,3.40192,0,0,1-1.03777.11663c.20248-.57277.567-1.09974.90651-1.05778C35.55892,14.24605,35.54428,14.73106,35.54428,14.73106ZM28.98282,88.83713a4.2993,4.2993,0,0,1-.622,1.71792,5.769,5.769,0,0,1-.669-1.92386c-.01463-.11508-.02385-.22787-.02925-.34489a42.99481,42.99481,0,0,0-.21363-4.59911,3.82639,3.82639,0,0,0,.93191-.46691s.56737.22249.89187.3449A28.43583,28.43583,0,0,1,28.98282,88.83713Z"/>
  <g>
    <path class="cls-2" d="M28.98277,88.83724a4.29934,4.29934,0,0,1-.62189,1.71787,5.77,5.77,0,0,1-.66927-1.924c-.0146-.11489-.02368-.22795-.02916-.34467C27.71717,88.30837,28.57245,88.68587,28.98277,88.83724Z"/>
    <path class="cls-2" d="M23.42063,91.75691s-1.14344.06018-2.03523.02917c-.89174-.02917-2.31055-.14589-2.47649-.55621a3.81739,3.81739,0,0,1-.00365-1.40968s-.02738-1.02672-.02738-1.9732c0-.94465.26994-.95924.26994-.95924-1.189-.85164-1.56653-3.07285-1.56653-3.07285a7.77883,7.77883,0,0,0,2.02605-.55987,3.01934,3.01934,0,0,0,2.06621.43221A63.46928,63.46928,0,0,1,23.448,90.50406S23.45709,90.83049,23.42063,91.75691Z"/>
    <path class="cls-2" d="M37.08707,44.661a1.0901,1.0901,0,0,0,0-1.55357,3.32046,3.32046,0,0,0-2.35074-.74406,5.11718,5.11718,0,0,1-1.12706.04735l.40493-.54737-.40493-.36991c-1.5809,1.57357-2.43082,1.89114-3.52516,2.03126a2.2567,2.2567,0,0,1-1.66289-.32258c-1.94425-.46691-6.62536-3.76958-6.62536-3.76958s-2.99818-2.47277-3.50514-3.08018c-.50695-.607-.93191-.93191-1.47889-.89149a1.32233,1.32233,0,0,1-1.43-.5874,1.10453,1.10453,0,0,1-.64706-.84068.839.839,0,0,1-.23365-.67824,1.24775,1.24775,0,0,1-.18246-1.16556s-.82951-.649-.73828-1.17633a.73062.73062,0,0,1,.445-.62705l.13127.20209a.63832.63832,0,0,1,.53775.27368s.35374.07121.49617.12241c.142.04888.445-.22442.73866-.08238,0,0,.244-.04.204-.25328-.04195-.21171-1.375-1.191-1.4023-2.15751,0,0-.15511-.30987.00734-.47962.16242-.16937.51965,0,.67476.2298a2.50337,2.50337,0,0,1,.62166.527c.38492.41226,1.574,1.54664,1.91115,1.89115a4.85236,4.85236,0,0,1,.99235,1.57935,2.19666,2.19666,0,0,0,1.074,1.0139,41.88564,41.88564,0,0,0,4.22534,2.10824c1.4246.53081,2.27606.80258,2.3288.81874A3.64612,3.64612,0,0,0,25.403,35.096a3.01142,3.01142,0,0,1-1.21635-1.02661,2.8178,2.8178,0,0,0-.56739-.60009A3.80948,3.80948,0,0,1,25.22787,29.503c.98656-.62011,2.02972-1.27141,2.95623-1.79106a3.45034,3.45034,0,0,0-.485-1.49159,10.82217,10.82217,0,0,0-.66208-2.43813,1.68923,1.68923,0,0,0-.26983-.87724s-.02735-.65476-.09508-1.08165a3.27752,3.27752,0,0,0-.26985-.82952,5.31673,5.31673,0,0,0-2.161-2.95816,1.41022,1.41022,0,0,0,.144-.46691,2.858,2.858,0,0,0,.02-.33373.29856.29856,0,0,0,.00925-.24789,2.62141,2.62141,0,0,0-.52159-.47231s.68556-.18246.88073-.6001c.19706-.41919.01462-1.14169.08929-1.46619.07313-.32449.40494-.62165.1405-1.04661,0,0,.33218-.20632.3522-.37954a5.52567,5.52567,0,0,0-.01116-.63089s.44306.0254.60548-.25367a.732.732,0,0,0,.10048-.5158.96863.96863,0,0,0,.629-.47231c.18246-.383.45614-1.32414.49617-1.38612.04-.06.15512-.26983.12588-.36645-.03119-.09854-.40843-.16051-.6821-.14589l-.85915-.25366a.858.858,0,0,0,.2883-.341.70756.70756,0,0,0,.02541-.36452,2.195,2.195,0,0,0,.93922-1.3715,3.71771,3.71771,0,0,0-.31372-1.9458.39573.39573,0,0,0-.02-.547.48608.48608,0,0,0-.45037-.55622.62155.62155,0,0,0-.37568-.69864s-.0054-.33566-.30449-.3499a.44557.44557,0,0,0-.53619-.33951,5.53965,5.53965,0,0,1-.50694-.36452,1.05656,1.05656,0,0,0-.67287-.25367C23.55382,1.85065,21.48215.04187,19.6984.00146,17.915-.0405,17.55013.83136,17.41,1.53154c0,0-1.24754-.4265-2.51319,1.34609a6.98877,6.98877,0,0,0-.87148,5.22846c.18209,1.4989.95194,4.8928,1.01391,5.00558l.2733-.0766s-.40109.806-.40109.85531a.466.466,0,0,0,.082.16244,3.09779,3.09779,0,0,1-.29909.80065,1.81787,1.81787,0,0,0-.97734.30447,31.09452,31.09452,0,0,0-2.98549,2.90312,4.3241,4.3241,0,0,0-.98464,2.6483,20.70548,20.70548,0,0,0-.26983,6.10532,2.139,2.139,0,0,0-.26445,1.52469,14.92819,14.92819,0,0,1,.11125,2.63328,5.11184,5.11184,0,0,0-.47616,1.85458,2.28043,2.28043,0,0,0,.39572,1.19442,3.98109,3.98109,0,0,0-.72559.87187,12.11687,12.11687,0,0,0-.7841,1.47157,5.645,5.645,0,0,1-.10779,1.40614,44.97489,44.97489,0,0,0-1.39151,5.36356c-.02733.91728-.81141,4.99674-.97386,5.80816-.16051.80989-.485,1.26949.40686,1.70138,0,0,.06006,2.50587-.082,4.10716a22.93458,22.93458,0,0,0,.122,5.571c.3245,2.65523.3245,2.77764.3245,2.77764a11.93721,11.93721,0,0,0-1.8234,4.88163c-.56738,3.24262-1.33877,8.3687-1.52123,10.13243-.18207,1.76335-.485,7.57921-.485,7.57921A8.4435,8.4435,0,0,0,.82352,86.9991a6.77662,6.77662,0,0,0-.82028,2.63521A10.90835,10.90835,0,0,0,1.05717,92.977,5.17269,5.17269,0,0,1,1.006,94.42473c-.14206.72057-.57818,1.875-.07084,2.76685a3.06685,3.06685,0,0,0,2.47278,1.50968,6.45578,6.45578,0,0,0,2.80648-.24251c.37377-.24442.47616-1.10512.3449-1.67212a18.21375,18.21375,0,0,0-.1224-3.31382A13.29394,13.29394,0,0,0,7.8138,91.12244c.66939-1.43886-.465-2.77571-.38493-3.38312A7.42376,7.42376,0,0,1,9.0902,85.571a10.11721,10.11721,0,0,0,2.71567-5.086c.567-2.24874,2.9797-11.22638,2.9797-11.22638l.6309,3.4066c.64015-3.19143,1.27874-7.27473,1.84034-12.48317.90458-8.3941,2.16444-16.65154,4.26883-20.31181a87.15978,87.15978,0,0,0,8.49648,6.49217,4.55436,4.55436,0,0,0,.49964-.51426c.10971-.16051.29755-.62011.75716-.607.45921.0127,1.85072,2.45814,3.2276,3.29536,1.37882.83876,2.37809.83876,2.48586.48693.10931-.35028-.52542-.64744-.52542-.64744.33758-.02734.56737-.10971.63473-.49964.06736-.39224-.40686-.63667-.40686-.63667a.76861.76861,0,0,0,.56931-.4723.59364.59364,0,0,0-.22981-.63475.65476.65476,0,0,0,.445-.55429A1.39771,1.39771,0,0,0,37.08707,44.661ZM26.75333,9.37789c.26945.00462.24366.1328.21363.32949a6.78754,6.78754,0,0,1-.29061.92806,1.28247,1.28247,0,0,1-.35952.58162.62235.62235,0,0,1-.26945.06429,4.40881,4.40881,0,0,0-.20517-1.2106A.84729.84729,0,0,1,26.75333,9.37789Zm-.94115-.27369.42766.122a1.31207,1.31207,0,0,0-.36759.122.327.327,0,0,0-.09009-.1328A.171.171,0,0,0,25.81218,9.1042Z"/>
  </g>
</svg>
