<svg id="Capa_1" data-name="Capa 1" xmlns="http://www.w3.org/2000/svg" viewBox="0 0 50.60178 100">
  <defs>
    <style>
      .cls-1 {
        fill: #9d9d9d;
      }

      .cls-2 {
        fill: #686868;
      }
    </style>
  </defs>
  <path class="cls-1" d="M33.45342,42.96245a2.78991,2.78991,0,0,1-2.02269.585,1.80083,1.80083,0,0,0,.64953.207,3.51928,3.51928,0,0,1,.99145.11965c.24306.12726.27348.2773.226.40835s-.28869.41593-1.2934.36655c-1.00661-.04748-3.49081.39125-5.71487-.71032a3.148,3.148,0,0,1-1.76817,1.33517,14.442,14.442,0,0,1-2.1272-.7407,9.12854,9.12854,0,0,0-2.65135-.7578v.0019a45.26486,45.26486,0,0,0-.16331,6.3302c.19178,2.74442,1.01608,7.71477-2.82991,7.55143a9.67564,9.67564,0,0,1-.13674,3.89917A49.38714,49.38714,0,0,0,15.515,69.60328,23.34657,23.34657,0,0,1,14.0317,76a4.95226,4.95226,0,0,1,.11013,2.0322,5.76073,5.76073,0,0,1,.302,3.00652c-.08356.82237-.25832,2.46142-.43874,4.12327-.26208,2.44624-.5356,4.94-.5356,4.94a18.76642,18.76642,0,0,0,2.526,0c.71982-.11016,1.791.01329,2.10059.52039a.78613.78613,0,0,1,.11017.81668s.19178.10447.06074.42544c-.12914.32286-1.09017,1.546-6.15736,2.06638,0,0-.28869.773,1.83276,1.998s3.44907,1.49281,3.64465,2.15186c0,0,.79773.46342.01521,1.11676-.78247.65144-6.34348,1.36557-8.62259.11585s-3.06162-1.66184-3.06162-1.66184v.67423S3.25344,98.17373,2.74631,96.774c0,0,.11017-1.90874.19183-2.62286a5.6024,5.6024,0,0,1,.78251-2.0455s-.095-.43873-.14624-.811c0,0-.49573.14434-.433-1.132.06079-1.27631,1.01988-14.82747,1.03889-15.46562a3.52606,3.52606,0,0,1,.50138-1.48331,2.74125,2.74125,0,0,0,.0836-1.57259c-.0893-.88505.13674-3.865.13674-3.865S3.37878,56.14706,2.5811,55.10437A3.07924,3.07924,0,0,1,0,52.78349S.02847,51.48061.79578,46.29a118.74919,118.74919,0,0,0,1.56688-13.7297c.05318-3.62377,1.15286-14.9927,2.90967-16.22721l.07975-.11016a.2988.2988,0,0,0,.28679.13484c.28109-.02658.32476-.566.31721-.96671l.16711-.22982c.24311.23741.66284.58307.904.44063.24692-.14625-.02851-.92684-.21844-1.38455v-.0019l.095-.12725c.49952.41783,1.63717,1.29529,1.98285.96292.33427-.32287-.88318-1.69224-1.00281-1.82709.131.12916,1.34278,1.29529,1.69792.94013.29059-.29058-.7559-1.51179-1.24592-2.04929l.10827-.15s.0019-.0152.0076-.04369c.17282.15764.7559.5052.98.36466.24882-.15385-.16331-.74261-.44249-1.15285a1.18888,1.18888,0,0,0-.29249-.30008c.12153-.58876.03607-2.92485.03607-4.50882,0-1.62576.38936-1.63716.40076-1.63716a2.05392,2.05392,0,0,1,1.11294-1.96763C10.84285,1.06114,12.9643.80475,12.9643.80475c1.78148-2.16325,5.36539.71981,5.36539.71981A7.07593,7.07593,0,0,1,22.132,4.76468a2.187,2.187,0,0,1,.811,1.73022c.06835,1.05789-.42543.82428-.42543.82428A3.2613,3.2613,0,0,1,21.435,8.82529a2.16853,2.16853,0,0,1-.38746.81667l.13484.06648c.05128-.076.36654-.01709.29439.20512-.07219.22411-.59068,1.13576-.59068,1.13576a4.5843,4.5843,0,0,1,.18992.91544c-.55647.12154-.86987.44822-.86227.79388a.67849.67849,0,0,0,.0779.30388l.00186.0057.0038.0095a2.10341,2.10341,0,0,1,.03612.35326.34187.34187,0,0,1-.0076.09876v.0019a.79715.79715,0,0,1-.24692.39694.82289.82289,0,0,1-.10637.09116.43815.43815,0,0,1-.1614.36845l-.00381.00191a.41328.41328,0,0,0-.11587.08356h-.0019a1.067,1.067,0,0,0-.35134.2925,2.67475,2.67475,0,0,0-.09876.4919V15.26a1.68458,1.68458,0,0,1-.51849,1.06168.43552.43552,0,0,1-.05889.038c-.51089.33617-.87558.15954-1.40357.02469-.01137-.0019-.02087-.00569-.03228-.00759a5.00945,5.00945,0,0,0-.09116-.95153,8.43329,8.43329,0,0,0-.885-2.0303,11.85763,11.85763,0,0,1-.60775-1.14715s-.08741-.93063-.31911-.87935-.25827.37225-.25827.37225-.6078.18423-.17477,1.39405a7.58757,7.58757,0,0,1-.51469-.7426,19.06731,19.06731,0,0,0-1.18133-1.50991c-.21274-.2545-.961-1.05788-1.17372-.87176-.188.16144.95723,2.34178,1.23071,2.86027-.21844-.38364-.93252-1.64095-1.25162-2.093-.378-.53368-.74069-.7673-.94773-.64384-.19753.11965.94582,2.72352,1.03128,2.91724-.07785-.15764-.94582-1.89545-1.2858-1.95053-.34753-.05317.171,1.47572.19373,1.54789-.03227-.02469-.31336-.2469-.395-.18233a5.06287,5.06287,0,0,0,.93061,2.03411,4.06228,4.06228,0,0,0,1.13195,2.25821,6.9473,6.9473,0,0,1,1.73024,3.28c.2241.94774,1.15286,10.54846,4.21633,12.4515a8.321,8.321,0,0,0,1.96385,5.77754,1.549,1.549,0,0,1,.7578-.10446c.53365.09116,1.43014.81287,1.677.83376a6.32278,6.32278,0,0,1,1.25733,0c.24691.10257.566.36467.72553.37606A4.47531,4.47531,0,0,1,25.847,39.295a2.635,2.635,0,0,1,.71032.21651,8.48509,8.48509,0,0,1,1.40542-.942,8.56225,8.56225,0,0,1,1.77958-.26779c.28869.0038,1.05219.13864,1.32948.133.27923-.0038.37039.52989-.03608.73121a2.57073,2.57073,0,0,1-1.55548.34566,1.57157,1.57157,0,0,0,1.01422.45583c.68561.06837.961.04748,1.53647.09685.57738.04748,1.30481.19943,1.41493.58307.10071.34947-.82805.53369-.99711.566.15195-.0152.85467-.06838.97625.2583.13674.36275-.53561.7616-.86417.85086,0,0,.50713-.0057.70651-.0266C33.46863,42.27683,33.89025,42.5845,33.45342,42.96245Z"/>
  <g>
    <path class="cls-2" d="M8.0985,11.8584s.22216-.09876.31518.02466a.178.178,0,0,0,.03809.038c.17285.15759.75586.50519.98.36463.24878-.15387-.16333-.74262-.44263-1.15284a1.19,1.19,0,0,0-.29248-.30011,1.42556,1.42556,0,0,0-.83374-.27917.12618.12618,0,0,1-.02661.00189c-1.00855,0-2.15747,1.70935-2.15747,1.70935a5.44678,5.44678,0,0,0-.509,3.0445,2.26943,2.26943,0,0,0,.18238.91351.29854.29854,0,0,0,.28662.13489c.28125-.02661.325-.566.31738-.96674a4.27738,4.27738,0,0,0-.0249-.42926s.07617.0874.19189.19946c.24317.23737.66285.58307.90406.44062.24682-.14624-.02857-.92682-.21851-1.38459v-.00189c-.074-.17853-.13281-.30578-.14233-.33044.019.01709.10644.095.23755.20324.49951.41779,1.637,1.29529,1.98266.9629.33423-.32288-.88305-1.69227-1.00268-1.82709.13086.12915,1.34277,1.29529,1.69775.94012.29053-.29059-.75586-1.51178-1.24585-2.04925C8.19347,11.95715,8.0985,11.8584,8.0985,11.8584Z"/>
    <path class="cls-2" d="M38.95934,43.45435a3.42578,3.42578,0,0,0,.92309-2.89258c-.23559-.47479-1.75488-2.33039-1.30273-2.98938a3.1122,3.1122,0,0,0,.3435-1.75873c.65918.52228.8794,2.224.8794,2.224a4.1938,4.1938,0,0,0-1.2229-3.582,5.19261,5.19261,0,0,1-.71631-1.225,1.14267,1.14267,0,0,0,1.46826.29248.86921.86921,0,0,1-.98389-1.06543,2.63244,2.63244,0,0,0-.93823-2.57348c-.87549-.80341-.89453-1.24787-.89453-1.24787-.093-.66852.2146-.97809.14258-1.53265-.07227-.55652-.99732-1.16425-.99732-1.16425a1.865,1.865,0,0,0-.63989-1.63714.9944.9944,0,0,0-.12353-1.54413,2.58166,2.58166,0,0,1-.82227-1.225c.44238-.42352,1.33691-1.24591.60571-2.15375a3.63977,3.63977,0,0,1-.93237-2.27148c.03418-.48053.40454-1.64667-.10278-2.38165a4.09389,4.09389,0,0,1-.62476-1.5802,2.48767,2.48767,0,0,0-1.57251-2.00373.962.962,0,0,0-.7749-.51464c-.228-.45392-.51465-.36469-.51465-.36469a.51241.51241,0,0,0-.4541-.2868.417.417,0,0,0-.488-.21271.46089.46089,0,0,0-.50122-.19373.49578.49578,0,0,0-.48633-.24688c-.30957-.37793-.61718-.23359-.61718-.23359a.60084.60084,0,0,0-.7295-.15008c-.26025-.27539-.69311-.06836-.69311-.06836-1.25537-.82428-2.1062,1.22882-2.1062,1.22882a3.91128,3.91128,0,0,0-1.56494,1.29718c.165-.509-.16724-.547-.16724-.547.0874-.19177-.04566-.39123-.13867-.35894a7.30251,7.30251,0,0,0-.676,1.0465.72593.72593,0,0,0-.13867.38172,2.05032,2.05032,0,0,0-.321.04559c-.55639.12158-.86987.44824-.8623.79389a.67868.67868,0,0,0,.07788.30389l.002.00574.00367.00946a1.0891,1.0891,0,0,0,.302.35516.6469.6469,0,0,0-.27344.09686v.0019a.79735.79735,0,0,1-.24683.397,1.23721,1.23721,0,0,0-.00952.41022.55047.55047,0,0,0-.2583.04937l-.0039.0019a.41235.41235,0,0,0-.11573.08355h-.002a.68613.68613,0,0,0-.17676.41785,1.30307,1.30307,0,0,1-.27344.36658V15.26a1.68428,1.68428,0,0,1-.51855,1.06171.44491.44491,0,0,1-.05859.038,1.05628,1.05628,0,0,0,.655.88885,12.45631,12.45631,0,0,1,2.32861,3.52118c.06079.22791-.01148.78254.072,1.28772a8.0445,8.0445,0,0,0,.27734,1.08448s-.64575,1.05407-1.375,2.58679c-.20312-.48242-.52612-1.11109-.99316-2.06452a33.13024,33.13024,0,0,1-2.43115-6.05481c.01123-.30957.03784-.77111.03027-1.2326a5.00261,5.00261,0,0,0-.09106-.95154,8.43273,8.43273,0,0,0-.885-2.03027,11.827,11.827,0,0,1-.60791-1.14716s-.08741-.93066-.31909-.87939-.25806.37225-.25806.37225-.60791.18427-.17481,1.3941a7.56254,7.56254,0,0,1-.51464-.74261,19.13444,19.13444,0,0,0-1.1814-1.50995c-.21289-.25445-.96118-1.05786-1.17383-.87176-.188.1615.95728,2.34179,1.23071,2.86029-.2185-.38361-.93261-1.64093-1.25146-2.093-.37818-.53369-.74072-.76733-.94776-.64386-.19775.11969.94581,2.72351,1.03125,2.91724-.07788-.1576-.9458-1.89545-1.28588-1.9505-.34742-.05317.17089,1.4757.1936,1.54791-.03223-.02472-.31323-.24695-.395-.18237a5.06606,5.06606,0,0,0,.93066,2.03411,4.063,4.063,0,0,0,1.13208,2.25824,6.94652,6.94652,0,0,1,1.73023,3.28c.22412.94776,1.15283,10.54846,4.21631,12.45148A8.32154,8.32154,0,0,0,20.569,38.26752a1.54844,1.54844,0,0,1,.75782-.1045c.53369.09119,1.43017.81287,1.677.83381a6.31666,6.31666,0,0,1,1.25732,0c.24683.10254.56592.36462.72559.376A4.46835,4.46835,0,0,1,25.847,39.295a2.63523,2.63523,0,0,1,.71021.21649,8.4896,8.4896,0,0,1,1.40551-.942,8.56046,8.56046,0,0,1,1.77954-.26776c.28858.00378,1.05225.13861,1.32959.13293.27906-.00378.37012.52991-.03613.7312a2.571,2.571,0,0,1-1.55566.34564,1.57182,1.57182,0,0,0,1.0144.45588c.68555.06836.96094.04748,1.53638.0968.57739.04748,1.30469.19946,1.415.58313.10058.34942-.82813.53363-.99707.566.15185-.0152.85449-.06842.97607.2583.13672.36273-.53564.76159-.86426.85083,0,0,.50733-.00568.70655-.02661.20141-.019.623.28869.18628.66668a2.79021,2.79021,0,0,1-2.02271.585,1.80107,1.80107,0,0,0,.64942.207,3.51974,3.51974,0,0,1,.99145.11969c.24316.12726.27368.27729.22607.40833s-.28881.416-1.29345.36658c-1.00659-.04749-3.49073.39123-5.71485-.71033a3.14749,3.14749,0,0,1-1.76806,1.33514,14.43943,14.43943,0,0,1-2.1272-.74066,9.12743,9.12743,0,0,0-2.65137-.75781v.00189a45.24836,45.24836,0,0,0-.16333,6.3302c.19165,2.74445,1.01612,7.71478-2.82983,7.55145A9.67685,9.67685,0,0,1,16.6129,61.558a49.362,49.362,0,0,0-1.0979,8.04523,23.35619,23.35619,0,0,1-1.48315,6.39667,4.94855,4.94855,0,0,1,.10986,2.03223,5.7592,5.7592,0,0,1,.30224,3.00647c-.08374.82238-.2583,2.46142-.439,4.12329a2.58586,2.58586,0,0,1,.5166.14245,3.1336,3.1336,0,0,0,.67627,2.7843c4.02442-.03985,5.4148-1.35418,5.4148-1.35418l.15014,1.01422a8.24088,8.24088,0,0,0,3.543-.184c.0813-.01728.16138-.03394.24463-.05207-.00757.21845-.021.46344-.04053.67994a4.24421,4.24421,0,0,1-.0542.43872A38.71673,38.71673,0,0,1,22.714,92.143a1.0117,1.0117,0,0,1-.44287.24121s-.168-.42731-.28222-.46912c-.11206-.03986-1.20044.40076-1.20044.55835,0,.15955.33838.29443.33838.29443-2.39136.54694-2.44361,1.09583-2.39136,1.31238a8.12964,8.12964,0,0,0,4.85425,1.31616c2.21362-.20892,3.12426-2.74249,4.36328-3.32751,1.2373-.585,1.60669.057,1.56982.70276a11.01345,11.01345,0,0,1-.42724,1.88977l.95312.14435.16821-.16529a9.29083,9.29083,0,0,1-.07348-1.71881c.04052-1.01227,1.06909-1.79858,1.158-2.14044s.08886-.86414-.09473-.9895c-.18555-.12348-.49878.03607-.49878.03607a2.13732,2.13732,0,0,0-.84277-1.65045c.6997.11017,1.39575.20514,2.0144.26208.06006.00385.11987.00952.17774.0152l1.19873.0304h.00781a4.912,4.912,0,0,0,1.31445-.32288,4.15206,4.15206,0,0,0,.4292.226c.085.376.23584,1.06549.26489,1.38837a8.77463,8.77463,0,0,0,0,2.49371l-.06176.44635s-1.22193-.01715-1.4209.22028v1.21173a2.7718,2.7718,0,0,0,.80981-.2431s-.01538.25451.05811.27917c.07348.02661.26684-.06646.26684-.06646s-.06787,2.07971.20679,2.27532c.27466.19751,2.04346-.69134,3.03906-1.43774.99366-.74451,1.9043-1.60486,1.78247-3.06158-.11792-1.45484-.12573-2.26966-.12573-2.26966l.42163-.01324a.88106.88106,0,0,0,.29566-.642l-.23145-.56616a12.19327,12.19327,0,0,0,2.8457-.34113,6.37086,6.37086,0,0,0-.17456-2.129c1.75293-1.65423,4.30933.60016,7.61768-1.15478C44.73692,73.7,45.89366,48.85205,38.95934,43.45435Z"/>
  </g>
</svg>
