<svg id="Capa_1" data-name="Capa 1" xmlns="http://www.w3.org/2000/svg" viewBox="0 0 100 100"><defs><style>.cls-1{fill:#510414;}.cls-2{fill:#990e0e;}.cls-3{fill:#7f0a0a;}.cls-4{fill:none;stroke:#474242;stroke-miterlimit:10;stroke-width:2px;}.cls-5{fill:#d3d3d3;}.cls-6{fill:#afafaf;}.cls-7{fill:#fff;}.cls-8{fill:#e5e5e5;}</style></defs><path class="cls-1" d="M44.1062,21.13067l-5.88627,1.163-.12876.02536-.93351.18448h-.00038l-2.89433.57187a10.49491,10.49491,0,0,0-6.74484-6.45661,3.23389,3.23389,0,0,1,.03-.49308c.00347-.02729.00769-.05419.01229-.08109l.00538-.03113q.02424-.13893.06187-.27479l.01808-.06226c.00769-.02652.01576-.05265.0246-.07878l.02152-.06227q.0121-.03459.02535-.06918a3.0204,3.0204,0,0,1,.20217-.42314,3.49776,3.49776,0,0,1,3.23945-1.60108q.34413-.00231.70945.03075c4.0788.36472,9.80981,3.95082,12.19337,7.5892Z"/><path class="cls-2" d="M44.36716,21.07917l-.261.0515-.04459-.06879c-2.38356-3.63838-8.11457-7.22448-12.19337-7.5892q-.36492-.03287-.70945-.03075A3.49776,3.49776,0,0,0,27.91934,15.043a3.0204,3.0204,0,0,0-.20217.42314q-.01325.0346-.02535.06918l-.02152.06227c-.00884.02613-.01691.05226-.0246.07878l-.01808.06226q-.03746.136-.06187.27479l-.00538.03113c-.0046.0269-.00882.0538-.01229.08109a3.23389,3.23389,0,0,0-.03.49308c.038,2.54729,2.93045,5.4739,6.108,6.58266l-.46387.09148a10.8842,10.8842,0,0,1-1.711-.86242,10.13742,10.13742,0,0,1-3.44353-3.40509q-.06859-.11934-.131-.23789c-.02807-.05266-.05457-.10532-.08033-.158-.01306-.02652-.02575-.05265-.038-.07879-.025-.05265-.04881-.10531-.07187-.15757q-.05189-.1176-.09685-.23482c-.01383-.03574-.02729-.07148-.04-.10723-.02614-.07148-.05-.14258-.07224-.21369-.01115-.03535-.02153-.0707-.0319-.10606-.03074-.10608-.05765-.21138-.08-.31592-.0073-.035-.0146-.06994-.02113-.10453-.00615-.03152-.01154-.06341-.0169-.09493s-.01-.06264-.0146-.09416-.00847-.06265-.01231-.09377c-.0077-.06226-.01384-.12375-.01806-.18525v-.00153c-.00461-.06073-.00769-.12106-.00885-.181-.00192-.07033-.00154-.14027.00078-.20945.00115-.0346.00269-.0688.0046-.103V16.3474q.00979-.16371.03536-.32321l.00883-.05342q.01847-.10608.04382-.20984l.01308-.05188q.02707-.1032.06071-.20447l.0173-.05033c.02383-.06726.04958-.13337.07763-.19909l.02153-.04881a3.15806,3.15806,0,0,1,.1468-.28709c.0173-.02959.03459-.05918.053-.088.01808-.02921.03615-.05765.055-.08609.03689-.05649.07609-.11144.11683-.16487.02-.02652.04075-.053.06188-.07916.02075-.02576.04227-.05151.0638-.07687q.06513-.07552.13489-.14681A3.98653,3.98653,0,0,1,31.02773,13.196c.06-.00153.11914-.00268.17986-.00268.166,0,.33629.00614.50961.01806a16.41175,16.41175,0,0,1,7.246,2.764,21.51883,21.51883,0,0,1,3.2602,2.53921V18.515l.03727.03574q.40584.39086.76712.78786A12.48477,12.48477,0,0,1,44.36716,21.07917Z"/><path class="cls-3" d="M29.62994,23.98618l-3.20024-.11837V23.867l-.00383.00077L26.404,23.867v.00538l-2.54343.538a11.12453,11.12453,0,0,1-4.36436-2.80977c-2.48694-2.99233-.12453-5.97428,4.57227-7.25753a25.62762,25.62762,0,0,1,6.95776-1.14989l.00154.00268a3.98653,3.98653,0,0,0-2.83822,1.08149q-.06975.07148-.13489.14681c-.02153.02536-.04305.05111-.0638.07687-.02113.02613-.04189.05264-.06188.07916q-.06111.08014-.11683.16487c-.01882.02844-.03689.05688-.055.08609-.018.02883-.03535.05842-.05265.088-.05418.09378-.103.18947-.14718.28709l-.02153.04881c-.02805.06572-.0538.13183-.07763.19909l-.0173.05033q-.03342.10147-.06071.20447l-.01308.05188q-.0248.10434-.04382.20984l-.00883.05342c-.01652.10607-.02843.21407-.03536.32321v.00039c-.00191.0342-.00345.0684-.0046.103-.00232.06918-.0027.13912-.00078.20945.00153.06.00461.12029.00885.181v.00153c.0046.0615.01076.123.01806.18525.00384.03112.00769.06226.01231.09377s.00921.06265.0146.09416.01075.06341.0169.09493c.00653.03459.01383.06956.02113.10453q.034.15681.08.31592c.01037.03536.02075.07071.0319.10606q.03343.10666.07224.21369c.01269.03575.02615.07149.04.10723q.04554.117.09685.23482c.02306.05226.04687.10492.07187.15757.01229.02614.025.05227.038.07879q.03864.079.08033.158.06226.11874.131.23789a10.13742,10.13742,0,0,0,3.44353,3.40509,10.8842,10.8842,0,0,0,1.711.86242Z"/><path class="cls-4" d="M27.518,16.61857h-.00045"/><path class="cls-2" d="M48.74842,20.21329l-.04652.00923-.00077.00038-.19983.03959a51.76276,51.76276,0,0,0-.78709-7.44854q-.05593-.30552-.1153-.60915c-.01345-.06725-.02651-.13451-.04-.20176q-.07955-.39722-.166-.78557-.04149-.18906-.08531-.37662-.04323-.18678-.088-.372c-.01422-.0611-.02959-.1226-.045-.1837-.01423-.0588-.02882-.11684-.04382-.17487-.01614-.0638-.0319-.12721-.04841-.19024l-.04382-.16756-.00539-.02076-.00345-.01384c-.01423-.05149-.02768-.103-.04151-.15449-.01614-.05957-.03228-.118-.04881-.17717-.0146-.05457-.03-.10877-.04534-.16334-.03383-.12029-.06842-.23943-.103-.35781q-.05016-.17063-.10261-.339c-.03729-.12222-.07572-.24289-.11378-.362-.0119-.03728-.02381-.07379-.03611-.11068l-.00808-.025c-.01-.0315-.02074-.063-.03114-.09415l-.00268-.00769-.00653-.02c-.02729-.08032-.0542-.16026-.08148-.23982L46.39292,7.621c-.03923-.1126-.0788-.22406-.11954-.33436-.02036-.05727-.04151-.11376-.06264-.17026-.04189-.11337-.08456-.22482-.128-.33551A15.69663,15.69663,0,0,0,45.00628,4.531c-.02654-.0442-.05266-.088-.07917-.13144-.02652-.04305-.05266-.08608-.07955-.12835-.02192-.03537-.04382-.06957-.06611-.10378-.05651-.08724-.113-.17179-.171-.254-.01614-.02422-.03342-.04842-.05073-.07264a6.6985,6.6985,0,0,0-1.01807-1.15873l-.00038-.00038a3.298,3.298,0,0,0-2.90508-.89124c-2.8486.54919-3.69373,2.40085-3.467,4.774.32513,3.40816,2.86011,7.89128,4.84551,11.138.36165.59108.70446,1.14143,1.01308,1.63605q-.3603-.396-.76712-.78786L42.2234,18.515v-.00039q-.19138-.309-.39085-.63451l-.09993-.16334q-.16545-.27095-.33435-.55149c-.04076-.06726-.0811-.13491-.12184-.20294q-.0784-.13084-.15718-.26325-.05189-.087-.10378-.17525l-.03573-.06072q-.08591-.14585-.17257-.294-.20867-.35742-.41737-.72521-.09686-.17064-.19293-.34282-.07723-.13778-.15333-.27594-.12282-.222-.24367-.44659c-.04074-.07494-.08071-.14988-.12106-.22521-.03766-.07072-.075-.14142-.11261-.21214-.04228-.08033-.08454-.161-.126-.24136q-.0594-.11413-.118-.22828c-.03881-.0761-.078-.15258-.11644-.22906q-.05825-.11472-.1153-.22982-.05706-.11472-.11376-.23021c-.075-.15373-.1495-.30823-.22252-.46234q-.13605-.28767-.266-.5761c-.01807-.04-.03612-.08032-.0538-.12029-.0465-.10415-.09186-.20792-.13645-.31053q-.03285-.07725-.06571-.15335c-.04343-.10223-.08571-.2033-.12722-.304l-.0611-.15026q-.03057-.075-.05956-.14874-.08822-.22251-.16949-.44-.109-.29-.20447-.57071c-.015-.04343-.02958-.08687-.0442-.13029q-.0686-.20523-.12989-.40469-.02939-.0957-.05726-.18985c-.01884-.063-.03689-.12568-.05457-.18756q-.03864-.136-.07341-.269c-.00884-.03305-.0173-.06572-.02537-.09838-.01038-.03959-.02-.07879-.03-.118q-.05187-.21042-.09456-.41353c-.01036-.04843-.02036-.09608-.02957-.14374-.00961-.04727-.01847-.09454-.02729-.14143q-.01962-.10607-.03689-.21022-.0225-.13664-.04114-.27056l-.01152-.08917q-.01615-.12683-.02882-.25058l-.00117-.0123q-.008-.08647-.015-.17179l-.00462-.06533c-.00461-.06341-.00807-.12644-.01077-.1887-.00154-.02729-.00268-.05458-.00345-.08148l-.00231-.08224c-.00077-.02345-.00114-.0469-.00114-.06995-.0004-.03113-.00077-.06188-.00077-.09224V5.86427c0-.04651.00037-.09263.00153-.13836v-.0027c.00077-.04419.00231-.088.00423-.13143l.00114-.02536c.00117-.02807.0027-.05612.00462-.08379.00231-.048.00576-.0957.01-.14335l.00383-.04573c.00308-.03267.00615-.06495.00961-.09685l.0027-.02268c.00308-.0292.00653-.05842.01075-.08724l.0077-.05688c.00345-.02767.00767-.05573.01229-.0834l.01306-.0784.01385-.07725c.005-.02575.01-.05149.01537-.07686s.01075-.05073.01653-.07571c.00653-.03114.01383-.06226.0219-.093q.01038-.04554.02306-.08993l.00922-.03343c.00692-.02614.01422-.05227.02229-.078l.00576-.0196c.01077-.0369.02229-.073.0346-.10915.01115-.0342.023-.068.03536-.10146l.00767-.02037c.01154-.0319.02384-.06379.03613-.09493l.0027-.00615c.01383-.035.02843-.06994.04342-.10415.00845-.01922.01691-.03843.02575-.05726.0173-.03805.035-.07571.0538-.113l.02806-.05534c.01921-.03651.03882-.073.05881-.10877.01537-.0269.03074-.05342.0465-.07993s.0319-.05266.04842-.07879q.049-.07784.10223-.15257c.02383-.03306.048-.06573.07264-.09839a3.574,3.574,0,0,1,.324-.36742c.03843-.038.07762-.07494.118-.11145.02-.01807.04074-.03613.0611-.05381.02076-.01806.04151-.03574.06264-.053s.04228-.03459.0642-.0515c.01959-.01575.03918-.03075.05919-.04573.05956-.04573.12143-.08955.18484-.13221l.03614-.02383q.087-.05764.17871-.11106l.04342-.025q.07437-.04325.15219-.0834l.05765-.0292q.07266-.0369.14834-.07149l.04921-.02229c.0465-.02114.09377-.04151.14142-.06111.02653-.01076.05342-.02191.08071-.03227q.177-.06978.36625-.12953c.0273-.00883.05459-.01729.08225-.02537.02229-.00691.045-.01344.06765-.02l.05187-.01461c.02306-.00653.04612-.01306.06958-.01922.02728-.0073.05495-.0146.08262-.02152.0415-.01075.0834-.02076.12568-.03074.02843-.00692.05725-.01346.08608-.0196.03075-.00693.06187-.01346.093-.02.03652-.00768.073-.015.1103-.02229a3.54768,3.54768,0,0,1,.66181-.06418,3.23968,3.23968,0,0,1,.85319.11376c.02922.00768.05841.01614.08724.02459q.15276.04612.30246.10684c.04189.0173.08377.035.12568.05381.06994.03151.13913.06572.2083.10185l.00039.00038h.00038l.00037.00039a4.43258,4.43258,0,0,1,.794.54419c.06648.05573.1326.11491.19792.176A13.48642,13.48642,0,0,1,46.926,8.45267,47.16256,47.16256,0,0,1,48.74842,20.21329Z"/><path class="cls-1" d="M48.5013,20.26249l-3.00848.59416-.22059.04382-.90507.1787a12.48477,12.48477,0,0,0-1.33937-1.74059c-.30862-.49462-.65143-1.045-1.01308-1.63605C38.25566,5.92115,37.1692,6.5645,37.1692,6.5645c-.22677-2.37319.61836-4.22485,3.467-4.774a3.298,3.298,0,0,1,2.90508.89124l.00038.00038a6.6985,6.6985,0,0,1,1.01807,1.15873q.026.03633.05073.07264c.058.08224.11452.16679.171.254.02229.03421.04419.06841.06611.10378.02689.04227.053.0853.07955.12835.02651.04343.05263.08724.07917.13144a15.69663,15.69663,0,0,1,1.07648,2.24982c.04342.11069.08609.22214.128.33551.02113.0565.04228.113.06264.17026.04074.1103.08031.22176.11954.33436l.01574.04573c.02728.07956.05419.1595.08148.23982l.00653.02.00268.00769c.0104.03113.02115.06265.03114.09415l.00808.025c.0123.03689.02421.0734.03611.11068.03806.11915.07649.23982.11378.362q.05244.16833.10261.339c.03458.11838.06917.23752.103.35781.01537.05457.03074.10877.04534.16334.01653.05918.03267.1176.04881.17717.01345.0515.02728.10261.04151.15449l.00345.01384.00539.02076.04382.16756c.01651.063.03227.12644.04841.19024.015.058.02883.11607.04382.17487.01537.0611.03.1226.045.1837q.045.185.088.372.04324.18735.08531.37662.08591.388.166.78557c.01346.06725.02652.13451.04.20176q.05937.30324.1153.60915A51.76276,51.76276,0,0,1,48.5013,20.26249Z"/><path class="cls-3" d="M38.434,11.62374a59.74542,59.74542,0,0,0,3.78924,6.891,21.49914,21.49914,0,0,0-3.26016-2.53944,16.40947,16.40947,0,0,0-7.24588-2.7639c-1.03451-1.82437-2.03049-4.2286-1.785-6.43894.48137-4.33229,5.33879-4.59486,8.402-5.47007,3.02649-.8647,4.46008.547,4.49422.58114a3.33927,3.33927,0,0,0-1.57758-.40128,3.53306,3.53306,0,0,0-.66166.06433A4.20294,4.20294,0,0,0,37.256,3.88818a6.1281,6.1281,0,0,0-.2118,3.56125A19.14075,19.14075,0,0,0,38.434,11.62374Z"/><path class="cls-1" d="M72.4822,16.61873a10.49382,10.49382,0,0,0-6.74447,6.457l-2.8951-.57225h-.00037l-.93352-.18448-.12913-.02536-5.88551-1.163c.0146-.02267.0296-.04574.045-.06879,2.38241-3.63838,8.11417-7.22448,12.193-7.5892q.36434-.03287.70907-.03075A3.49805,3.49805,0,0,1,72.081,15.043,3.02112,3.02112,0,0,1,72.4822,16.61873Z"/><path class="cls-2" d="M80.50375,21.6007a11.127,11.127,0,0,1-4.364,2.80977l-2.54382-.538V23.867l-.0219.00077-.00347-.00077v.00077l-.633.02344h-.00039L70.37,23.98618l-3.53231-.69331a10.88836,10.88836,0,0,0,1.7114-.86242,10.14063,10.14063,0,0,0,3.4435-3.40509,4.028,4.028,0,0,0,.30324-4.1061,3.69552,3.69552,0,0,0-3.32324-1.7233l.00116-.00268a25.63087,25.63087,0,0,1,6.95814,1.14989C80.62865,15.62642,82.99069,18.60837,80.50375,21.6007Z"/><path class="cls-4" d="M72.48254,16.61857h-.00047"/><path class="cls-3" d="M71.99256,19.02536a10.14063,10.14063,0,0,1-3.4435,3.40509,10.88836,10.88836,0,0,1-1.7114.86242l-.46349-.09148c3.17718-1.10838,6.07-4.03537,6.108-6.58266A3.02112,3.02112,0,0,0,72.081,15.043a3.49805,3.49805,0,0,0-3.23984-1.60108q-.34415-.00231-.70907.03075c-4.07882.36472-9.81058,3.95082-12.193,7.5892-.01537.02305-.03037.04612-.045.06879l-.261-.0515a12.48083,12.48083,0,0,1,1.33936-1.74059l.00077-.00116c.06-.06571.12106-.13143.18218-.19638.06224-.0661.12528-.13182.18908-.19793.12759-.13144.25979-.2621.39508-.39239l.03728-.03574v-.00039a21.4985,21.4985,0,0,1,3.26021-2.53921,16.41031,16.41031,0,0,1,7.2456-2.764c.17332-.01192.34359-.01806.50961-.01806.06072,0,.12068.00115.18024.00268a3.69552,3.69552,0,0,1,3.32324,1.7233A4.028,4.028,0,0,1,71.99256,19.02536Z"/><path class="cls-3" d="M62.956,7.44959a19.14252,19.14252,0,0,1-1.39009,4.17412c-.02691.06072-.05419.12183-.08225.18255-.025.05495-.05034.11069-.0757.16564q-.11934.26173-.24481.52153c-.02768.058-.05574.11568-.08379.17371-.02806.05765-.05611.11492-.08454.17256q-.20005.40872-.41046.81246c-.04727.09185-.09532.18332-.14336.27478q-.05935.11358-.11991.226c-.04.07532-.07994.15065-.12068.22559q-.12164.22426-.244.44659c-.05074.09261-.10186.18447-.15335.27632q-.2306.41277-.4635.81477-.12338.21387-.2471.42467c-.03076.05227-.0615.10492-.09263.1568-.03036.05266-.0615.10454-.09223.15643q-.215.36259-.42661.71138-.12106.19945-.23943.39393-.23751.38854-.46464.75518V18.515l-.03728.03574c-.13529.13029-.26749.261-.39508.39239-.0638.06611-.12684.13183-.18908.19793-.06189.06495-.12262.13067-.18218.19638l-.00077.00116h-.00039c.05765-.09262.11683-.18755.17718-.284s.12183-.19486.1837-.29516c.04151-.06649.08379-.13451.12607-.20254q.25481-.41046.52651-.85434.18619-.30439.37817-.62261.0957-.15911.19255-.32129c.06418-.10761.12913-.21715.19409-.32706q.049-.08243.0976-.16564.14643-.24963.294-.50462.1476-.25537.29479-.51537c.06495-.11568.13066-.23214.19561-.349,1.52922-2.74676,2.96005-5.82978,3.19871-8.33248a5.4938,5.4938,0,0,0-.20331-2.28979c-.01845-.05342-.03766-.10646-.05842-.15911-.03036-.078-.06378-.15488-.09953-.23059-.01192-.02537-.02421-.05035-.03689-.07456-.025-.04958-.05112-.09877-.07841-.14681-.01345-.02383-.02728-.048-.0419-.07187-.02151-.03574-.04342-.07071-.06647-.10569-.02269-.035-.04612-.06918-.07033-.10338-.01653-.02268-.03267-.045-.04958-.06726-.03344-.04458-.06842-.08839-.10415-.13182a4.39349,4.39349,0,0,0-2.658-1.39316c-5.08687-.98079-7.60649,10.27022-7.86513,18.472l-.19986-.03959-.00114-.00038-.04613-.00923A47.16258,47.16258,0,0,1,53.07433,8.45267,16.32233,16.32233,0,0,1,55.378,3.508,5.5587,5.5587,0,0,1,57.1712,1.88385l.0004-.00039a3.34154,3.34154,0,0,1,1.57763-.40123,3.55055,3.55055,0,0,1,.66179.06418,4.20422,4.20422,0,0,1,3.33324,2.34167A6.1326,6.1326,0,0,1,62.956,7.44959Z"/><path class="cls-1" d="M62.83111,6.5645s-1.08648-.64335-4.84553,11.138q-.27093.44331-.52651.85434c-.04228.068-.08456.13605-.12607.20254q-.0928.15045-.1837.29516c-.06035.09646-.11953.19139-.17718.284h.00039a12.48083,12.48083,0,0,0-1.33936,1.74059l-.90507-.1787-.221-.04382L51.499,20.26249c.25864-8.20181,2.77826-19.45282,7.86513-18.472a4.39349,4.39349,0,0,1,2.658,1.39316c.03573.04343.07071.08724.10415.13182.01691.0223.03305.04458.04958.06726.02421.0342.04764.06841.07033.10338.023.035.045.06995.06647.10569.01462.02383.02845.048.0419.07187.02729.048.05343.09723.07841.14681.01268.02421.025.04919.03689.07456.03575.07571.06917.15258.09953.23059.02076.05265.04.10569.05842.15911A5.4938,5.4938,0,0,1,62.83111,6.5645Z"/><path class="cls-4" d="M57.14931,19.05472c-.0595.09583-.11859.19036-.17589.28269l-.00088.00132h-.00045C57.02987,19.246,57.08893,19.151,57.14931,19.05472Z"/><path class="cls-2" d="M68.2829,13.21138A16.40913,16.40913,0,0,0,61.037,15.97529a21.49733,21.49733,0,0,0-3.26016,2.53943q.22711-.36629.46474-.75531.11882-.19431.23936-.39384.21136-.34856.42666-.71155c.03064-.05164.06171-.10372.09233-.15623.03107-.05207.06171-.10458.09235-.1571q.124-.21.24724-.42448.23238-.40105.46342-.81481.07748-.13785.15361-.27613.12276-.22254.24374-.4468.06106-.11225.12079-.22537c.04026-.07527.08051-.15054.11989-.22624.04814-.09146.09629-.18292.14353-.27482q.20942-.40368.41049-.8122c.02844-.05775.05645-.11508.08446-.17285.02845-.05777.05644-.116.08357-.17373q.12539-.25993.24507-.52118c.02538-.05514.05077-.11072.0757-.16586.028-.06082.05515-.12165.08227-.18248a19.142,19.142,0,0,0,1.38984-4.17432,6.12811,6.12811,0,0,0-.21181-3.56123,4.20287,4.20287,0,0,0-3.33324-2.34163,3.5319,3.5319,0,0,0-.66165-.06434,3.33906,3.33906,0,0,0-1.57758.4013c.03413-.03414,1.46773-1.44586,4.49422-.58115,3.06324.87521,7.92067,1.13778,8.402,5.47007C70.31338,8.98279,69.3174,11.387,68.2829,13.21138Z"/><path class="cls-3" d="M50.24688,12.82586c-.18754,2.01462-.29017,5.3636-.33436,7.15761l-.22789.045-.02153.00422c.04228-1.72522.14566-5.178.337-7.22986a35.54061,35.54061,0,0,0,.10914-4.09994C50.01244,5.44151,49.44827,1.66824,47.63.8162c-2.73253-1.28133-3.809,1.78786-3.809,1.78786-.06532-.06111-.13144-.12029-.19792-.176A3.3583,3.3583,0,0,1,46.03588.27623a2.39544,2.39544,0,0,1,.32436-.02114,3.255,3.255,0,0,1,1.37587.33666c1.26749.59416,2.09147,2.48311,2.44928,5.613A35.239,35.239,0,0,1,50.24688,12.82586Z"/><path class="cls-1" d="M49.08238,14.1118c-.03459,2.79556.00538,4.854.0419,6.02732l-.20484.04036-.171.03381A47.16256,47.16256,0,0,0,46.926,8.45267,13.48642,13.48642,0,0,0,43.821,2.60406S44.89751-.46513,47.63.8162c1.81823.852,2.3824,4.62531,2.47925,7.88666C50.10929,8.70286,49.13928,9.55682,49.08238,14.1118Z"/><path class="cls-2" d="M55.378,3.508a16.32233,16.32233,0,0,0-2.30364,4.94468,47.16258,47.16258,0,0,0-1.82245,11.76062l-.1714-.03381-1.08033-.2133-.08763.01729c.04419-1.794.14682-5.143.33436-7.15761a35.239,35.239,0,0,0-.06149-6.62109c-.35781-3.12991-1.18179-5.01886-2.44928-5.613A3.255,3.255,0,0,0,46.36024.25509a2.39544,2.39544,0,0,0-.32436.02114A3.90981,3.90981,0,0,1,48.59852.12365C50.39215.48223,53.54205.92343,55.378,3.508Z"/><polygon class="cls-5" points="50 42.903 50 100 2.126 100 2.126 49.414 17.328 47.346 26.404 46.112 26.43 46.109 27.063 46.022 50 42.903"/><polygon class="cls-6" points="2.126 50.916 2.126 50.173 50 43.662 50 42.903 -0.008 49.704 2.126 50.916"/><polygon class="cls-1" points="26.404 24.623 26.404 23.867 29.63 23.986 26.404 24.623"/><polygon class="cls-7" points="100.008 29.847 100.008 49.705 50 42.903 50 19.966 51.081 20.179 51.298 20.223 51.299 20.223 54.507 20.857 54.728 20.9 61.78 22.294 61.909 22.319 62.842 22.503 100.008 29.847"/><polygon class="cls-5" points="-0.008 29.847 -0.008 49.705 50 42.903 50 19.966 48.919 20.179 48.702 20.223 48.701 20.223 45.493 20.857 45.272 20.9 38.22 22.294 38.091 22.319 37.157 22.503 -0.008 29.847"/><polygon class="cls-8" points="72.937 46.781 72.937 100 69.312 100 69.312 49.922 50 47.296 50 43.662 72.937 46.781"/><polygon class="cls-7" points="50 47.296 69.312 49.922 69.312 100 50 100 50 47.296"/><polygon class="cls-8" points="97.874 50.173 97.874 53.969 82.672 51.902 82.672 48.105 97.874 50.173"/><polygon class="cls-7" points="97.874 49.414 97.874 50.173 82.672 48.105 82.672 51.902 97.874 53.969 97.874 100 72.937 100 72.937 46.781 50 43.662 50 42.903 72.937 46.022 73.571 46.109 73.596 46.112 82.672 47.346 97.874 49.414"/><polygon class="cls-6" points="97.874 50.916 97.874 50.173 82.672 48.105 73.596 46.871 73.571 46.868 72.937 46.781 50 43.662 50 42.903 72.937 46.022 72.937 46.023 73.571 46.109 73.596 46.112 82.672 47.347 97.874 49.414 100.008 49.705 97.874 50.916"/><polygon class="cls-2" points="82.672 25.792 82.672 100 73.571 100 73.571 23.867 73.574 23.868 73.579 23.869 73.579 23.869 73.596 23.872 82.672 25.792"/><polygon class="cls-1" points="73.596 24.623 73.596 23.867 70.37 23.986 73.596 24.623"/><polygon class="cls-1" points="73.596 23.868 73.596 100 72.937 100 72.937 23.891 72.997 23.889 73.571 23.869 73.579 23.869 73.596 23.868"/><polygon class="cls-3" points="26.43 100 17.328 100 17.328 25.792 26.43 23.867 26.43 100"/><polygon class="cls-1" points="27.063 23.891 26.404 23.868 26.404 100 27.063 100 27.063 23.891"/></svg>