<svg xmlns="http://www.w3.org/2000/svg" viewBox="0 0 99.99271 100"><defs><style>.cls-1{fill:#b28c6d;}.cls-2{fill:#c19b76;}.cls-3{fill:none;stroke:#474242;stroke-miterlimit:10;stroke-width:2px;}.cls-4{fill:#d5b88f;}.cls-5{fill:#d3d3d3;}.cls-6{fill:#afafaf;}.cls-7{fill:#fff;}.cls-8{fill:#e5e5e5;}</style></defs><g id="Capa_2" data-name="Capa 2"><g id="Capa_1-2" data-name="Capa 1"><path class="cls-1" d="M44.10393,21.149,38.219,22.31177l-.12873.02535-.93329.18444h-.00039L34.263,23.0933a10.49248,10.49248,0,0,0-6.74327-6.45511,3.23276,3.23276,0,0,1,.03-.493c.00347-.02729.00769-.05418.01229-.08107l.00538-.03113q.02423-.1389.06185-.27472l.01808-.06225c.00769-.02651.01576-.05264.02459-.07876l.02152-.06226q.01211-.03457.02534-.06916a3.01924,3.01924,0,0,1,.20213-.423,3.497,3.497,0,0,1,3.23869-1.60071q.34405-.00231.70929.03075c4.07785.36463,9.80752,3.94989,12.19053,7.58743Z"/><path class="cls-2" d="M29.631,24.00388l-3.1995-.11834v-.00081l-.00383.00077-.02186-.00077v.00538L23.863,24.428a11.12187,11.12187,0,0,1-4.36334-2.80912c-2.48637-2.99163-.12451-5.97289,4.5712-7.25584A25.62152,25.62152,0,0,1,31.027,13.21341l.00154.00268A3.98559,3.98559,0,0,0,28.191,14.29733q-.06973.07146-.13486.14677c-.02152.02536-.043.0511-.06379.07685-.02112.02613-.04187.05263-.06186.07915q-.06109.08012-.1168.16483c-.01882.02843-.03689.05686-.055.08607-.018.02882-.03534.0584-.05264.088q-.08126.14063-.14715.287l-.02152.0488c-.028.0657-.05379.1318-.07761.199l-.0173.05032q-.0334.10145-.0607.20442l-.01307.05187q-.0248.10431-.04381.20979l-.00883.05341c-.01651.106-.02842.214-.03535.32313v.00039c-.00191.03419-.00345.06839-.0046.103-.00232.06916-.0027.13909-.00078.2094.00153.06.00461.12026.00885.181V16.862c.0046.06148.01075.123.01805.1852.00384.03112.00769.06225.01231.09375s.00921.06264.0146.09414.01075.06339.01689.09491c.00653.03458.01383.06954.02113.1045q.034.15678.08.31585c.01037.03535.02074.07069.03189.106q.03342.10665.07223.21364c.01268.03575.02614.07148.04.10721q.04553.117.09683.23476c.02305.05225.04685.1049.07185.15754.01229.02613.025.05226.038.07877q.03864.079.08031.158.06225.11872.131.23784a10.1351,10.1351,0,0,0,3.44273,3.40429,10.88083,10.88083,0,0,0,1.7106.86222Z"/><path class="cls-3" d="M27.51959,16.638h-.00045"/><path class="cls-1" d="M48.498,20.28106l-3.00778.594-.22053.04381-.90486.17866a12.48216,12.48216,0,0,0-1.33906-1.74018c-.30855-.49451-.65128-1.04476-1.01285-1.63567C38.25475,5.94306,37.16854,6.58626,37.16854,6.58626c-.22671-2.37264.61822-4.22386,3.46619-4.77289a3.29724,3.29724,0,0,1,2.90441.891l.00038.00038a6.69694,6.69694,0,0,1,1.01783,1.15846q.026.03632.05072.07262c.058.08222.11449.16675.171.25394.02229.0342.04418.06839.0661.10376.02688.04226.053.08528.07953.12832.0265.04342.05262.08722.07915.13141A15.69211,15.69211,0,0,1,46.08,6.80259c.04341.11067.08607.22209.128.33543.02112.05649.04227.113.06263.17022.04073.11028.08029.22171.11951.33429l.01573.04572c.02728.07954.05418.15946.08146.23976l.00653.02.00268.00769c.0104.03113.02115.06264.03114.09413l.00807.025c.0123.03689.02421.07339.03611.11066.03805.11912.07647.23976.11375.36191q.05242.1683.10259.33892c.03457.11836.06915.23747.103.35773.01537.05456.03074.10875.04533.1633.01653.05917.03267.11758.0488.17713.01345.05149.02728.10259.0415.15446l.00345.01383.00539.02076.04381.16752c.01651.063.03226.12641.0484.19019.015.058.02882.116.04381.17483.01536.06109.03.12257.045.18366q.045.18495.088.37191.04323.18731.08529.37653.08589.38792.166.78539c.01345.06724.02651.13448.04.20171q.05935.30318.11527.609A51.74957,51.74957,0,0,1,48.498,20.28106Z"/><path class="cls-2" d="M38.433,11.64432a59.73442,59.73442,0,0,0,3.78836,6.8894,21.494,21.494,0,0,0-3.2594-2.53885,16.40569,16.40569,0,0,0-7.24419-2.76326c-1.03427-1.82394-2.03-4.22761-1.78459-6.43744.48126-4.33128,5.33755-4.59379,8.40005-5.46879,3.02578-.8645,4.459.54687,4.49317.581a3.33845,3.33845,0,0,0-1.57721-.40118,3.53245,3.53245,0,0,0-.66151.06431,4.202,4.202,0,0,0-3.3324,2.34106A6.12669,6.12669,0,0,0,37.04357,7.471,19.13662,19.13662,0,0,0,38.433,11.64432Z"/><path class="cls-2" d="M72.47332,16.63815a10.49136,10.49136,0,0,0-6.7429,6.4555L62.836,22.52153h-.00037l-.9333-.18444-.1291-.02535L55.88908,21.149c.0146-.02267.02959-.04573.045-.06878,2.38185-3.63753,8.11228-7.22279,12.19016-7.58743q.36426-.03286.7089-.03074a3.49722,3.49722,0,0,1,3.23908,1.60073A3.02048,3.02048,0,0,1,72.47332,16.63815Z"/><path class="cls-4" d="M80.493,21.619a11.12441,11.12441,0,0,1-4.363,2.80912l-2.54323-.53788v-.00547l-.02189.00077-.00347-.00077v.00077l-.63286.02344h-.00039l-2.56657.09494-3.53149-.69314a10.8867,10.8867,0,0,0,1.711-.86222,10.13831,10.13831,0,0,0,3.44269-3.4043,4.027,4.027,0,0,0,.30317-4.10514,3.69464,3.69464,0,0,0-3.32247-1.7229l.00116-.00268a25.62506,25.62506,0,0,1,6.95652,1.14962C80.61787,15.64607,82.97936,18.62733,80.493,21.619Z"/><path class="cls-3" d="M72.47365,16.638h-.00047"/><path class="cls-2" d="M62.82447,6.58626s-1.08622-.6432-4.8444,11.13541q-.27087.44321-.52639.85414c-.04226.068-.08454.136-.126.20249q-.09279.15042-.18366.29509c-.06034.09644-.1195.19135-.17714.28394h.00039a12.47709,12.47709,0,0,0-1.33905,1.74018l-.90486-.17866-.22095-.04381-3.00738-.594c.25858-8.1999,2.77762-19.44829,7.8633-18.4677A4.39249,4.39249,0,0,1,62.01569,3.2062c.03572.04342.07069.08722.10412.13179.01691.02229.033.04457.04957.06724.0242.03419.04763.0684.07031.10336.023.035.045.06993.06646.10566.01462.02383.02844.048.04189.07186.02728.048.05342.0972.07839.14677.01268.02421.025.04918.03688.07454.03575.0757.06915.15255.09951.23054.02075.05264.04.10567.0584.15907A5.49247,5.49247,0,0,1,62.82447,6.58626Z"/><path class="cls-4" d="M68.275,13.23159a16.40542,16.40542,0,0,0-7.24421,2.76327,21.49283,21.49283,0,0,0-3.2594,2.53884q.22707-.36621.46463-.75513.1188-.19426.23931-.39375.21131-.34848.42656-.71139c.03063-.05163.06169-.10369.09231-.15619.03106-.05206.06169-.10456.09233-.15707q.124-.20994.24718-.42438.23232-.401.46331-.81462.07746-.13782.15357-.27606.12274-.2225.24369-.4467.061-.11223.12076-.22532c.04025-.07525.08049-.1505.11986-.22619.04813-.09143.09627-.18287.1435-.27475q.20936-.40359.41039-.812c.02843-.05774.05644-.11505.08444-.17281.02844-.05776.05643-.116.08355-.17369q.12537-.25988.245-.52106c.02538-.05513.05076-.11069.07569-.16582.028-.06081.05513-.12162.08225-.18244A19.13743,19.13743,0,0,0,62.94923,7.471a6.12655,6.12655,0,0,0-.21176-3.5604A4.20188,4.20188,0,0,0,59.405,1.56949a3.53153,3.53153,0,0,0-.6615-.06433,3.33834,3.33834,0,0,0-1.57721.40121c.03412-.03413,1.46739-1.44552,4.49317-.581,3.06253.875,7.91883,1.13751,8.40005,5.46879C70.305,9.004,69.30925,11.40764,68.275,13.23159Z"/><path class="cls-2" d="M49.07894,14.1318c-.03458,2.79491.00538,4.85287.0419,6.02592l-.2048.04035-.171.0338A47.15168,47.15168,0,0,0,46.92307,8.474a13.48326,13.48326,0,0,0-3.10428-5.84725S44.89505-.44173,47.62691.8393c1.8178.8518,2.38184,4.62423,2.47867,7.88482C50.10562,8.72412,49.13583,9.57788,49.07894,14.1318Z"/><path class="cls-4" d="M55.3731,3.53047A16.31862,16.31862,0,0,0,53.07,8.474a47.1517,47.1517,0,0,0-1.822,11.75788l-.17136-.0338-1.08007-.21325-.08761.01729c.04417-1.79359.14678-5.1418.33428-7.15595a35.23081,35.23081,0,0,0-.06148-6.61954C49.824,3.09745,49.00022,1.20894,47.733.61493A3.25438,3.25438,0,0,0,46.35744.27832a2.39557,2.39557,0,0,0-.32428.02114,3.90888,3.90888,0,0,1,2.562-.15255C50.38841.50541,53.53758.94651,55.3731,3.53047Z"/><path class="cls-1" d="M66.15079,23.23431l.19722-.06883c3.30978-1.15451,6.03278-4.083,6.0689-6.52826a2.96487,2.96487,0,0,0-.39346-1.546,3.42449,3.42449,0,0,0-2.89679-1.58459c-.09568,0-.19234.00391-.289.0122-.26264,0-.48231.01026-.70882.03076-4.0723.36417-9.74871,3.89753-12.14659,7.56171l-.02148.03173-.082.06151-.26166-.05125a8.11408,8.11408,0,0,1,1.30829-1.83454l.373-.39639c.1279-.1318.26068-.26312.39639-.39346A21.69106,21.69106,0,0,1,61.00063,15.947a16.51926,16.51926,0,0,1,7.26686-2.77133c.17769-.01269.34952-.01855.51648-.01855l.1816.00244c.06248-.00341.1279-.00537.19331-.00537a3.7331,3.7331,0,0,1,3.176,1.75448,4.08274,4.08274,0,0,1-.30462,4.16846,10.2337,10.2337,0,0,1-3.46013,3.4201,10.98923,10.98923,0,0,1-1.71933.8665l-.01464.00634Z"/><path class="cls-1" d="M51.23727,20.28773l-.04588-.0576A47.263,47.263,0,0,1,53.01518,8.45846a16.34692,16.34692,0,0,1,2.311-4.96027,5.66935,5.66935,0,0,1,1.8111-1.64073,3.41344,3.41344,0,0,1,1.60607-.40909,3.65325,3.65325,0,0,1,.67269.06542,4.23452,4.23452,0,0,1,3.37226,2.372,6.16487,6.16487,0,0,1,.21577,3.59878,19.19016,19.19016,0,0,1-1.39323,4.18359l-.15719.34806c-.08.17477-.39932.83965-.39932.83965-.1484.30169-.28509.57311-.42665.84258l-.3837.72737-.39737.72346c-.15329.27484-.56823.99489-.56823.99489l-.75373,1.26972-.70491,1.14964c-.18063.17671-.31341.30705-.43936.43788l-.37.393-.18159.09031.08982-.15768L57.931,17.69215l.8621-1.43521.784-1.36785c1.94779-3.4987,2.99149-6.21633,3.19066-8.30812a5.40022,5.40022,0,0,0-.20015-2.26754L62.51,4.15819c-.03027-.07615-.06249-.15231-.09763-.22651-.06151-.12253-.0869-.17086-.11326-.21723l-.10642-.17477-.06932-.102-.15133-.19478a4.33669,4.33669,0,0,0-2.62146-1.37322,3.21351,3.21351,0,0,0-.60728-.05955c-4.81431,0-6.96615,11.33085-7.19169,18.47274l-.002.06639Z"/><path class="cls-1" d="M49.60289,20.05c.0454-1.836.14889-5.21754.33684-7.2322A35.6656,35.6656,0,0,0,50.04907,8.726c-.07566-2.53359-.49353-6.92076-2.4462-7.83558A2.95063,2.95063,0,0,0,46.35658.58334c-1.73935,0-2.47745,2.04152-2.48429,2.062a.60514.60514,0,0,1-.288-.15133,3.31053,3.31053,0,0,1,2.436-2.25,2.49867,2.49867,0,0,1,.33732-.02245A3.33136,3.33136,0,0,1,47.7581.5643c1.28486.60191,2.11963,2.50528,2.4799,5.65591A35.44077,35.44077,0,0,1,50.3,12.851c-.18794,2.0176-.29,5.34739-.33439,7.15263l-.27386.0991-.06932.01367Z"/><path class="cls-4" d="M33.14139,23.36368a10.96985,10.96985,0,0,1-1.71932-.867A10.23,10.23,0,0,1,27.961,19.07415l-.13327-.24164-.08055-.15915-.11081-.23822c-.03515-.07957-.13864-.3466-.13864-.3466-.02636-.07127-.105-.32268-.105-.32268-.03124-.1074-.05858-.21333-.081-.31975l-.02148-.10544.02441-.19966-.05614.00878c-.02051-.15865-.02685-.22114-.03076-.28411l-.00927-.18453c-.002-.07127.00537-.31731.00537-.31731q.01025-.16695.03612-.329c.02148-.12595.03661-.19722.0537-.268.03124-.12253.05223-.19185.07518-.26069.04149-.1196.06785-.18648.09617-.25335a3.502,3.502,0,0,1,.17134-.34221l.10984-.17672c.03759-.0576.07762-.11325.11862-.16793l.12742-.15719c.0454-.05272.0908-.103.13815-.15084a4.02775,4.02775,0,0,1,2.77084-1.09984l.287-.001q.25116,0,.51355.01806a16.543,16.543,0,0,1,7.27272,2.7728,21.64463,21.64463,0,0,1,3.26633,2.54481c.30852.2973.5653.56091.80694.82647a12.57171,12.57171,0,0,1,1.3449,1.74813l-.29827.13717-.03759.00733-.06541-.101c-2.39983-3.6637-8.07673-7.19755-12.14756-7.56123q-.33976-.03075-.66147-.03076c-.1445-.00829-.24067-.0122-.33683-.0122a3.42356,3.42356,0,0,0-2.89679,1.587,2.96515,2.96515,0,0,0-.19722.4125l-.09959.11131.0537.01806L27.629,15.758l.05468.01513c-.02441.08885-.04442.17916-.06053.26947l-.07372.10252.05614.00781a3.21414,3.21414,0,0,0-.02929.48426c.03662,2.44474,2.75913,5.37326,6.06841,6.52826l.19673.06883L33.157,23.37Z"/><path class="cls-4" d="M48.44154,20.28285a51.88611,51.88611,0,0,0-.786-7.43821l-.15524-.81035c-.05321-.26361-.10837-.52576-.16549-.784l-.31-1.29462-.17184-.638-.22163-.75324-.11276-.35978.01708-.12985-.0537.01806.01465-.13717-.05321.02-.27923-.79278-.13718-.35978a15.65759,15.65759,0,0,0-1.072-2.24167l-.0786-.13034-.03124-.15768-.04784.03027s-.17818-.27337-.23579-.35539a6.87353,6.87353,0,0,0-1.0603-1.22139A3.24361,3.24361,0,0,0,40.645,1.86917c-2.52139.48573-3.67249,2.0713-3.42011,4.7118.32073,3.3625,2.75327,7.70426,4.83628,11.11069.36173.59117.70443,1.14134,1.01295,1.63585l-.09031.06785q-.35881-.39468-.76447-.785l-.537-.84453L40.998,16.62794l-.01953-.14547-.04881.0288s-.45156-.77423-.59069-1.01978l-.34659-.619-.69662-1.30633-.33147-.658-.26214-.54333c-.0908-.19185-.32024-.6976-.32024-.6976l-.39151-.91921-.22944-.5902c-.07274-.1938-.14157-.38468-.205-.57262l-.26166-.82744L37.14,8.18362c-.03466-.14157-.12448-.5609-.12448-.5609l-.06444-.35246-.04149-.27191L36.869,6.65663l-.0166-.185-.01513-.25629.05077-.166-.05663.00244-.00049-.3051.02-.39054.02734-.25531.04735-.29876.03222-.15523L37.0355,4.35l.07665-.23334.0908-.22846.081-.1733.08885-.16745.09568-.16011c.03319-.05322.06785-.105.10447-.15573l.07371-.0991a3.51219,3.51219,0,0,1,.32854-.37345l.12155-.11472.125-.10788.12448-.09763c.06005-.04638.123-.0908.18746-.13425.09471-.063.15573-.10056.21821-.13669l.19771-.10984.20845-.102.19234-.084c.20063-.07957.32414-.1235.45155-.16353l.27337-.07957.34807-.084.15377-.03124a3.64705,3.64705,0,0,1,.67172-.06542,3.31261,3.31261,0,0,1,.86845.1157,4.0384,4.0384,0,0,1,.39639.13376l.12741.05467c.07079.03173.14108.06639.21138.103a4.51947,4.51947,0,0,1,.80548.55211c.06639.05663.13375.11619.19966.1777A13.58616,13.58616,0,0,1,46.978,8.46041a47.22769,47.22769,0,0,1,1.8238,11.77021l.00146.04833-.35978.07078Z"/><polygon class="cls-5" points="49.996 42.916 49.996 100 2.134 100 2.134 49.426 17.332 47.358 26.406 46.125 26.432 46.122 27.065 46.035 49.996 42.916"/><polygon class="cls-6" points="2.134 50.927 2.134 50.185 49.996 43.675 49.996 42.916 0 49.716 2.134 50.927"/><polygon class="cls-4" points="26.406 24.641 26.406 23.885 29.631 24.004 26.406 24.641"/><polygon class="cls-7" points="99.993 29.863 99.993 49.717 49.996 42.916 49.996 19.985 51.077 20.198 51.294 20.242 51.295 20.242 54.502 20.875 54.723 20.918 61.774 22.312 61.903 22.337 62.835 22.521 99.993 29.863"/><polygon class="cls-5" points="0 29.863 0 49.717 49.996 42.916 49.996 19.985 48.916 20.198 48.699 20.242 48.698 20.242 45.49 20.875 45.269 20.918 38.219 22.312 38.09 22.337 37.156 22.521 0 29.863"/><polygon class="cls-8" points="72.928 46.793 72.928 100 69.304 100 69.304 49.934 49.996 47.308 49.996 43.675 72.928 46.793"/><polygon class="cls-7" points="49.996 47.308 69.304 49.934 69.304 100 49.996 100 49.996 47.308"/><polygon class="cls-8" points="97.859 50.185 97.859 53.98 82.661 51.913 82.661 48.117 97.859 50.185"/><polygon class="cls-7" points="97.859 49.426 97.859 50.185 82.661 48.117 82.661 51.913 97.859 53.98 97.859 100 72.928 100 72.928 46.793 49.996 43.675 49.996 42.916 72.928 46.035 73.562 46.122 73.587 46.125 82.661 47.358 97.859 49.426"/><polygon class="cls-6" points="97.859 50.927 97.859 50.185 82.661 48.117 73.587 46.883 73.562 46.88 72.928 46.793 49.996 43.675 49.996 42.916 72.928 46.035 72.928 46.036 73.562 46.122 73.587 46.125 82.661 47.359 97.859 49.426 99.993 49.717 97.859 50.927"/><polygon class="cls-4" points="82.661 25.809 82.661 100 73.562 100 73.562 23.885 73.565 23.886 73.57 23.887 73.57 23.887 73.587 23.89 82.661 25.809"/><polygon class="cls-2" points="73.587 24.641 73.587 23.885 70.362 24.004 73.587 24.641"/><polygon class="cls-2" points="73.587 23.886 73.587 100 72.928 100 72.928 23.909 72.988 23.907 73.562 23.887 73.57 23.887 73.587 23.886"/><polygon class="cls-2" points="26.432 100 17.332 100 17.332 25.809 26.432 23.885 26.432 100"/><polygon class="cls-4" points="27.065 23.909 26.406 23.886 26.406 100 27.065 100 27.065 23.909"/></g></g></svg>