<svg id="Capa_1" data-name="Capa 1" xmlns="http://www.w3.org/2000/svg" viewBox="0 0 72.46808 100"><defs><style>.cls-1{fill:#D5B88F;}.cls-2{fill:#990E0E;}</style></defs><path class="cls-1" d="M46.17754,65.77,33.76835,78.17907c-.08749-.18948-.16038-.39365-.24787-.59781-1.89571-4.637-2.96016-5.10366-2.96016-5.10366s-.91866.40834-2.61012,4.30167A17.0552,17.0552,0,0,1,44.09234,57.74994C44.61727,60.083,45.43385,63.02858,46.17754,65.77Z"/><path class="cls-1" d="M55.11624,50.5756A26.30983,26.30983,0,0,0,22.01537,87.74478a5.95077,5.95077,0,0,1-.83118.49582c-3.52879,1.677-8.06382,1.15194-11.59261-.48122S6.0045,82.53913,8.95,80.0164c2.96017-2.53723,3.383-3.64546,4.75371-9.43442,1.3707-5.80365,4.92868-16.97333,3.60177-17.19209-1.31241-.20408-1.66236,3.17893-5.17664,7.80136-2.82888,3.71836-5.55569,5.80355-8.02,4.19958-2.0123-1.3124-1.70605-4.92868-.55412-8.32628C4.50252,54.23566,9.79575,37.08737,22.832,31.96911a16.92954,16.92954,0,1,1,15.45675,0C47.05242,35.4105,52.31645,44.27622,55.11624,50.5756Z"/><path class="cls-1" d="M49.00643,61.19125a28.64232,28.64232,0,0,1-2.18728-3.35382,16.46954,16.46954,0,0,1,5.62858,1.66227l-2.66851,2.66851C49.51676,61.862,49.26889,61.5266,49.00643,61.19125Z"/><path class="cls-1" d="M52.17067,80.0164c2.96016,2.52273,2.90178,6.10981-.627,7.743s-8.06382,2.15817-11.59261.48122a1.841,1.841,0,0,1-.32076-.18957L49.9396,77.74164A14.617,14.617,0,0,0,52.17067,80.0164Z"/><path class="cls-2" d="M44.95943,49.98726A24.86546,24.86546,0,1,0,69.82478,74.85261,24.86542,24.86542,0,0,0,44.95943,49.98726Zm0,6.28035a18.44209,18.44209,0,0,1,9.8851,2.89939L29.27381,84.73772A18.52064,18.52064,0,0,1,44.95943,56.26761Zm0,37.17a18.44278,18.44278,0,0,1-9.88511-2.89939l25.5705-25.57072A18.52037,18.52037,0,0,1,44.95943,93.43762Z"/></svg>