<svg xmlns="http://www.w3.org/2000/svg" viewBox="0 0 100 91.48575" preserveAspectRatio="xMidYMid meet"><defs><style>.cls-1{fill:#ddbf9e;}.cls-2{fill:#b2936d;}</style></defs><g id="Capa_2" data-name="Capa 2"><g id="Capa_1-2" data-name="Capa 1"><path class="cls-1" d="M52.668,31.77326c-.31578,1.76821-.69466,3.798-1.11864,5.82783-.415,2.02078-.88413,4.03253-1.34423,5.77365-1.09155,4.03258-3.53636,4.95272-4.86248,5.14219a6.61227,6.61227,0,0,1-1.272-.02709,2.26773,2.26773,0,0,1-.36986-.05413,2.201,2.201,0,0,1-.35184-.0631c-.23457-.05412-.4601-.1083-.67661-.1714-.20747-.07219-.406-.13535-.59538-.20753a6.10649,6.10649,0,0,1-.75782-.33379,1.46717,1.46717,0,0,1-.20748-.09922c-.12631-.07219-.24359-.13535-.33378-.18044a.14686.14686,0,0,0-.08122-.0451.27361.27361,0,0,0-.06316-.04509c-.009-.009-.027-.01806-.03606-.02709a.06826.06826,0,0,0-.03612-.009v-.009l-.0451-.06315-.07213-.01807c-1.06457-.875-2.61622-2.89582-1.5517-6.84719.53228-1.97568,1.32617-4.50166,2.37262-7.50579a18.626,18.626,0,0,0,6.0804.08116A22.89515,22.89515,0,0,0,52.668,31.77326Z"/><path class="cls-2" d="M20.75939,58.47651a1.73319,1.73319,0,0,0-.13534.12631c-.2165.1985-.45107.415-.70364.64054h1.04646v-.76685Zm22.1114,0h-.406v.76685h.38791a.81824.81824,0,0,0,.09019-.38791A1.04883,1.04883,0,0,0,42.87079,58.47651Z"/><path class="cls-2" d="M40.59739,47.26295a.06826.06826,0,0,0-.03612-.009v-.009C40.5703,47.25392,40.57933,47.25392,40.59739,47.26295Z"/><path class="cls-2" d="M53.8047,30.20355c-.07219.415-.14438.857-.21656,1.281h-.009c.018-.13529.0451-.27063.0631-.39694Z"/><circle class="cls-2" cx="49.18925" cy="41.2152" r="0.77469"/><circle class="cls-2" cx="48.57145" cy="44.12073" r="0.54779"/><circle class="cls-2" cx="45.96281" cy="43.53922" r="0.9603"/><circle class="cls-2" cx="45.48189" cy="46.68465" r="0.50032"/><path class="cls-1" d="M64.928,57.57437l-.07213.009-.02709.05413h-.009v.009c-.009,0-.009,0-.027.009-.009.009-.02709.009-.02709.01806a.22643.22643,0,0,1-.06316.03607.31566.31566,0,0,0-.07213.04509c-.07219.0451-.17141.09922-.27966.15335-.05413.02709-.11728.06316-.18044.09025a5.61607,5.61607,0,0,1-.64957.27966c-.16238.06315-.33379.12631-.51422.18044-.18942.05412-.37889.10825-.57733.15334a1.82781,1.82781,0,0,1-.30675.05413c-.09922.01806-.20748.03606-.31573.0451a5.49535,5.49535,0,0,1-1.0916.01806c-1.14574-.16238-3.24768-.94724-4.18594-4.4205-.406-1.49752-.80286-3.22961-1.16373-4.97079-.36088-1.75015-.68564-3.49121-.95627-5.01583a19.17457,19.17457,0,0,0,4.57385.95627,15.89408,15.89408,0,0,0,5.24141-.06316c.89311,2.58913,1.57875,4.75423,2.03884,6.45928C67.17433,55.07549,65.84821,56.80758,64.928,57.57437Z"/><path class="cls-2" d="M75.6725,58.47651h-.12631v.76685h.59539C75.96119,58.94564,75.80779,58.684,75.6725,58.47651Zm-17.40227,0a4.8446,4.8446,0,0,0,1.41637.75782v-.75782Z"/><path class="cls-2" d="M53.62426,44.0694h-.009c-.01806-.10825-.03607-.22553-.05413-.34282C53.57916,43.84387,53.59717,43.95212,53.62426,44.0694Z"/><circle class="cls-2" cx="57.39807" cy="52.44847" r="0.6668"/><circle class="cls-2" cx="57.92983" cy="54.94935" r="0.4715"/><circle class="cls-2" cx="60.17517" cy="54.44883" r="0.82656"/><circle class="cls-2" cx="60.58912" cy="57.15621" r="0.43064"/><path class="cls-2" d="M75.6725,58.47651h-.12631v.76685h.59539C75.96119,58.94564,75.80779,58.684,75.6725,58.47651Zm-17.40227,0a4.8446,4.8446,0,0,0,1.41637.75782v-.75782Zm-15.39944,0h-.406v.76685h.38791a.81824.81824,0,0,0,.09019-.38791A1.04883,1.04883,0,0,0,42.87079,58.47651Zm-22.1114,0a1.73319,1.73319,0,0,0-.13534.12631c-.2165.1985-.45107.415-.70364.64054h1.04646v-.76685Z"/><path class="cls-2" d="M49.73605,0A45.74089,45.74089,0,0,0,9.85252,68.14745c.13535.25257.27966.5052.433.74879a45.11538,45.11538,0,0,0,5.73764,7.7403c.17141.18947.34282.37894.5232.56836a.449.449,0,0,1,.06316.07218A45.31957,45.31957,0,0,0,49.67289,91.48575h.18044A45.30183,45.30183,0,0,0,81.61756,78.5401c.18044-.17141.35185-.35185.52325-.52326.25263-.25262.49617-.50519.73976-.75782a46.45241,46.45241,0,0,0,3.84312-4.60991c.15335-.19844.29766-.39694.442-.60441A45.74317,45.74317,0,0,0,49.73605,0Zm43.1041,34.78642A71.83261,71.83261,0,0,1,63.91762,3.60855,44.64156,44.64156,0,0,1,92.84015,34.78642ZM43.99847,1.6599A44.73947,44.73947,0,0,1,49.73605,1.272a44.29291,44.29291,0,0,1,5.61127.36991c.08121.848.26165,2.27335.57738,4.14981a19.6768,19.6768,0,0,0-6.25181-.9202,19.70068,19.70068,0,0,0-6.24278.91117C43.74584,3.92428,43.91725,2.49888,43.99847,1.6599Zm5.67442,4.49269a17.345,17.345,0,0,1,6.52244,1.10058c.24359,1.31714.56835,2.7966.97432,4.41146a18.23405,18.23405,0,0,0-7.49676-1.3983,18.14577,18.14577,0,0,0-7.48773,1.38927c.40592-1.6148.7217-3.09432.97427-4.41146A17.55189,17.55189,0,0,1,49.67289,6.15259ZM35.40107,3.66268A71.78063,71.78063,0,0,1,6.659,34.69618,44.64531,44.64531,0,0,1,35.40107,3.66268ZM5.26965,45.73839a44.25363,44.25363,0,0,1,1.00141-9.33716A72.75913,72.75913,0,0,0,37.03393,3.13039c.73976-.2165,1.47952-.41495,2.22831-.59539C38.24282,7.96584,32.45106,30.808,5.30577,47.36217,5.28771,46.82091,5.26965,46.27965,5.26965,45.73839Zm.11728,3.07626C34.48087,31.36729,39.86666,6.67579,40.62442,2.21922c.68564-.14431,1.37127-.27063,2.075-.37888-.68564,6.45031-5.5572,38.4491-35.36381,57.29477A44.59108,44.59108,0,0,1,5.38693,48.81465Zm5.882,19.22455c3.05826-2.67035,7.587-6.63972,9.93254-8.80487,2.88685-2.67938,5.061-6.45031,6.50438-8.93118.45107-.79389.821-1.41637,1.0916-1.82228.79389-1.12768,2.81467-.97433,4.60991-.839.49622.027.97433.06311,1.39836.07214a15.3535,15.3535,0,0,1,5.84584,1.23592v.009a1.97074,1.97074,0,0,1,.01806.9202c-.0271.15335-.06316.31572-.09025.46913a16.41188,16.41188,0,0,0-3.2567.94723,11.43321,11.43321,0,0,1-1.87647.60442c-1.8133.27063-2.88685-.29772-3.29277-.9202a.41526.41526,0,0,0-.58641-.12626.42286.42286,0,0,0-.12631.58636c.69466,1.08257,2.28243,1.57874,4.13181,1.29908a12.06061,12.06061,0,0,0,2.04787-.64054c2.41772-.89311,4.45656-1.51558,5.01588-.13529a.5622.5622,0,0,1,.009.53223c-.35185.72176-2.20122,1.20889-3.83409,1.65093-1.84942.48719-3.58151.96529-4.34831,1.86743l-.12631.14432c-1.50655,1.80428-2.20122,2.62525-3.31083,3.18457a.41151.41151,0,0,0-.23456.424,3.00367,3.00367,0,0,1-1.07355,2.508,4.08726,4.08726,0,0,1-1.687.78485A5.36558,5.36558,0,0,0,24.9543,64.999c-.29767.37889-.9382,1.21787-1.80428,2.35457-1.52461,2.01175-3.87015,5.1151-6.324,8.27258A43.88515,43.88515,0,0,1,11.26889,68.0392ZM45.13511,25.44029a21.08924,21.08924,0,0,0,3.5003,1.263,20.44464,20.44464,0,0,0,3.65365.66757c.20753.009.388.01806.56835.01806a5.15346,5.15346,0,0,0,.55932-.02709c-.11723.69467-.29767,1.7953-.48714,2.932a18.45083,18.45083,0,0,0-5.87292-.05413,21.47217,21.47217,0,0,0-5.27748,1.12768c.95626-2.69739,1.93956-5.26846,2.39966-6.49535A6.07477,6.07477,0,0,0,45.13511,25.44029Zm-.53223-1.31714a12.88941,12.88941,0,0,1,4.56482.62248,12.987,12.987,0,0,1,4.249,1.75918,12.58961,12.58961,0,0,1-4.55578-.62248A13.19126,13.19126,0,0,1,44.60288,24.12315Zm2.74248,8.76875A22.89515,22.89515,0,0,0,52.668,31.77326c-.31578,1.76821-.69466,3.798-1.11864,5.82783-.415,2.02078-.88413,4.03253-1.34423,5.77365-1.09155,4.03258-3.53636,4.95272-4.86248,5.14219a6.61227,6.61227,0,0,1-1.272-.02709,2.26773,2.26773,0,0,1-.36986-.05413,2.201,2.201,0,0,1-.35184-.0631,6.75233,6.75233,0,0,1-.67661-.1714c-.20747-.07219-.406-.13535-.59538-.20753a6.10649,6.10649,0,0,1-.75782-.33379,1.46717,1.46717,0,0,1-.20748-.09922c-.12631-.06316-.24359-.12631-.33378-.18044a.14686.14686,0,0,0-.08122-.0451.27361.27361,0,0,0-.06316-.04509c-.009-.009-.027-.01806-.03606-.02709a.06826.06826,0,0,0-.03612-.009v-.009l-.0451-.06315-.07213-.01807c-1.06457-.875-2.61622-2.89582-1.5517-6.84719.53228-1.97568,1.32617-4.50166,2.37262-7.50579A18.626,18.626,0,0,0,47.34536,32.8919ZM43.06021,54.75971a2.48,2.48,0,0,0-.433-.33379c.09922-.32475.19844-.64048.30669-.9833a1.69083,1.69083,0,0,0,.415-.46913c.66757.38792,1.47952,1.03748,1.263,1.56068-.13534.30675-.81194.36991-1.47049.29772A.58329.58329,0,0,0,43.06021,54.75971Zm.03612,1.6419c-.03612.06315-.29772.15334-1.04651-.0451.09922-.35185.20747-.71267.31572-1.07355a1.53523,1.53523,0,0,1,.12632.09019C43.00608,55.84228,43.15045,56.31141,43.09633,56.40161Zm-1.63292-7.74036c.09927.03612.19849.08122.29772.12631.10825.03612.20753.08122.32475.11728.15341.05413.32481.10826.5052.15335.13534.04515.27971.08122.43306.11728a4.77072,4.77072,0,0,0,.54126.10826,1.36765,1.36765,0,0,0,.18947.02709,2.96556,2.96556,0,0,0-.38791.48713,2.9098,2.9098,0,0,0-.30675.60447l-.16238.46005a2.18412,2.18412,0,0,0-1.4434-.55029c.018-.10826.03607-.21651.06316-.33379A3.0955,3.0955,0,0,0,41.46341,48.66125Zm2.03884,3.09438.36087-1.07355.03607-.07218c.68563.424.76685.9382.69466,1.12767C44.55779,51.7917,44.251,51.89995,43.50225,51.75563Zm-2.38161,4.77229c-.13534.46913-.26165.91117-.37893,1.3532l-.018.09923c-.12631.48719-.25262.94723-.35185,1.38029-.37888,1.55165-.73072,3.09433-1.01942,4.57385a3.23117,3.23117,0,0,0,1.696,3.48223c1.03742.5503,1.263.94724,1.272,1.00136-.18044.29773-2.06588.46913-4.87151-.28869-3.03123-.82092-4.34831-1.90349-4.36637-2.18315.03606-.06316.415-.29772,1.6148-.2436A3.20878,3.20878,0,0,0,37.909,63.54652c.442-1.272.866-2.58913,1.263-3.92428.20747-.66757.406-1.38024.61344-2.129.08122-.29772.16238-.60442.25263-.92923l.13529-.53223c.12631-.46913.23456-.94723.35184-1.45248l.009-.03607a11.72118,11.72118,0,0,0,1.31714-.4601,4.53369,4.53369,0,0,0-.1534.49617C41.48147,55.2469,41.301,55.89641,41.12064,56.52792Zm.3518,1.95762c.38791.09025.62247.25263.62247.36991,0,.018,0,.07213-.09019.14432a1.13908,1.13908,0,0,1-.70369.14437C41.35515,58.92758,41.40928,58.71108,41.47244,58.48554ZM39.26224,56.158l-.05418.18947c-.04509.18044-.09019.35185-.13529.52325a8.46176,8.46176,0,0,0-1.38029-.23456,10.10881,10.10881,0,0,0-1.678-.69466,11.0852,11.0852,0,0,1,1.669-.60442C37.95413,55.49044,38.54049,55.81525,39.26224,56.158Zm-.406-1.14568a1.61026,1.61026,0,0,1,.17141-.04509c.18941-.05413.38791-.09928.56835-.15341-.03612.17141-.08122.34282-.11728.51423C39.25321,55.21981,39.04568,55.11155,38.85627,55.01233ZM37.32263,57.412l.12631.08122.13529-.009a6.73738,6.73738,0,0,1,1.263.20748c-.12631.46009-.2616.92019-.38791,1.3532a21.34091,21.34091,0,0,1-4.70016-.91117c.36088-.39694.75782-.875,1.22689-1.42533l.13535-.15341.009-.009A10.88054,10.88054,0,0,1,37.32263,57.412ZM49.85333,90.2137h-.18044a44.07014,44.07014,0,0,1-24.52912-7.41554c6.0353-2.544,14.48833-3.98743,23.42848-3.98743,9.62585,0,18.78252,1.714,24.80879,4.60991A44.07152,44.07152,0,0,1,49.85333,90.2137ZM43.14142,77.71009l4.5287-18.46673h4.01452L56.24945,77.8815c-2.47184-.23457-5.05194-.35185-7.6772-.35185C46.74094,77.52965,44.91861,77.59281,43.14142,77.71009ZM81.95135,76.384c-.18942.20748-.38792.406-.58636.60442-.58641-.76679-1.10967-1.45243-1.55171-2.03884-.74873-.9833-1.29908-1.705-1.56068-2.02981a4.56151,4.56151,0,0,0-2.64325-1.66893,3.52789,3.52789,0,0,1-1.45243-.6766,2.60092,2.60092,0,0,1-.9202-2.15613.38441.38441,0,0,0-.20747-.36985c-.95627-.47816-1.55171-1.1818-2.85079-2.7335l-.10825-.12631c-.65854-.78486-2.14709-1.19083-3.74384-1.60578-1.39836-.37888-2.9951-.80292-3.29282-1.42539a.5175.5175,0,0,1,0-.4601c.48713-1.19083,2.24631-.64951,4.32122.11728a9.58348,9.58348,0,0,0,1.75918.55029,3.48634,3.48634,0,0,0,3.55442-1.11864.33954.33954,0,0,0-.10825-.49617.353.353,0,0,0-.49617.09923c-.35184.54131-1.28107,1.02845-2.83272.79388a9.6825,9.6825,0,0,1-1.62384-.51422,13.80745,13.80745,0,0,0-2.79666-.82092l-.08116-.406a1.79548,1.79548,0,0,1-.03612-.37888,1.5855,1.5855,0,0,1,.05418-.415,13.21337,13.21337,0,0,1,5.03389-1.06452c.36088-.009.77582-.03606,1.19986-.06315,1.54267-.11729,3.29282-.2436,3.96942.72169.23451.35185.55029.88414.93821,1.56977A33.32947,33.32947,0,0,0,81.4913,67.958c1.06452.98335,2.63423,2.39068,4.27613,3.83408A45.96616,45.96616,0,0,1,81.95135,76.384Zm-16.08508-4.3754c-.25262-1.281-.55034-2.60713-.8751-3.94233-.09019-.37888-.19844-.7668-.3067-1.19083l-.01806-.08116c-.09922-.37888-.20747-.75782-.32475-1.16379-.15341-.54127-.31578-1.10059-.49617-1.678-.04515-.14432-.08121-.28869-.13534-.433a10.95815,10.95815,0,0,0,1.1367.406l.009.027c.09922.43307.19845.848.29767,1.254l.12631.45107c.07219.27966.14437.54126.20747.80291.18044.64048.36088,1.254.53229,1.83131.34282,1.15476.70364,2.28244,1.09161,3.383a2.75085,2.75085,0,0,0,2.76053,1.84937c1.0284-.0451,1.36219.1534,1.38928.21656-.009.23451-1.14574,1.17277-3.7619,1.8764-2.41772.64957-4.03258.5052-4.18593.2436.009-.0451.19844-.38791,1.0916-.857A2.78323,2.78323,0,0,0,65.86627,72.00857Zm-1.678-4.13175a.99762.99762,0,0,1-.60441-.11728c-.08116-.07218-.08116-.11728-.08116-.12631,0-.09922.20747-.2436.54126-.32476C64.089,67.50692,64.14316,67.68736,64.18825,67.87682ZM65.758,64.593c-.03612-.14437-.07219-.28869-.10825-.442.16238.0451.33378.09019.49616.13529.0451.009.09019.02709.14432.03612C66.12787,64.41259,65.94743,64.50278,65.758,64.593Zm1.54262.009a10.85092,10.85092,0,0,1,1.43442.51423,9.93932,9.93932,0,0,0-1.44345.60441,6.67852,6.67852,0,0,0-1.1818.20748c-.04509-.15335-.08116-.29772-.12626-.45107l-.04515-.16238C66.56088,65.017,67.06608,64.73735,67.30064,64.60206Zm-1.00136,2.02981a5.48629,5.48629,0,0,1,1.08258-.18044l.12631.009.09922-.07219a10.657,10.657,0,0,1,1.88544-.74878l.01806.01806.10825.12631c.406.4781.74879.88408,1.05549,1.22689a18.62455,18.62455,0,0,1-4.04156.78486C66.52481,67.41672,66.41656,67.02881,66.29928,66.63187ZM54.23771,40.5511c.15334,0,.31572-.009.48713-.01806a19.59649,19.59649,0,0,0,6.16161-1.66,5.62874,5.62874,0,0,0,.82093-.48714c.406,1.04646,1.245,3.26574,2.06593,5.58424a18.51035,18.51035,0,0,0-4.53778-.9653,15.58133,15.58133,0,0,0-5.05195.0451c-.17141-.9833-.32476-1.93059-.424-2.526A3.80161,3.80161,0,0,0,54.23771,40.5511Zm-.47816-.76685a11.11243,11.11243,0,0,1,3.66267-1.50656,11.18735,11.18735,0,0,1,3.92433-.54131A11.01194,11.01194,0,0,1,57.68388,39.243,10.97473,10.97473,0,0,1,53.75955,39.78425Zm5.22341,5.494a15.89408,15.89408,0,0,0,5.24141-.06316c.89311,2.58913,1.57875,4.75423,2.03884,6.45928.91112,3.40108-.415,5.13317-1.3352,5.9l-.07213.009-.02709.05413h-.009v.009c-.009,0-.009,0-.027.009-.009.009-.02709.009-.02709.01806a.22643.22643,0,0,1-.06316.03607.31566.31566,0,0,0-.07213.04509c-.07219.0451-.17141.09922-.27966.15335-.05413.02709-.11728.06316-.18044.09025a5.61607,5.61607,0,0,1-.64957.27966c-.16238.06315-.33379.12631-.51422.18044a5.38755,5.38755,0,0,1-.57733.15334,1.82781,1.82781,0,0,1-.30675.05413c-.09922.01806-.20748.03606-.31573.0451a5.49535,5.49535,0,0,1-1.0916.01806c-1.14574-.16238-3.24768-.94724-4.18594-4.4205-.406-1.49752-.80286-3.22961-1.16373-4.97079-.36088-1.75015-.68564-3.49121-.95627-5.01583A19.17457,19.17457,0,0,0,58.983,45.27829ZM63.99884,59.9921a1.79523,1.79523,0,0,1,.05413.28869,1.89729,1.89729,0,0,0-1.245.46912l-.13534-.39694a2.59,2.59,0,0,0-.27063-.52325,1.78344,1.78344,0,0,0-.32476-.40592,1.016,1.016,0,0,1,.16238-.02709c.16238-.027.31573-.06316.46913-.09922.12626-.03612.25257-.05413.36985-.09923.15335-.03612.29772-.09024.433-.13534a2.55339,2.55339,0,0,0,.27966-.09922c.09025-.03612.17141-.07219.25263-.09928A2.79936,2.79936,0,0,0,63.99884,59.9921Zm-2.04787.54131a.191.191,0,0,1,.02709.06316l.31573.92014c-.64054.13534-.91117.03612-.93821-.009C61.29243,61.33633,61.36461,60.90326,61.951,60.53341Zm.47816,2.03884a1.459,1.459,0,0,0,.35179.406c.09928.28864.18044.5683.26166.839a2.10435,2.10435,0,0,0-.36991.2887.41774.41774,0,0,0-.06316.0631c-.56829.06315-1.1547.009-1.272-.25257C61.14805,63.46536,61.85175,62.906,62.42913,62.57225Zm.73073,2.06588.10825-.08117q.14883.4736.27063.92015c-.64054.17141-.86607.09024-.89311.04509C62.60054,65.441,62.71782,65.03507,63.15986,64.63813ZM86.1914,71.18765c-1.6148-1.42539-3.16651-2.80563-4.20393-3.77093a32.5,32.5,0,0,1-5.467-7.51482c-.13534-.23456-.27063-.4601-.37893-.65854h-.59539v-.76685h.12631c-.03612-.06316-.08121-.12626-.11728-.18038-.9202-1.32617-2.977-1.17283-4.61894-1.05554-.424.03612-.81195.06315-1.17277.06315a12.51078,12.51078,0,0,0-4.33928.79389c1.07349-.88408,2.553-2.86879,1.54262-6.61269-.4781-1.76815-1.19082-4.03252-2.129-6.73894-.07218-.20747-.15335-.406-.22553-.62247-1.11864-3.14846-2.30044-6.22472-2.45385-6.61269a.06856.06856,0,0,0-.009-.03606c-.13534-.415-.68563-.55933-1.76821-.47811a17.22915,17.22915,0,0,0-3.14845.5683c-1.678.4601-3.789,1.254-4.222,1.97568a.66118.66118,0,0,0-.07219.424.1576.1576,0,0,0,.009.0451c.03607.25263.22554,1.45243.45107,2.81467.009.04509.018.09024.027.14437.02709.18038.06316.36985.09928.55029l.03606.20747c.01806.11729.03607.22554.06316.34282.54126,3.09432,1.34417,7.28929,2.20122,10.41968a7.23034,7.23034,0,0,0,2.28238,3.87015,1.81746,1.81746,0,0,0,.16237.11728H59.6866v.75782a4.82717,4.82717,0,0,0,.93825.22553,1.60346,1.60346,0,0,1,.92015.4601,1.60956,1.60956,0,0,0-.857,1.86744.89026.89026,0,0,0,.81189.51422c-.58635.45107-1.16374,1.11864-.82995,1.89447a1.39455,1.39455,0,0,0,1.37127.7217,1.03824,1.03824,0,0,0-.02709.97432,1.0059,1.0059,0,0,0,.91116.424,3.32221,3.32221,0,0,0,.82093-.13529c.03612.14432.07218.28869.11728.424-.69461.16238-1.09155.53228-1.09155,1.02845a.86249.86249,0,0,0,.37888.70364,1.57907,1.57907,0,0,0,.9382.27068,1.36391,1.36391,0,0,0,.27063-.01806c.29772,1.21787.55932,2.39966.78486,3.55443A2.05754,2.05754,0,0,1,64.071,74.35417c-1.10064.58635-1.60583,1.17276-1.46152,1.714.13535.49622.75782.74879,1.8404.74879a13.31022,13.31022,0,0,0,3.24767-.49616c1.71409-.4601,3.67171-1.31714,4.16787-2.16515a.81861.81861,0,0,0,.09928-.61345c-.14437-.54126-.86607-.80292-2.12006-.74879a2.06046,2.06046,0,0,1-2.03884-1.37121c-.33378-.93826-.65854-1.91253-.96529-2.91394a19.12653,19.12653,0,0,0,4.38443-.91112,5.49756,5.49756,0,0,0,1.263.99233,3.34751,3.34751,0,0,0,1.19986,2.544,4.40078,4.40078,0,0,0,1.71408.82092,3.86923,3.86923,0,0,1,2.28238,1.41636c.2616.32476.79389,1.04651,1.54268,2.02078.4781.62248,1.01942,1.34423,1.6148,2.12006a44.6019,44.6019,0,0,1-6.23374,5.097c-4.48366-2.3185-10.61818-3.91525-17.54659-4.63694L52.4695,59.24336h7.2171v-.009a4.8446,4.8446,0,0,1-1.41637-.75782H42.87079a1.04883,1.04883,0,0,1,.07213.37894.81824.81824,0,0,1-.09019.38791h4.0235L42.33851,77.77325a57.03823,57.03823,0,0,0-18.43067,4.16787,44.94654,44.94654,0,0,1-6.43224-5.61127.45157.45157,0,0,1-.06316-.07219c2.42675-3.12141,4.78132-6.22477,6.42322-8.38084.857-1.1367,1.48855-1.97568,1.78621-2.35462a4.48072,4.48072,0,0,1,2.65229-1.64184A5.1922,5.1922,0,0,0,30.2679,62.924a3.91374,3.91374,0,0,0,1.38927-2.95,6.607,6.607,0,0,0,1.47049-1.16379,22.18447,22.18447,0,0,0,5.08807,1.06457c-.35184,1.15471-.7217,2.30044-1.11864,3.392a2.406,2.406,0,0,1-2.37263,1.58777c-1.45242-.06316-2.28243.23456-2.45378.86607a.92454.92454,0,0,0,.11722.71267c.56835.99239,2.84176,1.97568,4.8355,2.517a15.3059,15.3059,0,0,0,3.77093.57733c1.263,0,1.98472-.29767,2.13806-.87505.17141-.62248-.415-1.30811-1.696-1.98471a2.37809,2.37809,0,0,1-1.24495-2.562c.2616-1.35321.55932-2.72448.90213-4.13181.11729.009.21651.018.32476.018a1.74962,1.74962,0,0,0,1.08258-.31573.942.942,0,0,0,.35184-.433h-.38791v-.76685h.406A1.61569,1.61569,0,0,0,41.68,57.65559q.06764-.23.13528-.48713a3.529,3.529,0,0,0,.94724.15334,1.15963,1.15963,0,0,0,1.06457-.48719,1.19443,1.19443,0,0,0-.03612-1.12767,1.63386,1.63386,0,0,0,1.5968-.839c.38791-.90214-.27966-1.687-.9653-2.21019a1.029,1.029,0,0,0,.94724-.58641,1.87705,1.87705,0,0,0-.99233-2.17413,1.86545,1.86545,0,0,1,1.05548-.54132,5.91121,5.91121,0,0,0,2.932-1.272,8.35965,8.35965,0,0,0,2.65229-4.49262c.99233-3.64468,1.92155-8.51619,2.56209-12.10673.018-.13529.0451-.27063.0631-.39694l.16244-.88408c.009-.06316.018-.11728.027-.17141.27063-1.57874.48714-2.977.53229-3.26573a.25207.25207,0,0,0,.009-.05413.75154.75154,0,0,0-.09025-.48713c-.49616-.848-2.95-1.76821-4.8986-2.3005a20.59837,20.59837,0,0,0-3.65365-.66757c-1.263-.09019-1.90349.08122-2.0569.55932-.009.01806-.009.03612-.018.04515-.17141.442-1.55171,4.0235-2.85079,7.67715-.08116.25262-.17141.48718-.25257.73072C39.46069,35.4089,38.63074,38.0341,38.07141,40.1c-1.17282,4.33928.5503,6.64869,1.78622,7.67714a14.4128,14.4128,0,0,0-5.043-.9202c-.40592,0-.866-.03606-1.35321-.07213-1.91253-.13534-4.30316-.31578-5.36767,1.21787-.2887.433-.64957,1.06451-1.12768,1.87646a38.18416,38.18416,0,0,1-6.20671,8.59734h.20748v.76685H19.92041c-2.42675,2.21025-6.324,5.62933-9.08453,8.038a44.3283,44.3283,0,0,1-3.08535-6.88331c.59544-.37888,1.1818-.7668,1.76821-1.15471H19.92041c.25257-.22553.48714-.442.70364-.64054a1.73319,1.73319,0,0,1,.13534-.12631H10.66447C30.21378,44.95348,38.37811,25.81014,41.7521,13.3426c.62247-.406,3.13044-1.79525,7.92079-1.79525,4.74525,0,7.28929,1.38927,7.92977,1.79525,3.365,12.47657,11.52935,31.61088,31.08768,45.13391H75.6725c.13529.20753.28869.46913.46908.76685H89.827c.61345.41495,1.245.82092,1.87641,1.21786A43.60047,43.60047,0,0,1,86.1914,71.18765Zm5.927-11.98041C62.2036,40.3526,57.332,8.26356,56.65543,1.81331c.69466.10825,1.38927.2345,2.0749.37888.73073,4.45656,6.0624,29.19316,35.35478,46.69459A44.6136,44.6136,0,0,1,92.11845,59.20724ZM60.08354,2.49888c.73976.18044,1.47952.37894,2.21025.59545A72.76279,72.76279,0,0,0,93.22807,36.48245a44.07743,44.07743,0,0,1,.97432,9.25594c0,.56829-.01806,1.13664-.03607,1.696C66.83157,30.826,61.0849,7.9388,60.08354,2.49888Z"/><path class="cls-1" d="M71.06191,15.15771,72.75206,9.927A28.075,28.075,0,0,1,83.224,2.65951L81.0057,9.52488S74.09367,11.08256,71.06191,15.15771Z"/><path class="cls-1" d="M99.99383,33.521s.38512,5.39175-4.92959,6.162-11.32266-.46214-11.32266.77025,10.93753,3.92827,10.93753,7.93357S92.83052,58.8622,81.816,57.86088l1.38645-3.6972s8.78083-.53917,9.55108-2.61884S81.27678,46.07607,81.19976,42.61s1.5405-6.239,5.54579-6.70116S97.91416,36.29391,99.99383,33.521Z"/><path class="cls-1" d="M11.83761,9.62662s4.36542,3.95695,4.51763,6.70107-1.25959,7.54545-.636,8.11073S18.90951,23.02,18.90951,23.02l4.29194,4.95954a5.02235,5.02235,0,0,1-5.57824.25626c-3.10163-1.77564-6.32-5.92909-6.353-8.0306S11.83761,9.62662,11.83761,9.62662Z"/><path class="cls-1" d="M15.59264,60.55234l-3.19073,1.86085A25.69393,25.69393,0,0,1,.00288,51.735s-.22571-3.82964,3.32237-9.5997C3.32525,42.13532,6.71205,55.509,15.59264,60.55234Z"/></g></g></svg>