<svg xmlns="http://www.w3.org/2000/svg" viewBox="0 0 196.52 217.82"><defs><style>.cls-1{fill:#a0a0a0;}.cls-2{fill:#8f8f8f;}.cls-3{fill:#d2d2d2;}.cls-4{fill:#fff;}</style></defs><g id="Capa_2" data-name="Capa 2"><g id="Capa_1-2" data-name="Capa 1"><path class="cls-1" d="M138,75.9l2-2,8-8.18,3.32-3.45c4.09-4.24,8.31-8.62,12.52-13.06,1.72-1.83,3.44-3.64,5.16-5.46l.36-.38c3.32-3.51,6.77-7.14,10.15-10.79,4.27-4.57,9.89-10.62,15.53-16.85a5.39,5.39,0,0,0-7.63-7.59c-6.14,5.63-12.17,11.3-16.74,15.62-3.62,3.39-7.24,6.87-10.75,10.22l-.18.18-5.64,5.39c-4.52,4.33-9.31,9-13.17,12.78l-3.26,3.18-8.14,8.05-2,2q-3,3-6,6.11a7.32,7.32,0,0,0-1.94,6.4,20.65,20.65,0,0,0-2-.41,18.11,18.11,0,0,0-2.66-.19c-.45,0-.89,0-1.33,0a21.31,21.31,0,0,0-4.49-7.37A18,18,0,0,0,103.12,66a19,19,0,0,0-7-1.4,17.75,17.75,0,0,0-3.41.33q2.81-3.54,5.47-7l.68-.87h12.91a6.85,6.85,0,1,0,0-13.69H109.9c2.4-2.79,4.65-5.23,6.84-7.42A66.64,66.64,0,0,1,132.36,23.8a46.83,46.83,0,0,1,16.33-5.31h0a6.81,6.81,0,0,0,4.09-12.94,7.48,7.48,0,0,0-.72-.27c-.2-.07-.36-.11-.52-.15-.36-.1-.7-.18-.78-.19-.45-.1-.87-.16-1.38-.24-.83-.11-1.53-.17-2.11-.2-.83-.06-1.68-.08-2.69-.08h-1.27c-2.63.07-5,.23-7.2.48C132,5.34,127.68,6,122.41,7l-1.63.31c-1.57.3-3,.58-4.58.79-1.72.26-3.62.46-5.8.59-1.1.07-2.27.1-3.45.1-.77,0-1.54,0-2.22,0a54.78,54.78,0,0,1-5.62-.54A68.93,68.93,0,0,1,87.86,5.36c-1.07-.34-2.14-.7-3.26-1.08-3.09-1-6.29-2.1-9.95-3A47.16,47.16,0,0,0,66.38.06c-.64,0-1.3,0-2-.06h-.51c-.51,0-1,0-1.43.05L62,.08c-1.31,0-2.55.18-3.75.31l-.48,0a54.83,54.83,0,0,0-8.08,1.72A50.44,50.44,0,0,0,42,5.21,51.64,51.64,0,0,0,19.42,27.56a44.92,44.92,0,0,0-4.79,15.09,37.81,37.81,0,0,0,1.66,16,31.07,31.07,0,0,0,9,14,25.94,25.94,0,0,0,16.34,6.2H42.8a42.29,42.29,0,0,0,14.31-2.37l.51-.19-1.4,1.36c-.62.61-1.33,1.23-2.07,1.87S52.94,80.53,52.42,81a88,88,0,0,1-7.93,6.14,78.67,78.67,0,0,1-8.61,5.09l-.28.15a28.89,28.89,0,0,1-3,1.36l-1.51.65c-1.13.52-2.39,1-3.73,1.41l-.74.25a81.56,81.56,0,0,1-20,3.82,7.21,7.21,0,0,0,.14,14.4c1.56.09,3.15.13,4.73.13A81.48,81.48,0,0,0,31.36,112l3.54-.91.46-.14,2.12-.76,1.43-.51A41.06,41.06,0,0,0,43.25,108l.39-.18a32,32,0,0,1,3.76-.61c.77-.07,1.55-.11,2.32-.11a28.11,28.11,0,0,1,3.89.29c2.3.34,4.72.89,7.19,1.47a139.08,139.08,0,0,1,15.41,4.6c1.46.52,2.9,1.1,4.41,1.71.4,1.14.8,2.25,1.21,3.29a50.67,50.67,0,0,0,10.52,16.79,29.44,29.44,0,0,0,7.11,5.54,56.6,56.6,0,0,0-2.86,7.61c-.27.89-.54,1.9-.82,3.07-.21.82-.39,1.66-.56,2.5l-.12.56c-.16.7-.28,1.42-.41,2.14l-.16.88c0,.08,0,.1-.47,3.26a67.41,67.41,0,0,0,1.48,25.66,47.07,47.07,0,0,0,5.2,12.42,41,41,0,0,0,4.19,5.78,40.28,40.28,0,0,0,5.18,4.86,38.72,38.72,0,0,0,12.4,6.36l.79.23c.78.23,1.58.47,2.36.62l1.46.32,1.79.32a38.86,38.86,0,0,0,6,.45h.88a46.56,46.56,0,0,0,13.2-2.27,58.8,58.8,0,0,0,11.74-5.33,71,71,0,0,0,26.06-27.42,67.75,67.75,0,0,0,5-11.84,64.29,64.29,0,0,0,2.72-12.76,70.17,70.17,0,0,0,.13-12.81,58.2,58.2,0,0,0-2.46-12.88,52.11,52.11,0,0,0-2.51-6.36l-.08-.17a42.48,42.48,0,0,0-3.64-6,31.07,31.07,0,0,0-11.43-9.62,27.85,27.85,0,0,0-12-2.75,27.26,27.26,0,0,0-3.38.21,24.63,24.63,0,0,0-7.95,2.41c-.35.18-.7.37-1,.57a9.68,9.68,0,0,0-1-1.57,10,10,0,0,0-4-2.95,11.85,11.85,0,0,0-4.47-.84,17.46,17.46,0,0,0-1.8.11,20.86,20.86,0,0,0-4.22,1c-.83.29-1.66.61-2.49,1a23.59,23.59,0,0,0,2.16-11.94,19.83,19.83,0,0,0-5.27-11.83A7.41,7.41,0,0,0,131.94,82C134,80,136,78,138,75.9Zm21.66,76.16a6.76,6.76,0,0,0,.59-11.91c-2.8-1.73-4.21-2.87-4.85-3.91l-.11-.18a5,5,0,0,1-.39-.71c-.05-.12-.11-.25-.17-.37a2.92,2.92,0,0,1-.21-.65,5.43,5.43,0,0,1-.07-2.09,10.19,10.19,0,0,1,.83-2.76,13.17,13.17,0,0,1,1.78-2.78,14.5,14.5,0,0,1,1.15-1.22l.71-.63.36-.28a.92.92,0,0,1,.19-.14,6.39,6.39,0,0,1,2.32-1,7.16,7.16,0,0,1,1.61-.17,9.23,9.23,0,0,1,4.18,1,11.78,11.78,0,0,1,2.65,1.88,16.4,16.4,0,0,1,2.26,2.86,21.94,21.94,0,0,1,2.78,7.65,45.31,45.31,0,0,1,.64,9.2,70,70,0,0,1-6.37,28.25,70.94,70.94,0,0,1-4.72,8.49,53.47,53.47,0,0,1-13,14c-3.74,2.71-9.65,6-16.52,6.31h-.87a24,24,0,0,1-3.36-.24c-.61-.09-1.32-.25-2.07-.44l-.17,0a12.72,12.72,0,0,1-1.36-.39l-.54-.16a18.91,18.91,0,0,1-11.59-10.53,30.75,30.75,0,0,1-2.34-8.37,66.09,66.09,0,0,1,.57-19.25c.32-1.94.61-3.52.92-5,.17-.82.35-1.64.56-2.53s.36-1.54.57-2.29a57,57,0,0,1,3.24-8.83c.22-.49.46-1,.7-1.47a38.36,38.36,0,0,0,5.86-1.5,43.32,43.32,0,0,0,10.69-5.35c0,.39.09.79.16,1.18a19.31,19.31,0,0,0,4.12,9.38,17.42,17.42,0,0,0,8.94,5.72,16.45,16.45,0,0,0,4,.51A14.55,14.55,0,0,0,159.7,152.06ZM91.6,85a10.82,10.82,0,0,1,2.32-4.38,3.12,3.12,0,0,1,2.18-1h.22a3.44,3.44,0,0,1,2.48,1,8.43,8.43,0,0,1,1.9,2.79l-.38.35a23.55,23.55,0,0,0-1.79,2,16.36,16.36,0,0,0-2,2.9,11.43,11.43,0,0,0-1,9.19,9.84,9.84,0,0,0,3.57,4.86,9.39,9.39,0,0,0,5.44,1.76,8.53,8.53,0,0,0,1.21-.09,9.62,9.62,0,0,0,5.56-2.85,12.32,12.32,0,0,0,2.45-3.72,19,19,0,0,0,1.43-6.08l.06-.55A5.4,5.4,0,0,1,118.41,93a5.76,5.76,0,0,1,1,1.65,5.1,5.1,0,0,1,.38,1.8,8.72,8.72,0,0,1-1.08,4.38,8.58,8.58,0,0,1-3.08,3.28,12.24,12.24,0,0,1-4.87,1.61,20,20,0,0,1-2.63.17,37.47,37.47,0,0,1-10.72-1.87c-2-.63-4-1.36-5.92-2.15-.2-1.07-.37-2.13-.5-3.16C90.26,93.31,90.48,88.68,91.6,85Zm15.54,36.67a38.26,38.26,0,0,0,5.89-.46l.32-.06a75.09,75.09,0,0,0-6.37,7.28l0,0a14.08,14.08,0,0,1-4.63-3.13,28,28,0,0,1-3.64-4.43A47.13,47.13,0,0,0,107.14,121.67ZM76.2,95.26C73.5,94.09,70.8,93,68,92c.33-.29.66-.59,1-.91l1.46-1.35c.93-.86,1.91-1.76,2.89-2.74.45-.47.91-.93,1.37-1.39.69-.69,1.37-1.37,2.07-2.09A43.3,43.3,0,0,0,76.2,95.26ZM72.44,57.07h2.25l-.51.63-1.35,1.63A9.55,9.55,0,0,0,72.44,57.07Zm-7.06-6.84a4.52,4.52,0,0,0,0,.52,9.94,9.94,0,0,0-1.82-.17,10.38,10.38,0,0,0-7.28,3.08,10.13,10.13,0,0,0-2.81,9.48l-.1.06c-.39.2-.75.36-1.08.49A21.81,21.81,0,0,1,47.41,65l-.16,0c-.47.08-1,.13-1.69.19l-.85.08-1.06,0H43.5c-.43,0-.85,0-1.23,0h-.4a12.5,12.5,0,0,1-8-2.9,16.3,16.3,0,0,1-5-7.8,20.46,20.46,0,0,1-.51-9.83,23,23,0,0,1,4.21-9.16,29.49,29.49,0,0,1,7.58-7.14A35.36,35.36,0,0,1,49.5,24.2,48.91,48.91,0,0,1,54.63,23a47.07,47.07,0,0,1,5-.55l1.26,0,1,0h1.7l.53,0a4.81,4.81,0,0,1,.58,0,42,42,0,0,1,5,.8c1.36.29,2.77.61,4.21,1l.37.08c2.66.62,5.41,1.26,8.35,1.8a91.72,91.72,0,0,0,14.78,1.58l2,0h.14c-3.76,3.75-7.48,7.87-11.32,12.53L85.7,43.38H72.22A6.85,6.85,0,0,0,65.38,50.23Z"/><path class="cls-2" d="M75.58,120.66a7.29,7.29,0,0,0-5.14,2.11c-2,2-4,3.93-5.92,5.91l-2.21,2.23-8,8.19-3.11,3.23c-4.18,4.33-8.49,8.8-12.73,13.28l-5.54,5.85-.2.21c-3.27,3.45-6.65,7-9.93,10.57-4.28,4.57-9.91,10.62-15.54,16.84a5.39,5.39,0,0,0,7.63,7.59c6.23-5.7,12.22-11.34,16.75-15.61,3.56-3.35,7.14-6.77,10.6-10.09l.3-.29,5.66-5.42c4.56-4.36,9.15-8.84,13.2-12.79l3.24-3.16,8.14-8.06,2-2c2-2,4.06-4.07,6.07-6.14a7.33,7.33,0,0,0-5.26-12.44Z"/><path class="cls-3" d="M126.79,81.56a4.73,4.73,0,0,1-3.4-1.43,4.8,4.8,0,0,1,0-6.68c2-2.07,4-4.11,6.08-6.15l2-2,8.12-8,3.25-3.17c4.3-4.19,8.75-8.53,13.16-12.76,2-1.85,3.88-3.71,5.82-5.57,3.5-3.35,7.12-6.82,10.73-10.2,4.54-4.29,10.55-9.95,16.72-15.6a2.83,2.83,0,0,1,4,4C187.6,20.2,182,26.23,177.73,30.8c-3.36,3.62-6.81,7.26-10.15,10.78l-5.52,5.84c-4.15,4.38-8.39,8.78-12.5,13l-3.32,3.45-8,8.17-2,2c-2,2-4,4.08-6.08,6.09a4.78,4.78,0,0,1-3.36,1.37Z"/><path class="cls-3" d="M11.25,195.53a2.83,2.83,0,0,1-2.11-4.73c5.62-6.21,11.24-12.25,15.51-16.82,3.35-3.61,6.79-7.25,10.12-10.76q2.77-2.92,5.54-5.86c4.22-4.45,8.54-8.93,12.71-13.26l3.12-3.23,8-8.17,2-2c2-2,4-4.07,6.07-6.08A4.78,4.78,0,0,1,79,131.32c-2,2.06-4,4.09-6.05,6.12l-2,2-8.12,8.05-3.23,3.14c-4.31,4.2-8.76,8.54-13.18,12.78-2,1.87-3.91,3.74-5.86,5.61-3.49,3.34-7.1,6.8-10.69,10.16-4.54,4.29-10.55,9.95-16.72,15.6A2.8,2.8,0,0,1,11.25,195.53Z"/><path class="cls-3" d="M134.89,215.26a37.81,37.81,0,0,1-5.59-.41l-1.65-.29-1.43-.32c-.75-.15-1.51-.37-2.24-.59l-.76-.22a36.4,36.4,0,0,1-11.57-5.93,38.76,38.76,0,0,1-4.81-4.54,37.16,37.16,0,0,1-3.9-5.37A45.09,45.09,0,0,1,98,185.79a64.9,64.9,0,0,1-1.41-24.68s.44-3,.44-3.08l.17-.91c.12-.69.24-1.38.39-2.06l.12-.58c.17-.8.34-1.6.54-2.38s.46-1.87.79-3a55.06,55.06,0,0,1,3.84-9.53l-.34-.14a25.51,25.51,0,0,1-8.36-6A46.08,46.08,0,0,1,88.41,126a44.74,44.74,0,0,1-4.18-8.4c-.55-1.4-1.08-2.87-1.57-4.35l-.57-.23c-1.72-.69-3.34-1.35-5-2a139.37,139.37,0,0,0-15.65-4.67c-2.53-.6-5-1.17-7.44-1.52a28.81,28.81,0,0,0-4.25-.32,24.44,24.44,0,0,0-2.57.13,35.74,35.74,0,0,0-4.31.7l-.6.27A38.08,38.08,0,0,1,38,107.3l-1.45.52-2.09.74-.24.08-3.53.91a78.83,78.83,0,0,1-19.18,2.32c-1.52,0-3.06,0-4.59-.12a4.67,4.67,0,0,1-.09-9.31,84.92,84.92,0,0,0,20.61-4l.76-.26c1.4-.48,2.73-.93,4-1.5.53-.24,1-.45,1.51-.65a28.68,28.68,0,0,0,3.14-1.46l.15-.08a81.08,81.08,0,0,0,8.89-5.26A90.33,90.33,0,0,0,54.09,83c.57-.53,1.15-1,1.74-1.56.77-.67,1.5-1.3,2.18-2L59.44,78c.83-.8,1.62-1.55,2.38-2.35l1.36-1.43c.78-.82,1.56-1.63,2.32-2.48l3.62-4.08,3.55-4.15,3.48-4.22L80,54.52H72.22a4.3,4.3,0,0,1,0-8.59h14.7l.33-.41c1-1.21,2-2.42,3-3.62A159.49,159.49,0,0,1,106.16,25l.11-.09q-3.42.3-6.84.3l-1.93,0a88.81,88.81,0,0,1-14.38-1.54c-2.87-.53-5.6-1.16-8.24-1.77-1.59-.37-3.13-.73-4.62-1.05A44.74,44.74,0,0,0,65,20c-.34,0-.58,0-.83-.06l-.4,0H63l-1.07,0c-.39,0-.77,0-1.15,0l-1.13,0a52.41,52.41,0,0,0-5.43.58,52.51,52.51,0,0,0-5.42,1.24,38,38,0,0,0-10,4.66,31.88,31.88,0,0,0-8.21,7.74,25.72,25.72,0,0,0-4.66,10.17,23,23,0,0,0,.58,11.06,19,19,0,0,0,5.78,9,15,15,0,0,0,9.58,3.48h.38c.5,0,1,0,1.5,0l1.1,0,1-.09c.67-.06,1.31-.12,1.89-.22l.1,0a23.66,23.66,0,0,0,5.45-1.43c.43-.17.91-.38,1.43-.64a8.46,8.46,0,0,0,1.48-1.2A6.84,6.84,0,0,0,56.09,63a7.59,7.59,0,0,1,2-7.53,7.8,7.8,0,0,1,5.47-2.33,6.68,6.68,0,0,1,4.77,1.94,7.18,7.18,0,0,1,0,9.82,21.32,21.32,0,0,1-5.17,5.43A26,26,0,0,1,56.25,74,39.78,39.78,0,0,1,42.8,76.25l-1.1,0A23.29,23.29,0,0,1,27,70.66a28.5,28.5,0,0,1-8.25-12.82,35,35,0,0,1-1.55-14.9A42.18,42.18,0,0,1,21.7,28.71,49,49,0,0,1,43.11,7.49,49.4,49.4,0,0,1,50.4,4.6,52,52,0,0,1,58.08,3l.42-.05c1.15-.12,2.33-.25,3.55-.29l.57,0c.42,0,.83-.05,1.29-.05h.5c.6,0,1.2,0,1.79.06a44.14,44.14,0,0,1,7.87,1.17c3.54.86,6.7,1.91,9.75,2.93l3.26,1.08a70.63,70.63,0,0,0,11.65,2.92,56.7,56.7,0,0,0,5.88.57c.75,0,1.54,0,2.34,0,1.24,0,2.45,0,3.61-.1,2.25-.14,4.23-.34,6-.62,1.58-.21,3.11-.51,4.74-.82l1.56-.29c5.21-1,9.5-1.61,13.51-2,2.16-.24,4.46-.39,7-.46h1.2c.94,0,1.74,0,2.52.07.56,0,1.19.09,1.95.19.41.06.77.12,1.16.2a6.53,6.53,0,0,1,.64.16,2.62,2.62,0,0,1,.4.11,5.55,5.55,0,0,1,.56.21,4.26,4.26,0,0,1-1.63,8.19,3.9,3.9,0,0,1-1.08-.14l-.22,0h-.31a49.5,49.5,0,0,0-17.45,5.63,69.46,69.46,0,0,0-16.21,12.61c-3.79,3.8-7.32,7.89-10.5,11.76h7.33a4.3,4.3,0,1,1,0,8.59H97.6l-1.45,1.85c-3,3.85-6.1,7.83-9.29,11.7l-3.61,4.36-3.74,4.36c-.86,1-1.72,1.9-2.58,2.82l-1.35,1.45c-.89,1-1.79,1.86-2.69,2.76l-1.39,1.4c-.94.94-1.91,1.83-2.84,2.69l-1.44,1.33c-1.15,1.08-2.34,2.06-3.5,3l-1,.84c.72.18,1.44.38,2.15.59a113.51,113.51,0,0,1,13,5.1l1.34.6c-1-6.84-.82-12.54.61-17.89A22.07,22.07,0,0,1,85,72a15.91,15.91,0,0,1,5-3.56,15.19,15.19,0,0,1,6.12-1.28,16.3,16.3,0,0,1,6,1.2,15.19,15.19,0,0,1,5.07,3.56,19.93,19.93,0,0,1,4.58,8.41,17,17,0,0,1,3.1-.29,15.83,15.83,0,0,1,2.29.17,16.83,16.83,0,0,1,10,5.21,17.37,17.37,0,0,1,4.66,10.39,21.19,21.19,0,0,1-2,10.78,19.37,19.37,0,0,1-3.11,4.7A20.79,20.79,0,0,1,122.5,115a25.11,25.11,0,0,1-9.89,3.74,35.22,35.22,0,0,1-5.47.42,52.33,52.33,0,0,1-13.64-2h0l.44.87c.6,1.13,1.25,2.26,1.95,3.35a32.8,32.8,0,0,0,4.65,5.84A16.83,16.83,0,0,0,106,130.8a9.51,9.51,0,0,0,2,.49,73.07,73.07,0,0,1,11.65-12.52,65.12,65.12,0,0,1,9.92-7.09,34.27,34.27,0,0,1,5.93-2.73,18.18,18.18,0,0,1,3.69-.86,14.24,14.24,0,0,1,1.5-.09,9.3,9.3,0,0,1,3.52.66,7.26,7.26,0,0,1,2.95,2.18,6.85,6.85,0,0,1,1.42,3.62l0,.45.59-.45,1.3-.89.2-.13.43-.25c.39-.23.78-.46,1.18-.66a22.33,22.33,0,0,1,7.15-2.17,25.75,25.75,0,0,1,3-.19,25.17,25.17,0,0,1,10.86,2.5,28.4,28.4,0,0,1,10.48,8.83,40.11,40.11,0,0,1,3.43,5.64.47.47,0,0,0,.05.1,50.08,50.08,0,0,1,2.37,6,55.39,55.39,0,0,1,2.36,12.34,67.83,67.83,0,0,1-.13,12.35,62,62,0,0,1-2.6,12.24,66.56,66.56,0,0,1-4.83,11.41,67.58,67.58,0,0,1-6.76,10.3A66.46,66.46,0,0,1,159.41,208a56.59,56.59,0,0,1-11.24,5.11,44.11,44.11,0,0,1-12.45,2.14Zm-17-74.07c-.48.94-.92,1.84-1.33,2.73a61.82,61.82,0,0,0-3.39,9.22c-.21.78-.4,1.57-.59,2.4s-.39,1.71-.57,2.55c-.31,1.5-.61,3.12-.94,5.08a68.89,68.89,0,0,0-.58,20,33.5,33.5,0,0,0,2.55,9.08,21.49,21.49,0,0,0,13.1,11.89l.59.18a15.85,15.85,0,0,0,1.6.45l.11,0a23,23,0,0,0,2.29.49,27.48,27.48,0,0,0,3.72.26c.32,0,.65,0,1,0,7.51-.31,13.89-3.87,17.92-6.79A55.77,55.77,0,0,0,167,184.06a72.26,72.26,0,0,0,4.9-8.82A72.41,72.41,0,0,0,178.5,146a47,47,0,0,0-.69-9.74,24.28,24.28,0,0,0-3.1-8.51,18.41,18.41,0,0,0-2.66-3.35,14.17,14.17,0,0,0-3.28-2.33,11.58,11.58,0,0,0-5.33-1.32,10.28,10.28,0,0,0-2.16.22,9.34,9.34,0,0,0-3.22,1.37c-.17.11-.28.2-.4.29a3.15,3.15,0,0,1-.3.24l-.8.7a19,19,0,0,0-1.41,1.5,15.2,15.2,0,0,0-2.14,3.32,13.32,13.32,0,0,0-1,3.47,8.26,8.26,0,0,0,.11,3.06,5.61,5.61,0,0,0,.41,1.2,1,1,0,0,1,.09.21,8.8,8.8,0,0,0,.57,1.05l.1.17c.9,1.47,2.46,2.77,5.71,4.78a4.22,4.22,0,0,1-.35,7.44,12,12,0,0,1-5.2,1.14,14.23,14.23,0,0,1-3.41-.43,14.93,14.93,0,0,1-7.62-4.9,16.65,16.65,0,0,1-3.55-8.12,20.87,20.87,0,0,1-.09-6c-.94.81-1.93,1.6-3,2.38a41.4,41.4,0,0,1-11.09,5.77A35.75,35.75,0,0,1,117.9,141.19Zm21-23.45a21.44,21.44,0,0,0-3.93,2.32,44.64,44.64,0,0,0-7.37,6.79c-.9,1-1.78,2.1-2.64,3.22a29,29,0,0,0,5.77-3.2,29.3,29.3,0,0,0,6.91-6.83,17.31,17.31,0,0,0,1.4-2.36Zm-49.68-14a78.19,78.19,0,0,0,7.39,2.77,40.3,40.3,0,0,0,11.49,2,21.81,21.81,0,0,0,3-.19,14.72,14.72,0,0,0,5.9-2,11,11,0,0,0,4-4.22,11.32,11.32,0,0,0,1.38-5.69,7.73,7.73,0,0,0-.55-2.62,8.13,8.13,0,0,0-1.37-2.37,8,8,0,0,0-4.6-2.8,7.93,7.93,0,0,0-1.53-.15,8,8,0,0,0-1.38.12c0,1-.07,1.89-.16,2.82a16.91,16.91,0,0,1-1.24,5.33,9.83,9.83,0,0,1-1.93,3,7.15,7.15,0,0,1-4.09,2.11,6.38,6.38,0,0,1-.86,0,6.76,6.76,0,0,1-3.94-1.27A7.28,7.28,0,0,1,98,97a9,9,0,0,1,.79-7.18,14,14,0,0,1,1.67-2.44,22.91,22.91,0,0,1,1.67-1.82,21.09,21.09,0,0,1,1.59-1.41c0-.08,0-.16-.07-.23a12.26,12.26,0,0,0-3.12-5.21A6,6,0,0,0,96.32,77h-.23a5.61,5.61,0,0,0-4,1.81,13.54,13.54,0,0,0-2.92,5.38c-1.23,4-1.49,9-.76,14.85C88.6,100.58,88.87,102.14,89.2,103.73Z"/><path class="cls-4" d="M133.43,65.32c-2.68,2.7-5.38,5.38-8,8.1a1.95,1.95,0,0,0,2.76,2.75c2.71-2.67,5.38-5.38,8.06-8.08l8-8.15C149.47,54.46,154.77,49,160,43.47s10.48-11,15.65-16.61S186,15.72,191.13,10.07q-8.41,7.73-16.7,15.58c-5.55,5.2-11,10.5-16.52,15.75S147,52,141.54,57.29Z"/><path class="cls-4" d="M74.22,124.6c-2.71,2.67-5.38,5.38-8.06,8.08l-8,8.15c-5.28,5.48-10.57,10.95-15.8,16.47s-10.48,11-15.66,16.61S16.36,185.05,11.25,190.7q8.41-7.71,16.69-15.58c5.56-5.2,11-10.5,16.53-15.75s10.92-10.58,16.37-15.89l8.11-8c2.68-2.69,5.38-5.38,8-8.1a1.95,1.95,0,0,0-2.76-2.75Z"/><path class="cls-4" d="M187,132.07a43.76,43.76,0,0,0-2.23-5.64,37.05,37.05,0,0,0-3.18-5.25,25.73,25.73,0,0,0-9.43-8,22,22,0,0,0-12.33-2,19.21,19.21,0,0,0-6.24,1.89c-.5.24-1,.55-1.46.83l-1.3.89a31.11,31.11,0,0,0-2.44,2A21.67,21.67,0,0,0,141.84,128a18.71,18.71,0,0,0-.22,7,13.85,13.85,0,0,0,2.92,6.73,12.1,12.1,0,0,0,6.14,4,9.91,9.91,0,0,0,6.71-.52,1.41,1.41,0,0,0,.58-.53,1.38,1.38,0,0,0-.45-1.9l-.06,0c-3.4-2.1-5.39-3.69-6.66-5.75a12.35,12.35,0,0,1-.86-1.61,8.79,8.79,0,0,1-.63-1.81,11,11,0,0,1-.15-4.14,16.47,16.47,0,0,1,1.29-4.25,18.44,18.44,0,0,1,2.53-3.94c.52-.61,1.08-1.19,1.67-1.76l.91-.81c.3-.21.58-.46.89-.67a12,12,0,0,1,4.23-1.8,14.13,14.13,0,0,1,9.37,1.34,17.11,17.11,0,0,1,4,2.83,21.52,21.52,0,0,1,3.08,3.89,27.32,27.32,0,0,1,3.48,9.47,49.57,49.57,0,0,1,.73,10.35,74.78,74.78,0,0,1-6.87,30.36,75,75,0,0,1-5.1,9.19A58.84,58.84,0,0,1,155,199c-5.7,4.14-12.46,7-19.47,7.34a29.11,29.11,0,0,1-5.2-.28,23.51,23.51,0,0,1-2.57-.54c-.87-.17-1.69-.47-2.53-.72a24.25,24.25,0,0,1-14.77-13.4,36.14,36.14,0,0,1-2.77-9.86,72.44,72.44,0,0,1,.59-20.87c.29-1.74.6-3.48,1-5.21.18-.86.37-1.73.58-2.59s.39-1.71.62-2.52a62.75,62.75,0,0,1,3.55-9.66c.64-1.4,1.34-2.8,2.08-4.17a34.41,34.41,0,0,0,7.67-1.66,38.26,38.26,0,0,0,10.3-5.36,37.68,37.68,0,0,0,8.27-8.12,20.82,20.82,0,0,0,2.94-5.26,8.1,8.1,0,0,0,.53-3.42,4.11,4.11,0,0,0-.8-2.12,4.3,4.3,0,0,0-1.82-1.33,7.35,7.35,0,0,0-3.61-.39,15.78,15.78,0,0,0-3.1.73,31.7,31.7,0,0,0-5.44,2.5,62.79,62.79,0,0,0-9.5,6.79,70.09,70.09,0,0,0-12.08,13.28,12.34,12.34,0,0,1-4.42-.75,19.61,19.61,0,0,1-6.46-4.29,35.78,35.78,0,0,1-5.07-6.36c-.74-1.15-1.43-2.34-2.07-3.56-.31-.6-.62-1.22-.9-1.83s-.5-1.27-.75-1.9c-.38-1-.73-2-1.07-3,1.82.66,3.66,1.28,5.54,1.81,5.68,1.52,11.72,2.56,17.9,1.57a22.29,22.29,0,0,0,8.83-3.33,17.51,17.51,0,0,0,3.64-3.18,16.29,16.29,0,0,0,2.66-4A18.28,18.28,0,0,0,129,94a14.58,14.58,0,0,0-3.92-8.69A14.08,14.08,0,0,0,116.76,81a13.83,13.83,0,0,0-7.1.88c-.09-.57-.18-1.13-.32-1.7a18,18,0,0,0-4.19-8.33,12.46,12.46,0,0,0-4.1-2.88,13.42,13.42,0,0,0-4.93-1,12.5,12.5,0,0,0-5,1A13,13,0,0,0,87,71.92a19.39,19.39,0,0,0-4.45,8.31,42,42,0,0,0-.38,17.7c.23,1.41.51,2.81.83,4.2l-2.8-1.22c-5.26-2.26-10.47-4.79-16.17-6.5a39.93,39.93,0,0,0-8.35-1.6c1.77-1.24,3.49-2.53,5.18-3.87,1.48-1.24,3-2.45,4.4-3.76s2.84-2.59,4.19-4,2.72-2.7,4-4.09,2.6-2.78,3.86-4.2l3.71-4.31,3.6-4.37c4-4.81,7.75-9.73,11.55-14.58h15.53a1.46,1.46,0,1,0,0-2.91H98.51A193.42,193.42,0,0,1,112.9,30.18a72.61,72.61,0,0,1,16.86-13.1,52.67,52.67,0,0,1,18.66-6h0c.25,0,.5,0,.72,0l.33,0,.14,0s.11,0,0,0a1.43,1.43,0,0,0,1.1-2.64l-.37-.13a1.8,1.8,0,0,0-.27-.07l-.49-.12c-.32-.07-.62-.11-.92-.16-.6-.08-1.19-.14-1.77-.17-1.17-.08-2.31-.08-3.45-.06-2.28.06-4.54.2-6.78.45-4.48.48-8.89,1.19-13.29,2-2.24.42-4.29.85-6.39,1.13s-4.2.52-6.29.65-4.17.13-6.25.07a60.47,60.47,0,0,1-6.17-.59,74.67,74.67,0,0,1-12.08-3c-4-1.29-8.13-2.82-12.79-3.95A43.08,43.08,0,0,0,66,3.43c-.64,0-1.31,0-2-.05s-1.25.05-1.87.08c-1.23,0-2.46.18-3.68.31a49.46,49.46,0,0,0-7.23,1.54A44.87,44.87,0,0,0,24.23,28,40,40,0,0,0,20,41.26,32.45,32.45,0,0,0,21.41,55a25.65,25.65,0,0,0,7.42,11.57A20.45,20.45,0,0,0,41.76,71.4a37.53,37.53,0,0,0,13.53-2A23.15,23.15,0,0,0,61.48,66a18.48,18.48,0,0,0,4.6-4.88,4.15,4.15,0,1,0-6-5.7,4.75,4.75,0,0,0-1.26,4.85h0a7.14,7.14,0,0,1-.07,3,7.54,7.54,0,0,1-2.69,2.52,19.83,19.83,0,0,1-1.82.82,27.08,27.08,0,0,1-6.08,1.6c-1,.18-2.11.24-3.17.35s-2.16.11-3.19.09a17.91,17.91,0,0,1-11.37-4.15A21.64,21.64,0,0,1,23.78,54.2a25.64,25.64,0,0,1-.65-12.44,28.48,28.48,0,0,1,5.15-11.28,35,35,0,0,1,8.92-8.42A41.39,41.39,0,0,1,48,17a50.53,50.53,0,0,1,11.52-1.93c1,0,1.94-.09,2.92-.05.48,0,1,0,1.44,0s.87,0,1.32.09a45.4,45.4,0,0,1,5.63.89c3.94.83,8.25,2,12.78,2.8a85.67,85.67,0,0,0,13.94,1.49,74.92,74.92,0,0,0,14-1c1.74-.3,3.47-.66,5.19-1.06a85.84,85.84,0,0,0-8.68,6.77A158.09,158.09,0,0,0,92.4,41.7c-1.39,1.69-2.76,3.38-4.14,5.07h-16a1.46,1.46,0,1,0,0,2.91H85.88l-.6.73q-3.47,4.4-6.94,8.71l-3.52,4.27-3.58,4.18-3.63,4.1c-1.22,1.35-2.5,2.64-3.74,4s-2.59,2.53-3.88,3.8-2.69,2.39-4,3.62a92.61,92.61,0,0,1-8.5,6.57,81.85,81.85,0,0,1-9.21,5.44,50.77,50.77,0,0,1-4.86,2.23,52.28,52.28,0,0,1-5,1.87,87.93,87.93,0,0,1-21.26,4.09h0a1.83,1.83,0,0,0,0,3.65A76.83,76.83,0,0,0,30,104.8l2.82-.73.71-.18.69-.24,1.37-.49a56.2,56.2,0,0,0,5.45-2.1c.3-.12.59-.26.88-.39a40.93,40.93,0,0,1,4.93-.83,31,31,0,0,1,7.51.21c2.52.37,5.09,1,7.71,1.57A147.14,147.14,0,0,1,78,106.38c2.33.83,4.59,1.78,6.92,2.71.6,1.86,1.25,3.71,2,5.53a43.16,43.16,0,0,0,3.93,7.87,42.13,42.13,0,0,0,5.4,7,23.1,23.1,0,0,0,7.44,5.33,17.12,17.12,0,0,0,3.41,1.07c-.19.33-.4.64-.58,1a52.35,52.35,0,0,0-4.73,11c-.29,1-.54,2-.77,2.89s-.43,1.9-.63,2.86-.36,1.92-.54,2.88l-.42,2.91A62.42,62.42,0,0,0,100.73,183a42.67,42.67,0,0,0,4.66,11.12,32.36,32.36,0,0,0,8,9.08A33.35,33.35,0,0,0,124,208.7c.94.26,1.88.58,2.84.77l1.44.32,1.47.25a33.59,33.59,0,0,0,5.92.38,41.17,41.17,0,0,0,11.62-2A53.67,53.67,0,0,0,158,203.57a64.48,64.48,0,0,0,17.59-15.46,66.2,66.2,0,0,0,6.48-9.88,63.07,63.07,0,0,0,4.62-10.94,58.43,58.43,0,0,0,2.48-11.64,65.09,65.09,0,0,0,.13-11.84A52.84,52.84,0,0,0,187,132.07ZM107.5,88.94a11.72,11.72,0,0,1-.63,3.82,3.07,3.07,0,0,1-2.1,2.16,2,2,0,0,1-2.12-1.51,4.13,4.13,0,0,1,.5-3.25,13.58,13.58,0,0,1,2.51-3,16.72,16.72,0,0,1,1.68-1.34A24.67,24.67,0,0,1,107.5,88.94ZM85.6,97.42a39,39,0,0,1,.86-16,16.17,16.17,0,0,1,3.6-6.5,8.35,8.35,0,0,1,6.07-2.67,8.78,8.78,0,0,1,6.29,2.39A15.11,15.11,0,0,1,106.33,81a21.85,21.85,0,0,1,.61,2.28,18.83,18.83,0,0,0-2.83,2.26,21.53,21.53,0,0,0-1.51,1.66,10.88,10.88,0,0,0-1.33,1.94,6.25,6.25,0,0,0-.59,4.93,4.47,4.47,0,0,0,1.62,2.2,4,4,0,0,0,2.75.7,4.27,4.27,0,0,0,2.45-1.29,7,7,0,0,0,1.37-2.11,14.69,14.69,0,0,0,1-4.49,27.65,27.65,0,0,0,.09-4.64,11.28,11.28,0,0,1,6.33-.63,10.81,10.81,0,0,1,6.25,3.76,11.24,11.24,0,0,1,1.84,3.18,10.74,10.74,0,0,1,.73,3.52,14.1,14.1,0,0,1-1.71,7.13,14,14,0,0,1-4.94,5.29,17.69,17.69,0,0,1-7,2.4c-5.11.68-10.52-.34-15.7-1.9a78.26,78.26,0,0,1-7.68-2.88l-1.3-.57A61.74,61.74,0,0,1,85.6,97.42ZM125.47,123a47.79,47.79,0,0,1,7.84-7.22,23.88,23.88,0,0,1,4.47-2.61,11.63,11.63,0,0,1,2.28-.74,4.06,4.06,0,0,1,1.89,0,1.77,1.77,0,0,1,.46.23.78.78,0,0,1,.17.45,5.1,5.1,0,0,1-.3,2.06,18,18,0,0,1-2.35,4.54,32.43,32.43,0,0,1-7.58,7.48,31.22,31.22,0,0,1-9.56,4.62,28.15,28.15,0,0,1-4.45.84A72.64,72.64,0,0,1,125.47,123Z"/><path class="cls-2" d="M179.87,183.76a12.31,12.31,0,0,1-.23-3.88,6.08,6.08,0,0,1,.47-1.91c.25-.61.52-1.2.79-1.79,1.1-2.34,2.29-4.64,3.34-7s2.09-4.72,3-7.14a47.83,47.83,0,0,0,2-7.46,35.88,35.88,0,0,1-1.63,7.6,67,67,0,0,1-2.86,7.23c-1.1,2.35-2.28,4.66-3.46,7a11.29,11.29,0,0,0-1.38,3.55A13,13,0,0,0,179.87,183.76Z"/><path class="cls-2" d="M106.13,137.51a12.67,12.67,0,0,1-.37,5.47c-.54,1.76-1.15,3.47-1.52,5.24a16.65,16.65,0,0,0-.52,5.34,7.3,7.3,0,0,0,2.2,4.79,6.43,6.43,0,0,1-1.8-2.08c-.11-.21-.22-.42-.31-.63l-.22-.66a8,8,0,0,1-.3-1.37,16,16,0,0,1,.39-5.52,49.14,49.14,0,0,1,1.67-5.24A15.47,15.47,0,0,0,106.13,137.51Z"/><path class="cls-2" d="M122,110.86a15.44,15.44,0,0,1,1.28-3.43,11.71,11.71,0,0,1,2.14-3,7.89,7.89,0,0,1,1.48-1.16,11.86,11.86,0,0,0,1.47-1,7.42,7.42,0,0,0,2.07-2.88,6.13,6.13,0,0,1-1.78,3.2,8.41,8.41,0,0,1-1.48,1.13,7.59,7.59,0,0,0-1.36,1.11,14.55,14.55,0,0,0-2.16,2.82A29.66,29.66,0,0,0,122,110.86Z"/><path class="cls-2" d="M127.54,95a12.21,12.21,0,0,1,.31,2.49,13.22,13.22,0,0,1-.14,2.51,11.52,11.52,0,0,1-.66,2.45,7.59,7.59,0,0,1-1.32,2.14,15.37,15.37,0,0,0,.91-2.29,21.94,21.94,0,0,0,.51-2.38A40,40,0,0,0,127.54,95Z"/><path class="cls-2" d="M93,74.49a23,23,0,0,1-3.17,2.59,28.7,28.7,0,0,0-3.09,2.6,13.71,13.71,0,0,0-2.51,3.12,11.24,11.24,0,0,0-1.38,3.77,9,9,0,0,1,1-4,12.63,12.63,0,0,1,2.49-3.31,23.37,23.37,0,0,1,3.24-2.56l1.73-1.09A10.65,10.65,0,0,0,93,74.49Z"/><path class="cls-2" d="M51.24,5.31a22.52,22.52,0,0,1,5.55.41,47.61,47.61,0,0,1,5.38,1.49c3.53,1.18,7,2.65,10.45,3.85a33.31,33.31,0,0,0,10.75,2.29c1.86.05,3.71.05,5.56,0,.93,0,1.85-.07,2.78-.15a10,10,0,0,0,2.71-.51,10.34,10.34,0,0,1-2.7.65c-.92.13-1.85.21-2.77.28-1.86.12-3.72.17-5.58.18a23.8,23.8,0,0,1-5.57-.63,47.17,47.17,0,0,1-5.37-1.56c-3.51-1.26-6.92-2.72-10.4-4A31.32,31.32,0,0,0,51.24,5.31Z"/><path class="cls-2" d="M57.76,67.16c-1.11.6-2.23,1.16-3.34,1.72l-3.35,1.69c-2.24,1.11-4.44,2.28-6.65,3.48a28.55,28.55,0,0,1,3.1-2.15c1.07-.66,2.19-1.24,3.29-1.83s2.27-1.09,3.42-1.58S56.56,67.54,57.76,67.16Z"/><path class="cls-2" d="M137,68.23q6.45-6.07,13-12.1l13.06-12,0,0,7.58-10.1h0l8.73-9.56,8.79-9.5-8.54,9.73L171,34.4h0l-7.53,10.12,0,0,0,0-13.16,11.9Q143.65,62.38,137,68.23Z"/><path class="cls-2" d="M20.94,183.46q8.1-8,16.38-15.83c2.74-2.62,5.51-5.21,8.28-7.81s5.55-5.17,8.34-7.74l0,0a29.07,29.07,0,0,0,2.19-4,17,17,0,0,0,1.35-4.36,17.07,17.07,0,0,1-1.18,4.43,24.82,24.82,0,0,1-2.09,4.11h0v0c-2.73,2.64-5.46,5.27-8.22,7.88s-5.49,5.23-8.27,7.82Q29.39,175.82,20.94,183.46Z"/></g></g></svg>