<?xml version="1.0" encoding="UTF-8"?>
<!DOCTYPE svg PUBLIC "-//W3C//DTD SVG 1.1//EN" "http://www.w3.org/Graphics/SVG/1.1/DTD/svg11.dtd">
<!-- Creator: CorelDRAW -->
<svg xmlns="http://www.w3.org/2000/svg" xml:space="preserve" width="50.208mm" height="55.768mm" version="1.1" style="shape-rendering:geometricPrecision; text-rendering:geometricPrecision; image-rendering:optimizeQuality; fill-rule:evenodd; clip-rule:evenodd"
viewBox="0 0 5020.8 5576.8"
 xmlns:xlink="http://www.w3.org/1999/xlink"
 xmlns:xodm="http://www.corel.com/coreldraw/odm/2003">
 <defs>
  <style type="text/css">
   <![CDATA[
    .fil0 {fill:#8A592D}
    .fil1 {fill:url(#id0);fill-rule:nonzero}
   ]]>
  </style>
  <linearGradient id="id0" gradientUnits="userSpaceOnUse" x1="4428.88" y1="4547.7" x2="578.28" y2="1088.03">
   <stop offset="0" style="stop-opacity:1; stop-color:#FCEFB3"/>
   <stop offset="0.211765" style="stop-opacity:1; stop-color:#E6C387"/>
   <stop offset="0.501961" style="stop-opacity:1; stop-color:#CF975B"/>
   <stop offset="0.709804" style="stop-opacity:1; stop-color:#E5C387"/>
   <stop offset="1" style="stop-opacity:1; stop-color:#FCEFB3"/>
  </linearGradient>
 </defs>
 <g id="Capa_x0020_1">
  <metadata id="CorelCorpID_0Corel-Layer"/>
  <g id="_2005616397472">
   <path class="fil0" d="M3400.58 1646.49l215.73 -212.31c143.68,-141.39 287.85,-282.3 433.68,-421.48 145.73,-139.09 291.31,-278.35 437.81,-416.64 146.62,-138.41 293.64,-276.41 442.43,-412.5 19.71,-18.03 50.08,-17.39 69.01,1.46 18.94,18.85 19.72,49.21 1.78,69.01 -135.33,149.37 -273.27,296.34 -409.86,444.55 -136.6,148.23 -276.18,293.66 -414.81,439.98 -138.6,146.28 -277.56,292.22 -418.64,436.11l-211.67 215.9c-70.61,72.02 -142.06,143.21 -213.81,214.09 -19.1,18.87 -44.77,29.63 -71.65,29.63 -56.01,0 -101.45,-45.44 -101.45,-101.45 0,-26.58 10.56,-51.93 29.01,-71 70,-72.38 141.19,-143.58 212.44,-215.35zm-1565.24 1568.41c19.07,-18.4 44.33,-28.59 70.6,-28.59 56.01,0 101.45,45.44 101.45,101.45 0,26.56 -10.55,51.87 -28.95,70.96 -69.89,72.52 -141.23,143.62 -212.36,215.28l-214.48 211.84c-143.43,141.66 -288,282.15 -434.07,421.08 -200.45,190.65 -396.99,385.6 -598.17,575.44 -146.65,138.39 -293.64,276.41 -442.43,412.49 -19.73,18.04 -50.14,17.38 -69.06,-1.51 -18.93,-18.9 -19.65,-49.3 -1.64,-69.07 135.6,-148.79 272.92,-295.99 409.21,-444.14 187.17,-203.46 385.12,-398.3 575.55,-598.9 138.61,-146.02 278.7,-290.63 418.44,-435.92l211.85 -215.83c70.36,-71.68 141.77,-142.3 212.79,-213.33l1.27 -1.25zm-327.26 -837.77c36.05,7.17 71.75,16.06 106.91,26.59 145.43,43.54 281.02,107.49 419.57,167.99 -1.08,-6.02 -2.13,-12.03 -3.15,-18.04 -13.82,-71.71 -20.89,-145.35 -20.89,-218.93 0,-90.77 10.28,-181.58 31.78,-269.79 21.93,-89.96 66.93,-172.96 128.96,-241.59 0.29,-0.33 0.55,-0.6 0.85,-0.92 35.47,-37.3 77.99,-67.57 125.13,-88.29 46.51,-20.45 96.96,-30.73 147.75,-30.73 1.33,0 2.67,0.04 4,0.02 0.39,0 0.72,0 1.1,0 51.32,0.45 102.33,10.46 149.66,30.39 47.62,20.04 90.27,50.46 125.56,88.13 0.31,0.34 0.57,0.63 0.88,0.97 59.22,66.66 100.73,147.38 120.32,233.75 32.33,-7.93 65.58,-11.98 98.97,-11.98 19.21,0 38.45,1.3 57.48,3.98 95.73,13.44 183.53,59.85 249.81,130.04 67.23,71.21 109.63,162.6 118.46,260.29 1.3,14.39 1.78,28.85 1.78,43.3 0,79.44 -17.97,157.94 -52.23,229.59 -20.35,42.54 -46.81,82.09 -78.05,117.4 -31.37,35.44 -67.05,67.19 -106.82,92.95 -76.46,49.52 -163.17,81.51 -253.09,95.53 -167.28,26.08 -332.52,1.22 -494.39,-42.68 -17.12,-4.65 -34.11,-9.68 -51.01,-15 3.44,9.25 6.97,18.63 11.11,27.64 7.14,15.55 14.88,30.82 22.86,45.95 16.37,31.03 34.26,61.24 52.9,90.95 36.16,57.61 79,111.14 127.12,159.21 44.03,43.99 96.4,79.28 153.61,102.28 23.33,8.69 48.23,14.13 73.52,16.03 89.7,-124.98 195.38,-238.78 312.2,-338.73 80.61,-68.97 166.96,-131.83 258.77,-185.1 48.45,-28.11 99.69,-51.64 152.57,-70.11 29.83,-10.42 60.87,-17.46 91.67,-21.36 11.32,-1.69 23.31,-2.6 35.3,-2.6 28.95,0 57.72,5.2 84.83,15.35 0.33,0.13 0.61,0.24 0.94,0.37 26.64,10.59 50.19,27.89 68.25,50.15 0.37,0.46 0.68,0.86 1.04,1.33 18.2,24.05 29.08,52.95 31.18,83.05 0.4,5.68 0.56,11.38 0.56,17.07 0,14.46 -1.24,28.88 -3.63,43.11 17.94,-15.75 36.54,-30.79 55.86,-44.8 0.38,-0.28 0.71,-0.51 1.11,-0.78l34.4 -23.55c0.77,-0.53 1.44,-0.96 2.24,-1.45 13.92,-8.47 27.74,-17 42.34,-24.28 56.89,-28.33 118.36,-46.91 181.42,-54.86 26.41,-3.33 53.06,-5.02 79.68,-5.02 95.03,0 189.3,20.91 274.75,62.67 106.84,52.2 198.75,130.94 268.12,227.41 33.09,46 62.71,94.62 88.18,145.25 0.19,0.38 0.35,0.71 0.53,1.1 23.98,50.71 44.58,103.16 61.53,156.63 0.28,0.89 0.53,1.78 0.77,2.68 32.21,103.54 52.82,210.89 60.94,319.04 3.57,47.48 5.68,95.12 5.68,142.74 0,59.88 -2.68,119.9 -8.93,179.46 -11.34,108.07 -35.09,214.65 -67.98,318.15 -32.65,102.77 -74.97,202.58 -125.9,297.62 -50.66,94.57 -109.71,184.93 -176.23,269.11 -132.72,167.97 -295.15,311.19 -479.09,420.81 -92.25,54.98 -190.8,99.99 -292.9,133.31 -103.68,33.84 -212.3,52.56 -321.32,55.43 -7.14,0.19 -14.29,0.24 -21.44,0.24 -48.28,0 -96.59,-3.66 -144.79,-10.97l-39.09 -6.69c-0.85,-0.14 -1.58,-0.28 -2.42,-0.47l-37.53 -8.35c-26.31,-5.21 -51.79,-14.18 -78.16,-21.3 -0.54,-0.14 -1,-0.27 -1.53,-0.44 -107.15,-32.63 -208.2,-83.84 -296.8,-152.48 -44.72,-34.65 -85.75,-74.06 -123.81,-116.52 -37.26,-43.2 -70.77,-89.22 -99.87,-137.73 -57.42,-95.68 -101.45,-199.42 -129.16,-307.56 -34.71,-135.49 -51.56,-275.36 -51.56,-415.19 0,-76.03 5.14,-152.22 15.36,-227.56 0.07,-0.51 0.14,-0.94 0.22,-1.45l12.75 -76.92c0.06,-0.36 0.12,-0.67 0.19,-1.03 4.85,-25.9 8.95,-51.91 14.58,-77.66 5.63,-25.77 10.91,-51.66 17.24,-77.27 6.52,-26.36 12.98,-52.69 20.73,-78.73 28.16,-94.56 66.43,-186.12 113.22,-272.28 -11.85,-4.09 -23.58,-8.62 -35.19,-13.58 -80.71,-36.31 -152.61,-88.71 -212.87,-152.76 -55.83,-59.34 -106.14,-123.92 -149.24,-193.09 -42.79,-68.67 -79.52,-141.26 -107.8,-216.44 -16.76,-41.36 -32.32,-83.69 -46.45,-126.57 -53.15,-21.34 -106.11,-43.2 -159.98,-62.65 -136.13,-49.17 -275.08,-91.26 -415.51,-124.42 -66.18,-14.33 -132.98,-30.96 -200.45,-40.83 -37.89,-5.53 -76.18,-8.72 -114.48,-8.72 -24.07,0 -48.18,1.01 -72.13,3.38 -40.05,3.96 -79.86,10.78 -119.11,19.68l-19.04 8.56c-48.56,21.81 -98.47,40.88 -148.56,57.19l-35.48 12.44 -18.02 6.52c-1.58,0.58 -2.95,1 -4.57,1.42l-93.65 24.13c-163.79,40.17 -332.04,60.81 -500.4,60.81 -40.18,0 -80.4,-1.25 -120.97,-3.5 -51.85,-3.81 -91.63,-46.65 -91.63,-98.17 0,-51.52 39.77,-94.35 91.15,-98.15 1.47,-0.11 2.92,-0.16 4.35,-0.15 185.72,-12.82 369.66,-48.83 546.88,-105.74 43.18,-13.86 85.83,-29.78 127.36,-48.01 0.75,-0.33 1.41,-0.6 2.18,-0.9 42.63,-16.37 84.45,-35.03 125.13,-55.77 82.18,-41.91 162.17,-88.79 238.39,-140.8 76.35,-52.1 149.28,-109.27 219.13,-169.78 34.01,-32.08 71.01,-61.01 104.17,-93.92 33.48,-33.23 68.86,-64.66 100.92,-99.29 32.55,-35.16 66.44,-69.12 98.2,-105l95.77 -108.17 94.06 -109.82 91.41 -112.24c45.54,-55.9 90.82,-112 135.69,-168.19l-256.45 0.01c-48.93,0 -88.63,-39.7 -88.63,-88.63 0,-48.92 39.69,-88.62 88.61,-88.63l399.28 -0.09c31.37,-38.61 62.89,-77.09 94.41,-115.57 129.67,-158.34 271.14,-307.3 422.18,-446.12 20.8,-18.39 41.89,-36.43 63.27,-54.11 -86.69,11.37 -174.15,17.14 -261.55,17.14 -15.86,0 -31.73,-0.28 -47.59,-0.68 -126.77,-3.2 -253.39,-17.26 -378.11,-40.03 -114.29,-20.87 -226.22,-50.02 -339.66,-74.38 -47.19,-10.14 -94.94,-18.47 -143.01,-23.06 -1.35,-0.13 -2.5,-0.28 -3.83,-0.51 -8.65,-1.51 -17.85,-1.38 -26.61,-1.38 -12.7,0 -25.4,0 -38.1,0 -0.53,0 -0.99,-0.01 -1.52,-0.02 -24.68,-0.76 -49.59,1.52 -74.35,1.61 -49.09,2.66 -98.12,7.78 -146.63,15.84 -49.09,8.17 -97.74,19.29 -145.5,33.27 -96.49,28.24 -188.8,71.08 -272.87,126.17 -86.34,56.58 -161.56,128.75 -223.47,211.24 -61.88,82.43 -106.28,177.13 -127.72,277.59 -7.64,39.43 -11.66,80.06 -11.66,120.7 0,62.46 9.89,124.68 27.54,184.54 28.62,97.05 83.61,185.36 161.06,250.86 75,63.44 170.73,97.34 268.78,97.78 0.43,0 0.79,0.01 1.22,0.02 25.65,0.74 51.78,1.08 77.33,-1.82 26.45,-3 54.08,-4.01 80.16,-8.97 0.88,-0.17 1.62,-0.29 2.5,-0.41 51.15,-7.06 101.59,-20.17 149.63,-39.09 14.87,-5.86 29.31,-12.77 42.86,-19.64 18.5,-10.16 35.03,-24.7 47.88,-42.22 1.33,-7.7 2,-15.51 2,-23.33 0,-8.11 -0.73,-16.23 -2.15,-24.22 -4.66,-15.97 -7.05,-32.55 -7.05,-49.2 0,-46.92 18.82,-91.87 52.13,-124.78 30.31,-36.42 75.32,-57.56 122.81,-57.56 88.23,0 159.8,71.57 159.8,159.8 0,43.24 -17.53,84.55 -48.37,114.56 -34.93,52.95 -79.32,99.3 -130.22,137.14 -54.05,40.17 -113.8,72.64 -177.49,94.7 -108.26,37.49 -222.53,56.32 -337.07,56.32 -12.59,0 -25.16,-0.51 -37.74,-0.71 -137.2,-2.12 -269.69,-51.72 -374.44,-140.36 -0.39,-0.33 -0.72,-0.62 -1.09,-0.96 -98.51,-88.4 -170.71,-202.23 -210.64,-328.3 -28.85,-91.1 -44.72,-186.06 -44.72,-281.69 0,-33.87 1.88,-67.75 5.62,-101.41 0.05,-0.46 0.09,-0.85 0.16,-1.3 17.61,-127.87 58.46,-251.55 117.95,-365.98 123.03,-236.69 316.21,-430.74 554.75,-550.79 60.47,-30.43 124.06,-54.71 188.92,-73.95 65.14,-19.31 131.92,-33.44 199.27,-42.32 0.44,-0.06 0.81,-0.1 1.24,-0.15 34.21,-3.64 67.88,-8.75 101.61,-8.74 16.27,-0.53 33.15,-1.86 50.27,-1.86 17.64,0 35.28,0 52.92,0 1.05,0 1.95,0.03 3,0.09 68.73,4.13 137.21,14.61 204.17,30.65 117.68,28.18 229.12,69.03 344.43,105.99 101.59,34.63 205.63,61.08 311.29,77.33 52.18,8.02 104.92,13.07 157.67,15.1 53.34,2.05 106.82,2.06 160.09,-1.52 54.41,-3.65 108.66,-9.38 162.67,-16.84 55.98,-7.73 111.5,-19.23 167.05,-29.53 117.8,-21.85 236.21,-40.5 355.34,-53.47 60.92,-6.63 122.1,-10.75 183.36,-12.19 31.88,-0.74 63.78,-0.34 95.61,1.68 16.89,1.07 33.76,2.6 50.54,4.84 9.64,1.28 19.2,2.87 28.69,5l12.96 2.91c1.34,0.3 2.47,0.6 3.77,1.01l3.63 1.11c2.77,0.5 5.52,1.08 8.26,1.73 1.42,0.33 2.61,0.67 3.99,1.12 36.12,11.79 60.57,45.5 60.57,83.5 0,48.49 -39.35,87.84 -87.84,87.84 -9.22,0 -18.34,-1.45 -27.06,-4.27 -1.85,0.09 -3.64,0.08 -5.62,-0.05 -2.12,-0.13 -4.24,-0.21 -6.37,-0.21 -1.76,0 -3.52,0.05 -5.28,0.12 -165.87,20.72 -327.41,71.56 -473.7,152.73 -161.22,89.45 -306.77,205.46 -434.69,337.94 -109.42,113.32 -214.37,231.16 -313.27,353.82l247.98 0c48.93,0 88.63,39.7 88.63,88.63 0,48.92 -39.7,88.62 -88.62,88.62l-386.79 0.01c-96.31,123.19 -191.83,246.99 -291.4,367.59l-95.54 115.71 -98.5 114.99c-34.06,38.33 -70.44,73.72 -104.99,110.95 -34.56,37.22 -71.24,72.35 -106.49,108.9 -36.15,37.48 -74.96,72.07 -112.96,107.63 -37.98,35.54 -78.64,67.94 -118.62,101.17 -0.3,0.24 -0.55,0.45 -0.86,0.69 -13.16,10.45 -26.41,20.8 -39.75,31.02zm2107.11 934.09c-40.51,40.66 -84.25,78.08 -130.83,111.77 -87.37,63.19 -183.81,113.85 -285.92,148.64 -60.73,20.69 -123.64,35.22 -187.32,43.18 -14.49,27.91 -28.31,56.16 -41.46,84.72 -36.8,79.97 -67.63,162.98 -91.09,247.84 -5.95,21.56 -10.71,43.5 -16.02,65.23 -5.49,22.47 -10.04,45.17 -15.16,67.72 -10.14,44.69 -18.21,89.81 -25.94,134.96 -18.19,106.22 -27.76,213.98 -27.76,321.76 0,72.35 4.32,144.85 12.44,216.22 11.4,84.75 35.07,168.21 69.53,247 67.95,155.37 199.13,274.63 359.87,326.83 20.84,6.19 42.22,12.91 63.96,18.22 20.91,5.11 42.01,10.28 63.33,13.38 33.59,4.89 67.59,7.13 101.53,7.13 9.22,0 18.45,-0.27 27.15,-0.49 175.78,-8.29 346.27,-80.26 487.31,-184.23 145.66,-107.37 269.23,-242.79 367.09,-394.77 48.91,-75.96 93.72,-154.96 131.55,-237.04 37.58,-81.53 69.86,-165.73 95.32,-251.84 51,-172.45 78.59,-351.76 82.22,-531.55 0.28,-13.92 0.64,-27.84 0.64,-41.76 0,-74.61 -7.07,-149.15 -19.59,-222.67 -14.01,-82.22 -42.21,-161.9 -85.48,-233.32 -20.6,-34 -45.99,-65.07 -73.67,-92.7 -27.66,-26.28 -59.68,-48.74 -94.04,-66.65 -46.39,-24.17 -97.92,-37.12 -150.26,-37.12 -21.64,0 -43.31,2.06 -64.5,6.51 -33.69,7.08 -65.79,20.94 -94.34,40.16 -6.68,4.5 -13.01,9.93 -19.44,14.9l-22.43 19.74c-13.54,12.77 -27.01,26.93 -39.54,41.83 -23.76,28.26 -44,59.58 -59.69,93 -14.71,31.34 -24.72,64.89 -29.99,99.09 -1.88,12.21 -2.92,24.57 -2.92,36.93 0,17.93 2.08,35.9 6.16,53.36 0.09,0.4 0.17,0.73 0.25,1.13 2.63,12.57 6.9,24.8 12.58,36.32 0.37,0.75 0.67,1.4 1,2.17 5.45,12.52 12,24.59 19.18,36.2 34.11,55.13 97.83,97.34 152.69,131.4 3.07,1.15 6.08,2.63 9.07,4.48 25.56,15.74 41.13,43.63 41.13,73.65 0,16.15 -4.48,32.02 -13.05,45.71 -8.96,14.32 -21.94,25.77 -37.32,32.75 -40.28,18.3 -84.14,27.67 -128.37,27.67 -27.94,0 -55.8,-3.83 -82.75,-11.19 -74.01,-20.21 -140.25,-62.93 -188.46,-122.68 -46.89,-58.11 -76.85,-128.03 -87.82,-201.82 -4.13,-27.81 -6.52,-55.9 -6.52,-84.02 0,-40.17 4.42,-80.38 13.28,-119.57 1.38,-6.09 2.85,-12.15 4.4,-18.18zm-915.85 -976.62c-7.64,9.63 -14.72,19.71 -21.18,30.15 -5.93,9.59 -9.07,20.7 -9.07,31.98 0,5.21 0.69,10.42 1.99,15.47 0.11,0.41 0.19,0.77 0.29,1.18 0.07,0.31 0.19,0.6 0.35,0.85 6.82,-4.16 11.88,-10.85 13.94,-18.77 0.33,-1.28 0.65,-2.35 1.08,-3.6 6.33,-18.55 10.58,-37.78 12.6,-57.26zm-455.31 327.88l10.84 4.67c64.8,27.92 130.88,53.62 198.35,74.36 125.09,38.44 263.1,65.61 394.05,48.74 58.45,-7.53 115.18,-26.35 165.65,-56.95 48.18,-29.2 87.45,-71.27 114.28,-120.74 25.84,-47.64 39.83,-101.11 39.83,-155.35 0,-2.66 -0.05,-5.33 -0.07,-7.55 -0.83,-25.76 -6.23,-51.79 -15.86,-76.17 -0.15,-0.39 -0.27,-0.71 -0.42,-1.1 -9.25,-25.16 -22.6,-48.81 -39.51,-69.63 -34.38,-42.35 -82.65,-71.42 -136.18,-81.93 -15.27,-2.99 -30.86,-4.41 -46.41,-4.41 -20.24,0 -40.41,2.51 -60,7.42 0.06,3.9 0.09,7.79 0.09,11.69 0,26.59 -1.39,53.18 -4.07,79.64 -2.7,45.8 -12.65,91.21 -29.99,133.71 -10.7,26.22 -26.39,50.16 -45.92,71.25 -25.15,26.18 -57.71,43.32 -93.08,49.15 -0.9,0.14 -1.68,0.25 -2.58,0.35 -5.71,0.64 -11.44,0.96 -17.18,0.96 -32.24,0 -63.74,-9.98 -90.04,-28.64 -28.75,-20.4 -50.23,-49.49 -61.37,-82.93 -0.17,-0.52 -0.31,-0.96 -0.47,-1.48 -5.97,-20.01 -9.04,-40.83 -9.04,-61.71 0,-37.78 9.97,-74.93 28.87,-107.64 11.33,-21.22 25.02,-41.16 40.31,-58.87 13.3,-16.3 28.04,-32.31 43.55,-47.5 16.62,-16.28 34.29,-31.49 52.89,-45.46 -2.17,-8.09 -4.49,-16.13 -6.97,-24.13 -17.55,-56.6 -48.53,-108.57 -91.49,-149.55 -33.88,-32.32 -79.28,-49.77 -126,-49.77 -1.92,0 -3.84,0.05 -5.76,0.07 -47,0.39 -92.29,19.75 -124.15,54.47 -39.53,43.09 -67.91,95.47 -83.85,152.17 -39.27,129.9 -37.96,271.65 -21.39,404.75 5.76,46.3 13.44,92.44 23.09,138.11zm900.81 729.98c84.31,-24.11 164.08,-63.21 235.42,-114.14 72.57,-51.82 136.01,-115.85 187.82,-188.41 23.55,-32.98 42.51,-69.22 55.98,-107.44 0.91,-2.57 1.7,-5.17 2.38,-7.79 -0.82,0.16 -1.64,0.34 -2.45,0.53 -0.53,0.13 -0.98,0.23 -1.51,0.34 -17.2,3.61 -34.13,8.89 -50.18,16.06 -38.48,17.19 -74.92,38.97 -108.85,63.93 -70.74,52.05 -136.04,111.56 -194.15,177.42 -1.51,2.48 -3.27,4.87 -5.27,7.18 -42.25,48.66 -82.1,99.54 -119.19,152.32z"/>
   <path class="fil1" d="M3435.75 1716.69c-70.91,71.44 -142.08,142.35 -211.67,214.58 -9.58,9.63 -14.95,22.66 -14.95,36.24 0,28.41 23.04,51.45 51.45,51.45 13.71,0 26.86,-5.48 36.51,-15.2 71.7,-70.64 142.35,-142.35 213.25,-213.52l211.67 -215.9c139.7,-144.73 279.66,-289.45 418.04,-435.5 138.38,-146.05 277.55,-291.04 414.34,-439.47 136.79,-148.43 274.37,-295.01 409.58,-444.24 -148.7,136 -295.54,273.84 -441.85,411.96 -146.31,138.12 -292.62,278.07 -437.61,416.45 -144.99,138.38 -288.93,280.46 -433.13,420.95l-215.63 212.2zm1418.96 1766.09c-16.23,-51.23 -36.11,-101.82 -59.06,-150.36 -24.26,-48.22 -52.5,-94.74 -84.1,-138.53 -64.52,-89.87 -150.34,-162.61 -249.48,-211.68 -78.85,-37.91 -165.33,-57.59 -252.8,-57.59 -24.52,0 -49.12,1.57 -73.43,4.63 -57.5,7.25 -113.51,24.2 -165.38,50.01 -13.23,6.61 -26.46,14.82 -38.63,22.23l-34.4 23.55c-22.45,16.28 -44.17,34.13 -64.57,52.94 -86.75,78.9 -147.34,182.73 -173.3,297.12 -7.94,35.55 -12.05,72.08 -12.05,108.54 0,25.66 2.05,51.38 5.98,76.67 9.49,65.03 36.21,126.44 77.27,177.77 41.82,51.39 98.8,88.44 162.72,105.85 22.65,6.23 46.07,9.42 69.58,9.42 37.12,0 73.86,-7.92 107.69,-23.19 6.39,-3 11.82,-7.78 15.61,-13.75 3.55,-5.76 5.44,-12.41 5.44,-19.19 0,-12.67 -6.57,-24.44 -17.35,-31.08l-1.85 0c-89.96,-55.56 -142.61,-97.63 -176.21,-152.14 -8.53,-13.58 -16.12,-27.88 -22.51,-42.58 -7.53,-15.28 -13.18,-31.5 -16.67,-48.18 -4.94,-21.16 -7.47,-42.96 -7.47,-64.73 0,-14.9 1.18,-29.84 3.5,-44.54 5.94,-38.93 17.54,-77.02 34.15,-112.73 17.65,-37.26 40.15,-72.31 66.68,-103.93 13.76,-16.29 28.64,-32 44.14,-46.61l24.34 -21.43c7.67,-5.82 15.08,-12.17 23.28,-17.73 33.94,-22.81 72.04,-39.04 111.98,-47.61 24.58,-4.99 49.66,-7.58 74.78,-7.58 60.4,0 119.93,14.7 173.36,42.78 38.62,19.87 74.34,45.25 105.82,75.17 30.97,30.9 58.47,65.4 81.55,102.61 46.13,77.01 77.44,162.22 92.01,250.83 13.5,76.17 20.3,153.62 20.3,231.07 0,14.26 -0.32,28.68 -0.65,42.77 -3.67,184.21 -32.22,367.88 -84.26,544.72 -26.36,88.3 -59.63,174.94 -97.86,258.59 -38.99,83.87 -84.5,165.6 -134.92,243.18 -100.84,157.34 -229.67,295.89 -379.46,407.95 -150.81,109.54 -329.94,185.21 -515.14,193.94 -9.45,0.25 -19.36,0.53 -28.99,0.53 -36.34,0 -72.77,-2.55 -108.73,-7.65 -22.75,-3.44 -45.24,-8.73 -68,-14.29 -22.76,-5.56 -44.71,-12.44 -66.94,-19.05 -174.95,-56.8 -317.3,-186.03 -390.83,-354.53 -36.47,-83.01 -61.25,-171 -73.34,-260.88 -8.35,-73.4 -12.82,-148.24 -12.82,-222.38 0,-110.61 9.65,-221.23 28.48,-330.2 7.67,-45.77 15.88,-91.81 26.46,-137.58 5.03,-23.02 9.79,-45.77 15.35,-68.53 5.56,-22.76 10.58,-45.51 16.4,-66.68 24.13,-87.19 55.75,-173.13 93.86,-255.42 16.93,-37.31 35.45,-74.08 55.03,-110.6 69.08,-6.6 137.48,-21.37 203.05,-43.73 97.33,-33.14 189.48,-81.22 272.74,-141.82 83.5,-60.01 157.39,-132.68 218.77,-215.04 32.44,-42.3 58.69,-89.17 77.58,-138.99 9.5,-24.44 14.44,-50.59 14.44,-76.87 0,-4.52 -0.16,-9.1 -0.44,-13.59 -1.46,-20.42 -8.82,-40.04 -21.17,-56.36 -12.67,-15.62 -29.2,-27.76 -47.89,-35.19 -21.5,-8.05 -44.32,-12.18 -67.3,-12.18 -9.52,0 -19.07,0.73 -28.47,2.13 -27.85,3.53 -55.44,10.02 -82.01,19.03 -49.77,17.66 -98.16,39.92 -143.97,66.16 -88.93,51.94 -173.59,112.44 -251.35,179.84 -120.74,102.44 -228.8,221.25 -319.36,351.5 -1.68,-0.05 -3.52,-0.01 -5.27,-0.01 -38.09,0 -75.99,-6.86 -111.66,-20.16 -64.03,-25.73 -122.3,-64.51 -170.89,-113.53 -51,-50.48 -96.23,-107.1 -134.13,-168.01 -19.58,-30.69 -37.84,-62.18 -54.77,-94.19 -8.47,-16.14 -16.67,-32.28 -24.08,-48.42 -7.41,-16.14 -13.23,-33.87 -19.84,-50.27 -9.79,-26.46 -19.31,-52.92 -28.31,-79.38 48.15,17.46 96.84,33.87 146.58,47.89 150.28,40.22 310.09,67.47 473.6,41.54 83.12,-12.52 162.92,-42.66 233.61,-88.1 35.77,-23.51 68.34,-51.91 96.56,-84.12 28.31,-31.67 52.13,-67.42 70.38,-105.83 31.14,-64.87 47.34,-136 47.34,-208.02 0,-12.91 -0.59,-25.94 -1.58,-38.8 -7.99,-86.46 -45.04,-167.76 -105.02,-230.46 -58.13,-62.38 -135.99,-102.95 -220.4,-114.86 -16.72,-2.29 -33.67,-3.49 -50.53,-3.49 -47.06,0 -93.77,9.14 -137.35,26.81 -2.65,-15.08 -5.03,-30.16 -8.47,-44.98 -17.02,-81.81 -55.34,-157.91 -110.85,-220.39 -30.5,-32.57 -67.47,-58.56 -108.46,-76.23 -41.46,-17.04 -85.85,-26.08 -130.69,-26.47 -1.5,0.02 -3.14,-0.02 -4.67,-0.02 -43.89,0 -87.38,9.04 -127.63,26.5 -40.99,18.26 -78.11,44.47 -109.01,76.97 -56.5,62.51 -97.02,138.17 -117.47,219.9 -20.05,84.43 -30.36,171.12 -30.36,257.95 0,70.41 6.78,140.96 20.08,210.01 6.35,37.31 13.76,74.61 22.23,111.13l-74.35 -32.28c-139.17,-59.8 -276.75,-126.74 -427.83,-171.98 -71.89,-21.52 -146.27,-35.92 -220.93,-42.32 46.71,-32.77 92.38,-66.88 137.01,-102.34 39.16,-32.54 79.38,-64.56 116.42,-99.22 37.04,-34.66 75.41,-68.79 111.13,-105.83 35.72,-37.04 71.7,-71.44 105.83,-108.21 34.13,-36.77 70.11,-71.7 103.97,-109.8l97.9 -114.3 95.25 -115.36c105.83,-127.53 205.32,-257.7 305.59,-385.76l411.16 -0.01c21.32,0.01 38.62,-17.29 38.62,-38.62 0,-21.33 -17.3,-38.63 -38.63,-38.63l-351.09 0c117.9,-152.91 245.41,-299.8 380.41,-438.55 131.03,-136.76 281.66,-253.97 446.4,-346.93 153.1,-83.38 320.71,-137.5 493.75,-158.87l-0.02 0.05c3.14,-0.2 6.33,-0.31 9.51,-0.31 3.18,0 6.37,0.11 9.53,0.31 1.4,-0.14 2.82,-0.22 4.23,-0.22 1.41,0 2.83,0.08 4.23,0.22l3.7 0c0,0 2.91,0 0,0 5.37,2.77 11.32,4.22 17.36,4.22 20.9,0 37.84,-16.95 37.84,-37.84 0,-16.37 -10.53,-30.89 -26.09,-35.97 -2.7,-0.64 -5.45,-1.19 -8.2,-1.59l-6.88 -2.12 -12.96 -2.91c-8.47,-1.85 -16.4,-3.18 -24.34,-4.23 -15.88,-2.12 -31.75,-3.7 -47.1,-4.5 -30.69,-2.12 -61.12,-2.12 -91.28,-1.59 -60.33,1.59 -120.12,5.03 -179.12,11.91 -118.53,12.44 -235.48,31.49 -351.63,52.92 -59.27,11.11 -113.77,22.23 -169.33,29.9 -55.56,7.67 -110.86,13.49 -166.16,17.2 -55.3,3.71 -110.6,3.44 -165.36,1.59 -54.55,-2.36 -109.44,-7.83 -163.35,-15.64 -108.42,-17.14 -215.44,-43.84 -319.39,-79.28 -107.55,-34.47 -216.03,-75.21 -340.38,-104.84 -63.96,-15.47 -129.74,-25.41 -195.52,-29.36 -17.2,0 -34.93,0 -52.92,0 -17.99,0 -32.81,1.32 -49.48,1.85 -32.28,0 -64.82,5.03 -97.1,8.47 -64.69,8.53 -129,22.27 -191.59,40.69 -61.9,18.5 -122.58,42.28 -180.66,70.67 -228.66,115.93 -415.33,301.25 -532.87,529.19 -57.61,109 -95.94,227.49 -112.78,349.74 -3.53,31.79 -5.31,63.89 -5.31,95.89 0,90.54 14.37,180.56 42.39,266.59 36.56,117.87 104.54,223.79 196.36,306.19 95.92,81.17 217.23,126.75 342.91,128.54 12.17,0.34 24.69,0.7 36.97,0.7 109.07,0 217.66,-18.18 320.71,-53.57 58.74,-20.64 114.17,-50.21 164.02,-87.58 47.96,-35.33 89.29,-79.29 121.48,-129.4 23.48,-20.84 36.94,-50.76 36.94,-82.17 0,-60.63 -49.17,-109.8 -109.8,-109.8 -33.43,0 -65.08,15.25 -85.9,41.41 -24.91,23.67 -39.04,56.56 -39.04,90.93 0,12.68 1.94,25.29 5.71,37.39l-0.02 0c2.32,11.85 3.51,23.95 3.51,36.03 0,14.59 -1.71,29.16 -5.09,43.35 -17.93,27.68 -42.51,50.54 -71.44,66.4 -15.61,7.94 -31.49,15.35 -47.89,21.96 -51.76,20.23 -106.05,34.5 -161.11,42.1 -26.46,5.03 -55.83,6.35 -83.87,9.53 -28.04,3.18 -56.89,2.91 -84.4,2.12 -109.93,-0.49 -216.37,-39.35 -300.85,-109.6 -84.22,-72.44 -145.78,-168.17 -176.73,-274.9 -19.5,-64.34 -29.58,-131.43 -29.58,-198.68 0,-43.84 4.33,-87.67 12.67,-130.68 23.04,-108 69.85,-209.78 136.72,-297.63 64.85,-87.62 144.94,-163.17 236.05,-223.04 88.24,-57.66 185.1,-102.42 286.23,-132.34 49.72,-14.24 100.45,-25.82 151.35,-34.6 50.77,-8.13 102.2,-13.79 153.44,-16.52 26.46,0 51.33,-2.38 77.26,-1.59 12.7,0 26.46,0 38.1,0 11.64,0 23.02,0 35.19,2.12 49.96,4.77 99.95,13.03 148.76,23.94 104.25,21.96 218.55,52.92 338.14,74.08 121.96,22.94 246.46,36.15 370.39,39.24 15.04,0.42 31.03,0.66 46.33,0.66 108.52,0 217.28,-9.08 324.13,-27.01 46.3,-7.67 92.08,-17.2 137.32,-28.05 -79.92,54.39 -157.2,115.09 -229.7,179.17 -148.89,136.85 -289.13,284.36 -416.97,440.66 -36.78,44.71 -73.03,89.16 -109.27,133.88l-423.09 0.1c-21.32,0 -38.62,17.3 -38.62,38.63 0,21.33 17.3,38.63 38.63,38.63l360.35 -0.01c-5.03,6.35 -10.58,12.7 -15.61,19.31 -61.2,77.26 -122.94,154.08 -185.21,230.46l-91.81 112.71 -94.72 110.6 -96.04 108.48c-32.28,35.98 -65.88,70.11 -98.95,105.83 -33.07,35.72 -68.26,66.94 -102.39,100.81 -34.13,33.87 -71.44,62.97 -105.83,95.51 -71.48,61.96 -146.48,120.56 -224.51,174 -77.75,52.86 -160.12,101.34 -243.86,144.04 -42.08,21.46 -85.75,40.95 -129.92,57.91 -42.86,18.82 -87.43,35.8 -132.17,49.84 -182.37,58.88 -371.69,95.43 -562.72,108.28l-0.11 -0.14c-25.28,1.87 -44.84,22.94 -44.84,48.29 0,25.35 19.56,46.42 44.84,48.28 38.76,2.14 78.63,3.39 117.76,3.39 164.48,0 328.7,-20.18 488.2,-59.3l74.88 -19.31 18.52 -4.76 18.26 -6.61 36.25 -12.7c48.61,-15.84 97.19,-34.71 144.08,-55.44l23.55 -10.58c42.76,-9.89 86.47,-17.31 130.17,-21.81 25.49,-2.34 51.37,-3.62 77.05,-3.62 40.73,0 81.47,3.15 121.71,9.25 66.68,9.53 134.67,26.46 204.26,41.54 142.43,33.62 283.84,76.32 421.45,126.15 61.91,22.23 121.44,47.36 183.36,71.97 15.53,49.06 33.08,97.76 52.66,146.09 27.34,72.65 62.28,142.52 103.67,208.19 41.04,66.63 89.2,128.8 143.22,185.27 55.3,59.73 122.24,107.8 196.53,141.23 29.04,12.4 59.39,21.93 90.26,28.33 -5.03,8.47 -10.32,16.93 -15.35,26.46 -52.6,91.81 -94.71,189.78 -125.1,291.13 -7.67,26.46 -14.29,52.92 -20.11,76.46 -5.82,23.54 -11.38,50.54 -16.93,75.94 -5.55,25.4 -9.53,50.8 -14.29,76.2l-12.75 76.92c-9.89,72.85 -14.91,147.14 -14.91,220.83 0,135.73 16.87,271.26 50,402.78 27.04,103.35 68.78,202.65 123.59,294.25 27.69,45.9 59.55,89.85 94.55,130.44 35.67,39.79 74.95,76.78 116.88,110 84.16,64.47 179.36,113.31 280.74,144.18 26.46,7.14 50.01,15.61 75.41,20.64l38.1 8.47 38.63 6.61c45.23,6.86 91.08,10.33 136.82,10.33 6.6,0 13.64,-0.11 20.13,-0.22 104.13,-2.8 207.95,-20.72 307.12,-52.98 98.41,-32.22 193.72,-75.73 282.81,-128.73 178.76,-106.63 336.81,-245.42 465.46,-408.86 64.94,-81.57 122.47,-169.76 171.39,-261.72 49.68,-92.07 90.95,-189.19 122.32,-289.15 32.24,-100.23 54.56,-203.67 65.9,-308.23 5.68,-57.62 8.66,-116.25 8.66,-174.24 0,-46.26 -1.92,-92.95 -5.54,-139 -7.74,-105.2 -28.08,-209.77 -59.61,-310.44l0.09 0.08zm-2103.97 -1140.88c-0.01,0.24 -0.01,0.54 -0.01,0.77 0,34.01 -5.69,67.87 -16.68,100.03 -7.16,27.56 -28.24,49.36 -55.54,57.43 -1.43,0.11 -2.87,0.17 -4.3,0.17 -24.6,0 -45.97,-16.97 -51.54,-40.92 -2.36,-9.13 -3.58,-18.55 -3.58,-27.98 0,-20.57 5.74,-40.78 16.55,-58.28 18.22,-29.44 40.76,-56.3 66.65,-79.37 14.25,-12.38 29.57,-23.8 45.54,-33.89 2.03,21.18 3.15,42.77 3.15,64.13 0,5.9 -0.08,12.11 -0.24,17.93l0 -0.02zm-579.43 223.31c-17.99,-143.93 -17.46,-291.04 23.02,-424.92 17.94,-63.83 50.53,-122.83 95.01,-171.97 41.51,-44.57 99.63,-70.15 160.57,-70.67 2.03,-0.01 4.15,-0.07 6.18,-0.07 59.62,0 117.06,22.75 160.51,63.59 48.8,47.15 84.89,106.03 104.74,170.92 6.35,19.58 11.38,39.95 15.88,60.33 -26.8,17.33 -51.83,37.39 -74.57,59.79 -14.23,13.81 -27.72,28.58 -40.25,43.92 -13.48,15.63 -25.22,32.78 -34.9,51.04 -14.77,25.28 -22.57,54.06 -22.57,83.33 0,16.04 2.36,32.03 6.95,47.39 7.78,23.36 22.79,43.67 42.86,57.95 17.85,12.62 39.22,19.42 61.11,19.42 3.89,0 7.78,-0.22 11.64,-0.65 24.73,-4.07 47.48,-16.06 64.83,-34.12 15.14,-16.35 27.35,-35.27 35.99,-55.82 15.17,-37.82 24.15,-78.11 26.44,-118.81 2.58,-25.12 3.92,-50.39 3.92,-75.66 0,-15.77 -0.54,-31.72 -1.52,-47.4 35.35,-14.29 73.26,-21.71 111.43,-21.71 18.78,0 37.62,1.81 56.04,5.35 65.01,12.84 123.56,48.08 165.37,99.47 20.32,25.13 36.46,53.55 47.62,83.89 11.73,29.72 18.31,61.42 19.33,93.38 0.04,2.83 0.09,5.83 0.09,8.7 0,62.58 -15.84,124.34 -45.88,179.19 -30.84,57.39 -76.62,105.72 -132.31,139.66 -56.5,34.07 -119.67,55.91 -185.18,63.78 -135.2,17.99 -278.34,-9 -415.13,-50.54 -68.86,-21.67 -137.49,-47.37 -203.44,-76.23l-34.4 -14.82c-12.53,-55 -22.46,-111.55 -29.36,-167.69l-0.02 -0.02zm1054.89 675.74c61.86,-71.07 131.57,-135.37 207.62,-191.01 36.67,-27.29 76.45,-50.57 118.09,-69.31 19.32,-8.49 39.62,-15 60.3,-19.34 8.17,-1.98 16.6,-3 25.01,-3 8.41,0 16.84,1.02 25,3 4.33,1.41 8.44,3.47 12.18,6.07 2.78,3.36 4.36,7.55 4.49,11.91 0.17,2.93 0.29,5.91 0.29,8.87 0,15.55 -2.7,30.99 -7.96,45.62 -14.94,42.67 -36.04,83.15 -62.45,119.88 -54.91,77.15 -122.4,144.95 -199.46,200.04 -76.73,54.72 -162.58,96.28 -253.2,122.23 -38.36,10.48 -77.94,17.92 -117.52,21.95 55.18,-90.09 118.39,-176.01 187.68,-255.83l-0.07 -1.08zm-1355.99 44.45c-71.7,70.64 -142.08,142.35 -213.25,213.78l-211.67 215.64c-139.44,144.99 -279.4,289.45 -418.04,435.5 -138.64,146.05 -438.22,449.63 -575.01,598.33 -136.79,148.7 -273.06,294.75 -409.05,443.97 148.69,-135.99 295.98,-273.31 441.85,-411.95 146.84,-137.58 451.98,-436.4 598.03,-575.31 146.05,-138.91 288.93,-280.19 433.39,-420.42l214.31 -211.67c70.91,-71.44 142.35,-142.35 211.67,-214.58 9.58,-9.65 14.95,-22.68 14.95,-36.26 0,-28.41 -23.04,-51.45 -51.45,-51.45 -13.71,0 -26.86,5.48 -36.51,15.2l0.78 -0.78z"/>
  </g>
 </g>
</svg>
