<?xml version="1.0" encoding="UTF-8"?>
<!DOCTYPE svg PUBLIC "-//W3C//DTD SVG 1.1//EN" "http://www.w3.org/Graphics/SVG/1.1/DTD/svg11.dtd">
<!-- Creator: CorelDRAW -->
<svg xmlns="http://www.w3.org/2000/svg" xml:space="preserve" width="49.1394mm" height="54.768mm" version="1.1" style="shape-rendering:geometricPrecision; text-rendering:geometricPrecision; image-rendering:optimizeQuality; fill-rule:evenodd; clip-rule:evenodd"
viewBox="0 0 4913.94 5476.8"
 xmlns:xlink="http://www.w3.org/1999/xlink"
 xmlns:xodm="http://www.corel.com/coreldraw/odm/2003">
 <defs>
  <style type="text/css">
   <![CDATA[
    .fil0 {fill:#BDBFC1;fill-rule:nonzero}
   ]]>
  </style>
 </defs>
 <g id="Capa_x0020_1">
  <metadata id="CorelCorpID_0Corel-Layer"/>
  <g id="Capa_2" data-name="Capa 2">
   <g id="Capa_1-2" data-name="Capa 1">
    <path class="fil0" d="M3385.73 1637.23c-70.91,71.44 -142.08,142.35 -211.67,214.58 -9.58,9.63 -14.95,22.66 -14.95,36.24 0,28.41 23.04,51.45 51.45,51.45 13.71,0 26.86,-5.48 36.51,-15.2 71.7,-70.64 142.35,-142.35 213.25,-213.52l211.67 -215.9c139.7,-144.73 279.66,-289.45 418.04,-435.5 138.38,-146.05 277.55,-291.04 414.34,-439.47 136.79,-148.43 274.37,-295.01 409.58,-444.24 -148.7,136 -295.54,273.84 -441.85,411.96 -146.31,138.12 -292.62,278.07 -437.61,416.45 -144.99,138.38 -288.93,280.46 -433.13,420.95l-215.63 212.2z"/>
    <path class="fil0" d="M1820.19 3205.94c-71.7,70.64 -142.08,142.35 -213.25,213.78l-211.67 215.64c-139.44,144.99 -279.4,289.45 -418.04,435.5 -138.64,146.05 -277.28,291.04 -414.07,439.74 -136.79,148.7 -273.06,294.75 -409.05,443.97 148.69,-135.99 295.98,-273.31 441.85,-411.95 146.84,-137.58 291.04,-277.81 437.09,-416.72 146.05,-138.91 288.93,-280.19 433.39,-420.42l214.31 -211.67c70.91,-71.44 142.35,-142.35 211.67,-214.58 9.58,-9.65 14.95,-22.68 14.95,-36.26 0,-28.41 -23.04,-51.45 -51.45,-51.45 -13.71,0 -26.86,5.48 -36.51,15.2l0.78 -0.78z"/>
    <path class="fil0" d="M4804.69 3403.32c-16.23,-51.23 -36.11,-101.82 -59.06,-150.36 -24.26,-48.22 -52.5,-94.74 -84.1,-138.53 -64.52,-89.87 -150.34,-162.61 -249.48,-211.68 -78.85,-37.91 -165.33,-57.59 -252.8,-57.59 -24.52,0 -49.12,1.57 -73.43,4.63 -57.5,7.25 -113.51,24.2 -165.38,50.01 -13.23,6.61 -26.46,14.82 -38.63,22.23l-34.4 23.55c-22.45,16.28 -44.17,34.13 -64.57,52.94 -86.75,78.9 -147.34,182.73 -173.3,297.12 -7.94,35.55 -12.05,72.08 -12.05,108.54 0,25.66 2.05,51.38 5.98,76.67 9.49,65.03 36.21,126.44 77.27,177.77 41.82,51.39 98.8,88.44 162.72,105.85 22.65,6.23 46.07,9.42 69.58,9.42 37.12,0 73.86,-7.92 107.69,-23.19 6.39,-3 11.82,-7.78 15.61,-13.75 3.55,-5.76 5.44,-12.41 5.44,-19.19 0,-12.67 -6.57,-24.44 -17.35,-31.08l-1.85 0c-89.96,-55.56 -142.61,-97.63 -176.21,-152.14 -8.53,-13.58 -16.12,-27.88 -22.51,-42.58 -7.53,-15.28 -13.18,-31.5 -16.67,-48.18 -4.94,-21.16 -7.47,-42.96 -7.47,-64.73 0,-14.9 1.18,-29.84 3.5,-44.54 5.94,-38.93 17.54,-77.02 34.15,-112.73 17.65,-37.26 40.15,-72.31 66.68,-103.93 13.76,-16.29 28.64,-32 44.14,-46.61l24.34 -21.43c7.67,-5.82 15.08,-12.17 23.28,-17.73 33.94,-22.81 72.04,-39.04 111.98,-47.61 24.58,-4.99 49.66,-7.58 74.78,-7.58 60.4,0 119.93,14.7 173.36,42.78 38.62,19.87 74.34,45.25 105.82,75.17 30.97,30.9 58.47,65.4 81.55,102.61 46.13,77.01 77.44,162.22 92.01,250.83 13.5,76.17 20.3,153.62 20.3,231.07 0,14.26 -0.32,28.68 -0.65,42.77 -3.67,184.21 -32.22,367.88 -84.26,544.72 -26.36,88.3 -59.63,174.94 -97.86,258.59 -38.99,83.87 -84.5,165.6 -134.92,243.18 -100.84,157.34 -229.67,295.89 -379.46,407.95 -150.81,109.54 -329.94,185.21 -515.14,193.94 -9.45,0.25 -19.36,0.53 -28.99,0.53 -36.34,0 -72.77,-2.55 -108.73,-7.65 -22.75,-3.44 -45.24,-8.73 -68,-14.29 -22.76,-5.56 -44.71,-12.44 -66.94,-19.05 -174.95,-56.8 -317.3,-186.03 -390.83,-354.53 -36.47,-83.01 -61.25,-171 -73.34,-260.88 -8.35,-73.4 -12.82,-148.24 -12.82,-222.38 0,-110.61 9.65,-221.23 28.48,-330.2 7.67,-45.77 15.88,-91.81 26.46,-137.58 5.03,-23.02 9.79,-45.77 15.35,-68.53 5.56,-22.76 10.58,-45.51 16.4,-66.68 24.13,-87.19 55.75,-173.13 93.86,-255.42 16.93,-37.31 35.45,-74.08 55.03,-110.6 69.08,-6.6 137.48,-21.37 203.05,-43.73 97.33,-33.14 189.48,-81.22 272.74,-141.82 83.5,-60.01 157.39,-132.68 218.77,-215.04 32.44,-42.3 58.69,-89.17 77.58,-138.99 9.5,-24.44 14.44,-50.59 14.44,-76.87 0,-4.52 -0.16,-9.1 -0.44,-13.59 -1.46,-20.42 -8.82,-40.04 -21.17,-56.36 -12.67,-15.62 -29.2,-27.76 -47.89,-35.19 -21.5,-8.05 -44.32,-12.18 -67.3,-12.18 -9.52,0 -19.07,0.73 -28.47,2.13 -27.85,3.53 -55.44,10.02 -82.01,19.03 -49.77,17.66 -98.16,39.92 -143.97,66.16 -88.93,51.94 -173.59,112.44 -251.35,179.84 -120.74,102.44 -228.8,221.25 -319.36,351.5 -1.68,-0.05 -3.52,-0.01 -5.27,-0.01 -38.09,0 -75.99,-6.86 -111.66,-20.16 -64.03,-25.73 -122.3,-64.51 -170.89,-113.53 -51,-50.48 -96.23,-107.1 -134.13,-168.01 -19.58,-30.69 -37.84,-62.18 -54.77,-94.19 -8.47,-16.14 -16.67,-32.28 -24.08,-48.42 -7.41,-16.14 -13.23,-33.87 -19.84,-50.27 -9.79,-26.46 -19.31,-52.92 -28.31,-79.38 48.15,17.46 96.84,33.87 146.58,47.89 150.28,40.22 310.09,67.47 473.6,41.54 83.12,-12.52 162.92,-42.66 233.61,-88.1 35.77,-23.51 68.34,-51.91 96.56,-84.12 28.31,-31.67 52.13,-67.42 70.38,-105.83 31.14,-64.87 47.34,-136 47.34,-208.02 0,-12.91 -0.59,-25.94 -1.58,-38.8 -7.99,-86.46 -45.04,-167.76 -105.02,-230.46 -58.13,-62.38 -135.99,-102.95 -220.4,-114.86 -16.72,-2.29 -33.67,-3.49 -50.53,-3.49 -47.06,0 -93.77,9.14 -137.35,26.81 -2.65,-15.08 -5.03,-30.16 -8.47,-44.98 -17.02,-81.81 -55.34,-157.91 -110.85,-220.39 -30.5,-32.57 -67.47,-58.56 -108.46,-76.23 -41.46,-17.04 -85.85,-26.08 -130.69,-26.47 -1.5,0.02 -3.14,-0.02 -4.67,-0.02 -43.89,0 -87.38,9.04 -127.63,26.5 -40.99,18.26 -78.11,44.47 -109.01,76.97 -56.5,62.51 -97.02,138.17 -117.47,219.9 -20.05,84.43 -30.36,171.12 -30.36,257.95 0,70.41 6.78,140.96 20.08,210.01 6.35,37.31 13.76,74.61 22.23,111.13l-74.35 -32.28c-139.17,-59.8 -276.75,-126.74 -427.83,-171.98 -71.89,-21.52 -146.27,-35.92 -220.93,-42.32 46.71,-32.77 92.38,-66.88 137.01,-102.34 39.16,-32.54 79.38,-64.56 116.42,-99.22 37.04,-34.66 75.41,-68.79 111.13,-105.83 35.72,-37.04 71.7,-71.44 105.83,-108.21 34.13,-36.77 70.11,-71.7 103.97,-109.8l97.9 -114.3 95.25 -115.36c105.83,-127.53 205.32,-257.7 305.59,-385.76l411.16 -0.01c21.32,0.01 38.62,-17.29 38.62,-38.62 0,-21.33 -17.3,-38.63 -38.63,-38.63l-351.09 0c117.9,-152.91 245.41,-299.8 380.41,-438.55 131.03,-136.76 281.66,-253.97 446.4,-346.93 153.1,-83.38 320.71,-137.5 493.75,-158.87l-0.02 0.05c3.14,-0.2 6.33,-0.31 9.51,-0.31 3.18,0 6.37,0.11 9.53,0.31 1.4,-0.14 2.82,-0.22 4.23,-0.22 1.41,0 2.83,0.08 4.23,0.22l3.7 0c0,0 2.91,0 0,0 5.37,2.77 11.32,4.22 17.36,4.22 20.9,0 37.84,-16.95 37.84,-37.84 0,-16.37 -10.53,-30.89 -26.09,-35.97 -2.7,-0.64 -5.45,-1.19 -8.2,-1.59l-6.88 -2.12 -12.96 -2.91c-8.47,-1.85 -16.4,-3.18 -24.34,-4.23 -15.88,-2.12 -31.75,-3.7 -47.1,-4.5 -30.69,-2.12 -61.12,-2.12 -91.28,-1.59 -60.33,1.59 -120.12,5.03 -179.12,11.91 -118.53,12.44 -235.48,31.49 -351.63,52.92 -59.27,11.11 -113.77,22.23 -169.33,29.9 -55.56,7.67 -110.86,13.49 -166.16,17.2 -55.3,3.71 -110.6,3.44 -165.36,1.59 -54.55,-2.36 -109.44,-7.83 -163.35,-15.64 -108.42,-17.14 -215.44,-43.84 -319.39,-79.28 -107.55,-34.47 -216.03,-75.21 -340.38,-104.84 -63.96,-15.47 -129.74,-25.41 -195.52,-29.36 -17.2,0 -34.93,0 -52.92,0 -17.99,0 -32.81,1.32 -49.48,1.85 -32.28,0 -64.82,5.03 -97.1,8.47 -64.69,8.53 -129,22.27 -191.59,40.69 -61.9,18.5 -122.58,42.28 -180.66,70.67 -228.66,115.93 -415.33,301.25 -532.87,529.19 -57.61,109 -95.94,227.49 -112.78,349.74 -3.53,31.79 -5.31,63.89 -5.31,95.89 0,90.54 14.37,180.56 42.39,266.59 36.56,117.87 104.54,223.79 196.36,306.19 95.92,81.17 217.23,126.75 342.91,128.54 12.17,0.34 24.69,0.7 36.97,0.7 109.07,0 217.66,-18.18 320.71,-53.57 58.74,-20.64 114.17,-50.21 164.02,-87.58 47.96,-35.33 89.29,-79.29 121.48,-129.4 23.48,-20.84 36.94,-50.76 36.94,-82.17 0,-60.63 -49.17,-109.8 -109.8,-109.8 -33.43,0 -65.08,15.25 -85.9,41.41 -24.91,23.67 -39.04,56.56 -39.04,90.93 0,12.68 1.94,25.29 5.71,37.39l-0.02 0c2.32,11.85 3.51,23.95 3.51,36.03 0,14.59 -1.71,29.16 -5.09,43.35 -17.93,27.68 -42.51,50.54 -71.44,66.4 -15.61,7.94 -31.49,15.35 -47.89,21.96 -51.76,20.23 -106.05,34.5 -161.11,42.1 -26.46,5.03 -55.83,6.35 -83.87,9.53 -28.04,3.18 -56.89,2.91 -84.4,2.12 -109.93,-0.49 -216.37,-39.35 -300.85,-109.6 -84.22,-72.44 -145.78,-168.17 -176.73,-274.9 -19.5,-64.34 -29.58,-131.43 -29.58,-198.68 0,-43.84 4.33,-87.67 12.67,-130.68 23.04,-108 69.85,-209.78 136.72,-297.63 64.85,-87.62 144.94,-163.17 236.05,-223.04 88.24,-57.66 185.1,-102.42 286.23,-132.34 49.72,-14.24 100.45,-25.82 151.35,-34.6 50.77,-8.13 102.2,-13.79 153.44,-16.52 26.46,0 51.33,-2.38 77.26,-1.59 12.7,0 26.46,0 38.1,0 11.64,0 23.02,0 35.19,2.12 49.96,4.77 99.95,13.03 148.76,23.94 104.25,21.96 218.55,52.92 338.14,74.08 121.96,22.94 246.46,36.15 370.39,39.24 15.04,0.42 31.03,0.66 46.33,0.66 108.52,0 217.28,-9.08 324.13,-27.01 46.3,-7.67 92.08,-17.2 137.32,-28.05 -79.92,54.39 -157.2,115.09 -229.7,179.17 -148.89,136.85 -289.13,284.36 -416.97,440.66 -36.78,44.71 -73.03,89.16 -109.27,133.88l-423.09 0.1c-21.32,0 -38.62,17.3 -38.62,38.63 0,21.33 17.3,38.63 38.63,38.63l360.35 -0.01c-5.03,6.35 -10.58,12.7 -15.61,19.31 -61.2,77.26 -122.94,154.08 -185.21,230.46l-91.81 112.71 -94.72 110.6 -96.04 108.48c-32.28,35.98 -65.88,70.11 -98.95,105.83 -33.07,35.72 -68.26,66.94 -102.39,100.81 -34.13,33.87 -71.44,62.97 -105.83,95.51 -71.48,61.96 -146.48,120.56 -224.51,174 -77.75,52.86 -160.12,101.34 -243.86,144.04 -42.08,21.46 -85.75,40.95 -129.92,57.91 -42.86,18.82 -87.43,35.8 -132.17,49.84 -182.37,58.88 -371.69,95.43 -562.72,108.28l-0.11 -0.14c-25.28,1.87 -44.84,22.94 -44.84,48.29 0,25.35 19.56,46.42 44.84,48.28 38.76,2.14 78.63,3.39 117.76,3.39 164.48,0 328.7,-20.18 488.2,-59.3l74.88 -19.31 18.52 -4.76 18.26 -6.61 36.25 -12.7c48.61,-15.84 97.19,-34.71 144.08,-55.44l23.55 -10.58c42.76,-9.89 86.47,-17.31 130.17,-21.81 25.49,-2.34 51.37,-3.62 77.05,-3.62 40.73,0 81.47,3.15 121.71,9.25 66.68,9.53 134.67,26.46 204.26,41.54 142.43,33.62 283.84,76.32 421.45,126.15 61.91,22.23 121.44,47.36 183.36,71.97 15.53,49.06 33.08,97.76 52.66,146.09 27.34,72.65 62.28,142.52 103.67,208.19 41.04,66.63 89.2,128.8 143.22,185.27 55.3,59.73 122.24,107.8 196.53,141.23 29.04,12.4 59.39,21.93 90.26,28.33 -5.03,8.47 -10.32,16.93 -15.35,26.46 -52.6,91.81 -94.71,189.78 -125.1,291.13 -7.67,26.46 -14.29,52.92 -20.11,76.46 -5.82,23.54 -11.38,50.54 -16.93,75.94 -5.55,25.4 -9.53,50.8 -14.29,76.2l-12.75 76.92c-9.89,72.85 -14.91,147.14 -14.91,220.83 0,135.73 16.87,271.26 50,402.78 27.04,103.35 68.78,202.65 123.59,294.25 27.69,45.9 59.55,89.85 94.55,130.44 35.67,39.79 74.95,76.78 116.88,110 84.16,64.47 179.36,113.31 280.74,144.18 26.46,7.14 50.01,15.61 75.41,20.64l38.1 8.47 38.63 6.61c45.23,6.86 91.08,10.33 136.82,10.33 6.6,0 13.64,-0.11 20.13,-0.22 104.13,-2.8 207.95,-20.72 307.12,-52.98 98.41,-32.22 193.72,-75.73 282.81,-128.73 178.76,-106.63 336.81,-245.42 465.46,-408.86 64.94,-81.57 122.47,-169.76 171.39,-261.72 49.68,-92.07 90.95,-189.19 122.32,-289.15 32.24,-100.23 54.56,-203.67 65.9,-308.23 5.68,-57.62 8.66,-116.25 8.66,-174.24 0,-46.26 -1.92,-92.95 -5.54,-139 -7.74,-105.2 -28.08,-209.77 -59.61,-310.44l0.09 0.08zm-2103.97 -1140.88c-0.01,0.24 -0.01,0.54 -0.01,0.77 0,34.01 -5.69,67.87 -16.68,100.03 -7.16,27.56 -28.24,49.36 -55.54,57.43 -1.43,0.11 -2.87,0.17 -4.3,0.17 -24.6,0 -45.97,-16.97 -51.54,-40.92 -2.36,-9.13 -3.58,-18.55 -3.58,-27.98 0,-20.57 5.74,-40.78 16.55,-58.28 18.22,-29.44 40.76,-56.3 66.65,-79.37 14.25,-12.38 29.57,-23.8 45.54,-33.89 2.03,21.18 3.15,42.77 3.15,64.13 0,5.9 -0.08,12.11 -0.24,17.93l0 -0.02zm-579.43 223.31c-17.99,-143.93 -17.46,-291.04 23.02,-424.92 17.94,-63.83 50.53,-122.83 95.01,-171.97 41.51,-44.57 99.63,-70.15 160.57,-70.67 2.03,-0.01 4.15,-0.07 6.18,-0.07 59.62,0 117.06,22.75 160.51,63.59 48.8,47.15 84.89,106.03 104.74,170.92 6.35,19.58 11.38,39.95 15.88,60.33 -26.8,17.33 -51.83,37.39 -74.57,59.79 -14.23,13.81 -27.72,28.58 -40.25,43.92 -13.48,15.63 -25.22,32.78 -34.9,51.04 -14.77,25.28 -22.57,54.06 -22.57,83.33 0,16.04 2.36,32.03 6.95,47.39 7.78,23.36 22.79,43.67 42.86,57.95 17.85,12.62 39.22,19.42 61.11,19.42 3.89,0 7.78,-0.22 11.64,-0.65 24.73,-4.07 47.48,-16.06 64.83,-34.12 15.14,-16.35 27.35,-35.27 35.99,-55.82 15.17,-37.82 24.15,-78.11 26.44,-118.81 2.58,-25.12 3.92,-50.39 3.92,-75.66 0,-15.77 -0.54,-31.72 -1.52,-47.4 35.35,-14.29 73.26,-21.71 111.43,-21.71 18.78,0 37.62,1.81 56.04,5.35 65.01,12.84 123.56,48.08 165.37,99.47 20.32,25.13 36.46,53.55 47.62,83.89 11.73,29.72 18.31,61.42 19.33,93.38 0.04,2.83 0.09,5.83 0.09,8.7 0,62.58 -15.84,124.34 -45.88,179.19 -30.84,57.39 -76.62,105.72 -132.31,139.66 -56.5,34.07 -119.67,55.91 -185.18,63.78 -135.2,17.99 -278.34,-9 -415.13,-50.54 -68.86,-21.67 -137.49,-47.37 -203.44,-76.23l-34.4 -14.82c-12.53,-55 -22.46,-111.55 -29.36,-167.69l-0.02 -0.02zm1054.89 675.74c61.86,-71.07 131.57,-135.37 207.62,-191.01 36.67,-27.29 76.45,-50.57 118.09,-69.31 19.32,-8.49 39.62,-15 60.3,-19.34 8.17,-1.98 16.6,-3 25.01,-3 8.41,0 16.84,1.02 25,3 4.33,1.41 8.44,3.47 12.18,6.07 2.78,3.36 4.36,7.55 4.49,11.91 0.17,2.93 0.29,5.91 0.29,8.87 0,15.55 -2.7,30.99 -7.96,45.62 -14.94,42.67 -36.04,83.15 -62.45,119.88 -54.91,77.15 -122.4,144.95 -199.46,200.04 -76.73,54.72 -162.58,96.28 -253.2,122.23 -38.36,10.48 -77.94,17.92 -117.52,21.95 55.18,-90.09 118.39,-176.01 187.68,-255.83l-0.07 -1.08z"/>
   </g>
  </g>
 </g>
</svg>
