<svg xmlns="http://www.w3.org/2000/svg" viewBox="0 0 185.75 207.04"><g id="Capa_2" data-name="Capa 2"><g id="Capa_1-2" data-name="Capa 1"><path d="M128,61.93c-2.68,2.7-5.37,5.38-8,8.11a1.94,1.94,0,0,0,2.76,2.74c2.71-2.67,5.38-5.38,8.06-8.07l8-8.16c5.28-5.47,10.57-10.94,15.8-16.46s10.49-11,15.66-16.61,10.37-11.15,15.48-16.79c-5.62,5.14-11.17,10.35-16.7,15.57S158,32.77,152.52,38,141.6,48.6,136.15,53.91Z"/><path d="M68.83,121.22c-2.71,2.67-5.37,5.38-8.06,8.08l-8,8.15c-5.27,5.48-10.56,10.94-15.8,16.46s-10.48,11-15.65,16.62S11,181.67,5.86,187.31q8.43-7.71,16.7-15.57c5.55-5.2,11-10.5,16.52-15.75S50,145.4,55.46,140.1l8.1-8c2.68-2.7,5.38-5.38,8-8.11a1.94,1.94,0,0,0-2.76-2.74Z"/><path d="M181.63,128.68A45.26,45.26,0,0,0,179.4,123a38.51,38.51,0,0,0-3.18-5.24,25.62,25.62,0,0,0-9.43-8,22.07,22.07,0,0,0-12.33-2,19.44,19.44,0,0,0-6.25,1.89c-.5.25-1,.56-1.46.84l-1.3.89a27.22,27.22,0,0,0-2.44,2,21.66,21.66,0,0,0-6.55,11.23,18.69,18.69,0,0,0-.23,7,14,14,0,0,0,2.92,6.72,12,12,0,0,0,6.15,4,9.89,9.89,0,0,0,6.7-.52,1.41,1.41,0,0,0,.59-.52,1.38,1.38,0,0,0-.45-1.9l-.07,0c-3.4-2.1-5.39-3.69-6.66-5.75a12.3,12.3,0,0,1-.85-1.61,7.67,7.67,0,0,1-.63-1.82,10.73,10.73,0,0,1-.15-4.13,15.68,15.68,0,0,1,1.29-4.26,18.33,18.33,0,0,1,2.52-3.93,21.33,21.33,0,0,1,1.67-1.76l.92-.81c.29-.22.57-.46.88-.67a12.11,12.11,0,0,1,4.23-1.8,14.09,14.09,0,0,1,9.38,1.33,17.31,17.31,0,0,1,4,2.84,21.45,21.45,0,0,1,3.08,3.88,27,27,0,0,1,3.48,9.48,50.16,50.16,0,0,1,.74,10.35,78.21,78.21,0,0,1-3.18,20.59,76.85,76.85,0,0,1-3.7,9.77,75.76,75.76,0,0,1-5.1,9.19,59,59,0,0,1-14.34,15.42c-5.7,4.14-12.47,7-19.47,7.33a29.22,29.22,0,0,1-5.21-.27c-.86-.13-1.71-.33-2.57-.54s-1.69-.47-2.53-.72a24.32,24.32,0,0,1-14.77-13.4,36.71,36.71,0,0,1-2.77-9.86,72.86,72.86,0,0,1,.59-20.88c.29-1.73.6-3.47,1-5.2.19-.87.37-1.73.58-2.59s.4-1.72.62-2.52a62.75,62.75,0,0,1,3.55-9.66c.64-1.41,1.34-2.8,2.08-4.18a33.61,33.61,0,0,0,7.67-1.65,38.76,38.76,0,0,0,10.31-5.36,38,38,0,0,0,8.27-8.13,20.73,20.73,0,0,0,2.93-5.25,8,8,0,0,0,.53-3.42,4,4,0,0,0-.8-2.13,4.45,4.45,0,0,0-1.81-1.33,7.26,7.26,0,0,0-3.62-.38,15.94,15.94,0,0,0-3.1.72,33.29,33.29,0,0,0-5.44,2.5,62.85,62.85,0,0,0-9.5,6.8,69.4,69.4,0,0,0-12.07,13.28,12.07,12.07,0,0,1-4.42-.76,19.21,19.21,0,0,1-6.46-4.29,34.92,34.92,0,0,1-5.07-6.35c-.74-1.16-1.43-2.35-2.07-3.56-.32-.61-.63-1.22-.91-1.83s-.5-1.28-.75-1.9c-.37-1-.73-2-1.07-3,1.82.66,3.66,1.28,5.54,1.81,5.68,1.52,11.72,2.55,17.9,1.57a22.54,22.54,0,0,0,8.83-3.33,18.13,18.13,0,0,0,3.65-3.18,16.87,16.87,0,0,0,2.66-4,18.17,18.17,0,0,0,1.73-9.33A14.54,14.54,0,0,0,119.71,82a14.08,14.08,0,0,0-8.33-4.34,13.81,13.81,0,0,0-7.1.88c-.1-.57-.19-1.14-.32-1.7a18.11,18.11,0,0,0-4.19-8.33,12.32,12.32,0,0,0-4.1-2.88,13.27,13.27,0,0,0-4.94-1,12.12,12.12,0,0,0-5,1,13,13,0,0,0-4.12,2.91,19.42,19.42,0,0,0-4.44,8.31,42,42,0,0,0-.39,17.69c.24,1.41.52,2.82.84,4.2l-2.81-1.22c-5.26-2.26-10.46-4.79-16.17-6.5a41.27,41.27,0,0,0-8.35-1.6q2.65-1.86,5.18-3.87c1.48-1.23,3-2.44,4.4-3.75s2.85-2.6,4.2-4,2.71-2.7,4-4.09S70.72,71,72,69.56l3.7-4.32,3.6-4.36c4-4.82,7.76-9.74,11.55-14.58h15.54a1.46,1.46,0,0,0,0-2.92H93.12A193.5,193.5,0,0,1,107.51,26.8a72.86,72.86,0,0,1,16.86-13.11,52.52,52.52,0,0,1,18.66-6h0a5.62,5.62,0,0,1,.72,0,1.51,1.51,0,0,1,.32,0l.14,0s.11,0,0,0a1.43,1.43,0,1,0,1.1-2.63A3.49,3.49,0,0,0,145,5l-.26-.08-.49-.11c-.32-.07-.62-.12-.92-.16-.6-.08-1.2-.14-1.78-.17-1.16-.08-2.31-.08-3.45-.06-2.28.06-4.54.19-6.77.45-4.48.47-8.9,1.19-13.29,2-2.24.42-4.3.84-6.4,1.13s-4.19.51-6.28.65-4.18.13-6.25.06a60.47,60.47,0,0,1-6.17-.59,73.14,73.14,0,0,1-12.08-3C76.8,3.82,72.7,2.28,68,1.16A42.16,42.16,0,0,0,60.61.05c-.65,0-1.32,0-2,0s-1.24.05-1.87.07c-1.22,0-2.45.19-3.67.32a48.32,48.32,0,0,0-7.24,1.54A44.62,44.62,0,0,0,39,4.65a46.12,46.12,0,0,0-20.14,20A40.09,40.09,0,0,0,14.6,37.87,32.48,32.48,0,0,0,16,51.57a25.82,25.82,0,0,0,7.42,11.57A20.51,20.51,0,0,0,36.38,68,37.27,37.27,0,0,0,49.9,66a23,23,0,0,0,6.2-3.31,18.49,18.49,0,0,0,4.59-4.89,4.15,4.15,0,1,0-6-5.69,4.74,4.74,0,0,0-1.26,4.85h0a7.07,7.07,0,0,1-.06,3,7.52,7.52,0,0,1-2.7,2.51c-.59.3-1.19.58-1.81.83a26.76,26.76,0,0,1-6.09,1.59c-1,.19-2.11.24-3.17.36s-2.15.11-3.19.08a17.9,17.9,0,0,1-11.37-4.14,21.68,21.68,0,0,1-6.68-10.39,25.8,25.8,0,0,1-.64-12.45A28.36,28.36,0,0,1,22.89,27.1a35.17,35.17,0,0,1,8.92-8.43,41.36,41.36,0,0,1,10.82-5,54.34,54.34,0,0,1,5.72-1.31,56.46,56.46,0,0,1,5.8-.62c1,0,1.94-.09,2.92-.06.48,0,1,0,1.44,0s.87,0,1.33.08a45.65,45.65,0,0,1,5.62.9c3.94.83,8.26,2,12.78,2.8a87,87,0,0,0,14,1.49,74,74,0,0,0,14-1c1.75-.29,3.48-.65,5.19-1.06a87,87,0,0,0-8.68,6.77A160.23,160.23,0,0,0,87,38.32c-1.39,1.69-2.76,3.37-4.13,5.06h-16a1.46,1.46,0,1,0,0,2.92H80.49c-.19.24-.4.48-.59.73q-3.47,4.38-7,8.71L69.43,60l-3.58,4.18-3.63,4.1c-1.22,1.36-2.49,2.65-3.74,4s-2.58,2.53-3.87,3.81-2.7,2.38-4,3.61a94,94,0,0,1-8.49,6.58,85.28,85.28,0,0,1-9.21,5.44A52,52,0,0,1,28,93.91a50.55,50.55,0,0,1-5,1.88A88.4,88.4,0,0,1,1.73,99.88h0a1.83,1.83,0,0,0,0,3.65,77.15,77.15,0,0,0,22.9-2.11l2.83-.73.7-.18.69-.25,1.37-.48a57.84,57.84,0,0,0,5.45-2.1l.89-.4a41,41,0,0,1,4.92-.82,30.46,30.46,0,0,1,7.51.21c2.52.36,5.09,1,7.72,1.57A146.9,146.9,0,0,1,72.63,103c2.34.84,4.59,1.79,6.93,2.72q.89,2.79,2,5.53a43.44,43.44,0,0,0,3.92,7.87,42.12,42.12,0,0,0,5.41,7,23,23,0,0,0,7.43,5.34,18,18,0,0,0,3.41,1.07c-.19.32-.39.64-.58,1a52.56,52.56,0,0,0-4.73,11c-.29,1-.54,2-.76,2.89s-.43,1.91-.64,2.87-.36,1.92-.54,2.88L94,156.08a62.16,62.16,0,0,0,1.33,23.57A42.64,42.64,0,0,0,100,190.77a36,36,0,0,0,3.57,4.93,35.46,35.46,0,0,0,4.42,4.16,33.53,33.53,0,0,0,10.61,5.45c1,.27,1.89.59,2.85.78l1.44.32,1.46.25a34.62,34.62,0,0,0,5.93.38,41.1,41.1,0,0,0,11.61-2,53.45,53.45,0,0,0,10.69-4.87,64.13,64.13,0,0,0,17.59-15.45,65,65,0,0,0,6.48-9.89,62.64,62.64,0,0,0,4.62-10.93,58.54,58.54,0,0,0,2.49-11.65,66,66,0,0,0,.12-11.84A52.47,52.47,0,0,0,181.63,128.68ZM102.11,85.56a11.66,11.66,0,0,1-.63,3.81,3.07,3.07,0,0,1-2.1,2.17A2,2,0,0,1,97.27,90a4.19,4.19,0,0,1,.49-3.26,13.63,13.63,0,0,1,2.52-3A14.2,14.2,0,0,1,102,82.46,24.67,24.67,0,0,1,102.11,85.56ZM80.21,94c-.68-5.44-.66-11,.87-16.06a16.22,16.22,0,0,1,3.59-6.5,8.4,8.4,0,0,1,6.07-2.67,8.86,8.86,0,0,1,6.3,2.4A15.14,15.14,0,0,1,101,77.63c.24.74.43,1.51.6,2.28a17.69,17.69,0,0,0-2.82,2.26,19.79,19.79,0,0,0-1.52,1.66,10.41,10.41,0,0,0-1.32,1.93,6.24,6.24,0,0,0-.59,4.94,4.39,4.39,0,0,0,1.62,2.19,4,4,0,0,0,2.75.71,4.39,4.39,0,0,0,2.45-1.29,7.23,7.23,0,0,0,1.36-2.11,14.19,14.19,0,0,0,1-4.49,27.74,27.74,0,0,0,.09-4.65,11.2,11.2,0,0,1,6.33-.62,10.75,10.75,0,0,1,6.25,3.76A11.18,11.18,0,0,1,119,87.37a10.55,10.55,0,0,1,.73,3.53A14.09,14.09,0,0,1,118,98a13.88,13.88,0,0,1-5,5.28,17.65,17.65,0,0,1-7,2.41c-5.11.68-10.52-.34-15.69-1.91a75.07,75.07,0,0,1-7.69-2.88l-1.3-.56A62.75,62.75,0,0,1,80.21,94Zm39.87,25.54a47.85,47.85,0,0,1,7.85-7.22,23.87,23.87,0,0,1,4.46-2.62,11.79,11.79,0,0,1,2.28-.73,4,4,0,0,1,1.89,0,1.77,1.77,0,0,1,.46.23.74.74,0,0,1,.17.45,5.09,5.09,0,0,1-.29,2.06,17.85,17.85,0,0,1-2.36,4.53A32.24,32.24,0,0,1,127,123.8a31.38,31.38,0,0,1-9.57,4.62,27.11,27.11,0,0,1-4.44.83A72.47,72.47,0,0,1,120.08,119.58Z"/></g></g></svg>