<svg id="Capa_1" data-name="Capa 1" xmlns="http://www.w3.org/2000/svg" viewBox="0 0 58.80798 100">
  <defs>
    <style>
      .cls-1 {
        fill: #e9e9e9;
      }

      .cls-2 {
        fill: #dbdbdb;
      }
    </style>
  </defs>
  <path class="cls-1" d="M26.99584,25.55852c-.53918-6.93112-2.13124-6.25166-2.13124-6.25166-.38253-.67217-1.06744-.71225-2.0274-1.15307a18.32551,18.32551,0,0,1-2.12762-1.22228,1.404,1.404,0,0,0,1.15488-.26959c.41533-.419.32242-1.58478.44445-1.73779.12388-.153.34431-.31149.37161-.541a.77244.77244,0,0,0-.05465-.3971c.22225-.00547.29329-.14026.36249-.33881a3.16277,3.16277,0,0,0,.05648-.72681s.5738.20765.84522-.04373a.6885.6885,0,0,0,.10746-.68855,9.86258,9.86258,0,0,0,.889-1.70865.85164.85164,0,0,0-.93267-.27323l-.21129-.051a.66506.66506,0,0,0-.21678-.18762A1.84821,1.84821,0,0,0,24.1633,8.718c2.43-1.56839,1.22956-2.77974,1.22956-2.77974.97455-1.06563-3.65043-3.99655-3.98927-4.1532A5.69517,5.69517,0,0,0,18.2723.0418a2.02251,2.02251,0,0,0-2.47737,1.25507C9.96952.18024,11.61806,11.01319,11.63447,11.71814c.01819.70677.33514.6248.33514.6248s-.3224.27688-.95451.89623c-.63026.6175-.663.82517-.663.82517-1.133.87253-2.81616.898-4.08945,1.17857a8.27279,8.27279,0,0,0-3.70693,1.35161c-.92356.82882-1.08931,3.21691-1.08931,3.21691C1.03467,21.08108.79788,21.31606.40621,22.7041.01276,24.09032.15668,23.083,0,26.24891A84.489,84.489,0,0,0,.81242,36.601c.22587,1.15123,2.40632,3.75063,2.40632,3.75063C3.09669,40.97822.33154,50.649.235,50.93317c-.09655.28234-.07831.33881-.07831.33881.07284.08015.45357.00728.88161-.04554a4.06534,4.06534,0,0,1,.98551.04372,8.81228,8.81228,0,0,0-.08743,1.02008c-.04374.81061.34061.92354.34061.92354s.15667,15.38874.91626,18.42531c0,0,.03825,12.34851.35338,14.467a28.86517,28.86517,0,0,1,.53555,3.32439c-.01092.66853-.30056,1.32064-.30056,2.20958a13.40374,13.40374,0,0,1-.55922,2.70869,10.20257,10.20257,0,0,0-1.58114,3.14041A11.11123,11.11123,0,0,0,1.47,99.59491a10.08039,10.08039,0,0,0,3.50655.33883,2.79249,2.79249,0,0,0,2.19864-2.62855,1.58881,1.58881,0,0,1,.561-1.12574c.52463-.35339,1.26965-.75778,1.26965-1.56838a2.4552,2.4552,0,0,0,1.32065-1.72686,11.343,11.343,0,0,0-.317-5.718s.87983-.031.7924-2.85624-.01823-9.05144.122-9.78553a12.36209,12.36209,0,0,0,.66309-3.80166c.19307-2.77426.92535-7.97123.92535-7.97123s-.09655,8.78184,1.0292,11.7911a34.75562,34.75562,0,0,0-.14027,5.30262,6.41084,6.41084,0,0,1-.06922,3.29707c-.34975,1.34251-1.88533,3.99291-.80332,5.94746,0,0-1.43723,1.69407-1.40443,2.4391a3.36012,3.36012,0,0,0,.71951,1.59571,2.99863,2.99863,0,0,1,.13115,1.15852s.28783.51,1.61394.9108l.62844-.06012a3.34952,3.34952,0,0,1,.86343,1.15124c.20037.58473.55741,1.70865,3.26063,2.52108,0,0,2.42452-.18034,3.18413-.93812A8.25542,8.25542,0,0,0,20.15219,94.99c-.878-.95633-1.45182-1.1731-2.08028-2.246l1.27329-8.596c-1.28056.15847-2.62853.65759-4.0858.153a28.256,28.256,0,0,0,5.10225-13.2247c.42627-3.40817,1.286-7.91477,2.144-12.00969l.00182-.00364c.96727-4.61042,1.92905-8.69805,2.26786-10.108a10.74043,10.74043,0,0,1-1.77786.23863,4.91914,4.91914,0,0,1-.95086-.05647,8.8898,8.8898,0,0,1-1.40444-.47c.27871-.39164.47906-.674.73411-1.03284-.40259-.01275-.694-.02186-.84524-.0255-.20217-.19491-.29143-.337-.41895-.39347-.41168-.184-.84887-.2623-.63029-.94175.09655-.29692-.16027-.7086-.26047-1.07655-.29692-.02733-.61569-.05466-1.04012-.0929.21494-.13845.33335-.21677.51006-.33153-.25505-.14937-.47-.26778-.67945-.39893-.24411-.153-.29694-.31332-.03644-.52279.11293-.08926.153-.26049.24773-.37707a2.98427,2.98427,0,0,1,.44263-.47726c.32972-.2623.68309-.49911,1.0274-.745-.031-.04554-.06013-.09108-.08926-.13479-.36432.23134-.72863.46086-1.09112.6922-.02736-.02-.05284-.0419-.07836-.06193.16761-.215.33336-.4299.56106-.72318-.50276.25321-.92173.46451-1.34069.67582-.02732-.03462-.05281-.06923-.08016-.10384.24958-.204.49912-.408.76508-.62662-.37161.04554-.73592.09108-1.102.13662-.01641-.05282-.03282-.10566-.04919-.15666.21676-.12751.43534-.2532.72134-.419-.31148-.04554-.55194-.08015-.79241-.11658l-.01091-.07105c.14936-.04189.30056-.07468.44447-.12751.15119-.05464.439.06922.38251-.27506.184-.01821.36979-.03461.59931-.05647-.00547-.04554-.01274-.13479-.02731-.28234.286.04919.55739.09655.85249.14572-.02731-.1603-.05466-.3133-.1002-.58472.30969.22588.541.39346.7997.58109-.02-.23135-.03644-.439-.05283-.64849.03642-.01639.07285-.03278.10747-.04918.19854.266.39529.5319.62663.84157.02549-.36432.04737-.69767.0765-1.031.01094-.12023.02185-.23863.04189-.35339a1.26309,1.26309,0,0,1,.55741-.94177.24438.24438,0,0,0,.10747-.14025c.08381-.58109.49911-.58656.90717-.58473a12.49244,12.49244,0,0,1,.64482-5.18423,8.573,8.573,0,0,0,1.03832,2.63584v.00182a3.24636,3.24636,0,0,1,.48635.22587,2.54743,2.54743,0,0,1,.31877.2277,9.97389,9.97389,0,0,1-.306-3.931c.37523-1.46454,1.71956-2.4063,2.14581-3.56666a9.12145,9.12145,0,0,1,.23861-2.68318ZM24.52761,10.37928a.28189.28189,0,0,1-.02.11111l-.29875-.08015A.43432.43432,0,0,1,24.52761,10.37928Zm-.459.13662.36612.122a1.42232,1.42232,0,0,1-.1275.439,6.4628,6.4628,0,0,1-.388.74138l-.19492-.57926A4.998,4.998,0,0,1,24.06859,10.5159Z"/>
  <path class="cls-2" d="M45.76179,40.5465A5.2767,5.2767,0,0,0,47.22635,37.029c.05283-7.87652-2.05475-11.78747-2.05475-11.78747.72136-.99457-.30055-1.28239-.30055-1.28239s-.1858-1.06016-.65943-1.17492c-.47541-.11476-.49547-.35521-.49547-.35521a.94335.94335,0,0,0,.81425-.36067,4.98019,4.98019,0,0,1-.8106-.04189c-.04736-.4044.1275-.44811.17487-.81425a.55534.55534,0,0,0-.22588-.53737.92622.92622,0,0,0,.81971-.663c-.24953.2277-1.59206.63755-1.93267-.32971-.33883-.96908.77235-1.348.61567-1.77969-.15845-.43171-1.41355-.61569-1.72685-1.60846-.31513-.99457.14391-2.277-.31513-3.72877a4.36568,4.36568,0,0,0-1.71774-2.215,2.52094,2.52094,0,0,0-1.61212-.79786.432.432,0,0,0-.4135-.1694,1.14273,1.14273,0,0,0-.56287-.15665.64094.64094,0,0,0-.57562-.25321c-.14392-.19126-.48088-.14572-.48088-.14572a.607.607,0,0,0-.20586-.08926.4382.4382,0,0,0-.255.082.74469.74469,0,0,0-.33336-.153.40292.40292,0,0,0-.35155.09655s-.12933-.15667-.235-.16213a.92367.92367,0,0,0-.32607.11659.73052.73052,0,0,0-.55012-.17488,1.3848,1.3848,0,0,0-.612.33335,2.16111,2.16111,0,0,0-1.06382,0c-.56834.14755-.68492,1.10388-.68492,1.10388a3.11151,3.11151,0,0,0-.68127.439c-.23864.23134-.47906.63573-.83245,1.06927a2.44927,2.44927,0,0,0-.44813.745l-.61932-.07833c-.0583-.46086-.20039-.46815-.28235-.44264-.08014.02368-.09838.39163-.09838.39163-.122.00911-.13661.08926-.14208.20038-.00363.11294.07833.12022.07833.12022-.04554.36979-.07469,1.3243-.07469,1.3243-.24226.13662-.95815.43717-1.00187.77781a.548.548,0,0,0,.38255.58837,1.92808,1.92808,0,0,1,.4135.24956,1.97745,1.97745,0,0,0-.23134.29145c-.12205.18216.05283.59748.05283.59748-.61571.18762-.39166.68127-.39166.68127l.02552.44447A1.61164,1.61164,0,0,0,26.801,18.6948c.14753.70677,1.03829.84886,1.03829.84886a8.13956,8.13956,0,0,1,3.12035,2.28426l.00547.39165a5.5165,5.5165,0,0,0-2.7342.47,8.49446,8.49446,0,0,0-1.235,2.869v.00365a9.12145,9.12145,0,0,0-.23861,2.68318c-.42625,1.16036-1.77058,2.10212-2.14581,3.56666a9.97389,9.97389,0,0,0,.306,3.931,2.54743,2.54743,0,0,0-.31877-.2277,9.33893,9.33893,0,0,0-1.07474-.459,10.44273,10.44273,0,0,0,.521,1.25143,8.50672,8.50672,0,0,0,.73957.96545c-.15485.0765-.40074.11839-.45722.24408-.23134.51734-.60113.52826-1.06382.4044a2.74172,2.74172,0,0,0-.71222-.0838c-.44446,0-.9363-.05647-1.0292.58291a.24438.24438,0,0,1-.10747.14025,1.26309,1.26309,0,0,0-.55741.94177c-.02.11476-.03095.23316-.04189.35339-.02913.33334-.051.66669-.0765,1.031-.23134-.30967-.42809-.57562-.62663-.84157-.03462.0164-.07105.03279-.10747.04918.01639.20948.03278.41714.05283.64849-.25867-.18763-.49-.35521-.7997-.58109.04554.27142.07289.42442.1002.58472-.2951-.04917-.56651-.09653-.85249-.14572.01457.14755.02184.2368.02731.28234-.22952.02186-.41533.03826-.59931.05647.05648.34428-.23132.22042-.38251.27506-.14391.05283-.29511.08562-.44447.12751l.01091.07105c.24047.03643.48093.071.79241.11658-.286.16576-.50458.29145-.72134.419.01637.051.03278.10384.04919.15666.36612-.04554.73043-.09108,1.102-.13662-.266.21859-.5155.42261-.76508.62662.02735.03461.05284.06922.08016.10384.419-.21131.83793-.42261,1.34069-.67582-.2277.29328-.39345.50823-.56106.72318.02552.02.051.04189.07836.06193.36249-.23134.7268-.46086,1.09112-.6922.02913.04371.05828.08925.08926.13479-.34431.24592-.69768.48273-1.0274.745a2.98427,2.98427,0,0,0-.44263.47726c-.09473.11658-.1348.28781-.24773.37707-.2605.20947-.20767.36977.03644.52279.20946.13115.4244.24956.67945.39893-.17671.11476-.29512.19308-.51006.33153.42443.03824.7432.06557,1.04012.0929.1002.368.357.77963.26047,1.07655-.21858.67945.21861.75777.63029.94175.12752.05647.21678.19856.41895.39347.1512.00364.44265.01275.84524.0255-.25505.35885-.4554.6412-.73411,1.03284a8.8898,8.8898,0,0,0,1.40444.47,4.91914,4.91914,0,0,0,.95086.05647,10.74043,10.74043,0,0,0,1.77786-.23863c-.33881,1.40992-1.30059,5.49755-2.26786,10.108l-.00182.00364c-.858,4.09492-1.71774,8.60152-2.144,12.00969a28.256,28.256,0,0,1-5.10225,13.2247c1.45727.50457,2.80524.00545,4.0858-.153a3.597,3.597,0,0,1,1.79974.153,3.2744,3.2744,0,0,0,.70676,2.90542c4.20058-.04008,5.65237-1.41355,5.65237-1.41355l.15668,1.06016c4.16048.31331,4.002-.51005,4.002-.51005a13.68084,13.68084,0,0,1,.23681,2.22416c-.36614,1.07291-.06559,1.42083-.17124,2.51925a18.73122,18.73122,0,0,1-1.27875,3.69416,1.58392,1.58392,0,0,0-.48273.09108.82459.82459,0,0,0-.30419.42626l-.1585.09836a4.1907,4.1907,0,0,0-.42077.78328c.11658.05283.44266-.16941.46087-.18216-.00547.00912-.08381.18034-.37344.81425-.29692.65394-.03824.93812.21678.98366a13.212,13.212,0,0,0,3.532-.28053c1.30791-.34063,1.34071-.63391,1.64125-2.30976a3.93659,3.93659,0,0,1,1.19679-2.36806,6.24284,6.24284,0,0,1-.16395,1.807c-.08378.26049.09291.306.09291.306a.32267.32267,0,0,0-.00727.184c.0273.10383.255.2022.42622.215a1.75692,1.75692,0,0,0,.54285-.1439,3.00666,3.00666,0,0,0-.37706,1.06744,2.3017,2.3017,0,0,1-.75234-.01456c-.04554.031-.071.19126-.071.19126l-.27506-.01093a4.97731,4.97731,0,0,0-.03644,1.05652A2.29545,2.29545,0,0,0,36.04,97.3908a2.3705,2.3705,0,0,0,.79056,2.257,6.93042,6.93042,0,0,0,3.88542-1.348c.58837-.51.572-2.05838.78512-2.98193a21.19444,21.19444,0,0,0,.41168-3.06936,1.10027,1.10027,0,0,0,.15118-.6922c-.04009-.42625-.25867-.53373-.25867-.53373a.36762.36762,0,0,0-.15119-.11112s-.01821-.33881-.10564-1.37711a6.59544,6.59544,0,0,1,.45175-2.40267,6.13338,6.13338,0,0,0,2.99285-.24045c2.40812,1.2569,6.04584.28781,6.04584.28781a6.66428,6.66428,0,0,0-.184-2.22233c1.83067-1.72686,4.49932.62663,7.953-1.20406C52.68562,72.18739,53.00075,46.18066,45.76179,40.5465ZM28.5952,13.34663a.47484.47484,0,0,1-.01819-.33881.19929.19929,0,0,0-.11843-.12023l.07834-.40621.54647.11659A.829.829,0,0,1,28.5952,13.34663Z"/>
</svg>
