<svg id="Capa_1" data-name="Capa 1" xmlns="http://www.w3.org/2000/svg" viewBox="0 0 42.75013 100">
  <defs>
    <style>
      .cls-1 {
        fill: #dbdbdb;
      }

      .cls-2 {
        fill: #e9e9e9;
      }
    </style>
  </defs>
  <path class="cls-1" d="M34.35363,43.98a1.6043,1.6043,0,0,0,1.6101.35c-2.54-1.3-1.27-4.41-1.27-4.41a2.48207,2.48207,0,0,1,.39991,1.45c.37988-2.16-.76-2.33-.89991-3.25-.13012-.93.64991-.83.71-1.61.04981-.77-.63012-1.44-1.10009-2.77a2.10216,2.10216,0,0,1,.16992-2.06c-.15991,1.15.42017,1.39.42017,1.39a2.08951,2.08951,0,0,1-.02-1.89,1.62346,1.62346,0,0,0-.40992-1.74,2.34384,2.34384,0,0,1-.5-1.05l.33985-.79a1.97055,1.97055,0,0,0-.06006-1.9,2.6998,2.6998,0,0,1-.36987-.61,1.46709,1.46709,0,0,0-.2-1.15c1.31983-1.29.18995-2.12.18995-2.12a2.17047,2.17047,0,0,0-.33008-1.33c2.23-1.98-.68994-4.42-.58008-6.19a7.79068,7.79068,0,0,0-1.73-4.31A3.08612,3.08612,0,0,0,28.61364,8.9a.86452.86452,0,0,0-.60987-.23,1.176,1.176,0,0,0-.9602-.19.58317.58317,0,0,0-.53-.06.4254.4254,0,0,0-.43994.01c-.16993-.2-.49-.09-.49-.09-.27-.2-.6399.08-.6399.08-1.10009-.2-1.92016,1.35-1.92016,1.35a1.391,1.391,0,0,0-.49.51,6.17475,6.17475,0,0,1-.54981.65,1.355,1.355,0,0,0-.27.7.20538.20538,0,0,0-.17016.14,1.04294,1.04294,0,0,0-.19995-.04.742.742,0,0,0-.07007-.34.7012.7012,0,0,0-.49-.39c-.22-.02-.29.43-.29.43s-.08985,0-.12988.13a.13976.13976,0,0,0,.02.16,6.663,6.663,0,0,0-.14014,1.36.60041.60041,0,0,0-.31983.56005c.02979.24.3899.45.3899.45a.94294.94294,0,0,1-.05005.46.47185.47185,0,0,0,.03.39c-.3999.04-.3.7-.35987.85-.05.14-.59008.54-.56005,1.02.03.47.21.84.56005.91a2.57186,2.57186,0,0,1,1.67994,1.23c-1.03-.2-5.08008-.58-5.08008-.58a32.92022,32.92022,0,0,1-2.84986-1.86h-.01c-.33007-.24005-.66015-.47-.99-.71a27.93051,27.93051,0,0,0-3.67016-2.39,7.97169,7.97169,0,0,0-2.38989-.49c-.63013-.14-1.08008-.21-1.08008-.21s-.82007-.1-1.42993-.15a2.05448,2.05448,0,0,0-1.22.41c-.33008.01-.61011.33-.77.47a1.15668,1.15668,0,0,0-.38013.6c-.04981.27-.08985.33-.22.91a2.36277,2.36277,0,0,0,0,1.06,1.01759,1.01759,0,0,0,.06006.44995,1.991,1.991,0,0,1,.17016.48,2.47967,2.47967,0,0,0,.43994.67v.15c-.18017.11-.37011.65-.28.69.07984.04.18995-.08.18995-.08a.42533.42533,0,0,0,.22.02.55969.55969,0,0,0,.30005-.17.91738.91738,0,0,0,0,.72c.22-.01.32983-.46.32983-.46a6.24757,6.24757,0,0,0,.75-1.27,1.59935,1.59935,0,0,1,1.52-.91,4.50954,4.50954,0,0,0,1.81006-.56c.14013.58,3.57007,1.39,5.48,5.13a12.10456,12.10456,0,0,0,3,3.3c.51.42.99023.77,1.34009,1.02s.57006.39.57006.39a28.77506,28.77506,0,0,1-1.21,2.65,22.01954,22.01954,0,0,1-.14013,5,10.21318,10.21318,0,0,0,1.12011,2.14,1.89033,1.89033,0,0,1,.98.42.33394.33394,0,0,0,.33008.08,1.27484,1.27484,0,0,1,1.02979.08,7.08375,7.08375,0,0,0,.95019.52c.2.06.77-.16,1.10987,0,.34008.16.47.25.6499.25a1.70846,1.70846,0,0,1,1.01025-.06.34286.34286,0,0,0,.36988-.12,2.07953,2.07953,0,0,1,1.09008-.83c.68994-.13995,2.35987-1.11,2.57984-1.05.22.05.33008.59.15991.86a14.02421,14.02421,0,0,1-1.61987.92c-.09986.12.99.55,1.34008.52a9.13765,9.13765,0,0,1,1.81983,0c.61011.1,1.28.01,1.28.4-.01.37-.82007.41-1.72.55h-.03l-.7.06s1.33007.06,1.66992.03h.04c.28-.03,1.07007-.17,1.07007.29,0,.28-.75.38-.88013.43a18.18954,18.18954,0,0,1-1.84985.35s.07006,0,.18994-.01c.35009-.02,1.12011-.08,1.67993-.13h.04c.68994-.1.82007,0,.82007.21,0,.12-.33008.32-.59986.43a.944.944,0,0,0-.1101.05,1.40053,1.40053,0,0,1-.21.1.1613.1613,0,0,1-.07006.04c-.06006.02-.12989.05-.21.08a.76171.76171,0,0,0-.1101.04,2.62706,2.62706,0,0,1-.5.12,8.56232,8.56232,0,0,1-.93994.13s.57006.1.82006.13a4.46938,4.46938,0,0,1,.97.11c.2-.04.48.03.48.18,0,.14-.1001.33-.67017.39-.1499.03-.46973.07-.79981.1-.1101.01-.23.02-.34008.04a1.10281,1.10281,0,0,0-.17993.02,8.67573,8.67573,0,0,1-4.57007-.18s-.72,1.04-1.59009,1.02c-.87988-.02-1.38989-.66-3.58984-1.01l-1.14014-.21c-.66992,2.37-1.05982,4.72-1.05982,4.72-.26,1.31-1.01,5.09-1.77,9.37-.33007,1.89-.67016,5.86-.9602,9.75-.2898,3.88-.54981,7.68-.71,9.26A28.8026,28.8026,0,0,1,8.75377,86.07c1.1399.47,2.18994.01,3.18994-.14a2.43709,2.43709,0,0,1,1.40992.14,3.41084,3.41084,0,0,0,.55,2.7c3.28-.04,4.40992-1.31,4.40992-1.31l.13012.98h.02l.91993.03a22.75735,22.75735,0,0,0,3.87988-.57A34.92028,34.92028,0,0,1,22.85363,93.26a20.64017,20.64017,0,0,1-1.3899,3.12.80786.80786,0,0,1-.38012.22s-.14991-.38-.24-.42c-.1001-.03-1.05005.36-1.05005.5s.30005.26.30005.26c-2.08008.48-2.12989.96-2.08008,1.16a7.01259,7.01259,0,0,0,4.22021,1.16c1.91992-.18,2.71-2.43,3.77979-2.94,1.08008-.52,1.40014.05,1.37012.62a12.73314,12.73314,0,0,1-.37012,1.81l.82007-.01.15014-.15a8.23215,8.23215,0,0,1-.06006-1.52c.02979-.89.92994-1.59,1-1.89.08008-.3.08008-.76-.08007-.87-.15992-.11-.42994.03-.42994.03-.92993-2.26-.22-5.85-.22-5.85.60987.1.8899.18,1.42994.23.05,0,.1101.01.15991.01l1.04.03a4.04262,4.04262,0,0,0,1.1499-.29,2.65379,2.65379,0,0,0,.37012.2c.95.77.8,4.66.83007,4.95A22.10921,22.10921,0,0,1,33.09362,96l-.05.39s-1.05982-.01-1.23.2v1.07a2.52342,2.52342,0,0,0,.69995-.21s-.00977.22.05.24c.06006.03.23-.06.23-.06s-.05982,1.84.17993,2.02c.24023.17005,1.78027-.62,2.64014-1.28.85986-.65,1.92993-1.41,1.82006-2.7-.10009-1.29-.1101-2.01-.1101-2.01l.37011-.01.25977-.57c-.19971-2.68-2.0398-4.34-1.40991-6.4,1.42016-.94,3.51.58,6.2102-1.11C39.09362,77.36,37.19371,50.14,34.35363,43.98Zm-13.48-31.23-.42017.21a4.90824,4.90824,0,0,1,.25-1.59c.11011-.2.2102-.23.33008.03A1.89144,1.89144,0,0,1,20.87365,12.75Z"/>
  <g>
    <path class="cls-2" d="M18.63366,5.8s.2-.45-.37989-.74a2.23825,2.23825,0,0,0-1.06006-1.41A13.41839,13.41839,0,0,1,14.61364,1.95c-.29-.43-3.30005-2.73-5-.42,0,0-3.14014-.16-3.54,3.56,0,0-.6001.4-.3501,2.68A23.44891,23.44891,0,0,0,6.33361,12.32a.65481.65481,0,0,0,.67016.18l-.38012.42a7.97169,7.97169,0,0,1,2.38989.49A27.93051,27.93051,0,0,1,12.6837,15.8c.32984.24.65992.47.99.71h.01a2.5021,2.5021,0,0,0,1.37989-.03c.59008-.3.5-1.44.60009-1.59.10987-.15.5398-.55.45-.96,0,0,.33984-.29.37988-.5a1.919,1.919,0,0,0-.05982-.57s.55982.26.82007.11c.25977-.15.30982-.51.15991-.93a5.68227,5.68227,0,0,1-.19995-.94s.44995-.84.47-.94c.01978-.11-.24-.2-.28-.13l-.18017-.07a2.683,2.683,0,0,0,.41016-.73c.10009-.34.08007-.37.08007-.37a1.872,1.872,0,0,0,.89991-1.15.34212.34212,0,0,0,.37011-.11A1.7323,1.7323,0,0,0,18.63366,5.8Zm-1.3501,4.56a1.76691,1.76691,0,0,1-.22.38s-.1399-.42.04-.63C17.21373,10.15,17.34362,10.18,17.28356,10.36Z"/>
    <path class="cls-2" d="M30.60363,39.14c0,.12-.33008.32-.59986.43a.944.944,0,0,0-.1101.05,1.40053,1.40053,0,0,1-.21.1.1613.1613,0,0,1-.07006.04c-.06006.02-.12989.05-.21.08a.76171.76171,0,0,0-.1101.04c-.1399.04-.3.08-.5.12a8.56232,8.56232,0,0,1-.93994.13s.57006.1.82006.13a4.46938,4.46938,0,0,1,.97.11c.2-.04.48.03.48.18,0,.14-.1001.33-.67017.39-.1499.03-.46973.07-.79981.1-.1101.01-.23.02-.34008.04a1.10281,1.10281,0,0,0-.17993.02,8.67573,8.67573,0,0,1-4.57007-.18s-.72,1.04-1.59009,1.02c-.87988-.02-1.38989-.66-3.58984-1.01l-1.14014-.21c-.66992,2.37-1.05982,4.72-1.05982,4.72-.26,1.31-1.01,5.09-1.77,9.37-.33007,1.89-.67016,5.86-.9602,9.75-.2898,3.88-.54981,7.68-.71,9.26A28.8026,28.8026,0,0,1,8.75377,86.07c1.1399.47,2.18994.01,3.18994-.14l-.58007,4.59a22.135,22.135,0,0,0,2.49-.08,1.55032,1.55032,0,0,1,1.43994.21A1.1084,1.1084,0,0,1,15.6837,91.95c-.19995.59-2.75,1.83-5.7102,2a1.57316,1.57316,0,0,1,.2102.72,22.08918,22.08918,0,0,0,3.10987,2.06c1.2102.56,1.64013.74,1.76,1.13,0,0,.18994,0,.29.29a.52138.52138,0,0,1-.24.68c-.27.2-1.59009,1.48-5.13013,1.1-3.52979-.39-3.88989-1.69-5.23975-2.24l-.29.66a7.23133,7.23133,0,0,1-2.46-.83c-.63012-.53-.23-1.86-.23-1.86a5.95836,5.95836,0,0,1,.19971-1.92c.25-.57.5-1.21.5-1.21a1.98337,1.98337,0,0,1-.06982-.73s-.53,0-.43995-1.61c.08985-1.6.45-6.68.58985-9.11a41.98062,41.98062,0,0,1,.51-5.17,6.076,6.076,0,0,1,.58008-1.05,9.96065,9.96065,0,0,1-.26-2.11c.10009-1.05.25-12.41.25-12.41s-.83008-3.8-1.25-5.94a18.82884,18.82884,0,0,1-.41016-2.81,4.723,4.723,0,0,1-1.13989-.4,2.91393,2.91393,0,0,1-.74-2.82c.1499-.84.85009-8.86,1.10009-11.93.24-3.08.06983-9.71.11988-12.42a22.04752,22.04752,0,0,1,1.03-5.63.55969.55969,0,0,0,.30005-.17.91738.91738,0,0,0,0,.72c.22-.01.32983-.46.32983-.46a6.24757,6.24757,0,0,0,.75-1.27,1.59935,1.59935,0,0,1,1.52-.91,4.50954,4.50954,0,0,0,1.81006-.56c.14013.58,3.57007,1.39,5.48,5.13a12.10456,12.10456,0,0,0,3,3.3c.01.03.14013.45.29,1.16a24.158,24.158,0,0,1,.41015,2.9,22.01954,22.01954,0,0,1-.14013,5c-.05.36-.10987.73-.17993,1.09a.35746.35746,0,0,0,.07983.3,3.77837,3.77837,0,0,0,.7102.63,2.0114,2.0114,0,0,0,.51.12,1.89033,1.89033,0,0,1,.98.42.33394.33394,0,0,0,.33008.08,1.27484,1.27484,0,0,1,1.02979.08,7.08375,7.08375,0,0,0,.95019.52c.2.06.77-.16,1.10987,0,.34008.16.47.25.6499.25a1.70846,1.70846,0,0,1,1.01025-.06.34286.34286,0,0,0,.36988-.12,2.07953,2.07953,0,0,1,1.09008-.83c.68994-.13995,2.35987-1.11,2.57984-1.05.22.05.33008.59.15991.86a14.02421,14.02421,0,0,1-1.61987.92c-.09986.12.99.55,1.34008.52a9.13765,9.13765,0,0,1,1.81983,0c.61011.1,1.28.01,1.28.4-.01.37-.82007.41-1.72.55h-.03l-.7.06s1.33007.06,1.66992.03h.04c.28-.03,1.07007-.17,1.07007.29,0,.28-.75.38-.88013.43a18.18954,18.18954,0,0,1-1.84985.35s.07006,0,.18994-.01c.3601-.01,1.13012-.06,1.67993-.13h.04C30.4735,38.83,30.60363,38.93,30.60363,39.14Z"/>
  </g>
</svg>
