<svg id="Capa_1" data-name="Capa 1" xmlns="http://www.w3.org/2000/svg" viewBox="0 0 50.44081 100">
  <defs>
    <style>
      .cls-1 {
        fill: #e9e9e9;
      }

      .cls-2 {
        fill: #dbdbdb;
      }
    </style>
  </defs>
  <path class="cls-1" d="M33.80067,42.03238c0,.12-.33984.32-.60986.43a.44712.44712,0,0,0-.12012.06,1.38718,1.38718,0,0,1-.21.1.16176.16176,0,0,1-.06982.04c-.06006.02-.13013.05-.21021.08a.57018.57018,0,0,0-.11987.04c-.14014.04-.3.08-.51.12a8.7538,8.7538,0,0,1-.95.13s.57983.11.82983.14a4.59655,4.59655,0,0,1,.99.11c.2002-.04.49.03.49.18,0,.14-.09985.34-.67993.4-.15991.03-.48.07-.82007.1-.10986.01-.23.02-.33984.04a1.11493,1.11493,0,0,0-.19019.02c-.48974.07-3.25976.69-5.15991-.08a3.09718,3.09718,0,0,1-1.76,1.33,13.97636,13.97636,0,0,1-2.12988-.74,8.96754,8.96754,0,0,0-2.65015-.75c-.01.09-.23,2.28-.23,4.53,0,.61.02,1.22.06006,1.8.2,2.74,1.02,7.71-2.83008,7.55a9.65193,9.65193,0,0,1-.12988,3.9,48.56,48.56,0,0,0-1.1001,8.04,23.63008,23.63008,0,0,1-1.48,6.4,5.00746,5.00746,0,0,1,.11011,2.03,5.86717,5.86717,0,0,1,.2998,3.01c-.08984.82-.25976,2.46-.43994,4.12-.26,2.45-.54,4.94-.54,4.94a18.53952,18.53952,0,0,0,2.53,0c.72-.11,1.79.02,2.1001.52a.79151.79151,0,0,1,.11011.82s.18994.1.05981.42c-.12988.33-1.09008,1.55-6.15991,2.07,0,0-.28.77,1.83984,2,2.12012,1.22,3.4502,1.49,3.64014,2.15,0,0,.8.46.02,1.12005-.79.65-6.3501,1.36-8.63013.11s-3.05981-1.66-3.05981-1.66v.68s-2.66016-.16-3.17017-1.56c0,0,.11011-1.9.19019-2.62a5.57769,5.57769,0,0,1,.78979-2.04s-.09985-.44-.1499-.82c0,0-.5.15-.42993-1.13.06006-1.26995,1.02-14.82,1.02979-15.46a3.70926,3.70926,0,0,1,.51025-1.49,2.74922,2.74922,0,0,0,.07983-1.56994c-.09008-.88.1399-3.86005.1399-3.86005s-1.52979-14.298-2.31983-15.348a2.38089,2.38089,0,0,1-.25712-.04881A2.879,2.879,0,0,1,.05758,49.00307C.29841,47.80016.683,45.81091.9695,44.00321a73.99131,73.99131,0,0,0,1.23132-11.4408c.05-3.62,1.1499-14.99,2.90991-16.23l.08008-.11a.29268.29268,0,0,0,.28.14c.28-.03.32983-.57.32007-.97l.16992-.23c.24.24.65991.58.8999.44.25-.14-.03-.93-.22-1.38l.09986-.13c.5.42,1.64013,1.29,1.98022.96a.21176.21176,0,0,0,.05981-.16.45919.45919,0,0,0-.04-.19,1.91912,1.91912,0,0,0-.11988-.26,1.07116,1.07116,0,0,0-.11987-.2,7.85875,7.85875,0,0,0-.7002-.93c.02,0,.03.02.05.04a5.41507,5.41507,0,0,0,1,.75,1.09342,1.09342,0,0,0,.15015.08c.02,0,.02978.01.04.01a.25058.25058,0,0,0,.06982.02.32112.32112,0,0,0,.31006-.05c.29-.29-.76-1.51-1.25-2.05l.10986-.15a.15465.15465,0,0,1,.01026-.04c.16992.16.75.51.98.37.23975-.16-.17017-.75-.4502-1.16a1.18434,1.18434,0,0,0-.29-.30005c.12012-.59.04-2.92.04-4.50995,0-1.62.39014-1.63.40015-1.63a2.049,2.049,0,0,1,1.10986-1.97,3.50077,3.50077,0,0,1,2.72-1.92c1.78-2.16,5.36011.72,5.36011.72a7.10614,7.10614,0,0,1,3.81006,3.24,2.22338,2.22338,0,0,1,.80981,1.73c.07007,1.06-.42993.83-.42993.83a3.28371,3.28371,0,0,1-1.07983,1.50995,2.11476,2.11476,0,0,1-.39014.81006l.14014.06994c.0498-.08.35986-.02.28979.2a12.39508,12.39508,0,0,1-.58984,1.14,4.81284,4.81284,0,0,1,.18994.91c-.56006.13-.86987.45-.86011.80005a.58265.58265,0,0,0,.08008.3v.02a1.50123,1.50123,0,0,1,.04.35.30783.30783,0,0,1-.01.1.80965.80965,0,0,1-.25.4,1.04931,1.04931,0,0,1-.1001.09.47827.47827,0,0,1-.15991.37006h-.01a.44375.44375,0,0,0-.11011.08h-.00976a1.05746,1.05746,0,0,0-.3501.3,3.72471,3.72471,0,0,0-.1001.49005,1.68928,1.68928,0,0,1-.51,1.06.624.624,0,0,1-.05981.04c-.51025.34-.88013.16-1.41016.02h-.03a5.40037,5.40037,0,0,0-.08984-.95,8.24079,8.24079,0,0,0-.89014-2.04,12.21169,12.21169,0,0,1-.59985-1.14s-.09009-.93-.32007-.88-.26.37-.26.37-.6001.18-.18994,1.37a6.1539,6.1539,0,0,1-.5-.72c-.18994-.32-.97021-1.26-1.18018-1.51s-.96-1.06-1.17993-.87c-.15991.13995.71,1.86,1.11011,2.62-.31006-.51-.86011-1.47-1.13013-1.85-.36987-.54-.74-.77-.93994-.65-.17993.11.69995,2.16.96,2.76995-.24-.44995-.92993-1.75-1.22-1.8-.3501-.05.16992,1.48.19995,1.55-.03979-.03-.32006-.25-.3999-.18a5.09073,5.09073,0,0,0,.92993,2.03,4.07732,4.07732,0,0,0,1.12989,2.26,6.8656,6.8656,0,0,1,1.73022,3.28c.23.95,1.15991,10.55,4.22,12.45a8.344,8.344,0,0,0,1.96,5.78,1.63008,1.63008,0,0,1,.76-.11c.53.09,1.42993.82,1.67993.84a5.89546,5.89546,0,0,1,1.26,0c.24.1.56006.36.72.37a5.00315,5.00315,0,0,1,.86011-.08,2.73328,2.73328,0,0,1,.71.22.34058.34058,0,0,0,.3-.13,2.12151,2.12151,0,0,1,1.10986-.85c.7002-.14,2.40015-1.13,2.63013-1.06.22.05.32984.6.15991.87a13.20708,13.20708,0,0,1-1.6499.94c-.1001.12,1.01.56,1.35986.53a9.53932,9.53932,0,0,1,1.86011,0c.61987.1,1.3.01,1.3.4-.01.38-.83008.42005-1.75.56h-.03l-.71.07s1.34985.06,1.69995.03h.04c.27979-.03,1.08984-.18,1.08984.29,0,.29-.77.39-.8999.44a17.122,17.122,0,0,1-1.73.34h.04c.36987-.01,1.1499-.06,1.71-.13h.04C33.66078,41.71237,33.80067,41.81241,33.80067,42.03238Z"/>
  <g>
    <path class="cls-2" d="M9.42079,14.16238a.32112.32112,0,0,1-.31006.05.183.183,0,0,1-.06982-.02c-.01026,0-.02-.01-.04-.01a1.09342,1.09342,0,0,1-.15015-.08,5.41507,5.41507,0,0,1-1-.75.91146.91146,0,0,0-.09985-.1.25866.25866,0,0,0,.0498.06,7.85875,7.85875,0,0,1,.7002.93,1.53172,1.53172,0,0,1,.11987.2,1.91912,1.91912,0,0,1,.11988.26.49257.49257,0,0,1,.04.19.21176.21176,0,0,1-.05981.16c-.34009.33-1.48022-.54-1.98022-.96-.12989-.11-.21973-.19-.23975-.21.00977.03.06982.16.13989.34.18994.45.47,1.24.22,1.38-.24.14-.65991-.2-.8999-.44a1.79868,1.79868,0,0,1-.18994-.2s.02.19.02.43006c.00976.4-.04.93994-.32007.97a.29268.29268,0,0,1-.28-.14,2.2114,2.2114,0,0,1-.18994-.91,5.53935,5.53935,0,0,1,.50977-3.05s1.15014-1.7,2.16015-1.7a.03677.03677,0,0,0,.03-.01,1.49833,1.49833,0,0,1,.82983.28,1.18434,1.18434,0,0,1,.29.30005c.28.41.68995,1,.4502,1.16-.23.14-.81006-.21-.98-.37-.02-.01-.03027-.03-.04-.04-.09009-.12-.32007-.02-.32007-.02s.09985.1.24.25C8.66078,12.65237,9.71083,13.87241,9.42079,14.16238Z"/>
    <path class="cls-2" d="M50.44081,84.78238c-3.31006,1.75-5.87012-.5-7.62012,1.15a6.49232,6.49232,0,0,1,.16993,2.13,11.91083,11.91083,0,0,1-2.83985.34l.24082,1.30133a.901.901,0,0,1-.3.64l-.41992.01s.01.82.13013,2.27c.11987,1.46-.79,2.31994-1.79,3.06994-.99024.74006-2.76026,1.63-3.03,1.43006-.28-.19-.21021-2.27-.21021-2.27s-.18994.09-.27.06c-.06982-.02-.05981-.27-.05981-.27a2.79331,2.79331,0,0,1-.81006.24v-1.21c.2-.24,1.42017-.22,1.42017-.22l.06982-.45c.09567-1.05015.38439-2.28256.33641-2.73179-.2037-1.90741-.52718-1.50948-.61727-1.87947a3.54637,3.54637,0,0,1-.42993-.23005,5.114,5.114,0,0,1-1.31006.33h-.01l-1.2-.04c-.06006,0-.11987-.01-.17993-.01-.61011-.06-1.55341-.26-1.55341-.26-.61768.92871,1.05834,4.76355.72618,5.5076,0,0,.31982-.16.5-.04.17993.13.17993.65.09985.99-.09009.34-1.11987,1.13-1.15991,2.14a9.77536,9.77536,0,0,0,.06982,1.72l-.16992.17-.95-.02039A13.98867,13.98867,0,0,0,29.70342,96.63c.03-.63995-.33984-1.29-1.56982-.7-1.24024.58-2.15015,3.12-4.37012,3.33a8.125,8.125,0,0,1-4.8501-1.32c-.0498-.22,0-.77,2.39014-1.31,0,0-.34009-.13995-.34009-.3,0-.15,1.09009-.59,1.2-.55.12012.04.29.46.29.46a1.00882,1.00882,0,0,0,.43994-.24,9.86048,9.86048,0,0,0,1.75749-4.35854,22.20249,22.20249,0,0,0-.2701-4.1291,2.05817,2.05817,0,0,1-.24.05,8.17558,8.17558,0,0,1-3.54.19l-.1499-1.02s-1.39014,1.32-5.42017,1.36a3.11826,3.11826,0,0,1-.66992-2.79,3.34536,3.34536,0,0,0-.52-.14c.18018-1.66.3501-3.3.43994-4.12a5.86717,5.86717,0,0,0-.2998-3.01,5.00746,5.00746,0,0,0-.11011-2.03,23.63008,23.63008,0,0,0,1.48-6.4,48.56,48.56,0,0,1,1.1001-8.04,9.65193,9.65193,0,0,0,.12988-3.9c3.8501.16,3.03-4.81,2.83008-7.55-.04-.58-.06006-1.19-.06006-1.8,0-2.25.22-4.44.23-4.53a8.96754,8.96754,0,0,1,2.65015.75,13.97636,13.97636,0,0,0,2.12988.74,3.09718,3.09718,0,0,0,1.76-1.33c1.90015.77,4.67017.15,5.15991.08a1.11493,1.11493,0,0,1,.19019-.02c.10986-.02.23-.03.33984-.04.34009-.03.66016-.06994.82007-.1.58008-.06.67993-.26.67993-.4,0-.15-.28979-.22-.49-.18a4.59655,4.59655,0,0,0-.99-.11c-.25-.03-.82983-.14-.82983-.14a8.7538,8.7538,0,0,0,.95-.13c.21-.04.36987-.07995.51-.12a.57018.57018,0,0,1,.11987-.04c.08008-.03.15015-.06.21021-.08a.16176.16176,0,0,0,.06982-.04,1.38718,1.38718,0,0,0,.21-.1.44712.44712,0,0,1,.12012-.06c.27-.11.60986-.31.60986-.43,0-.22-.13989-.32-.83984-.22h-.04c-.56006.07-1.34009.12-1.71.13h-.04a17.122,17.122,0,0,0,1.73-.34c.12988-.05.8999-.15.8999-.44,0-.47-.81-.32-1.08984-.29h-.04c-.3501.03-1.69995-.03-1.69995-.03l.71-.07h.03c.91992-.13995,1.74-.18,1.75-.56,0-.38995-.68018-.3-1.3-.4a9.53932,9.53932,0,0,0-1.86011,0c-.34985.03-1.46-.41-1.35986-.53a13.20708,13.20708,0,0,0,1.6499-.94c.16993-.27.06006-.82-.15991-.87-.23-.07-1.92993.92-2.63013,1.06a2.12151,2.12151,0,0,0-1.10986.85.34058.34058,0,0,1-.3.13,2.73328,2.73328,0,0,0-.71-.22,5.00315,5.00315,0,0,0-.86011.08c-.15991-.01-.48-.27-.72-.37a5.89546,5.89546,0,0,0-1.26,0c-.25-.02-1.1499-.75-1.67993-.84a1.63008,1.63008,0,0,0-.76.11,8.344,8.344,0,0,1-1.96-5.78c-3.06006-1.9-3.99-11.5-4.22-12.45a6.8656,6.8656,0,0,0-1.73022-3.28,4.07732,4.07732,0,0,1-1.12989-2.26,5.09073,5.09073,0,0,1-.92993-2.03c.07984-.07.36011.15.3999.18-.03-.07-.55005-1.6-.19995-1.55.29.05.98,1.35,1.22,1.8-.26-.61-1.13989-2.66-.96-2.76995.19995-.12.57007.11.93994.65.27.38.82007,1.34,1.13013,1.85-.40015-.76-1.27-2.48005-1.11011-2.62.22-.19.97.62,1.17993.87s.99024,1.19,1.18018,1.51a6.1539,6.1539,0,0,0,.5.72c-.41016-1.19.18994-1.37.18994-1.37s.03-.32.26-.37.32007.88.32007.88a12.21169,12.21169,0,0,0,.59985,1.14,8.24079,8.24079,0,0,1,.89014,2.04,5.40037,5.40037,0,0,1,.08984.95c.01.46-.01977.92-.03,1.23a33.26316,33.26316,0,0,0,2.43018,6.05c.47.96.79,1.59.99,2.07.73-1.53,1.37988-2.59,1.37988-2.59a7.66759,7.66759,0,0,1-.28-1.08c-.07983-.51-.00976-1.06-.06982-1.29a12.42274,12.42274,0,0,0-2.33008-3.52,1.04214,1.04214,0,0,1-.6499-.89.624.624,0,0,0,.05981-.04,1.68928,1.68928,0,0,0,.51-1.06,1.32519,1.32519,0,0,0,.28-.37.72476.72476,0,0,1,.17017-.42h.00976a.44375.44375,0,0,1,.11011-.08h.01a.58236.58236,0,0,1,.25-.05,1.376,1.376,0,0,1,.01-.41.80965.80965,0,0,0,.25-.4.66253.66253,0,0,1,.27-.1,1.159,1.159,0,0,1-.30005-.35v-.02a.58265.58265,0,0,1-.08008-.3c-.00976-.35.3-.67.86011-.80005a3.11291,3.11291,0,0,1,.32007-.04.71557.71557,0,0,1,.13989-.38,7.15674,7.15674,0,0,1,.67993-1.05c.09009-.03.22022.17.13013.36,0,0,.34009.04.16992.55a3.88444,3.88444,0,0,1,1.57007-1.3s.8501-2.05,2.1001-1.23c0,0,.43994-.21.69995.07a.60177.60177,0,0,1,.73.15s.3-.15.60986.23a.50039.50039,0,0,1,.49.25.45947.45947,0,0,1,.5.19.4241.4241,0,0,1,.49024.22.50633.50633,0,0,1,.44971.28s.29-.09.52.37a.95822.95822,0,0,1,.77.51,2.492,2.492,0,0,1,1.57007,2.00994,4.16122,4.16122,0,0,0,.63013,1.58c.50977.73.13989,1.9.09985,2.38a3.7232,3.7232,0,0,0,.92994,2.27c.74023.91-.15992,1.73-.59986,2.15a2.57224,2.57224,0,0,0,.82007,1.23.98933.98933,0,0,1,.11987,1.54,1.8506,1.8506,0,0,1,.6399,1.64s.93017.61,1,1.16c.07006.56-.23.87-.1399,1.54,0,0,.02.43994.8899,1.24a2.62858,2.62858,0,0,1,.94018,2.58.864.864,0,0,0,.99,1.06,1.14114,1.14114,0,0,1-1.47-.29,5.321,5.321,0,0,0,.71,1.23,4.1892,4.1892,0,0,1,1.23,3.58s-.22-1.7-.88012-2.23a3.08573,3.08573,0,0,1-.34986,1.76c-.45.66,1.07007,2.52,1.31006,2.99a3.44876,3.44876,0,0,1-.92993,2.89C45.73085,48.85239,44.57069,73.70242,50.44081,84.78238Z"/>
  </g>
</svg>
