<svg id="Capa_1" data-name="Capa 1" xmlns="http://www.w3.org/2000/svg" viewBox="0 0 46.96489 100">
  <defs>
    <style>
      .cls-1 {
        fill: #dbdbdb;
      }

      .cls-2 {
        fill: #e9e9e9;
      }
    </style>
  </defs>
  <path class="cls-1" d="M15.68321,30.13a3.27363,3.27363,0,0,1-.92993-1.46A3.19014,3.19014,0,0,0,15.68321,30.13Zm-1-2.02a.20735.20735,0,0,1,.06006-.1h-.01A.31247.31247,0,0,0,14.68321,28.11Z"/>
  <g>
    <path class="cls-2" d="M20.48481,83.93678a3.01917,3.01917,0,0,1-2.098-.23309,7.77763,7.77763,0,0,1-1.96347.75062s.58788,2.175,1.85267,2.90939c0,0-.26715.04026-.177.9806.0903.94215.21548,1.96159.21548,1.96159a3.81743,3.81743,0,0,0,.13789,1.40291c.20441.39263,1.628.37343,2.51833.3174.89074-.05422,2.02309-.2232,2.02309-.2232-.05193-.92572-.09231-1.24976-.09231-1.24976A63.45872,63.45872,0,0,0,20.48481,83.93678Z"/>
    <path class="cls-2" d="M32.86767,44.69922c.88343.30714,1.62926.64751,1.80869.31889.18748-.3495-.45818-.589-.96632-.96218A9.89334,9.89334,0,0,0,32.07,43.18842c-.32391-.12966-1.1042-1.03941-.9588-1.09351a13.55284,13.55284,0,0,0,1.892-.07084c.27607-.15706.43571-.6947.271-.83968-.17731-.17388-2.13787-.08641-2.82077-.29222a2.18331,2.18331,0,0,0-1.383.243.29963.29963,0,0,1-.29253-.01212l-.43337-.33016c-1.42213,1.72356-2.23878,2.11325-3.32051,2.35752a2.21947,2.21947,0,0,1-1.68286-.16013c-1.985-.27189-6.95932-3.1203-6.95932-3.1203s-3.222-2.17255-3.77788-2.732c-.56493-.54858-1.01442-.837-1.55814-.74476a1.31517,1.31517,0,0,1-1.4797-.45085,1.09974,1.09974,0,0,1-.72732-.77417.8401.8401,0,0,1-.29381-.65495,1.21528,1.21528,0,0,1-.28978-1.13751s-.8883-.56787-.84943-1.104a.725.725,0,0,1,.379-.65916l.14836.18664a.64442.64442,0,0,1,.56334.21727s.35518.03629.50917.07175c.144.03641.41719-.261.729-.15026,0,0,.23508-.06269.17543-.26795a1.11007,1.11007,0,0,0-.25684-.2667,1.14,1.14,0,0,0-.11986-.099c-.04367-.036-.07738-.073-.12105-.10894a3.27375,3.27375,0,0,1-1.065-1.36464,1.10024,1.10024,0,0,1-.0371-.17726.55843.55843,0,0,1-.08608-.3735.20739.20739,0,0,1,.05025-.10525c.143-.18453.50768-.04866.68881.165a2.55519,2.55519,0,0,1,.66785.46839c.42723.371,1.71979,1.38226,2.08151,1.69917a4.71489,4.71489,0,0,1,1.13622,1.47836,2.21148,2.21148,0,0,0,1.17151.90236,42.11889,42.11889,0,0,0,4.402,1.69776c1.474.39119,2.346.57881,2.39769.594a3.4792,3.4792,0,0,0-1.25791-.9644,3.10356,3.10356,0,0,1-1.31267-.90888,2.53972,2.53972,0,0,0-.61475-.54387,3.81319,3.81319,0,0,1,1.21405-4.10452c.92632-.71161,1.8996-1.4579,2.77568-2.06426a3.40242,3.40242,0,0,0-.61994-1.43741,11.17573,11.17573,0,0,0-.89966-2.365,1.70373,1.70373,0,0,0-.35274-.85022,10.45727,10.45727,0,0,0-.19271-1.06644,3.50152,3.50152,0,0,0-.348-.80047,5.28883,5.28883,0,0,0-2.4315-2.73049,1.33145,1.33145,0,0,0,.09466-.4812,1.7674,1.7674,0,0,0-.01276-.34036.26406.26406,0,0,0-.01293-.23985,2.38232,2.38232,0,0,0-.56344-.42818s.66962-.245.81887-.68127c.15992-.42718-.0988-1.13577-.04961-1.46189.038-.33518.33892-.65538.03907-1.05861,0,0,.30925-.2305.312-.41165a5.60785,5.60785,0,0,0-.06982-.62614s.4408-.01214.58323-.307a.75676.75676,0,0,0,.05-.5272.983.983,0,0,0,.58217-.528c.1431-.39546.32221-1.35693.35515-1.43036.03413-.06354.13342-.284.09518-.37082-.03943-.09665-.42355-.12011-.69138-.08438l-.87979-.16683a.87053.87053,0,0,0,.25627-.36615.79284.79284,0,0,0-.01537-.37021,2.1905,2.1905,0,0,0,.805-1.45342,3.79612,3.79612,0,0,0-.49468-1.91154.39168.39168,0,0,0-.07145-.53561s-.00075-.53238-.50132-.51451c0,0,.0372-.55608-.44518-.66055,0,0-.04121-.32758-.33183-.31978a.45562.45562,0,0,0-.57-.287s-.34861-.17758-.542-.30969a1.03385,1.03385,0,0,0-.691-.18492c-.28042.00676-2.51373-1.59749-4.28945-1.46746C8.75374.95027,8.47851,1.85057,8.4058,2.56076c0,0-1.28437-.29881-2.37972,1.5843a7.036,7.036,0,0,0-.36694,5.28912,49.53227,49.53227,0,0,0,1.49239,4.87987l.2621-.09544s-.322.83451-.31722.88433a.4645.4645,0,0,0,.095.1516,3.0365,3.0365,0,0,1-.22236.825,1.82658,1.82658,0,0,0-.94594.40208,36.79088,36.79088,0,0,0-3.39337,3.34164,4.38669,4.38669,0,0,0-.73265,2.73233s.7661,7.91479.81481,10.48148a5.38677,5.38677,0,0,0,.661,2.645,3.61492,3.61492,0,0,0-.8091,1.05874c-.4988.99338-2.47365,13.1414-2.55556,13.963a1.84185,1.84185,0,0,0,1.38655,1.8641s.29924,2.49277.3124,4.09888a23.28109,23.28109,0,0,0,.651,5.53314c.58235,2.61635.39066,2.06605.5938,2.7358.80931,2.66831.862,10.71516.84088,12.48526-.01024,1.77911.32162,7.30789.32162,7.30789A13.74774,13.74774,0,0,0,2.366,91.19812,11.43948,11.43948,0,0,0,3.7309,94.43264a4.79516,4.79516,0,0,1,.08756,1.43821,4.56619,4.56619,0,0,0,1.14217,2.50831A3.07212,3.07212,0,0,0,7.5634,99.64664a6.50455,6.50455,0,0,0,2.77433-.50705,1.84725,1.84725,0,0,0,.18918-1.69577A6.15886,6.15886,0,0,1,9.133,94.40713a13.30067,13.30067,0,0,0,1.14963-2.47093c.52949-1.49735-.72237-2.71348-.70086-3.32832a7.548,7.548,0,0,0,1.44556-2.31847c.83831-1.778,1.22236-16.05665,1.22236-16.05665l.95234,3.33433c.33192-3.24649.57964-7.36889.64009-12.60858.10531-8.43855.57153-16.78109,2.31287-20.62473a86.813,86.813,0,0,0,9.0804,5.64945,4.89105,4.89105,0,0,0,.44907-.55539c.09434-.16975.24048-.63583.68838-.67876,1.35,1.50809,4.15306,2.455,4.60107,2.623a.91563.91563,0,0,1,.178.07338,2.93091,2.93091,0,0,1,.3227.11973c.31419.13065.617.25228.77216.29768.54341.21918.721.08161.79026-.03552.06706-.137-.153-.337-.34872-.38854a4.42281,4.42281,0,0,0-.82756-.56357c-.20435-.14119-.67167-.50825-.67167-.50825a8.01351,8.01351,0,0,0,.90526.32509c.20667.06058.36186.106.50492.13242l.1222.01846c.09158.01133.16324.02452.224.02875a.21859.21859,0,0,0,.08042.00235c.09159.01133.1713.00369.23179.00789a.57593.57593,0,0,1,.14045-.00341c.28448.033.68447.01479.73471-.09046.1012-.20058.02639-.35417-.63944-.59172l-.03181-.01706c-.53153-.20021-1.24462-.51361-1.5823-.68211l-.0318-.01706a15.53055,15.53055,0,0,0,1.68565.50144c.14212.01654.87132.28818,1.00785.034.22162-.413-.56546-.659-.83668-.76362l-.03181-.01707c-.2831-.12357-1.21812-.6568-1.44238-.796l.61577.24235ZM18.45221,9.4839c.26879-.02576.2513.10652.24049.30842a6.53793,6.53793,0,0,1-.2.95348,1.25645,1.25645,0,0,1-.30289.61165.55131.55131,0,0,1-.26306.08548,4.45334,4.45334,0,0,0-.31448-1.18536A.83229.83229,0,0,1,18.45221,9.4839Zm-.96237-.18907.43041.08934a1.32818,1.32818,0,0,0-.347.15381.324.324,0,0,0-.10184-.12084A.18081.18081,0,0,0,17.48984,9.29483Z"/>
  </g>
  <path class="cls-1" d="M46.965,79.44c-7.74-9.89-10.08008-26.18-10.43018-29.41a13.7271,13.7271,0,0,0-1.37988-5c.37988.05.83007,1.27,1.33007,1.97.51.71,1.01.79,1.15992.78.13989-.02.3-.26.32007-.29a3.26285,3.26285,0,0,0,.21,1.6,2.51693,2.51693,0,0,0,1.16015,1.4,3.77591,3.77591,0,0,1-.55029-1.84,2.83531,2.83531,0,0,0,1.40015,1.48,1.69925,1.69925,0,0,1-.29-.71,1.13479,1.13479,0,0,0,.90991.06c-.63989-.03-1.23-.92-1.23-.92a2.33738,2.33738,0,0,0,.62012-1.08A4.45973,4.45973,0,0,0,41.755,49.12a5.70728,5.70728,0,0,1-1.40014-1.89,2.64683,2.64683,0,0,0,.09009-1.8,1.469,1.469,0,0,1,.60009,1.82c1-.94-.42016-2.27-.42016-2.27a3.58381,3.58381,0,0,0,.19018-.79,2.80293,2.80293,0,0,0,.64991.58,2.46859,2.46859,0,0,1-.47-1.71,6.90779,6.90779,0,0,0,.8899,1.06,2.03641,2.03641,0,0,1,.62011,1.31c.42994-1.06-.95019-2.04-1.1101-2.45s.25-1.01.6101-1.57a.91994.91994,0,0,0-.13012-1.09A5.25927,5.25927,0,0,0,42.975,37.83c-.07006-.94-1.47-1.65-1.6101-2.25995-.1399-.61005.72021-2.24005.59009-3.04-.1399-.81-.8501-1.64-1.01-2.61a2.71579,2.71579,0,0,1,.00927-.92053A9.35413,9.35413,0,0,0,40.80577,24.97a4.09188,4.09188,0,0,0-.91089-1.89252c-.74-.74-.61988-1.2-.61988-1.2a.84477.84477,0,0,0,.87989-.4c-.65992.27-.62012-.3-.62012-.3.03027-1.11.76025-2.02.51025-2.52-.24023-.50995-.75-.61-1.58007-1.6-.82007-.99-.66993-3-1.37989-4.71-.69018-1.69995-1.49023-1.84-1.49023-1.84a1.72756,1.72756,0,0,0-1.79981-.58c-.33007-.5-1.09008-.31-1.09008-.31a.42759.42759,0,0,0-.38013-.03c-.07984-.08-.23975-.03-.23975-.03a.2884.2884,0,0,0-.42016-.15c-.19995-.28-.40992.05005-.40992.05005-.23-.29-.59008,0-.59008,0-.15992-.26-.46-.06-.46-.06-.11011-.16-.40015.00995-.40015.00995-.40991-.22-.8999.19-.8999.19-1.71-.21-2.25,2.35-2.25,2.35a2.18109,2.18109,0,0,0-.3899.59c-.65014.13-.74,1.44-.74,1.44a.61524.61524,0,0,0-.17016.09s-.23-.2-.55982.17a2.44753,2.44753,0,0,0-.39013,1.13c-.12989,0-.15992.23-.14991.27a.1386.1386,0,0,0,.06006.08.49164.49164,0,0,0-.08008.41.41334.41334,0,0,0,.23.3,1.4737,1.4737,0,0,0,.1499.56.44027.44027,0,0,0,.3601-.12,2.34814,2.34814,0,0,0-.07006,1.24.41247.41247,0,0,0-.06006.47.97145.97145,0,0,1,.11011.46s-.45.78-.31006,1.21c.13012.42.37011.49,1.32007.98a7.20208,7.20208,0,0,1,1.87988,1.74,1.20185,1.20185,0,0,1-.033.40918,2.953,2.953,0,0,1-1.55835,2.0249,22.68555,22.68555,0,0,1-2.15869.94843,1.52261,1.52261,0,0,0-.60987.14c-.16992-.17-.6101-.59-.93994-.91a4.75283,4.75283,0,0,1-.99023-1.47,2.23216,2.23216,0,0,0-.83984-1.19A6.58976,6.58976,0,0,0,19.795,21.6s-.20019-.92-.30005-.86a.25464.25464,0,0,0-.09008.23s-.15992-.03-.18994.1a3.70821,3.70821,0,0,1,.33984.8,9.187,9.187,0,0,1,.20019,1.07,1.71309,1.71309,0,0,1,.34986.85,11.0694,11.0694,0,0,1,.90014,2.37,3.35077,3.35077,0,0,1,.61988,1.43c-.87989.61-1.84986,1.36-2.78,2.07a3.81512,3.81512,0,0,0-1.21,4.1,2.50651,2.50651,0,0,1,.6101.55,3.14625,3.14625,0,0,0,1.32007.91,3.5905,3.5905,0,0,1,1.25977.96c-.05982-.02-.92993-.2-2.3999-.59a42.0994,42.0994,0,0,1-4.39991-1.7,2.2516,2.2516,0,0,1-1.18017-.9A4.55689,4.55689,0,0,0,11.715,31.51c-.36011-.32-1.66016-1.33-2.08008-1.7a2.69737,2.69737,0,0,0-.66992-.47c-.18018-.21-.55005-.35-.68995-.17a.26985.26985,0,0,0-.05005.11.57126.57126,0,0,0,.09009.37,1.15291,1.15291,0,0,0,.02979.18A3.269,3.269,0,0,0,9.4149,31.2a1.3069,1.3069,0,0,0,.11987.1,1.26931,1.26931,0,0,0,.12012.1,1.3972,1.3972,0,0,1,.26.27c.05005.21-.17994.27-.17994.27-.31-.11-.59008.18-.73.15a4.375,4.375,0,0,0-.51-.07.61078.61078,0,0,0-.56005-.22l-.15015-.19a.739.739,0,0,0-.37988.66c-.04.54.85009,1.11.85009,1.11a1.198,1.198,0,0,0,.29,1.13.84079.84079,0,0,0,.29.66,1.09992,1.09992,0,0,0,.73.77,1.30948,1.30948,0,0,0,1.48.45c.54-.09.98975.2,1.55982.75.55005.56,3.78,2.73,3.78,2.73s4.97,2.85,6.96,3.12a2.23011,2.23011,0,0,0,1.68017.16c1.07984-.24,1.89991-.63,3.31983-2.36l.43017.33a.31852.31852,0,0,0,.29981.02,2.14129,2.14129,0,0,1,1.38013-.25c.67993.21,2.63989.12,2.82006.29.15992.15,0,.69-.27.84a12.55847,12.55847,0,0,1-1.89013.07c-.1499.06.63012.97.96,1.1a9.92993,9.92993,0,0,1,1.64014.87c.5.37,1.1499.61.96.96C34.495,45.35,33.755,45.01,32.86485,44.7l-.02-.02-.60987-.24c.22.14,1.14991.67,1.43995.79l.03.02c.27.11,1.06.35.84008.77-.14013.25-.87011-.02-1.01025-.04a15.68883,15.68883,0,0,1-1.68994-.5l.03.02c.34009.17,1.06006.48,1.59009.68l.03.02c.65992.23.74.39.6399.59-.04981.1-.45.12-.74.09a.647.647,0,0,0-.1399,0,.93891.93891,0,0,1-.23-.01.1106.1106,0,0,1-.08007,0c-.06006,0-.12989-.02-.22-.03a.69329.69329,0,0,1-.13012-.02,4.17452,4.17452,0,0,1-.5-.13,8.52241,8.52241,0,0,1-.90991-.32s.47.36.67993.51a4.01812,4.01812,0,0,1,.82007.56c.2.05.41992.25.34985.39-.06982.11-.23975.25-.7898.03a7.85422,7.85422,0,0,1-.77-.29,1.235,1.235,0,0,0-.32006-.12,1.41981,1.41981,0,0,0-.17994-.08c-.45-.17-3.25-1.11-4.60009-2.62-.45.04-.59986.51-.68994.68a4.27147,4.27147,0,0,1-.45.55,85.41526,85.41526,0,0,1-9.08007-5.65c-1.74,3.85-2.21,12.19-2.31006,20.63-.06006,5.24005-.31006,9.36-.63989,12.61A45.41746,45.41746,0,0,1,11.525,82.75a6.86376,6.86376,0,0,1-.96,2.14A14.36678,14.36678,0,0,0,14.14488,83.65l.1101,1.09a9.12273,9.12273,0,0,0,2.16993-.29,7.40116,7.40116,0,0,0,1.96-.75,3.06071,3.06071,0,0,0,2.10009.24,63.3915,63.3915,0,0,1,2.40992,6.61s.04.33.10009,1.26c0,.02.01.05,0,.07a9.74469,9.74469,0,0,1-.34008,3.59,3.49008,3.49008,0,0,0-.37989,1.2l-.31.23a2.54841,2.54841,0,0,0-.96-.67s-.56005.47-.66015.56c-.10987.08-.31006.27-.27979.41.0398.15.1399.14.2898.12.14013-.01.17016.07.17016.07a.18.18,0,0,0,.07984.28c-1.57984,1-1.92993,1.28-1.87989,1.58.04.29.32007.38,1.55.6a21.89743,21.89743,0,0,0,4.56983.06c1.13012-.11,1.81006-1.69,2.66015-3.19.83985-1.5,1.79-1.46,1.79-1.46s.08985.86.07984,1.33c-.02.48-.09009,1.04-.09009,1.04l.3501.33.84008-.19a12.415,12.415,0,0,1-.31005-2.03,3.03985,3.03985,0,0,1,.80005-1.67.56558.56558,0,0,0,.1499-.57c-.04981-.29-.10987-.32-.10987-.32a1.34592,1.34592,0,0,1,.81983-.43c1.32007-.13,1.38013.43,1.43017.94a10.4054,10.4054,0,0,1-.16992,1.78l.81983.12.25-.25a10.355,10.355,0,0,0-.1001-1.17,2.75757,2.75757,0,0,1,.55005-2.32.90427.90427,0,0,0,.39013-1.1c-.09008-.31-.75-.02-.75-.02a2.0733,2.0733,0,0,0-.82006-1.78,5.94533,5.94533,0,0,1-.8-3.31c.15014-.95.28-2.89.28-2.89A3.87315,3.87315,0,0,0,35.475,81.48l-.12011-.88c2.42016,1.84,6.39013.45,6.39013.45l-.48-1.55c1.47-.01,2.25.93,3.47.85A4.49254,4.49254,0,0,0,46.965,79.44ZM25.08506,16.63751s-.29.22-.36011.06c-.02-.05-.03-.13-.06005-.23.04,0,.30005.05005.47.05005Zm.48-1.58a3.34885,3.34885,0,0,1-.98.37c.04981-.6.27979-1.21.61988-1.25.34008-.05.43994.42.43994.42A.86.86,0,0,0,25.565,15.0575Zm3.42481,73.10579a4.50059,4.50059,0,0,1-.12891,1.82379,5.79144,5.79144,0,0,1-1.16962-1.675,1.967,1.967,0,0,1-.12154-.319,43.91659,43.91659,0,0,0-1.45291-4.36952,4.24288,4.24288,0,0,0,.76731-.70524s.59842.05949.9515.09479A28.04758,28.04758,0,0,1,28.98985,88.16329Z"/>
</svg>
