<svg id="Capa_1" data-name="Capa 1" xmlns="http://www.w3.org/2000/svg" viewBox="0 0 52.59343 100">
  <defs>
    <style>
      .cls-1 {
        fill: #e9e9e9;
      }

      .cls-2 {
        fill: #dbdbdb;
      }
    </style>
  </defs>
  <path class="cls-1" d="M26.25106,23.5c-.65991-4.73-1.90991-4.19-1.90991-4.19-.38013-.68-1.07007-.72-2.03-1.16a17.21131,17.21131,0,0,1-2.11987-1.22,1.4013,1.4013,0,0,0,1.1499-.27c.42016-.42.32007-1.58.43994-1.74.13013-.15.3501-.31.38013-.54a.78979.78979,0,0,0-.06006-.39c.22-.01.3-.14.35986-.34a3.20986,3.20986,0,0,0,.06006-.73s.57007.21.8501-.04a.68591.68591,0,0,0,.1001-.69,9.52712,9.52712,0,0,0,.88989-1.71.84422.84422,0,0,0-.92993-.27l-.21-.05a.647.647,0,0,0-.22022-.19,1.85407,1.85407,0,0,0,.64014-1.25c2.42993-1.57,1.23-2.78,1.23-2.78.97-1.07-3.6499-4-3.99-4.15A5.71017,5.71017,0,0,0,17.75106.04a2.05434,2.05434,0,0,0-2.40991,1.09.24836.24836,0,0,1-.27.13c-5.59009-.82-3.98,9.76-3.96,10.46s.34009.62.34009.62-.33008.28-.96.9c-.63013.62-.66016.82-.66016.82-1.12988.88-2.81983.9-4.08984,1.18s-1.11011.53-2.03028,1.35c-.92993.83-2.3999,6.49-2.55981,9.66A86.76652,86.76652,0,0,0,1.961,36.6c.01026,0,.01026,0,.01026.01.2,1.06.6499,3.34.72,3.69v.1c-.17017.72-1.8501,6.65-2.65015,9.43a1.15148,1.15148,0,0,0,1.14014,1.46c.09985,0,.18994-.01.27-.01a.24972.24972,0,0,1,.25976.25l.04,1.68s.16016,15.31.91016,18.41c.01.01.01.02.01.04,0,.56.03979,12.38.34985,14.45a28.33905,28.33905,0,0,1,.54,3.32c-.01.67-.21,1.33-.29981,2.21a7.553,7.553,0,0,0,.25977,3.66,7.221,7.221,0,0,0-.08984,2.63,2.32941,2.32941,0,0,0,2.08007,2.05,4.84859,4.84859,0,0,0,1.37989-.05c1.29-.26,1.17993-1.93,1.18994-2.56a19.05754,19.05754,0,0,1,.3999-2.61.24659.24659,0,0,1,.12012-.21,2.52124,2.52124,0,0,0,1.19995-1.67,11.425,11.425,0,0,0-.24-5.5.2466.2466,0,0,1,.09009-.28c.25-.17.68994-.75.62988-2.79-.08984-2.79-.01978-8.91.12012-9.76a.08994.08994,0,0,1,.01-.05,12.94849,12.94849,0,0,0,.6499-3.78c.20019-2.77.93018-7.97.93018-7.97s-.1001,8.69,1.00976,11.75a.14109.14109,0,0,1,.01025.09,33.91479,33.91479,0,0,0-.13012,5.26,6.33715,6.33715,0,0,1-.07007,3.29,6.601,6.601,0,0,0,.51,4.93.25987.25987,0,0,1-.02.27c-.32983.41-1.34009,1.7-1.30981,2.32a3.36213,3.36213,0,0,0,.71972,1.6,2.74653,2.74653,0,0,1,.14014,1.07.18313.18313,0,0,0,.06006.17,3.35789,3.35789,0,0,0,1.5498.83l.63013-.06a3.26375,3.26375,0,0,1,.86011,1.15,2.85429,2.85429,0,0,0,1.15991,1.57,4.80115,4.80115,0,0,0,4.13989.58,5.06333,5.06333,0,0,0,.66016-.24.715.715,0,0,0,.33008-.85,7.01914,7.01914,0,0,0-1.22022-2.36,12.22389,12.22389,0,0,1-2.04-2.18.231.231,0,0,1-.03979-.14l-.11011-7.36a.26083.26083,0,0,0-.30005-.25,18.607,18.607,0,0,1-2.18994.32c-.11011.01-.22.01-.34009.01-.11987,0-.25-.01-.37988-.02a.10884.10884,0,0,1-.05005-.01,2.24037,2.24037,0,0,1-.43994-.07c-.01,0-.02-.01-.03-.01-.12012-.03-.24-.07-.35986-.11a29.51555,29.51555,0,0,0,4.69995-13.22c.38989-3.41,1.17993-7.92,1.97-12.00995a.0098.0098,0,0,1,.01-.01c.53979-2.81,1.07983-5.42,1.49-7.35q.0747-.33.1499-.72c.07007-.3.13013-.57.16992-.82.1001-.43.18018-.79.25-1.07l.03027-.15c-.01025,0-.03027.01-.04.01.45-2.27.98-5.01,1.35986-6.97-2.12988-.7-4.42993-1.7-4.42993-1.7s-3.44019-1.81-4.06006-2.3c-.61011-.5-1.09985-.73-1.61987-.58a1.3187,1.3187,0,0,1-1.52-.28,1.11156,1.11156,0,0,1-.81006-.7.82273.82273,0,0,1-.36011-.61A1.2624,1.2624,0,0,1,11.61117,34.71s-.93994-.46-.96-1a.72214.72214,0,0,1,.30981-.7l.17017.17a.62408.62408,0,0,1,.57983.16,3.43093,3.43093,0,0,1,.51026.02c.1499.02.38989-.31.71-.23,0,0,.23-.09.1499-.29-.08984-.2-1.58984-.89-1.81006-1.83,0,0-.22-.27-.08984-.47.11987-.2.51-.11.69995.08a2.58435,2.58435,0,0,1,.72.4c.46.32,1.8501,1.19,2.25,1.46a4.82359,4.82359,0,0,1,1.3,1.35,2.19228,2.19228,0,0,0,1.25.77,42.48755,42.48755,0,0,0,4.57007,1.21c.73974.11,1.33984.2,1.75.25a2.89831,2.89831,0,0,1-.08008-.32l-.01-.02c-.01-.06-.06006-.26-.11011-.55a.00964.00964,0,0,1-.00977-.01,9.2098,9.2098,0,0,1-.15014-3.35c.34009-1.46,1.58008-2.4,1.97-3.56,0,0-.01-.17-.01-.47a10.70776,10.70776,0,0,1,.23-2.22A9.13933,9.13933,0,0,1,26.25106,23.5Zm-2.25-13.12a.17579.17579,0,0,1-.02.11l-.2998-.08A.409.409,0,0,1,24.00106,10.38Zm-.46.14.37012.12005a1.34824,1.34824,0,0,1-.13013.43995,6.96132,6.96132,0,0,1-.37988.74005l-.19995-.58A5.20276,5.20276,0,0,1,23.5411,10.52Z"/>
  <path class="cls-2" d="M42.85116,40.55a5.56784,5.56784,0,0,0,1.3501-3.52c.0498-7.88-1.89014-11.79-1.89014-11.79.66016-.99-.28-1.28-.28-1.28s-.16992-1.06-.60986-1.18c-.44019-.11-.45-.35-.45-.35a.86166.86166,0,0,0,.75-.36,4.01662,4.01662,0,0,1-.75-.04c-.04-.41.11987-.45.15991-.82a.59549.59549,0,0,0-.21-.54.88184.88184,0,0,0,.76-.66c-.23.23-1.47022.63995-1.78-.33-.32007-.97.71-1.35.55981-1.78-.07983-.25-.51977-.42-.92993-.72a1.70888,1.70888,0,0,1-.6499-1.43,9.69426,9.69426,0,0,0-.07007-2.77,4.26454,4.26454,0,0,0-1.41992-2.27,2.08549,2.08549,0,0,0-1.37989-.86.35241.35241,0,0,0-.3601-.18c-.12012-.15-.49-.18-.49-.18a.51263.51263,0,0,0-.49-.27.473.473,0,0,0-.42017-.17.4408.4408,0,0,0-.17993-.09c-.09009-.03-.23.07-.23.07a.59829.59829,0,0,0-.28-.17.34019.34019,0,0,0-.31982.09s-.1001-.16-.2002-.17a.78522.78522,0,0,0-.29.1.58609.58609,0,0,0-.48-.19,1.16053,1.16053,0,0,0-.5498.31,1.64536,1.64536,0,0,0-.93018-.04c-.51.13-.6499,1.08-.6499,1.08a2.70073,2.70073,0,0,0-.62012.41c-.22.22-.45.62-.77978,1.04a2.42654,2.42654,0,0,0-.42017.73l-.54-.1c-.03979-.47-.15991-.48-.23-.46-.07983.03-.10986.39-.10986.39-.11011.01-.12012.09-.13013.2s.06006.12.06006.12c-.05.37-.12012,1.32-.12012,1.32-.22.13-.85986.4-.90991.74a.54958.54958,0,0,0,.31006.6,1.94123,1.94123,0,0,1,.3601.27,1.38383,1.38383,0,0,0-.22021.28c-.11987.18.02.6.02.6a.506.506,0,0,0-.36987.67v.44a1.73482,1.73482,0,0,0-.49,1.3,1.155,1.155,0,0,0,.87988.88c1.3999.35,2.37988,2.75,2.37988,2.75a4.73978,4.73978,0,0,0-2.51977.47,8.05053,8.05053,0,0,0-.44019.81,9.13933,9.13933,0,0,0-.69995,2.06,10.70776,10.70776,0,0,0-.23,2.22c0,.3.01.47.01.47-.38989,1.16-1.62988,2.1-1.97,3.56a9.2098,9.2098,0,0,0,.15014,3.35.00964.00964,0,0,0,.00977.01c.05.29.1001.49.11011.55l.01.02a2.89831,2.89831,0,0,0,.08008.32c-.41016-.05-1.01026-.14-1.75-.25a42.48755,42.48755,0,0,1-4.57007-1.21,2.19228,2.19228,0,0,1-1.25-.77,4.82359,4.82359,0,0,0-1.3-1.35c-.3999-.27-1.79-1.14-2.25-1.46a2.58435,2.58435,0,0,0-.72-.4c-.18994-.19-.58008-.28-.69995-.08-.13013.2.08984.47.08984.47.22022.94,1.72022,1.63,1.81006,1.83.08008.2-.1499.29-.1499.29-.32007-.08-.56006.25-.71.23a3.43093,3.43093,0,0,0-.51026-.02.62408.62408,0,0,0-.57983-.16l-.17017-.17a.72214.72214,0,0,0-.30981.7c.02.54.96,1,.96,1A1.2624,1.2624,0,0,0,12.03109,35.82a.82273.82273,0,0,0,.36011.61,1.11156,1.11156,0,0,0,.81006.7,1.3187,1.3187,0,0,0,1.52.28c.52-.15,1.00976.08,1.61987.58.61987.49,4.06006,2.3,4.06006,2.3s2.30005,1,4.42993,1.7c-.37988,1.96-.90991,4.7-1.35986,6.97.00976,0,.02978-.01.04-.01l-.03027.15c-.06982.28-.1499.64-.25,1.07-.03979.25-.09985.52-.16992.82q-.07471.39-.1499.72c-.41016,1.93-.9502,4.54-1.49,7.35a.0098.0098,0,0,0-.01.01c-.79,4.09-1.58008,8.6-1.97,12.00995A29.51555,29.51555,0,0,1,14.7413,84.3c.11987.04.23974.08.35986.11.01,0,.02.01.03.01a3.63664,3.63664,0,0,0,.43994.07.10884.10884,0,0,0,.05005.01c.12988.01.26.02.37988.02.12012,0,.23,0,.34009-.01.75-.06,1.47-.26,2.15991-.36005a3.033,3.033,0,0,1,1.66016.15,3.47219,3.47219,0,0,0,.6499,2.91c3.87012-.04,5.21-1.42,5.21-1.42l.15015,1.06c3.57007.3,3.68994-.4,3.68994-.5a15.96733,15.96733,0,0,1,.21,2.22,8.8553,8.8553,0,0,0-.1499,2.52c-.1001,1.09-1.86011,3.59-1.86011,3.59a1.58731,1.58731,0,0,0-.44995.09.87875.87875,0,0,0-.28.43005l-.13989.1a4.227,4.227,0,0,0-.39014.78c.1001.04.3501-.12.40991-.17-.00976.05-.08984.25-.32983.8-.28.66-.04.94.2.99005a11.183,11.183,0,0,0,3.25-.29c1.21-.34,1.24-.63,1.52-2.31a3.06458,3.06458,0,0,1,1.78-2.26,6.66362,6.66362,0,0,1-.15015,1.8c-.07983.25995.08008.31.08008.31a.30507.30507,0,0,0,0,.18c.02.11.23.21.39014.22a1.50143,1.50143,0,0,0,.49-.14,4.71663,4.71663,0,0,1,.61987-2.63c.36011-.74-.17993-2.34-.18994-3.65a18.253,18.253,0,0,1,.06006-1.96l.5.02a26.292,26.292,0,0,1,.40991,5.59c-.26,1.4-.72,3.69-.72,3.69a1.92683,1.92683,0,0,1-.68994-.01c-.04.03-.07007.19-.07007.19l-.25-.01a5.71845,5.71845,0,0,0-.03,1.05,1.93006,1.93006,0,0,0,.83008-.1,2.45648,2.45648,0,0,0,.73,2.25995c1.04.18,2.72-1.21,3.12011-1.84a7.069,7.069,0,0,0,.75-2.23.71454.71454,0,0,0,.59986-.14l-.13989-3.19a1.13085,1.13085,0,0,0,.13989-.69c-.03-.43-.24-.54-.24-.54a.34868.34868,0,0,0-.14014-.11s-.00976-.34-.08984-1.38a6.93619,6.93619,0,0,1,.37988-2.32A5.38589,5.38589,0,0,0,42.1412,86.89c2.22,1.25995,3.29.33,3.29.33A7.36974,7.36974,0,0,0,45.26131,85c1.67994-1.73,4.1399.62,7.32984-1.21C46.94125,72.23,49.52108,46.18,42.85116,40.55ZM27.75106,13.31a.55813.55813,0,0,1,0-.34.18207.18207,0,0,0-.09985-.12l.07983-.41.48.14A.86585.86585,0,0,1,27.75106,13.31Z"/>
</svg>
