<svg id="Capa_1" data-name="Capa 1" xmlns="http://www.w3.org/2000/svg" viewBox="0 0 59.68415 100">
  <defs>
    <style>
      .cls-1 {
        fill: #e9e9e9;
      }

      .cls-2 {
        fill: #dbdbdb;
      }
    </style>
  </defs>
  <path class="cls-1" d="M27.65018,25.89a5.291,5.291,0,0,1,.12012-.63c-.18018-.71-.48-1.86005-.6001-2.32-.17993-.7-.33008-1.59-.58984-2.36a1.64934,1.64934,0,0,0-.99024-1c-.43994-.68-1.40991-.79-2.02978-1.1-.59009-.29-2.34009-1.26-2.43994-1.32a3.02883,3.02883,0,0,0,1.56982-.5c.41016-.42.32007-1.58.43994-1.74.13013-.15.3501-.31.38013-.54a.78979.78979,0,0,0-.06006-.39c.22-.01.29-.14.36011-.34a3.22482,3.22482,0,0,0,.06006-.73s.56982.21.83984-.04a.67241.67241,0,0,0,.10986-.69,9.53648,9.53648,0,0,0,.89014-1.71.84422.84422,0,0,0-.92993-.27l-.21021-.05a.6452.6452,0,0,0-.21972-.19,1.85445,1.85445,0,0,0,.63989-1.25c2.42993-1.57,1.23-2.78,1.23-2.78.97-1.07-3.65015-4-3.99-4.15A5.71015,5.71015,0,0,0,19.10038.04a2.0336,2.0336,0,0,0-2.48,1.26c-5.83008-1.12-4.18018,9.71-4.16016,10.42.02.7.33008.62.33008.62a4.18918,4.18918,0,0,0-1.14014.83c-.62988.61-1.59985,1.56-1.59985,1.56a16.27977,16.27977,0,0,1-2.37012.93c-.84985.2-3.65991.34-4.69995,1.3,0,0-1.02.2-1.3999,2.52A27.25774,27.25774,0,0,0,.00028,25.84c-.05005,2.24.3501,10.28.95,11.71a21.405,21.405,0,0,0,2.71,3.89s-1.86987,8.63-2.73,10.57a2.3992,2.3992,0,0,0,1.71.09l-.17993,1.45a.68238.68238,0,0,0,.44995.25S3.36014,68.63,4.1204,71.66c0,0,.03979,12.34.34985,14.46a30.84092,30.84092,0,0,1,.54,3.32c-.02.67-.31006,1.32-.31006,2.21a16.11408,16.11408,0,0,0,.44995,2.7A10.35465,10.35465,0,0,0,3.5701,97.49a10.9528,10.9528,0,0,0-.16992,2.1,9.84264,9.84264,0,0,0,3.5.34,2.79593,2.79593,0,0,0,2.2002-2.62,1.61464,1.61464,0,0,1,.55981-1.13c.52-.35,1.27-.75,1.27-1.56a2.48757,2.48757,0,0,0,1.32007-1.73c.35986-1.37005-.47-4.1-1.1001-5.71,0,0,.88013-.03.79-2.86-.08984-2.82-.02-9.04.12012-9.77a12.53238,12.53238,0,0,0,.66992-3.8c.18994-2.77.91992-7.96.91992-7.96s-.09985,8.77,1.03,11.78a34.08345,34.08345,0,0,0-.13989,5.29,6.48365,6.48365,0,0,1-.07007,3.3c-.34985,1.34-1.88013,3.99-.80005,5.94a9.37264,9.37264,0,0,0-.62988,2.44,3.46923,3.46923,0,0,0,.72,1.59,3.08026,3.08026,0,0,1,.12988,1.16s.29.51,1.61011.91l.62988-.06a3.26077,3.26077,0,0,1,.86011,1.15c.2.58.56006,1.71,3.26,2.52,0,0,2.41992-.18,3.17993-.94a8.195,8.195,0,0,0-1.36987-2.88c-.87012-.95-1.4502-1.17-2.08008-2.24l1.27-8.59c-.11011.01-.22.03-.33008.05a9.26848,9.26848,0,0,1-3.08984.27,4.695,4.695,0,0,1-1.38013-.22,28.2184,28.2184,0,0,0,5.1001-13.21c.42993-3.41,1.28979-7.91,2.1499-12.01.76-3.66,1.09009-7,1.36987-8.92a4.39283,4.39283,0,0,0-.16992-.88c-.11987,0-.33984,0-.58008-.01a7.46341,7.46341,0,0,1-1.05981-.05,9.15057,9.15057,0,0,1-1.40015-.46c.28-.4.48-.68.73-1.04-.3999-.01-.68994-.02-.83984-.02-.2-.2-.29-.34-.41992-.39-.41016-.19-.8501-.27-.63013-.94995.1001-.29-.15991-.7-.26-1.07-.3-.03-.62012-.06-1.04-.09.22022-.14.33008-.22.51-.34-.26-.14-.47-.26-.67993-.39-.24-.16-.30005-.32-.03-.53.11011-.09.15015-.26.24-.37a3.40445,3.40445,0,0,1,.43994-.48c.21-.16.42017-.32.64014-.47.08984-.12.18994-.25.31006-.4a.00988.00988,0,0,1-.01026-.01c-.35986.23-.73.46-1.08984.69-.03-.02-.05005-.04-.08008-.06.04-.05.09009-.11.13013-.16-.07007.04-.14014.07-.21021.11a.71627.71627,0,0,1-.07983-.1c.21-.17.41992-.34.63989-.53-.47.23-.85986.43-1.25976.63a.71888.71888,0,0,0-.08008-.1c.21-.17.41992-.34.63989-.53a2.696,2.696,0,0,1-.28.04.64472.64472,0,0,1-.02978-.08c-.22022.02-.44019.05-.66016.08a.98161.98161,0,0,1-.05-.16c.22-.12.42993-.25.72-.42-.31006-.04-.5498-.08-.79-.11a.19961.19961,0,0,1-.00976-.07c.1499-.04.2998-.07995.43994-.13.1499-.05.43994.07.37988-.28.18994-.01.37012-.03.6001-.05a2.41475,2.41475,0,0,0-.03-.28c.24.04.47.08.71.12,0-.04-.01-.07-.01-.12a.67593.67593,0,0,0,.14014.02c-.03-.12-.05-.26-.09009-.46.32007.22.55.39.8.58-.03-.16-.06006-.31-.1001-.58a.20941.20941,0,0,0,.06006.04c0-.04-.01-.07-.01-.11005.04-.02.07007-.03.11011-.05.12988.17.25.33.37988.51.09009.06.16992.13.26.19v-.01c-.02-.23-.04-.43-.06006-.64a.91963.91963,0,0,0,.1001-.05h.01a1.20914,1.20914,0,0,1,.01-.19c.01-.12.02-.24.03979-.35a1.27339,1.27339,0,0,1,.56006-.94c.01-.01.03-.02.04-.04a6.20416,6.20416,0,0,1,.1001-2.33,19.81614,19.81614,0,0,1,1.12988-3.68,5.324,5.324,0,0,0,.88013,2.57c.3.12.55981.2.78.31a1.97956,1.97956,0,0,1,.25.13,4.83672,4.83672,0,0,1,.75.6l.02978.03c-.06982-.18-.15991-.42-.25-.71a6.62556,6.62556,0,0,1-.21972-3.31A33.671,33.671,0,0,0,27.65018,25.89Zm-2.2998-15.51a.3297.3297,0,0,1-.02.11l-.3-.08A.4097.4097,0,0,1,25.35038,10.38Zm-.46021.14.37012.12005a1.34824,1.34824,0,0,1-.13013.43995,6.335,6.335,0,0,1-.38989.74005l-.18994-.58A5.20276,5.20276,0,0,1,24.89017,10.52Z"/>
  <path class="cls-2" d="M47.054,40.562a18.13964,18.13964,0,0,0,1.72022-1.98c.02978-.06.06982-.13.10986-.2a7.71752,7.71752,0,0,0,.83008-3.78,25.47377,25.47377,0,0,0-.91016-6.2c-.61987-1.88995-2.02-5.85-3.46-6.96a1.67114,1.67114,0,0,0-.93994-.26,3.4801,3.4801,0,0,0-1.354-.0545c-.27368-.9574-1.646-1.36548-1.646-1.36548s1.26-.14,1.18994-.39a4.5362,4.5362,0,0,1-2.52-1.35,1.565,1.565,0,0,1-.301-1.68665c.81958-1.04168-.3313-1.014-.48609-1.33331-.14184-.29285.36109-.76392.27979-1.27118-.13721-.85754-1.20386-1.29144-1.46265-1.48883a8.51522,8.51522,0,0,1-1.45-1.55,3.70532,3.70532,0,0,0-1.14014-.95,2.80072,2.80072,0,0,0-1.3999-.74,4.17979,4.17979,0,0,0-.97-.05,1.47223,1.47223,0,0,0-.72-.13c-.3501.04-.37988.19-.37988.25a.12764.12764,0,0,0-.06006.01.83289.83289,0,0,0-.50562-.09565.91594.91594,0,0,0-.63452.32569c-.02.01-.04.01-.0498.02a.29678.29678,0,0,0-.36011-.07.30241.30241,0,0,0-.17993.28c-.02,0-.03.01-.05.02a.33351.33351,0,0,0-.3501-.01.25368.25368,0,0,0-.13989.27v.01h-.01a.31528.31528,0,0,0-.38013,0c-.13281.0921-.09985.27-.09985.34-.2.15-.38013.29-.56006.42a1.3024,1.3024,0,0,0-.46,1.28c-1.2102,1.45-.42017,4.31-.42017,4.31a2.41912,2.41912,0,0,0-.48.39,1.1624,1.1624,0,0,0-.09985.59c-.17017.05-.13013.15-.13013.15a.29513.29513,0,0,0-.09985.07c-.03.03.01978.18.05981.21s.12012-.03.12012-.03a.13994.13994,0,0,0,.07007.06.30878.30878,0,0,0,.1499-.01,4.5914,4.5914,0,0,0,.40991.52,2.26345,2.26345,0,0,0,.62012.52c.00952.34412.282,2.47412,3.20361,3.06409-.71411,1.15625-2.37817,1.18939-2.6311,1.58221l.01416-.00018-.0166.00391a3.006,3.006,0,0,0-1.2,1.96,5.291,5.291,0,0,0-.12012.63,33.6857,33.6857,0,0,1-1.53,6.3,6.62264,6.62264,0,0,0,.22,3.31c.09009.29.18018.53.25.71l-.03-.03a4.81325,4.81325,0,0,0-.75-.6,1.94606,1.94606,0,0,0-.25-.13c-.22-.11-.48-.19-.78-.31-.00976-.01-.02978-.01-.04-.02a10.08178,10.08178,0,0,0,.52,1.25,8.39218,8.39218,0,0,0,.74024.96c-.16016.08-.40015.12-.46.25-.23023.51-.6001.52-1.06006.4a2.86481,2.86481,0,0,0-.71-.08c-.4502,0-.94019-.06-1.03027.58a.14344.14344,0,0,1-.06983.1c-.01.02-.03.03-.04.04a1.27339,1.27339,0,0,0-.56006.94c-.02.11-.02978.23-.04.35a1.23976,1.23976,0,0,0-.00976.19H22.014a.892.892,0,0,1-.09985.05c.02.21.04.41.06006.64v.01c-.09009-.06-.17017-.13-.26-.19-.13013-.18-.25-.34-.38013-.51-.03979.02-.07007.03-.10986.05,0,.04.01.07.01.11005a.20941.20941,0,0,1-.06006-.04c.04.27.06983.42.1001.58-.25-.19-.48-.36-.8-.58.03979.2.05981.34.08984.46a.6736.6736,0,0,1-.13989-.02c0,.05.01.08.01.12-.24-.04-.47-.08-.71-.12a2.472,2.472,0,0,1,.03.28c-.23.02-.41016.04-.6001.05.06006.35-.23.23-.37988.28-.14014.05005-.29.09-.44019.13a.195.195,0,0,0,.01.07c.24.03.48.07.79.11-.29.17-.5.3-.72.42a.98161.98161,0,0,0,.05.16c.22-.03.43994-.06.65991-.08a.684.684,0,0,0,.03.08,2.70524,2.70524,0,0,0,.28-.04c-.22.19-.42993.36-.63989.53a.71627.71627,0,0,1,.07983.1c.40015-.2.79-.4,1.26-.63-.22.19-.42993.36-.64013.53a.718.718,0,0,0,.08007.1c.07007-.04.14014-.07.21-.11-.04.05-.08984.11-.12988.16.03.02.05005.04.08008.06.35986-.23.73-.46,1.08984-.69a.0098.0098,0,0,0,.01.01c-.11987.15-.22.28-.30981.4-.22022.15-.43018.31005-.64014.47a3.38952,3.38952,0,0,0-.43994.48c-.09009.11-.13013.28-.24.37-.27.21-.2102.37.03.53.21.13.41992.25.67993.39-.17993.12-.29.19995-.51.34.41992.03.74.06,1.04.09.1001.37.35986.78.26,1.07-.22.68.22.75995.62988.94995.13013.05005.22.19.42017.39.1499,0,.43994.01.83984.02-.25.36-.44995.64-.73,1.04a9.14791,9.14791,0,0,0,1.3999.46,7.46947,7.46947,0,0,0,1.06006.05c.24.01.46.01.58008.01a4.40975,4.40975,0,0,1,.16992.88c-.27978,1.92-.60986,5.26-1.36987,8.92-.86011,4.1-1.72,8.6-2.15015,12.01a28.21973,28.21973,0,0,1-5.09985,13.21,4.69334,4.69334,0,0,0,1.37988.22,18.23029,18.23029,0,0,0,3.09009-.27c.10986-.02.22-.04.33008-.05a3.5424,3.5424,0,0,1,1.7998.16,3.271,3.271,0,0,0,.71,2.9c4.2002-.04,5.65015-1.41,5.65015-1.41l.1499,1.05a6.6358,6.6358,0,0,0,3.57007-.39,8.90471,8.90471,0,0,1,.07007,2.11c-.37012,1.07-.07007,1.42-.17017,2.51a19.01864,19.01864,0,0,1-1.27978,3.69,1.56234,1.56234,0,0,0-.49024.1.78456.78456,0,0,0-.2998.42l-.16016.1a4.221,4.221,0,0,0-.41992.78c.10987.05.3999-.15.45-.17-.01.05-.10986.25-.35986.8-.3.66-.04.94.22.99a13.3892,13.3892,0,0,0,3.52-.28c1.31006-.34,1.33984-.64,1.63989-2.31a4.01745,4.01745,0,0,1,1.2-2.37,6.31164,6.31164,0,0,1-.15991,1.81c-.09009.26.09009.3.09009.3a.38887.38887,0,0,0-.01.19c.03.1.26.2.42993.21a1.469,1.469,0,0,0,.53-.13,3.05387,3.05387,0,0,0-.37012,1.05,2.266,2.266,0,0,1-.75-.01c-.03979.03-.07006.19-.07006.19l-.26978-.01a4.56285,4.56285,0,0,0-.04,1.06,2.34734,2.34734,0,0,0,.8999-.11,2.37018,2.37018,0,0,0,.79,2.26,6.896,6.896,0,0,0,3.88013-1.35c.58984-.51.56982-2.06.79-2.98a20.99655,20.99655,0,0,0,.40991-3.06,1.11088,1.11088,0,0,0,.1499-.7c-.04-.42-.26-.53-.26-.53a.34612.34612,0,0,0-.1499-.11s-.02-.34-.1001-1.38a10.0789,10.0789,0,0,1,.21-2.43,11.46984,11.46984,0,0,0,3.83008-.21,8.07517,8.07517,0,0,0,5.39014.36005,6.86337,6.86337,0,0,0-.18018-2.22c1.83008-1.73,3.96.07,7.59009-.93C53.564,72.562,53.64411,45.892,47.054,40.562ZM27.44416,16.752a.784.784,0,0,1,.42993-.42l.32007.72-.79.16A1.0166,1.0166,0,0,1,27.44416,16.752Zm.10986.76.66016-.16a2.88272,2.88272,0,0,0,.23,1.1A3.15224,3.15224,0,0,1,27.554,17.512Z"/>
</svg>
