<svg id="Capa_1" data-name="Capa 1" xmlns="http://www.w3.org/2000/svg" viewBox="0 0 58.82676 100">
  <defs>
    <style>
      .cls-1 {
        fill: #e9e9e9;
      }

      .cls-2 {
        fill: #dbdbdb;
      }
    </style>
  </defs>
  <path class="cls-1" d="M26.77708,27.86a8.92961,8.92961,0,0,1,.24-2.69c-.45-5.79-1.63989-6.27-2.01-6.27a.2906.2906,0,0,0-.12012.02c-.38989-.68-1.06983-.72-2.02979-1.16-.16015-.07-.71-.26-1.3-.46l-.02-.01a.39367.39367,0,0,1-.06005-.02c-.42994-.17-2.46-1.00995-1.49-1.78a7.17889,7.17889,0,0,0,2.6101-.19.031.031,0,0,1,.02-.01,1.37784,1.37784,0,0,0,.3899-.45,10.39477,10.39477,0,0,0,.25-1.73c.09008-.17.27-.37.25-.59a.8066.8066,0,0,0-.1399-.36c.21-.06.25-.2.26978-.4a2.754,2.754,0,0,0-.09986-.7s.59986.07.81006-.23a.644.644,0,0,0-.04-.67,9.92464,9.92464,0,0,0,.49-1.81.88653.88653,0,0,0-.97-.05h-.22a.60357.60357,0,0,0-.25-.12A1.78858,1.78858,0,0,0,23.707,6.86c2.02-2.03.58007-2.89.58007-2.89.72-1.22-4.42993-2.92-4.79-2.99A5.74791,5.74791,0,0,0,16.06712.05c-2.06.17-2.14013,1.74-2.14013,1.74-5.67993.32-2.53125,8.51891-2.29981,9.16.28879.8-.01676,1.4111-1.26,2.72-.01,0-.02.01-.04.03-1.13012.85-2.78.87-4.05005,1.15A8.35479,8.35479,0,0,0,2.57713,16.2c-.92993.83-1.09008,3.22-1.09008,3.22C1.05711,20.69.81712,20.93.427,22.31c-.39991,1.39-.25.38-.40992,3.55A84.02711,84.02711,0,0,0,.82713,36.21c.23,1.15,2.40992,3.75,2.40992,3.75-.11988.63-2.8899,10.3-2.98,10.58-.1001.29-.08008.34-.08008.34.07007.08.45019.01.88012-.04a3.71419,3.71419,0,0,1,.98.04A9.62376,9.62376,0,0,0,1.957,51.9c-.05.81.34008.92005.34008.92005S2.447,68.21,3.207,71.25c0,0,.04,12.35.3601,14.47a27.45044,27.45044,0,0,1,.53,3.32c-.01.67-.30005,1.32-.30005,2.21a13.41767,13.41767,0,0,1-.56,2.71A10.22276,10.22276,0,0,0,1.657,97.1a10.91567,10.91567,0,0,0-.16992,2.1,9.91,9.91,0,0,0,3.51.34A2.79546,2.79546,0,0,0,7.197,96.92a1.55632,1.55632,0,0,1,.56006-1.13c.52-.35,1.27-.76,1.27-1.57a2.45651,2.45651,0,0,0,1.32007-1.73,11.34573,11.34573,0,0,0-.32007-5.71s.87989-.03.79-2.86c-.08007-2.83-.02-9.05.12012-9.79a12.02035,12.02035,0,0,0,.66992-3.8c.18994-2.77.91992-7.97.91992-7.97s-.08984,8.78,1.03,11.79a35.624,35.624,0,0,0-.13989,5.31,6.33972,6.33972,0,0,1-.07007,3.29c-.35009,1.34-1.88012,4-.8,5.95,0,0-1.43994,1.69-1.3999,2.44a3.27261,3.27261,0,0,0,.71,1.59,2.95832,2.95832,0,0,1,.1399,1.16s.28.50995,1.6101.91l.62989-.06a3.34116,3.34116,0,0,1,.8601,1.16c.2.58.55982,1.7,3.26,2.52,0,0,2.42993-.18,3.18994-.94a8.21157,8.21157,0,0,0-1.37988-2.88c-.87012-.96-1.45019-1.17-2.08008-2.25l1.28-8.59c-1.28.16-2.63012.66-4.09009.15a28.22656,28.22656,0,0,0,5.1001-13.22c.42993-3.41,1.29-7.92,2.1499-12.01v-.01c.97-4.61,1.92994-8.7,2.27-10.11a9.88626,9.88626,0,0,1-1.78.24,5.0444,5.0444,0,0,1-.95-.05,9.33268,9.33268,0,0,1-1.41015-.47c.28027-.39.48-.68.74023-1.04-.41015-.01-.70019-.02-.8501-.02-.2-.2-.29-.34-.41992-.39-.41015-.19-.8501-.27-.63012-.95.10009-.29-.15992-.71-.26-1.07-.29-.03-.60987-.06-1.04-.1.22021-.13.34008-.21.51-.33-.25-.15-.47-.27-.67994-.4-.24-.15-.29-.31-.03-.52.1101-.09.15014-.26.24-.38a2.86947,2.86947,0,0,1,.45019-.47c.32983-.27.67993-.5,1.01978-.75-.03-.04-.05982-.09-.08985-.13-.3601.23-.72.46-1.09009.69-.02-.02-.05-.04-.07006-.06.16015-.22.33007-.43.56005-.73-.51.26-.92993.47-1.34008.68a.71564.71564,0,0,1-.07984-.1c.25-.21.49-.41.76-.63-.37011.04-.74.09-1.10009.14-.02-.06-.03-.11-.05-.16.22-.13.42993-.25.72-.42-.30982-.05-.54981-.08-.79-.12a.1512.1512,0,0,1-.00977-.06995c.1499-.04.29981-.07.43994-.12.14991-.06.43995.06.37989-.28.18994-.02.37011-.03.60009-.06,0-.04-.01-.13-.02-.28.28.05.55.1.8501.15-.03-.16-.06006-.32-.1001-.59.31006.23.54.4.8.58-.02-.23-.04-.44-.05-.65.03-.01.07007-.03.1001-.04.2.26.3999.53.62989.84.03-.37.05-.7.08007-1.03.01-.12.02-.24.04-.36a1.24328,1.24328,0,0,1,.56006-.94c.0398-.03.09985-.09.09985-.14.09009-.58.5-.59.90992-.58a12.624,12.624,0,0,1,.64013-5.19,8.63454,8.63454,0,0,0,1.04,2.63995,3.17756,3.17756,0,0,1,.49.23,2.286,2.286,0,0,1,.32007.22,9.9974,9.9974,0,0,1-.31006-3.93C25.00707,29.96,26.34715,29.02,26.77708,27.86ZM24.427,8.34a.3504.3504,0,0,1,0,.11l-.30982-.01A.42883.42883,0,0,1,24.427,8.34Zm-.41992.23.37988.03a1.194,1.194,0,0,1-.02979.44,6.0163,6.0163,0,0,1-.21.79l-.32007-.5A4.82019,4.82019,0,0,1,24.00707,8.57Z"/>
  <path class="cls-2" d="M45.78056,40.15993a5.27668,5.27668,0,0,0,1.46456-3.51748C47.298,28.76593,45.19037,24.855,45.19037,24.855c.72136-.99458-.30054-1.28239-.30054-1.28239s-.18581-1.06017-.65944-1.17493c-.47541-.11476-.49546-.35521-.49546-.35521a.94334.94334,0,0,0,.81424-.36067,4.98019,4.98019,0,0,1-.8106-.04189c-.04736-.4044.12751-.44811.17487-.81425a.55534.55534,0,0,0-.22588-.53737.92623.92623,0,0,0,.81972-.66305c-.24954.2277-1.59206.63755-1.93268-.32971-.33883-.96908.77235-1.348.61568-1.77968-.15846-.43172-1.41355-.6157-1.72686-1.60847-.31513-.99457.14391-2.277-.31513-3.72877a4.36568,4.36568,0,0,0-1.71774-2.215,2.5209,2.5209,0,0,0-1.61212-.79785.432.432,0,0,0-.4135-.16941,1.14279,1.14279,0,0,0-.56286-.15665.641.641,0,0,0-.57563-.25321c-.14391-.19126-.48088-.14572-.48088-.14572a.607.607,0,0,0-.20586-.08926.43816.43816,0,0,0-.255.082.74477.74477,0,0,0-.33337-.153.40292.40292,0,0,0-.35155.09655s-.12933-.15667-.235-.16212a.92351.92351,0,0,0-.32607.11658.73055.73055,0,0,0-.55012-.17488,1.38477,1.38477,0,0,0-.612.33336,2.16111,2.16111,0,0,0-1.06382,0c-.56833.14754-.68492,1.10388-.68492,1.10388a3.1113,3.1113,0,0,0-.68127.439c-.23864.23135-.47905.63573-.83245,1.06927a2.44927,2.44927,0,0,0-.44813.745l-.61932-.07833c-.0583-.46086-.20039-.46814-.28235-.44264-.08014.02368-.09837.39164-.09837.39164-.122.0091-.13662.08925-.14209.20038-.00363.11293.07834.12022.07834.12022-.04554.36978-.07469,1.32429-.07469,1.32429-.24227.13662-.95816.43717-1.00187.77781a.548.548,0,0,0,.38255.58838,1.92806,1.92806,0,0,1,.4135.24955,1.97784,1.97784,0,0,0-.23135.29145c-.12205.18216.05284.59749.05284.59749-.61572.18761-.39167.68127-.39167.68127l.02553.44446a1.61164,1.61164,0,0,0-.49729,1.31518c.14753.70677,1.03829.84886,1.03829.84886a8.13946,8.13946,0,0,1,3.12035,2.28426l.00547.39165a5.5165,5.5165,0,0,0-2.7342.47,8.49422,8.49422,0,0,0-1.235,2.869v.00365a9.12128,9.12128,0,0,0-.23862,2.68318c-.42624,1.16036-1.77057,2.10212-2.14581,3.56667a9.97379,9.97379,0,0,0,.306,3.931,2.54744,2.54744,0,0,0-.31878-.22769,9.33624,9.33624,0,0,0-1.07474-.459,10.44532,10.44532,0,0,0,.521,1.25143,8.50788,8.50788,0,0,0,.73957.96545c-.15485.0765-.40074.11839-.45721.24408-.23135.51734-.60114.52827-1.06383.4044a2.74167,2.74167,0,0,0-.71222-.0838c-.44445,0-.93629-.05647-1.0292.58291a.24446.24446,0,0,1-.10746.14026,1.263,1.263,0,0,0-.55742.94176c-.02.11476-.03095.23316-.04189.35339-.02913.33334-.051.66669-.07649,1.031-.23135-.30967-.42809-.57561-.62664-.84157-.03462.0164-.071.03279-.10747.04919.01639.20947.03278.41714.05284.64848-.25868-.18763-.49-.35521-.7997-.58109.04554.27142.07289.42443.10019.58473-.29509-.04918-.56651-.09654-.85249-.14573.01457.14755.02184.2368.02731.28234-.22952.02186-.41533.03826-.59931.05647.05648.34428-.23132.22042-.3825.27506-.14391.05284-.29512.08562-.44448.12752l.01092.071c.24046.03643.48092.071.7924.11658-.286.16576-.50458.29145-.72134.419.01637.051.03278.10383.04919.15665.36612-.04554.73043-.09108,1.102-.13662-.266.21859-.5155.42261-.76507.62663.02735.03461.05283.06922.08016.10383.419-.21131.83792-.42261,1.34068-.67581-.2277.29327-.39345.50822-.56106.72317.02553.02.051.04189.07836.06193.36249-.23134.72681-.46086,1.09112-.6922.02913.04372.05829.08925.08926.13479-.3443.24592-.69768.48273-1.0274.745a2.98377,2.98377,0,0,0-.44263.47725c-.09473.11658-.13479.28781-.24773.37707-.2605.20947-.20767.36977.03644.52279.20947.13115.4244.24956.67945.39893-.17671.11476-.29512.19309-.51.33153.42442.03824.7432.06557,1.04011.0929.1002.368.357.77963.26048,1.07655-.21858.67945.2186.75777.63028.94176.12752.05646.21678.19855.41895.39346.15121.00364.44266.01276.84524.0255-.25505.35886-.4554.6412-.7341,1.03284a8.8897,8.8897,0,0,0,1.40443.47,4.91919,4.91919,0,0,0,.95086.05647,10.74159,10.74159,0,0,0,1.77787-.23862c-.33881,1.40991-1.30059,5.49754-2.26786,10.108l-.00183.00363c-.858,4.09493-1.71774,8.60152-2.144,12.00969a28.256,28.256,0,0,1-5.10226,13.2247c1.45727.50457,2.80524.00546,4.0858-.153a3.59725,3.59725,0,0,1,1.79975.153,3.27438,3.27438,0,0,0,.70675,2.90542c4.20058-.04008,5.65237-1.41355,5.65237-1.41355l.15668,1.06017c4.16049.3133,4.002-.51006,4.002-.51006a13.68119,13.68119,0,0,1,.23682,2.22416c-.36614,1.07291-.0656,1.42083-.17124,2.51925a18.7319,18.7319,0,0,1-1.27876,3.69417,1.58364,1.58364,0,0,0-.48272.09107.82456.82456,0,0,0-.30419.42626l-.1585.09836a4.19038,4.19038,0,0,0-.42078.78328c.11659.05283.44266-.16941.46087-.18216-.00547.00912-.08381.18035-.37343.81425-.29692.65395-.03825.93812.21678.98366a13.212,13.212,0,0,0,3.532-.28053c1.3079-.34063,1.3407-.6339,1.64124-2.30976a3.93659,3.93659,0,0,1,1.19679-2.36806,6.2433,6.2433,0,0,1-.16394,1.807c-.08379.26048.0929.306.0929.306a.32267.32267,0,0,0-.00727.184c.0273.10383.255.20221.42622.215a1.75683,1.75683,0,0,0,.54285-.1439,3.00666,3.00666,0,0,0-.37706,1.06744,2.30166,2.30166,0,0,1-.75233-.01456c-.04554.031-.071.19126-.071.19126l-.27506-.01093a4.97731,4.97731,0,0,0-.03644,1.05652,2.29529,2.29529,0,0,0,.90352-.10383,2.37049,2.37049,0,0,0,.79056,2.25694,6.93045,6.93045,0,0,0,3.88543-1.348c.58836-.51.572-2.05838.78511-2.98193a21.19444,21.19444,0,0,0,.41168-3.06936,1.10027,1.10027,0,0,0,.15118-.6922c-.04009-.42625-.25867-.53373-.25867-.53373a.36748.36748,0,0,0-.15118-.11111s-.01822-.33882-.10565-1.37712a6.5955,6.5955,0,0,1,.45175-2.40267,6.13324,6.13324,0,0,0,2.99285-.24045c2.40813,1.2569,6.04584.28782,6.04584.28782a6.66432,6.66432,0,0,0-.184-2.22234c1.83068-1.72685,4.49932.62663,7.953-1.20406C52.7044,71.80081,53.01953,45.79408,45.78056,40.15993ZM28.614,12.96006a.47487.47487,0,0,1-.01819-.33882.19931.19931,0,0,0-.11843-.12023l.07834-.40621.54647.11659A.829.829,0,0,1,28.614,12.96006Z"/>
</svg>
