<svg id="Capa_1" data-name="Capa 1" xmlns="http://www.w3.org/2000/svg" viewBox="0 0 488.15689 100">
  <defs>
    <style>
      .cls-1 {
        fill: #e9e9e9;
      }

      .cls-2 {
        fill: #dbdbdb;
      }

      .cls-3 {
        fill: none;
      }
    </style>
  </defs>
  <path class="cls-1" d="M331.192,97.33433a5.06379,5.06379,0,0,1-.66.24,4.80121,4.80121,0,0,1-4.14-.58,2.85573,2.85573,0,0,1-1.16-1.56994,3.26165,3.26165,0,0,0-.86-1.15l-.63.06a3.35856,3.35856,0,0,1-1.55-.83.183.183,0,0,1-.06-.17,2.75,2.75,0,0,0-.14-1.07,3.36329,3.36329,0,0,1-.72-1.6c-.03-.62.98-1.91,1.31-2.32a.26023.26023,0,0,0,.02-.27.03671.03671,0,0,1-.01-.03l5.6,1.57.03,2.19a.2297.2297,0,0,0,.04.14,12.21492,12.21492,0,0,0,2.04,2.18,7.01607,7.01607,0,0,1,1.22,2.36005A.71458.71458,0,0,1,331.192,97.33433Z"/>
  <path class="cls-1" d="M332.75505,5.54192s.2-.45-.37988-.74a2.23826,2.23826,0,0,0-1.06006-1.41A13.41868,13.41868,0,0,1,328.735,1.692c-.29-.43006-3.3-2.73005-5-.42,0,0-3.14014-.16-3.54,3.56,0,0-.6001.4-.3501,2.68a23.44976,23.44976,0,0,0,.61011,4.55005.6548.6548,0,0,0,.67017.18l-.07163.46733a6.09752,6.09752,0,0,1,2.08139.44265,27.93116,27.93116,0,0,1,3.67017,2.39c.32983.24.65991.47.99.71h.01a2.50206,2.50206,0,0,0,1.37988-.03c.59009-.3.5-1.44.6001-1.59.10986-.15.53979-.55005.45-.96,0,0,.33984-.29.37988-.5a1.9192,1.9192,0,0,0-.05981-.57s.55981.26.82007.11c.25976-.15.30981-.51.15991-.93a5.6811,5.6811,0,0,1-.2-.94s.45-.84.47-.94c.01977-.11-.24-.2-.28-.13l-.18018-.07a2.68311,2.68311,0,0,0,.41016-.73c.1001-.34.08008-.37.08008-.37a1.872,1.872,0,0,0,.8999-1.15.34216.34216,0,0,0,.37012-.11A1.73231,1.73231,0,0,0,332.75505,5.54192Zm-1.3501,4.56a1.76691,1.76691,0,0,1-.22.38s-.13989-.42.04-.63C331.33513,9.8919,331.465,9.92193,331.405,10.10192Z"/>
  <g>
    <path class="cls-1" d="M331.84,9.36c.04-.19-.09-.2-.21-.23-.16.22.02.62.02.62A1.33352,1.33352,0,0,0,331.84,9.36Z"/>
    <path class="cls-1" d="M331.26,34.14c.2-2.48.55-8.36,0-10.47a13.99506,13.99506,0,0,0-2.54-4.84l-.04-.04a3.41082,3.41082,0,0,0-.27-.27v.02A3.61857,3.61857,0,0,1,327.33,16.49a.63016.63016,0,0,1,.56-.67,8.3744,8.3744,0,0,0-6.84-3.11,5.0954,5.0954,0,0,1-2.16,2.42c-.94.56-2.62.45-3.83,2.33-.68,1.05005-1.75,5.63-1.91,8.80005-.15,3.13995.33,10.22.34,10.34.01,0,.01,0,.01.01.2,1.06-.89,10.61-1.69,13.39-.21.75.76,1.48,1.53,1.46.1,0,.19-.01.27-.01.14-.01-.13.11-.13.25l.04,1.68s-.7,15.16.05,18.26c.01.00995.01.02.01.04,0,.56-1.2,12.38-.89,14.45.32,2.12.32,1.04.31,1.89-.01.67-.21,1.33-.3,2.21-.14,1.32.03,3.95-.14,5.04-.08.43005.72,1.05,1.02.9a3.23317,3.23317,0,0,1,1.24,1.77,3.43877,3.43877,0,0,0,2.66,2.05,8.91062,8.91062,0,0,0,1.38-.05c1.01-.14.59-2.4.26-2.96-.97-1.61-.84-1.47-.79-2.2a.24659.24659,0,0,1,.12-.21,7.573,7.573,0,0,0,1.18-3.16,14.08725,14.08725,0,0,0,.14-4.01.24666.24666,0,0,1,.09-.28c.25-.17.27-.75.21-2.79-.09-2.79-.02-8.91.12-9.76a.09024.09024,0,0,1,.01-.05,12.94111,12.94111,0,0,0,.65-3.78c.12384-1.71478.25518-4.35864.3374-6.12579-.09241,2.72076-.13855,7.73.65069,9.90576a.14153.14153,0,0,1,.01.09c-.02.28-.13995,1.69-.18,3.04v.06l-.04285,4.5426a69.052,69.052,0,0,0,.68038,10.35855l.73-.45,4.6589,1.36994c.11-.4.22-.81.32-1.22.6-2.48.17885-13.07114.42885-15.77115.34-3.79.42-7.52.5-10.43.15-5.33,1.03668-15.85,1.03668-15.85a3.74135,3.74135,0,0,0,.8-2.87C330.67,45.39,331.06,36.61,331.26,34.14Z"/>
  </g>
  <path class="cls-1" d="M393.98481,6.62692s.241-.42944-.30933-.77215a2.23829,2.23829,0,0,0-.92416-1.50261,13.41839,13.41839,0,0,1-2.41058-1.93281c-.24874-.45519-3.03151-3.02546-4.93917-.88379,0,0-3.11159-.45167-3.85614,3.2149,0,0-.63474.34241-.59812,2.63575a23.44839,23.44839,0,0,0,.18378,4.58709.6548.6548,0,0,0,.65049.24162l-.41758.38276a7.97168,7.97168,0,0,1,2.33389.71039,27.93256,27.93256,0,0,1,3.43167,2.72138c.30606.26966.61329.52938.91958.79912l.01.00093a2.50208,2.50208,0,0,0,1.37669.09859c.61546-.24374.63191-1.38719.74554-1.52718.12335-.13914.58866-.4974.53739-.91395,0,0,.36536-.25708.42478-.46246a1.91914,1.91914,0,0,0-.00647-.5731s.53317.311.80626.18587c.2726-.12513.356-.47895.24581-.91106a5.68136,5.68136,0,0,1-.11155-.95454s.52621-.79442.55546-.89216c.02993-.10767-.22033-.22149-.26671-.15551l-.17288-.08648a2.68289,2.68289,0,0,0,.47635-.68862c.13132-.32917.11418-.36093.11418-.36093A1.872,1.872,0,0,0,393.787,8.52673a.34213.34213,0,0,0,.37875-.075A1.7323,1.7323,0,0,0,393.98481,6.62692ZM392.216,11.04139a1.76651,1.76651,0,0,1-.2544.35788s-.10017-.43119.09853-.62354C392.166,10.82578,392.29253,10.86778,392.216,11.04139Z"/>
  <path class="cls-2" d="M409.48,43.72a1.60373,1.60373,0,0,0,1.61005.35c-2.54-1.30005-1.27-4.41-1.27-4.41a2.482,2.482,0,0,1,.4,1.45c.37006-2.16-.76-2.33-.9-3.25-.14-.93.65-.83.71-1.61.04-.77-.64-1.44-1.11005-2.77a2.13276,2.13276,0,0,1,.17005-2.06c-.16,1.15.43,1.39.43,1.39a2.0594,2.0594,0,0,1-.02-1.89,1.62337,1.62337,0,0,0-.41-1.74,2.21638,2.21638,0,0,1-.5-1.05l.32995-.79a1.94411,1.94411,0,0,0-.06-1.9,2.861,2.861,0,0,1-.36-.61,1.46756,1.46756,0,0,0-.2-1.15c1.31-1.29.19-2.12.19-2.12a2.14644,2.14644,0,0,0-.34-1.33c2.23-1.98-.68-4.42-.58-6.19a7.79213,7.79213,0,0,0-1.73-4.31,3.05558,3.05558,0,0,0-2.1-1.09.86468.86468,0,0,0-.61-.23,1.19719,1.19719,0,0,0-.97-.19.5841.5841,0,0,0-.53-.06.42559.42559,0,0,0-.44.01c-.16-.2-.48-.09-.48-.09-.28-.2-.64.08-.64.08-1.1-.2-1.93,1.35-1.93,1.35a1.47575,1.47575,0,0,0-.49.50995,5.9012,5.9012,0,0,1-.54.65,1.35465,1.35465,0,0,0-.27.7.22747.22747,0,0,0-.18006.14,1.009,1.009,0,0,0-.19-.04.67874.67874,0,0,0-.08-.34.701.701,0,0,0-.49-.39c-.22-.02-.29.43-.29.43s-.08,0-.12.13a.1236.1236,0,0,0,.02.16,6.88532,6.88532,0,0,0-.15,1.36.592.592,0,0,0-.31.56c.02.24.38.45.38.45a.82833.82833,0,0,1-.05.46.51673.51673,0,0,0,.03.39c-.38995.04-.3.7-.35.85-.05.14-.59.54-.56,1.02.03.47.21.84.56.91a2.57182,2.57182,0,0,1,1.68,1.23c-1.03-.2-5.09-.58-5.09-.58a32.91143,32.91143,0,0,1-2.84-1.86h-.01c-.33-.24-.67-.47-.99-.71a27.22708,27.22708,0,0,0-3.68-2.39,7.87478,7.87478,0,0,0-2.38-.49c-.64-.14-1.09-.21-1.09-.21s-.81994-.1-1.42-.15a2.02278,2.02278,0,0,0-1.22.41c-.34.01-.62.33-.77.47a1.16933,1.16933,0,0,0-.39.6c-.04.27-.08.33-.22.91a2.53755,2.53755,0,0,0,0,1.06.92211.92211,0,0,0,.07.45,1.99221,1.99221,0,0,1,.17.48,2.48269,2.48269,0,0,0,.44.67v.15c-.19.11-.38.65-.28.69.07.04.19-.08.19-.08a.39537.39537,0,0,0,.21.02.56242.56242,0,0,0,.31-.17.91712.91712,0,0,0,0,.72c.22-.01.32-.46.32-.46a5.83382,5.83382,0,0,0,.75-1.27,1.6235,1.6235,0,0,1,1.52-.91,4.509,4.509,0,0,0,1.81-.56c.15.58,3.58,1.39,5.48,5.13a12.4301,12.4301,0,0,0,3,3.3c.51.42,1,.77,1.35,1.02.34.25.57.39.57.39a28.75471,28.75471,0,0,1-1.21,2.65,21.50025,21.50025,0,0,1-.15,5,10.22738,10.22738,0,0,0,1.13,2.14.05994.05994,0,0,1-.04-.01,4.40122,4.40122,0,0,1,.5,2.34,21.53071,21.53071,0,0,1-.54,3.46c-.6,2.21-.93,4.28-.93,4.28-.26,1.31-1.01,5.09-1.77,9.37-.33,1.89-.68,5.86-.97,9.75-.28,3.88-.54,7.68-.71,9.26a28.7195,28.7195,0,0,1-3.98,12.25c1.14.47,2.19.01,3.19-.14a2.43726,2.43726,0,0,1,1.41.14,3.411,3.411,0,0,0,.55,2.7c3.28-.04,4.4-1.31,4.4-1.31l.14.98h.02l.92.03a22.55565,22.55565,0,0,0,3.87-.56995,35.83466,35.83466,0,0,1-.4,5.36A20.64452,20.64452,0,0,1,396.59,96.12a.80695.80695,0,0,1-.38.22s-.15-.38-.24-.42c-.11-.03-1.06.36-1.06.5s.31.26.31.26c-2.09.48-2.12994.96-2.09,1.16A7.025,7.025,0,0,0,397.36,99c1.92-.18,2.71-2.43,3.77-2.94,1.09-.52,1.41.05,1.38.62a12.33457,12.33457,0,0,1-.38,1.81l.83-.01.15-.15a8.24136,8.24136,0,0,1-.06-1.52c.02-.89.93-1.59,1-1.89.08-.3.08-.76-.08-.87s-.43.03-.43.03c-.93-2.26-.22-5.85-.22-5.85.6.1.89.18,1.43.23.05,0,.11.01.15.01l1.04.03a4.04351,4.04351,0,0,0,1.15-.29,3.46959,3.46959,0,0,0,.37994.2c.94.77.8,4.66.83,4.95.02.4,0,1.03-.08,2.38l-.06.39s-1.05-.01-1.23.2V97.4a2.522,2.522,0,0,0,.7-.21s0,.22.05.24c.07.03.23-.06.23-.06s-.05,1.84.18006,2.02c.25.17,1.79-.62005,2.65-1.28.85-.65,1.92-1.41,1.82-2.7s-.12-2.01-.12-2.01l.38-.00995.25-.57c-.19-2.68-2.03-4.34-1.41-6.4,1.43006-.94,3.51.58,6.22-1.11C414.22,77.1,412.32,49.88,409.48,43.72ZM396,12.49l-.43.21a4.90855,4.90855,0,0,1,.25-1.59c.11-.2.22-.23.33.03A1.83289,1.83289,0,0,1,396,12.49Z"/>
  <path class="cls-1" d="M391.63,43.48v.01c-.21,1.01-.32,1.69-.32,1.69-.26,1.31-1.01,5.09-1.77,9.37-.33,1.89-.68,5.86-.97,9.75-.28,3.88-.54,7.68-.71,9.26a28.7195,28.7195,0,0,1-3.98,12.25c1.14.47,2.19.01,3.19-.14l-.58,4.59a22.19114,22.19114,0,0,0,2.49-.08,1.5249,1.5249,0,0,1,1.43.21,1.09865,1.09865,0,0,1,.4,1.3c-.2.59-2.75,1.83-5.72,2a1.53075,1.53075,0,0,1,.22.72,22.41462,22.41462,0,0,0,3.1,2.06c1.22.56,1.65.74,1.76,1.13,0,0,.19,0,.3.29a.52147.52147,0,0,1-.24.68c-.27.2-1.6,1.48-5.13995,1.1-3.52-.39-3.88-1.69-5.23-2.24l-.29.66a7.23313,7.23313,0,0,1-2.46-.83c-.63-.53-.23-1.86005-.23-1.86005a6.15968,6.15968,0,0,1,.19-1.92c.25-.57.5-1.21.5-1.21a2.0873,2.0873,0,0,1-.06-.73s-.53,0-.44-1.61c.08-1.6.45-6.68.58-9.11a46.60248,46.60248,0,0,1,.51-5.17005,5.94252,5.94252,0,0,1,.59-1.05,9.30056,9.30056,0,0,1-.26-2.11c.1-1.05.25-12.41.25-12.41s-.84-3.8-1.25-5.94a18.4136,18.4136,0,0,1-.42-2.81,4.87319,4.87319,0,0,1-1.14-.4,2.96134,2.96134,0,0,1-.74-2.82c.15-.84.86-8.86,1.11-11.93.24-3.08.06-9.71.11-12.42a22.5374,22.5374,0,0,1,1.03-5.63.56242.56242,0,0,0,.31-.17.91712.91712,0,0,0,0,.72c.22-.01.32-.46.32-.46a5.83382,5.83382,0,0,0,.75-1.27,1.6235,1.6235,0,0,1,1.52-.91,4.509,4.509,0,0,0,1.81-.56c.15.58,3.58,1.39,5.48,5.13a12.4301,12.4301,0,0,0,3,3.3,9.97376,9.97376,0,0,1,.29,1.16,22.03246,22.03246,0,0,1,.42005,2.9,21.50025,21.50025,0,0,1-.15,5c-.03.23-.06.47-.11.71-.02.12-.04.28-.07.46C390.78,36,390.52,40.72,391.63,43.48Z"/>
  <g>
    <path class="cls-2" d="M47.80834,40.60238a38.90415,38.90415,0,0,0,2.70108-2.962,7.88326,7.88326,0,0,0,.49719-2.29189,26.88778,26.88778,0,0,0-.91543-7.9984,11.30159,11.30159,0,0,0-2.61371-4.19988A5.435,5.435,0,0,0,45.49958,21.438a1.28837,1.28837,0,0,0-.93411-.25432,3.5381,3.5381,0,0,0-1.44878-.04158,1.53046,1.53046,0,0,0-1.84171-.55987,1.34555,1.34555,0,0,1-.33687-.06507,2.563,2.563,0,0,0-1.1107-1.68864s.84554-.16514.72318-.39172c-.12173-.22661-1.51566-.35738-2.41361-.99317a2.50742,2.50742,0,0,1-.80575-2.02071c.24168-.54239-.30374-1.13056-.30374-1.13056.14042-1.05526-1.68922-1.83268-2.12735-2.03516a8.51246,8.51246,0,0,1-1.75793-1.17638,3.61372,3.61372,0,0,0-1.33308-.66653,2.73355,2.73355,0,0,0-1.52893-.399,3.84286,3.84286,0,0,0-1.69225.50322,5.92489,5.92489,0,0,0-2.35276,2.00623,1.29806,1.29806,0,0,0-.1609,1.35477c-.84913,1.69044.57252,4.29148.57252,4.29148a2.11218,2.11218,0,0,0-.37242.49,1.07406,1.07406,0,0,0,.03251.59482c-.15.09281-.0904.17659-.0904.17659a.40854.40854,0,0,0-.088.0904c-.02169.03917.06088.17537.10908.19224.04761.01748.11633-.05545.11633-.05545a.12122.12122,0,0,0,.08074.04459.26705.26705,0,0,0,.1368-.0464,4.59059,4.59059,0,0,0,.52312.41463,2.198,2.198,0,0,0,.71777.35978,1.79586,1.79586,0,0,0,.50984.71415c-.693.40076.16993,1.18964.16993,1.18964-.08739.70087.69244,1.19143.69244,1.19143-.19825.16333,0,.17658,0,.17658a2.55444,2.55444,0,0,0-1.09984,2.13218c.52493,1.8405-.90878,6.942-.90878,6.942a5.44076,5.44076,0,0,0,.27058,3.43512l-.03255-.03014a4.98413,4.98413,0,0,0-.74908-.60746,9.26572,9.26572,0,0,0-1.07212-.45863,10.35607,10.35607,0,0,0,.5195,1.24992,8.523,8.523,0,0,0,.73824.96424c-.15307.07713-.40016.11871-.45681.24467-.23082.51708-.59965.52792-1.06129.40318a2.77412,2.77412,0,0,0-.71294-.08377c-.44355.0006-.9347-.05544-1.0269.58336a.23989.23989,0,0,1-.10849.13922,1.26911,1.26911,0,0,0-.55684.94133c-.0193.11512-.03134.23384-.04158.35316-.02833.33267-.05.66654-.07653,1.02994-.23024-.30977-.42789-.57554-.62558-.8413l-.10788.05061.05244.64665c-.25854-.18742-.48874-.355-.7991-.58035.0464.27059.07292.42486.10064.58457-.29409-.05-.5659-.09641-.85216-.14523.01448.14764.02351.23623.02834.28083l-.59966.05664c.05665.34351-.23082.22057-.38086.27542-.144.053-.29591.08557-.44416.12656.003.0241.006.0482.00965.07171.24106.03555.48212.07051.79307.11571-.28685.16633-.5044.29229-.722.41884.01628.05183.03317.10427.04944.15669.3658-.04519.731-.09039,1.101-.13559-.26519.21756-.51408.42185-.76356.62615.02651.03435.05241.06871.07892.103.41886-.21093.83709-.42186,1.3397-.67557-.22659.29289-.39352.508-.55984.72259.0259.02109.0512.04217.07713.06266l1.09018-.69244.0892.13439c-.34291.24709-.69547.48272-1.02631.74549a2.99054,2.99054,0,0,0-.44175.47609c-.094.11691-.135.28807-.24647.37726-.26157.20912-.20793.36822.03616.5213.2079.13077.423.2507.67737.39955-.17659.11512-.2935.19164-.50805.33086.42248.03735.74249.06569,1.039.0922.09884.36763.35556.77863.26033,1.07574-.21875.67919.217.75813.62979.94194.12656.056.21634.19767.41824.39233.15125.00422.44174.01265.8443.0247-.25492.35918-.455.64184-.73343,1.03356a8.95672,8.95672,0,0,0,1.403.46887,5.00318,5.00318,0,0,0,.95039.05664,10.83557,10.83557,0,0,0,1.77479-.23925c-.33687,1.409-1.29932,5.49257-2.26536,10.098l-.00059.00422c-.8576,4.092-1.71756,8.59443-2.14365,11.99821a28.21593,28.21593,0,0,1-5.09724,13.21315c1.456.50322,2.80416.00542,4.08176-.15368a3.5875,3.5875,0,0,1,1.79955.15368,3.2701,3.2701,0,0,0,.7057,2.90177c4.19564-.03917,5.64624-1.41141,5.64624-1.41141l.1567,1.05826c4.15648.314,3.99919-.50925,3.99919-.50925a13.69372,13.69372,0,0,1,.23565,2.22138c-.36583,1.07212-.06571,1.42045-.17,2.51849a18.76685,18.76685,0,0,1-1.2776,3.68943,1.6027,1.6027,0,0,0-.48333.09161.819.819,0,0,0-.30436.42485l-.15669.09826a4.21792,4.21792,0,0,0-.42124.784c.11691.05124.44175-.16993.45981-.18259-.0042.00963-.08316.18018-.37183.813-.29712.65388-.03916.93773.21576.98351a13.20929,13.20929,0,0,0,3.52851-.28081c1.30715-.33991,1.3397-.634,1.64044-2.307a3.931,3.931,0,0,1,1.19565-2.3654,6.242,6.242,0,0,1-.16332,1.80374c-.085.26155.09161.30675.09161.30675a.31807.31807,0,0,0-.00663.1832c.02652.10487.25493.20251.42486.21575a1.78527,1.78527,0,0,0,.54239-.144,2.99,2.99,0,0,0-.37545,1.0655,2.27219,2.27219,0,0,1-.75152-.01324c-.04579.02951-.0723.18983-.0723.18983L37.23,96.44111a4.96089,4.96089,0,0,0-.03613,1.05526,2.29427,2.29427,0,0,0,.90215-.10426,2.3655,2.3655,0,0,0,.79069,2.25453,6.91522,6.91522,0,0,0,3.88169-1.34635c.58818-.50984.5707-2.05622.784-2.9795A21.21429,21.21429,0,0,0,43.964,92.2557a1.0972,1.0972,0,0,0,.15008-.69244c-.0392-.42488-.258-.53275-.258-.53275a.35792.35792,0,0,0-.15126-.11029s-.01747-.33929-.10487-1.37645a6.57417,6.57417,0,0,1,.45019-2.40037,6.13983,6.13983,0,0,0,2.99155-.23985c2.40519,1.25472,6.03858.28746,6.03858.28746a6.65991,6.65991,0,0,0-.1832-2.22137c1.82964-1.7254,4.49579.62736,7.946-1.2023C54.72678,72.2133,55.04017,46.23116,47.80834,40.60238ZM26.50941,19.26006a1.13579,1.13579,0,0,1-.06088-.4532.75967.75967,0,0,1,.31822-.50984l.47667.63089Zm.22238.26155.60557-.31383a2.75692,2.75692,0,0,0,.47379,1.02736A3.08011,3.08011,0,0,1,26.73179,19.52161Z"/>
    <path class="cls-1" d="M27.176,32.77814s1.43371-5.10145.90878-6.942c0,0-.5689-2.20209-.75149-2.90116-.18321-.69969-.32726-1.58136-.59483-2.35939a1.62992,1.62992,0,0,0-.98655-.99317c-.44475-.67978-1.412-.79731-2.02609-1.098s-2.4504-1.324-2.4504-1.324c.10667-.18079.07775-.26878.11088-.878a2.70569,2.70569,0,0,1,.33991-1.28727.67358.67358,0,0,0,.06209-.45079c.13377-.09824.379-.39534.34952-.58157a1.07382,1.07382,0,0,1,.00362-.34652.69183.69183,0,0,0,.54239-.16694.70989.70989,0,0,0,.15-.6599,1.204,1.204,0,0,0,.81358-.39172,7.66671,7.66671,0,0,0,.7256-1.36078c.05185-.13018.14766-.17838.2242-.35256.07592-.17417.03675-.20069-.08919-.25914a.31173.31173,0,0,0-.22058-.02591l-1.145-.54239c.30133-.30132.12053-.904.12053-.904a2.20463,2.20463,0,0,0,1.08477-2.7722c.48213-.904-.48212-1.56689-.48212-1.56689a2.0638,2.0638,0,0,0-1.3861-1.808C19.70727,1.48,18.92382.21444,17.47746.03364c-2.1822-.273-2.59141,1.2053-2.59141,1.2053a1.96039,1.96039,0,0,0-2.80112.93894,7.31066,7.31066,0,0,0-1.01065,3.0675c-.10426.31337-.5225.73162-.12174,2.94455.40076,2.21355.12174,3.79912,1.14987,4.63561a6.48526,6.48526,0,0,0-1.89053,1.908,16.83292,16.83292,0,0,1-2.37024.92387c-.84492.20008-3.65508.34411-4.70068,1.29811,0,0-1.01907.20912-1.39814,2.52211A27.476,27.476,0,0,0,.16145,25.83619C.109,28.07745.514,36.11563,1.11545,37.553A21.47918,21.47918,0,0,0,3.825,41.43886s-1.873,8.63481-2.73544,10.56931a2.45024,2.45024,0,0,0,1.71635.09583l-.18321,1.44636a.68787.68787,0,0,0,.44478.25251S3.52,68.63234,4.27817,71.66489c0,0,.03916,12.33749.35314,14.45461a28.65108,28.65108,0,0,1,.53577,3.32c-.01024.66833-.30071,1.3198-.30071,2.20872a16.43859,16.43859,0,0,0,.44413,2.70531,10.22849,10.22849,0,0,0-1.58134,3.13679,11.05182,11.05182,0,0,0-.17,2.10387,10.07026,10.07026,0,0,0,3.50262.33991,2.79083,2.79083,0,0,0,2.19607-2.627,1.58865,1.58865,0,0,1,.56169-1.12394c.52308-.35314,1.268-.75814,1.268-1.5681a2.45323,2.45323,0,0,0,1.3198-1.72538c.36642-1.37224-.47008-4.10407-1.09743-5.71134,0,0,.87985-.03074.79249-2.85356-.08678-2.82282-.01748-9.044.12232-9.77623a12.40131,12.40131,0,0,0,.66233-3.79852c.19163-2.771.92325-7.964.92325-7.964s-.09581,8.774,1.02813,11.78a34.62957,34.62957,0,0,0-.13921,5.29732,6.407,6.407,0,0,1-.06989,3.2941c-.34835,1.3415-1.88211,3.99015-.80155,5.94214a9.36533,9.36533,0,0,0-.62313,2.43712,3.358,3.358,0,0,0,.719,1.59463,3.002,3.002,0,0,1,.13078,1.15649s.28746.50984,1.61209.91061l.62734-.06088a3.33643,3.33643,0,0,1,.8624,1.14986c.2001.584.55745,1.70791,3.25856,2.51849,0,0,2.422-.179,3.18017-.93653a8.25094,8.25094,0,0,0-1.37221-2.87584c-.87567-.954-1.45061-1.17156-2.078-2.24308l1.2716-8.5884c-1.2776.1591-2.62574.6569-4.08176.15368a28.21593,28.21593,0,0,0,5.09724-13.21315c.42609-3.40378,1.286-7.90619,2.14365-11.99821l.00059-.00422a17.35533,17.35533,0,0,0-.00059-3.94675,2.56615,2.56615,0,0,0,.82321-1.01065,4.20928,4.20928,0,0,1-.19166-1.56811,11.48587,11.48587,0,0,0-.14039-3.33327,5.00318,5.00318,0,0,1-.95039-.05664,8.95672,8.95672,0,0,1-1.403-.46887c.27844-.39172.47851-.67438.73343-1.03356-.40256-.01205-.693-.02048-.8443-.0247-.2019-.19466-.29168-.33629-.41824-.39233-.41282-.18381-.84854-.26275-.62979-.94194.09523-.29711-.16149-.70811-.26033-1.07574-.2965-.02651-.61651-.05485-1.039-.0922.21455-.13922.33146-.21574.50805-.33086-.25433-.14885-.46947-.26878-.67737-.39955-.24409-.15308-.29773-.31218-.03616-.5213.11149-.08919.15246-.26035.24647-.37726a2.99054,2.99054,0,0,1,.44175-.47609c.33084-.26277.6834-.4984,1.02631-.74549l-.0892-.13439-1.09018.69244c-.02593-.02049-.05123-.04157-.07713-.06266.16632-.21455.33325-.4297.55984-.72259-.50261.25371-.92084.46464-1.3397.67557-.02651-.03434-.05241-.0687-.07892-.103.24948-.2043.49837-.40859.76356-.62615-.37.0452-.73525.0904-1.101.13559-.01627-.05242-.03316-.10486-.04944-.15669.21758-.12655.43513-.25251.722-.41884-.31095-.0452-.552-.08016-.79307-.11571-.00362-.02351-.00665-.04761-.00965-.07171.14825-.041.30012-.07353.44416-.12656.15-.05485.43751.06809.38086-.27542l.59966-.05664c-.00483-.0446-.01386-.13319-.02834-.28083.28626.04882.55807.09521.85216.14523-.02772-.15971-.05424-.314-.10064-.58457.31036.22539.54056.39293.7991.58035l-.05244-.64665.10788-.05061c.19769.26576.39534.53153.62558.8413.02651-.3634.0482-.69727.07653-1.02994.01024-.11932.02228-.238.04158-.35316.05362-.93411-.39293-1.32642,0-3.31276a19.6727,19.6727,0,0,1,1.13839-3.67258A5.25016,5.25016,0,0,0,26.11228,36.367a10.35607,10.35607,0,0,1-.5195-1.24992,9.26572,9.26572,0,0,1,1.07212.45863,4.98413,4.98413,0,0,1,.74908.60746l.03255.03014A5.44076,5.44076,0,0,1,27.176,32.77814Zm-4.365-22.6549a.85154.85154,0,0,0,.232-.12715l.83647.41462a3.20854,3.20854,0,0,0-1.02933.229,2.41652,2.41652,0,0,0-.08137-.32183A.3626.3626,0,0,0,22.81093,10.12324Zm.00421.99017a1.324,1.324,0,0,1,.77983-.43994c.54059-.1115.584-.00905.584.135A4.40044,4.40044,0,0,1,23.51243,12.15c-.3616.50984-.7437.45741-.7437.45741A3.41373,3.41373,0,0,0,22.81514,11.11341Z"/>
  </g>
  <g>
    <path class="cls-1" d="M149.86407,28.04a8.92916,8.92916,0,0,1,.24-2.69c-.45-5.79-1.63989-6.27-2.01-6.27a.2906.2906,0,0,0-.12012.02c-.38989-.68-1.06982-.72-2.02978-1.16-.16016-.07-.71-.26-1.3-.46l-.02-.01a.39366.39366,0,0,1-.06006-.02c-.42993-.17-2.46-1.00995-1.49-1.78a7.179,7.179,0,0,0,2.61011-.19.031.031,0,0,1,.02-.01,1.37769,1.37769,0,0,0,.38989-.45,10.39472,10.39472,0,0,0,.25-1.73c.09009-.17.27-.37.25-.59a.80666.80666,0,0,0-.13989-.36c.21-.06.25-.2.26977-.4a2.7536,2.7536,0,0,0-.09985-.7s.59985.07.81006-.23a.644.644,0,0,0-.04-.67,9.92464,9.92464,0,0,0,.49-1.81.88653.88653,0,0,0-.97-.05h-.22a.60362.60362,0,0,0-.25-.12,1.78857,1.78857,0,0,0,.34985-1.32c2.02-2.03.58008-2.89.58008-2.89.72-1.22-4.42993-2.92-4.79-2.99a5.74784,5.74784,0,0,0-3.42993-.93C137.09405.4,137.014,1.97,137.014,1.97c-5.67993.32-2.53124,8.51891-2.2998,9.16.28879.8.60315,1.45-.6401,2.75889-.01,0-.02.01-.04.03-1.13013.85-3.4.83108-4.67,1.11105a8.3547,8.3547,0,0,0-3.7,1.35c-.92993.83-1.09009,3.22-1.09009,3.22-.42993,1.27-.66992,1.51-1.06006,2.89-.3999,1.39-.25.38-.40991,3.55a84.02714,84.02714,0,0,0,.81006,10.35c.23,1.15,2.40991,3.75,2.40991,3.75-.11987.63-2.88989,10.3-2.98,10.58-.1001.29-.08008.34-.08008.34.07007.08.4502.01.88013-.04a3.71423,3.71423,0,0,1,.98.04,9.62056,9.62056,0,0,0-.08008,1.02c-.05.81.34009.92005.34009.92005s.1499,15.39.90991,18.43c0,0,.04,12.35.36011,14.47a27.45044,27.45044,0,0,1,.53,3.32c-.01.67-.3,1.32-.3,2.21a13.41746,13.41746,0,0,1-.56006,2.71,10.223,10.223,0,0,0-1.58008,3.14,10.91567,10.91567,0,0,0-.16992,2.1,9.91,9.91,0,0,0,3.51.34,2.79544,2.79544,0,0,0,2.2-2.62,1.55632,1.55632,0,0,1,.56006-1.13c.52-.35,1.27-.76,1.27-1.57a2.45657,2.45657,0,0,0,1.32007-1.73,11.346,11.346,0,0,0-.32007-5.71s.87988-.03.79-2.86c-.08008-2.83-.02-9.05.12012-9.79a12.02045,12.02045,0,0,0,.66992-3.8c.18994-2.77.91992-7.97.91992-7.97s-.08984,8.78,1.03,11.79a35.62262,35.62262,0,0,0-.13989,5.31,6.33983,6.33983,0,0,1-.07007,3.29c-.3501,1.34-1.88013,4-.80005,5.95,0,0-1.43994,1.69-1.3999,2.44a3.27243,3.27243,0,0,0,.71,1.59,2.95825,2.95825,0,0,1,.13989,1.16s.28.51,1.61011.91l.62988-.06a3.34113,3.34113,0,0,1,.86011,1.16c.19995.58.55981,1.7,3.26,2.52,0,0,2.42993-.18,3.18994-.94a8.21157,8.21157,0,0,0-1.37988-2.88c-.87012-.96-1.4502-1.17-2.08008-2.25l1.28-8.59c-1.28.16-2.63013.66-4.09009.15a28.22656,28.22656,0,0,0,5.1001-13.22c.42993-3.41,1.29-7.92,2.1499-12.01v-.01c.97-4.61,1.92993-8.7,2.27-10.11a9.88638,9.88638,0,0,1-1.78.24,5.04431,5.04431,0,0,1-.95-.05,9.33316,9.33316,0,0,1-1.41016-.47c.28028-.39.48-.68.74024-1.04-.41016-.01-.7002-.02-.8501-.02-.19995-.2-.29-.34-.41992-.39-.41016-.19-.8501-.27-.63013-.95.1001-.29-.15991-.71-.26-1.07-.29-.03-.60986-.06-1.04-.1.22022-.13.34009-.21.51-.33-.25-.15-.47-.27-.67993-.4-.24-.15-.29-.31-.03-.52.11011-.09.15015-.25995.24-.38a2.87041,2.87041,0,0,1,.4502-.47c.32983-.27.67993-.5,1.01977-.75-.03-.04-.05981-.09-.08984-.13-.36011.23-.72.46-1.09009.69-.02-.02-.05-.04-.07007-.06.16016-.22.33008-.43.56006-.73-.51.26-.92993.47-1.34009.68a.71627.71627,0,0,1-.07983-.1c.25-.21.49-.41.76-.63-.37012.04-.74.09-1.1001.14-.02-.06-.03-.11-.05-.16.22-.13.42993-.25.72-.42-.30981-.05-.5498-.08-.79-.12a.15134.15134,0,0,1-.00976-.06995c.1499-.04.2998-.07.43994-.12.1499-.06.43994.06.37988-.28.18994-.02.37012-.03.6001-.06,0-.04-.01-.13-.02-.28.28.05.55.1.8501.15-.03-.16-.06006-.32-.1001-.59.31006.23.54.4.8.58-.02-.23-.04-.44-.05-.65.03-.01.07007-.03.1001-.04.2.26.3999.53.62988.84.03-.37.05-.7.08008-1.03.01-.12.02-.24.04-.36a1.24328,1.24328,0,0,1,.56006-.94c.03979-.03.09985-.09.09985-.14.09009-.58.5-.59.90991-.58a12.62411,12.62411,0,0,1,.64014-5.19,8.63454,8.63454,0,0,0,1.04,2.63995,3.178,3.178,0,0,1,.49.23,2.28662,2.28662,0,0,1,.32007.22,9.9972,9.9972,0,0,1-.31006-3.93C148.09405,30.14,149.43414,29.2,149.86407,28.04ZM147.514,8.52a.35007.35007,0,0,1,0,.11l-.30981-.01A.4288.4288,0,0,1,147.514,8.52Zm-.41992.23.37988.03a1.19379,1.19379,0,0,1-.02978.44,6.01679,6.01679,0,0,1-.21.79l-.32007-.5A4.81991,4.81991,0,0,1,147.09405,8.75Z"/>
    <path class="cls-2" d="M168.86755,40.33992a5.27674,5.27674,0,0,0,1.46456-3.51748c.05283-7.87652-2.05475-11.78746-2.05475-11.78746.72136-.99458-.30055-1.28239-.30055-1.28239s-.1858-1.06017-.65943-1.17493c-.47541-.11476-.49547-.35521-.49547-.35521a.94335.94335,0,0,0,.81425-.36067,4.98019,4.98019,0,0,1-.8106-.04189c-.04736-.4044.1275-.44811.17487-.81425a.55534.55534,0,0,0-.22588-.53737.92622.92622,0,0,0,.81971-.66305,1.0278,1.0278,0,0,1-1.5913-.51412c-.33883-.96908.431-1.16356.2743-1.59528-.15845-.43171-1.41355-.61569-1.72685-1.60846-.31513-.99457.14391-2.277-.31513-3.72877a4.36568,4.36568,0,0,0-1.71774-2.215,2.5209,2.5209,0,0,0-1.61212-.79785.432.432,0,0,0-.4135-.16941,1.14284,1.14284,0,0,0-.56287-.15665.64094.64094,0,0,0-.57562-.25321c-.14392-.19126-.48088-.14572-.48088-.14572a.607.607,0,0,0-.20586-.08926.4382.4382,0,0,0-.255.082.74469.74469,0,0,0-.33336-.153.40292.40292,0,0,0-.35155.09655s-.12933-.15667-.235-.16212a.92351.92351,0,0,0-.32607.11658.73052.73052,0,0,0-.55012-.17488,1.38478,1.38478,0,0,0-.612.33336,2.16111,2.16111,0,0,0-1.06382,0c-.56834.14754-.68492,1.10387-.68492,1.10387a3.11151,3.11151,0,0,0-.68127.439c-.23864.23135-.47906.63573-.83245,1.06927a2.44927,2.44927,0,0,0-.44813.745l-.61932-.07833c-.0583-.46086-.20039-.46814-.28235-.44264-.08014.02368-.09838.39163-.09838.39163-.122.00911-.13661.08926-.14208.20039-.00363.11293.07833.12022.07833.12022-.04554.36978-.07469,1.32429-.07469,1.32429-.24226.13662-.95815.43717-1.00187.77781a.548.548,0,0,0,.38255.58838,1.92777,1.92777,0,0,1,.4135.24955,1.97745,1.97745,0,0,0-.23134.29145c-.12205.18216.05283.59748.05283.59748-.61572.18762-.39166.68127-.39166.68127l.02552.44447a1.61167,1.61167,0,0,0-.49729,1.31518c.14754.70677,1.0383.84886,1.0383.84886a8.13956,8.13956,0,0,1,3.12035,2.28426l.00547.39165a5.5165,5.5165,0,0,0-2.7342.47,8.49446,8.49446,0,0,0-1.235,2.869v.00365a9.12145,9.12145,0,0,0-.23861,2.68318c-.42625,1.16036-1.77058,2.10212-2.14581,3.56667a9.97386,9.97386,0,0,0,.306,3.931,2.54734,2.54734,0,0,0-.31877-.22769,9.337,9.337,0,0,0-1.07474-.459,10.442,10.442,0,0,0,.521,1.25143,8.50672,8.50672,0,0,0,.73957.96545c-.15485.0765-.40074.11839-.45722.24408-.23134.51734-.60113.52827-1.06382.4044a2.74172,2.74172,0,0,0-.71222-.0838c-.44446,0-.9363-.05647-1.0292.58291a.24443.24443,0,0,1-.10747.14026,1.263,1.263,0,0,0-.55741.94176c-.02.11476-.031.23316-.04189.35339-.02913.33334-.051.66669-.0765,1.031-.23134-.30967-.42809-.57561-.62663-.84157-.03462.0164-.07105.03279-.10747.04919.01639.20947.03278.41713.05283.64848-.25867-.18763-.49-.35521-.7997-.58109.04554.27142.07289.42442.1002.58472-.2951-.04917-.56651-.09653-.85249-.14572.01457.14755.02184.2368.02731.28234-.22952.02186-.41533.03826-.59931.05647.05648.34428-.23132.22042-.38251.27506-.14391.05284-.29511.08562-.44447.12752l.01091.071c.24047.03643.48093.071.79241.11658-.286.16576-.50458.29145-.72134.419.01637.051.03278.10383.04919.15665.36611-.04554.73043-.09108,1.102-.13662-.266.21859-.5155.42261-.76508.62663.02735.03461.05284.06922.08016.10383.41895-.21131.83793-.42261,1.34069-.67581-.2277.29327-.39345.50822-.56107.72317.02553.02.051.04189.07836.06193.3625-.23134.72681-.46086,1.09113-.6922.02913.04371.05828.08925.08926.13479-.34431.24592-.69768.48273-1.0274.745a2.98377,2.98377,0,0,0-.44263.47725c-.09473.11658-.1348.28781-.24774.37707-.26049.20947-.20766.36977.03645.52279.20946.13115.4244.24956.67945.39893-.17671.11476-.29512.19309-.51006.33153.42442.03824.7432.06557,1.04012.0929.1002.368.357.77963.26047,1.07655-.21858.67945.21861.75777.63029.94176.12752.05646.21678.19855.41895.39346.1512.00364.44265.01276.84524.0255-.255.35886-.4554.6412-.73411,1.03284a8.8898,8.8898,0,0,0,1.40444.47,4.91914,4.91914,0,0,0,.95086.05647,10.74043,10.74043,0,0,0,1.77786-.23863c-.33881,1.40992-1.30059,5.49755-2.26786,10.108l-.00182.00364c-.858,4.09493-1.71774,8.60152-2.144,12.00969a28.256,28.256,0,0,1-5.10225,13.2247c1.45726.50457,2.80524.00546,4.0858-.153a3.5972,3.5972,0,0,1,1.79974.153,3.27441,3.27441,0,0,0,.70675,2.90542c4.20058-.04008,5.65238-1.41355,5.65238-1.41355l.15668,1.06017c4.16048.3133,4.002-.51006,4.002-.51006a13.68084,13.68084,0,0,1,.23681,2.22416c-.36614,1.07291-.06559,1.42083-.17124,2.51925a18.73122,18.73122,0,0,1-1.27875,3.69416,1.58382,1.58382,0,0,0-.48273.09108.82463.82463,0,0,0-.30419.42626l-.1585.09836a4.1907,4.1907,0,0,0-.42077.78328c.11658.05283.44265-.16941.46087-.18216-.00547.00912-.08381.18035-.37344.81425-.29692.65395-.03824.93812.21678.98366a13.212,13.212,0,0,0,3.532-.28053c1.30791-.34063,1.34071-.63391,1.64125-2.30976a3.93659,3.93659,0,0,1,1.19679-2.36806,6.24291,6.24291,0,0,1-.16395,1.807c-.08378.26048.09291.306.09291.306a.32267.32267,0,0,0-.00727.184c.0273.10383.255.20221.42622.215a1.75692,1.75692,0,0,0,.54285-.1439,3.00666,3.00666,0,0,0-.37706,1.06744,2.3017,2.3017,0,0,1-.75234-.01456c-.04554.031-.071.19126-.071.19126l-.27506-.01093a4.97731,4.97731,0,0,0-.03644,1.05652,2.29533,2.29533,0,0,0,.90352-.10383,2.37049,2.37049,0,0,0,.79056,2.25694,6.93042,6.93042,0,0,0,3.88542-1.348c.58837-.51.572-2.05838.78512-2.98193a21.19444,21.19444,0,0,0,.41168-3.06936,1.10027,1.10027,0,0,0,.15118-.6922c-.04009-.42625-.25867-.53373-.25867-.53373a.36754.36754,0,0,0-.15119-.11111s-.01821-.33882-.10564-1.37712a6.5955,6.5955,0,0,1,.45175-2.40267,6.13319,6.13319,0,0,0,2.99284-.24045c2.40813,1.2569,6.04585.28781,6.04585.28781a6.66428,6.66428,0,0,0-.184-2.22233c1.83067-1.72685,4.49932.62663,7.953-1.20406C175.79138,71.9808,176.10651,45.97407,168.86755,40.33992ZM151.701,13.14005a.47487.47487,0,0,1-.01819-.33882.19931.19931,0,0,0-.11843-.12023l.07834-.40621.54647.11659A.829.829,0,0,1,151.701,13.14005Z"/>
  </g>
  <g>
    <path class="cls-1" d="M466.08027,42.03238c0,.12-.33985.32-.60986.43a.44712.44712,0,0,0-.12012.06,1.38764,1.38764,0,0,1-.21.1.16174.16174,0,0,1-.06983.04c-.06006.02-.13012.05-.2102.08a.57007.57007,0,0,0-.11988.04c-.14013.04-.3.08-.51.12a8.75367,8.75367,0,0,1-.95.13s.57984.11.82984.14a4.59655,4.59655,0,0,1,.99.11c.20019-.04.49.03.49.18,0,.14-.09986.34-.67993.4-.15992.03-.48.07-.82007.1-.10986.01-.23.02-.33985.04a1.11492,1.11492,0,0,0-.19018.02c-.48975.07-3.25977.69-5.15991-.08a3.09718,3.09718,0,0,1-1.76,1.33,13.97669,13.97669,0,0,1-2.12989-.74,8.96738,8.96738,0,0,0-2.65014-.75c-.01.09-.23,2.28-.23,4.53,0,.61.02,1.22.06006,1.8.2,2.74,1.02,7.71-2.83008,7.55a9.65214,9.65214,0,0,1-.12988,3.9,48.55894,48.55894,0,0,0-1.1001,8.04,23.63084,23.63084,0,0,1-1.48,6.4,5.00751,5.00751,0,0,1,.1101,2.03,5.86722,5.86722,0,0,1,.29981,3.01c-.08984.82-.25977,2.46-.43994,4.12-.26,2.45-.54,4.94-.54,4.94a18.53952,18.53952,0,0,0,2.53,0c.72-.11,1.79.02,2.1001.52a.79152.79152,0,0,1,.1101.82s.18994.1.05982.42c-.12989.33-1.09009,1.55-6.15991,2.07,0,0-.28.77,1.83984,2,2.12012,1.22,3.45019,1.49,3.64014,2.15,0,0,.8.46.02,1.12005-.79.65-6.3501,1.36-8.63013.11s-3.05982-1.66-3.05982-1.66v.68s-2.66015-.16-3.17016-1.56c0,0,.11011-1.9.19018-2.62a5.5777,5.5777,0,0,1,.7898-2.04s-.09986-.44-.1499-.82c0,0-.5.15-.42994-1.13.06006-1.26995,1.02-14.82,1.02979-15.46a3.70942,3.70942,0,0,1,.51025-1.49,2.7491,2.7491,0,0,0,.07984-1.56994c-.09009-.88.13989-3.86005.13989-3.86005s-1.52979-14.298-2.31982-15.348a2.38075,2.38075,0,0,1-.25713-.04881,2.87894,2.87894,0,0,1-2.10608-3.38252c.24083-1.20291.62544-3.19216.91191-4.99986a73.9915,73.9915,0,0,0,1.23133-11.4408c.05-3.62,1.1499-14.99,2.90991-16.23l.08008-.11a.29266.29266,0,0,0,.28.14c.28-.03.32984-.57.32007-.97l.16992-.23c.24.24.65992.58.89991.44.25-.14-.03-.93-.22-1.38l.09985-.13c.5.42,1.64014,1.29,1.98022.96a.21177.21177,0,0,0,.05982-.16.45921.45921,0,0,0-.04-.19,1.919,1.919,0,0,0-.11987-.26,1.07069,1.07069,0,0,0-.11988-.2,7.85886,7.85886,0,0,0-.70019-.93c.02,0,.03.02.05.04a5.41473,5.41473,0,0,0,1,.75,1.0939,1.0939,0,0,0,.15014.08c.02,0,.02979.01.04.01a.25072.25072,0,0,0,.06983.02.32112.32112,0,0,0,.31006-.05c.29-.29-.76-1.51-1.25-2.05l.10986-.15a.15477.15477,0,0,1,.01025-.04c.16992.16.75.51.98.37.23975-.16-.17016-.75-.45019-1.16a1.18451,1.18451,0,0,0-.29-.30005c.12012-.59.04-2.92.04-4.50995,0-1.62.39013-1.63.40014-1.63a2.049,2.049,0,0,1,1.10987-1.97,3.50077,3.50077,0,0,1,2.72-1.92c1.78-2.16,5.36011.72,5.36011.72a7.1061,7.1061,0,0,1,3.81,3.24,2.22341,2.22341,0,0,1,.80982,1.73c.07007,1.06-.42993.83-.42993.83a3.2837,3.2837,0,0,1-1.07984,1.50995,2.11468,2.11468,0,0,1-.39013.81006l.14013.06994c.04981-.08.35987-.02.2898.2a12.39722,12.39722,0,0,1-.58985,1.14,4.81231,4.81231,0,0,1,.19.91c-.56006.13-.86988.45-.86011.80005a.58265.58265,0,0,0,.08008.3v.02a1.50123,1.50123,0,0,1,.04.35.30783.30783,0,0,1-.01.1.80972.80972,0,0,1-.25.4,1.04931,1.04931,0,0,1-.1001.09.4783.4783,0,0,1-.15991.37006h-.01a.44375.44375,0,0,0-.11011.08h-.00977a1.05742,1.05742,0,0,0-.35009.3,3.72471,3.72471,0,0,0-.1001.49005,1.68933,1.68933,0,0,1-.51,1.06.62394.62394,0,0,1-.05982.04c-.51025.34-.88012.16-1.41015.02h-.03a5.39936,5.39936,0,0,0-.08985-.95,8.24083,8.24083,0,0,0-.89013-2.04,12.21219,12.21219,0,0,1-.59986-1.14s-.09008-.93-.32006-.88-.26.37-.26.37-.6001.18-.19,1.37a6.15638,6.15638,0,0,1-.5-.72c-.18994-.32-.97021-1.26-1.18017-1.51s-.96-1.06-1.17993-.87c-.15991.13995.71,1.86,1.1101,2.62-.31-.51-.8601-1.47-1.13012-1.85-.36988-.54-.74-.77-.93994-.65-.17994.11.7,2.16.96,2.76995-.24-.44995-.92993-1.75-1.22-1.8-.3501-.05.16992,1.48.2,1.55-.0398-.03-.32007-.25-.3999-.18a5.09073,5.09073,0,0,0,.92993,2.03,4.07734,4.07734,0,0,0,1.12988,2.26,6.8656,6.8656,0,0,1,1.73022,3.28c.23.95,1.15992,10.55,4.22,12.45a8.344,8.344,0,0,0,1.96,5.78,1.63008,1.63008,0,0,1,.76-.11c.53.09,1.42993.82,1.67993.84a5.89546,5.89546,0,0,1,1.26,0c.24.1.56006.36.72.37a5.003,5.003,0,0,1,.86011-.08,2.73344,2.73344,0,0,1,.71.22.3406.3406,0,0,0,.3-.13,2.12151,2.12151,0,0,1,1.10986-.85c.70019-.14,2.40015-1.13,2.63013-1.06.22.05.32983.6.15991.87a13.20779,13.20779,0,0,1-1.6499.94c-.1001.12,1.01.56,1.35986.53a9.53932,9.53932,0,0,1,1.86011,0c.61987.1,1.3.01,1.3.4-.01.38-.83007.42005-1.75.56h-.03l-.71.07s1.34986.06,1.7.03h.04c.27979-.03,1.08985-.18,1.08985.29,0,.29-.77.39-.8999.44a17.122,17.122,0,0,1-1.73.34h.04c.36988-.01,1.14991-.06,1.71-.13h.04C465.94038,41.71237,466.08027,41.81241,466.08027,42.03238Z"/>
    <g>
      <path class="cls-2" d="M441.70039,14.16238a.32112.32112,0,0,1-.31006.05.18313.18313,0,0,1-.06983-.02c-.01025,0-.02-.01-.04-.01a1.0939,1.0939,0,0,1-.15014-.08,5.41473,5.41473,0,0,1-1-.75.91133.91133,0,0,0-.09986-.1.25872.25872,0,0,0,.04981.06,7.85886,7.85886,0,0,1,.70019.93,1.53076,1.53076,0,0,1,.11988.2,1.919,1.919,0,0,1,.11987.26.49261.49261,0,0,1,.04.19.21177.21177,0,0,1-.05982.16c-.34008.33-1.48022-.54-1.98022-.96-.12988-.11-.21973-.19-.23975-.21.00977.03.06983.16.1399.34.18994.45.47,1.24.22,1.38-.24.14-.65991-.2-.89991-.44a1.79986,1.79986,0,0,1-.18994-.2s.02.19.02.43006c.00977.4-.04.93994-.32007.97a.29266.29266,0,0,1-.28-.14,2.21157,2.21157,0,0,1-.19-.91,5.53944,5.53944,0,0,1,.50977-3.05s1.15015-1.7,2.16016-1.7a.03677.03677,0,0,0,.03-.01,1.49835,1.49835,0,0,1,.82983.28,1.18451,1.18451,0,0,1,.29.30005c.28.41.68994,1,.45019,1.16-.23.14-.81006-.21-.98-.37-.02-.01-.03027-.03-.04-.04-.09008-.12-.32006-.02-.32006-.02s.09985.1.24.25C440.94038,12.65237,441.99042,13.87241,441.70039,14.16238Z"/>
      <path class="cls-2" d="M482.72041,84.78238c-3.31006,1.75-5.87012-.5-7.62012,1.15a6.49216,6.49216,0,0,1,.16992,2.13,11.9107,11.9107,0,0,1-2.83984.34l.24081,1.30133a.901.901,0,0,1-.3.64l-.41993.01s.01.82.13013,2.27c.11987,1.46-.79,2.31994-1.79,3.06994-.99023.74006-2.76025,1.63-3.03,1.43006-.28-.19-.2102-2.27-.2102-2.27s-.18994.09-.27.06c-.06983-.02-.05982-.27-.05982-.27a2.79331,2.79331,0,0,1-.81006.24v-1.21c.2-.24,1.42017-.22,1.42017-.22l.06982-.45c.09568-1.05015.38439-2.28256.33642-2.73179-.20371-1.90741-.52718-1.50948-.61727-1.87947a3.54637,3.54637,0,0,1-.42993-.23005,5.114,5.114,0,0,1-1.31006.33h-.01l-1.2-.04c-.06006,0-.11988-.01-.17994-.01-.6101-.06-1.55341-.26-1.55341-.26-.61768.92871,1.05835,4.76355.72618,5.5076,0,0,.31983-.16.5-.04.17993.13.17993.65.09986.99-.09009.34-1.11988,1.13-1.15992,2.14a9.77467,9.77467,0,0,0,.06983,1.72l-.16992.17-.95-.02039A13.98867,13.98867,0,0,0,461.983,96.63c.03-.63995-.33985-1.29-1.56983-.7-1.24023.58-2.15014,3.12-4.37011,3.33a8.125,8.125,0,0,1-4.8501-1.32c-.04981-.22,0-.77,2.39013-1.31,0,0-.34008-.13995-.34008-.3,0-.15,1.09008-.59,1.2-.55.12011.04.29.46.29.46a1.00888,1.00888,0,0,0,.43994-.24,9.86052,9.86052,0,0,0,1.75748-4.35854,22.20255,22.20255,0,0,0-.27009-4.1291,2.05859,2.05859,0,0,1-.24.05,8.1756,8.1756,0,0,1-3.54.19l-.1499-1.02s-1.39014,1.32-5.42017,1.36a3.11826,3.11826,0,0,1-.66992-2.79,3.34566,3.34566,0,0,0-.52-.14c.18017-1.66.3501-3.3.43994-4.12a5.86722,5.86722,0,0,0-.29981-3.01,5.00751,5.00751,0,0,0-.1101-2.03,23.63084,23.63084,0,0,0,1.48-6.4,48.55894,48.55894,0,0,1,1.1001-8.04,9.65214,9.65214,0,0,0,.12988-3.9c3.8501.16,3.03-4.81,2.83008-7.55-.04-.58-.06006-1.19-.06006-1.8,0-2.25.22-4.44.23-4.53a8.96738,8.96738,0,0,1,2.65014.75,13.97669,13.97669,0,0,0,2.12989.74,3.09718,3.09718,0,0,0,1.76-1.33c1.90014.77,4.67016.15,5.15991.08a1.11492,1.11492,0,0,1,.19018-.02c.10987-.02.23-.03.33985-.04.34009-.03.66015-.06994.82007-.1.58007-.06.67993-.26.67993-.4,0-.15-.2898-.22-.49-.18a4.59655,4.59655,0,0,0-.99-.11c-.25-.03-.82984-.14-.82984-.14a8.75367,8.75367,0,0,0,.95-.13c.21-.04.36987-.07995.51-.12a.57007.57007,0,0,1,.11988-.04c.08008-.03.15014-.06.2102-.08a.16174.16174,0,0,0,.06983-.04,1.38764,1.38764,0,0,0,.21-.1.44712.44712,0,0,1,.12012-.06c.27-.11.60986-.31.60986-.43,0-.22-.13989-.32-.83985-.22h-.04c-.56006.07-1.34009.12-1.71.13h-.04a17.122,17.122,0,0,0,1.73-.34c.12988-.05.8999-.15.8999-.44,0-.47-.81006-.32-1.08985-.29h-.04c-.3501.03-1.7-.03-1.7-.03l.71-.07h.03c.91993-.13995,1.74-.18,1.75-.56,0-.38995-.68017-.3-1.3-.4a9.53932,9.53932,0,0,0-1.86011,0c-.34985.03-1.46-.41-1.35986-.53a13.20779,13.20779,0,0,0,1.6499-.94c.16992-.27.06006-.82-.15991-.87-.23-.07-1.92994.92-2.63013,1.06a2.12151,2.12151,0,0,0-1.10986.85.3406.3406,0,0,1-.3.13,2.73344,2.73344,0,0,0-.71-.22,5.003,5.003,0,0,0-.86011.08c-.15991-.01-.48-.27-.72-.37a5.89546,5.89546,0,0,0-1.26,0c-.25-.02-1.1499-.75-1.67993-.84a1.63008,1.63008,0,0,0-.76.11,8.344,8.344,0,0,1-1.96-5.78c-3.06006-1.9-3.99-11.5-4.22-12.45a6.8656,6.8656,0,0,0-1.73022-3.28,4.07734,4.07734,0,0,1-1.12988-2.26,5.09073,5.09073,0,0,1-.92993-2.03c.07983-.07.3601.15.3999.18-.03-.07-.55-1.6-.2-1.55.29.05.98,1.35,1.22,1.8-.26-.61-1.1399-2.66-.96-2.76995.2-.12.57006.11.93994.65.27.38.82007,1.34,1.13012,1.85-.40014-.76-1.27-2.48005-1.1101-2.62.22-.19.97.62,1.17993.87s.99023,1.19,1.18017,1.51a6.15638,6.15638,0,0,0,.5.72c-.41015-1.19.19-1.37.19-1.37s.03-.32.26-.37.32006.88.32006.88a12.21219,12.21219,0,0,0,.59986,1.14,8.24083,8.24083,0,0,1,.89013,2.04,5.39936,5.39936,0,0,1,.08985.95c.01.46-.01978.92-.03,1.23a33.26288,33.26288,0,0,0,2.43017,6.05c.47.96.79,1.59.99,2.07.73-1.53,1.37988-2.59,1.37988-2.59a7.66759,7.66759,0,0,1-.28-1.08c-.07984-.51-.00977-1.06-.06983-1.29a12.42264,12.42264,0,0,0-2.33007-3.52,1.04216,1.04216,0,0,1-.64991-.89.62394.62394,0,0,0,.05982-.04,1.68933,1.68933,0,0,0,.51-1.06,1.32519,1.32519,0,0,0,.28-.37.72479.72479,0,0,1,.17016-.42h.00977a.44375.44375,0,0,1,.11011-.08h.01a.58233.58233,0,0,1,.25-.05,1.376,1.376,0,0,1,.01-.41.80972.80972,0,0,0,.25-.4.66247.66247,0,0,1,.27-.1,1.15888,1.15888,0,0,1-.3-.35v-.02a.58265.58265,0,0,1-.08008-.3c-.00977-.35.3-.67.86011-.80005a3.11271,3.11271,0,0,1,.32006-.04.71555.71555,0,0,1,.1399-.38,7.15591,7.15591,0,0,1,.67993-1.05c.09009-.03.22021.17.13013.36,0,0,.34008.04.16992.55a3.88431,3.88431,0,0,1,1.57007-1.3s.85009-2.05,2.10009-1.23c0,0,.43994-.21.7.07a.60178.60178,0,0,1,.73.15s.3-.15.60986.23a.50039.50039,0,0,1,.49.25.45947.45947,0,0,1,.5.19.42408.42408,0,0,1,.49023.22.50632.50632,0,0,1,.44971.28s.29-.09.52.37a.95823.95823,0,0,1,.77.51,2.492,2.492,0,0,1,1.57007,2.00994,4.1611,4.1611,0,0,0,.63012,1.58c.50977.73.1399,1.9.09986,2.38a3.72317,3.72317,0,0,0,.92993,2.27c.74023.91-.15991,1.73-.59985,2.15a2.57226,2.57226,0,0,0,.82006,1.23.98933.98933,0,0,1,.11988,1.54,1.85058,1.85058,0,0,1,.63989,1.64s.93018.61,1,1.16c.07007.56-.23.87-.13989,1.54,0,0,.02.43994.88989,1.24a2.62857,2.62857,0,0,1,.94019,2.58.864.864,0,0,0,.99,1.06,1.14114,1.14114,0,0,1-1.47-.29,5.321,5.321,0,0,0,.71,1.23,4.18923,4.18923,0,0,1,1.23,3.58s-.22-1.7-.88013-2.23a3.08569,3.08569,0,0,1-.34985,1.76c-.45.66,1.07006,2.52,1.31,2.99a3.44869,3.44869,0,0,1-.92993,2.89C478.01044,48.85239,476.85029,73.70242,482.72041,84.78238Z"/>
    </g>
  </g>
  <g>
    <path class="cls-1" d="M89.31007,25.89081a5.29062,5.29062,0,0,1,.12012-.63c-.18017-.71-.48-1.86005-.6001-2.32-.17993-.7-.33007-1.59-.58984-2.36a1.64934,1.64934,0,0,0-.99023-1c-.44-.68-1.40992-.79-2.02979-1.1-.59009-.29-2.34009-1.26-2.43994-1.32a3.0288,3.0288,0,0,0,1.56982-.5c.41016-.42.32007-1.58.43994-1.74.13013-.15.3501-.31.38013-.54a.78979.78979,0,0,0-.06006-.39c.22-.01.29-.14.36011-.34a3.22482,3.22482,0,0,0,.06006-.73s.56982.21.83984-.04a.67242.67242,0,0,0,.10987-.69,9.5361,9.5361,0,0,0,.89013-1.71.84422.84422,0,0,0-.92993-.27l-.2102-.05a.64529.64529,0,0,0-.21973-.19,1.85445,1.85445,0,0,0,.63989-1.25c2.42993-1.57,1.23-2.78,1.23-2.78.97-1.07-3.65014-4-3.99-4.15a5.71009,5.71009,0,0,0-3.12988-1.75,2.0336,2.0336,0,0,0-2.48,1.26c-5.83008-1.12-4.18018,9.71-4.16016,10.42.02.7.33008.62.33008.62a4.18918,4.18918,0,0,0-1.14014.83c-.62988.61-1.59985,1.56-1.59985,1.56a16.27977,16.27977,0,0,1-2.37012.93c-.84985.2-3.65991.34-4.7,1.3,0,0-1.02.2-1.3999,2.52a27.25774,27.25774,0,0,0-1.58008,6.36c-.05,2.24.3501,10.28.95,11.71a21.405,21.405,0,0,0,2.71,3.89s-1.86987,8.63-2.73,10.57a2.39916,2.39916,0,0,0,1.71.09l-.17993,1.45a.68242.68242,0,0,0,.45.25s.45,14.83,1.21021,17.86c0,0,.03979,12.34.34985,14.46a30.84135,30.84135,0,0,1,.54,3.32c-.02.67-.31006,1.32-.31006,2.21a16.1139,16.1139,0,0,0,.45,2.7,10.35456,10.35456,0,0,0-1.58007,3.14,10.95342,10.95342,0,0,0-.16993,2.1,9.84264,9.84264,0,0,0,3.5.34,2.79594,2.79594,0,0,0,2.2002-2.62,1.61464,1.61464,0,0,1,.55981-1.13c.52-.35,1.27-.75,1.27-1.56a2.48754,2.48754,0,0,0,1.32007-1.73c.35987-1.37005-.47-4.1-1.1001-5.71,0,0,.88013-.03.79-2.86-.08984-2.82-.02-9.04.12012-9.77a12.53238,12.53238,0,0,0,.66992-3.8c.18994-2.77.91992-7.96.91992-7.96s-.09985,8.77,1.03,11.78a34.08336,34.08336,0,0,0-.13989,5.29,6.48358,6.48358,0,0,1-.07007,3.3c-.34985,1.34-1.88012,3.99-.8,5.94a9.37274,9.37274,0,0,0-.62988,2.44,3.46923,3.46923,0,0,0,.72,1.59,3.08026,3.08026,0,0,1,.12988,1.16s.29.51,1.61011.91l.62988-.06a3.26077,3.26077,0,0,1,.86011,1.15c.2.58.56006,1.71,3.26,2.52,0,0,2.41992-.18,3.17993-.94a8.19494,8.19494,0,0,0-1.36987-2.88c-.87012-.95-1.45019-1.17-2.08008-2.24l1.27-8.59c-.11011.01-.22.03-.33008.05a9.26874,9.26874,0,0,1-3.08984.27,4.69509,4.69509,0,0,1-1.38013-.22,28.2184,28.2184,0,0,0,5.1001-13.21c.42993-3.41,1.2898-7.91,2.1499-12.01.76-3.66,1.09009-7,1.36988-8.92a4.39359,4.39359,0,0,0-.16993-.88c-.11987,0-.33984,0-.58007-.01a7.46348,7.46348,0,0,1-1.05982-.05,9.1512,9.1512,0,0,1-1.40014-.46c.28-.4.48-.68.73-1.04-.39991-.01-.69-.02-.83985-.02-.19995-.2-.29-.34-.41992-.39-.41016-.19-.8501-.27-.63013-.95.1001-.29-.15991-.7-.26-1.07-.3-.03-.62011-.06-1.04-.09.22022-.14.33008-.22.51-.34-.26-.14-.47-.26-.67993-.39-.24-.16-.3-.32-.03-.53.11011-.09.15015-.25995.24-.37a3.4039,3.4039,0,0,1,.43994-.48c.21-.16.42017-.32.64014-.47.08985-.12.18994-.25.31006-.4a.00988.00988,0,0,1-.01025-.01c-.35987.23-.73.46-1.08985.69-.03-.02-.05-.04-.08008-.06.04-.05.09009-.11.13013-.16-.07007.04-.14014.06995-.2102.11a.71564.71564,0,0,1-.07984-.1c.21-.17.41992-.34.63989-.53-.47.23-.85986.43-1.25976.63a.71815.71815,0,0,0-.08008-.1c.21-.17.41992-.34.63989-.53a2.693,2.693,0,0,1-.28.04.64533.64533,0,0,1-.02978-.08c-.22022.02-.44019.05-.66016.08a.98192.98192,0,0,1-.05-.16c.22-.12.42994-.25.72-.42-.31-.04-.5498-.08-.79-.11a.19942.19942,0,0,1-.00977-.07c.1499-.04.2998-.07995.43994-.13.1499-.05.43994.07.37988-.28.19-.01.37012-.03.6001-.05a2.41475,2.41475,0,0,0-.03-.28c.24.04.47.08.71.12,0-.04-.01-.07-.01-.12a.67593.67593,0,0,0,.14014.02c-.03-.12-.05-.26-.09009-.46.32007.22.55.39.8.58-.03-.16-.06006-.31-.1001-.58a.20941.20941,0,0,0,.06006.04c0-.04-.01-.07-.01-.11005.04-.02.07007-.03.11011-.05.12988.17.25.33.37988.51.09009.06.16992.13.26.19v-.01c-.02-.23-.04-.43-.06006-.64a.91956.91956,0,0,0,.1001-.05h.01a1.20907,1.20907,0,0,1,.01-.19c.01-.12.02-.24.0398-.35a1.27337,1.27337,0,0,1,.56-.94c.01-.01.03-.02.04-.04a6.20416,6.20416,0,0,1,.1001-2.33,19.81614,19.81614,0,0,1,1.12988-3.68,5.324,5.324,0,0,0,.88013,2.57c.3.12.55982.2.78.31a1.97956,1.97956,0,0,1,.25.13,4.83578,4.83578,0,0,1,.75.6l.02979.03c-.06983-.18-.15992-.42-.25-.71a6.62545,6.62545,0,0,1-.21973-3.31A33.671,33.671,0,0,0,89.31007,25.89081Zm-2.2998-15.51a.3297.3297,0,0,1-.02.11l-.3-.08A.4097.4097,0,0,1,87.01027,10.3808Zm-.46021.14.37012.12005a1.34824,1.34824,0,0,1-.13013.43995,6.335,6.335,0,0,1-.38989.74005l-.18994-.58A5.20276,5.20276,0,0,1,86.55006,10.52076Z"/>
    <path class="cls-2" d="M108.71392,40.56279a18.13874,18.13874,0,0,0,1.72021-1.98c.02979-.06.06983-.12995.10987-.2a7.71764,7.71764,0,0,0,.83007-3.78,25.47332,25.47332,0,0,0-.91015-6.2c-.61988-1.89-2.02-5.85-3.46-6.96a1.67116,1.67116,0,0,0-.93994-.26,3.48015,3.48015,0,0,0-1.354-.0545c-.27368-.9574-1.646-1.36548-1.646-1.36548s1.26-.14,1.18994-.39a4.58046,4.58046,0,0,1-2.35605-1.47,1.64172,1.64172,0,0,1-.465-1.56668c.81958-1.04168-.3313-1.014-.48608-1.33331-.14185-.29285.36108-.76392.27978-1.27118-.1372-.85754-1.20385-1.29144-1.46264-1.48883a8.51488,8.51488,0,0,1-1.45-1.55,3.7054,3.7054,0,0,0-1.14014-.95,2.80077,2.80077,0,0,0-1.3999-.74,4.17983,4.17983,0,0,0-.97-.05,1.47228,1.47228,0,0,0-.72-.13c-.3501.04-.37989.19-.37989.25a.12764.12764,0,0,0-.06006.00995.83285.83285,0,0,0-.50561-.09565.91594.91594,0,0,0-.63452.32569c-.02.01-.04.01-.04981.02a.29678.29678,0,0,0-.36011-.07.3024.3024,0,0,0-.17993.28c-.02,0-.03.01-.05.02a.33347.33347,0,0,0-.35009-.01.25368.25368,0,0,0-.1399.27v.00995h-.01a.31526.31526,0,0,0-.38012,0c-.13281.0921-.09986.27-.09986.34-.2.15-.38012.29-.56005.42a1.30238,1.30238,0,0,0-.46,1.28c-1.2102,1.45-.42016,4.31-.42016,4.31a2.41855,2.41855,0,0,0-.48.39,1.16245,1.16245,0,0,0-.09986.59c-.17016.05-.13012.15-.13012.15a.29513.29513,0,0,0-.09986.07c-.03.03.01978.18.05982.21s.12012-.03.12012-.03a.14.14,0,0,0,.07006.06.3087.3087,0,0,0,.14991-.01,4.58894,4.58894,0,0,0,.40991.52,2.26345,2.26345,0,0,0,.62012.52c.00952.34412.282,2.47412,3.20361,3.06409-.71411,1.15625-2.37817,1.18939-2.6311,1.58221l.01416-.00018-.01661.00391a3.006,3.006,0,0,0-1.2,1.96,5.28917,5.28917,0,0,0-.12011.63,33.6857,33.6857,0,0,1-1.53,6.3,6.62265,6.62265,0,0,0,.22,3.31c.09008.29.18017.53.25.71l-.03-.03a4.81325,4.81325,0,0,0-.75-.6,1.94672,1.94672,0,0,0-.25-.12995c-.22-.11-.48-.19-.78-.31-.00977-.01-.02979-.01-.04-.02a10.08044,10.08044,0,0,0,.52,1.25,8.39027,8.39027,0,0,0,.74023.96c-.16015.08-.40014.12005-.46.25-.23022.51-.6001.52-1.06006.4a2.86481,2.86481,0,0,0-.71-.08c-.45019,0-.94018-.06-1.03027.58a.14346.14346,0,0,1-.06982.1c-.01.02-.03.03-.04.04a1.27338,1.27338,0,0,0-.56006.94c-.02.11-.02979.23-.04.35a1.23844,1.23844,0,0,0-.00977.19h-.01025a.89368.89368,0,0,1-.09985.05c.02.21.04.41.06005.64v.01c-.09008-.06-.17016-.13-.26-.19-.13012-.18-.25-.34-.38012-.51-.0398.02-.07007.03-.10987.05,0,.04.01.07.01.11005a.20923.20923,0,0,1-.06005-.04c.04.27.06982.42.10009.58-.25-.19-.48-.36-.8-.58.0398.2.05982.34.08985.46a.6735.6735,0,0,1-.13989-.02c0,.05.01.08.01.12-.24-.04-.47-.08-.71-.12a2.472,2.472,0,0,1,.03.28c-.23.02-.41015.04-.60009.05.06005.35-.23.23-.37989.28-.14013.05-.29.09-.44018.13a.195.195,0,0,0,.01.07c.24.03.48.07.79.11-.29.17-.5.3-.72.42a.98186.98186,0,0,0,.05.16c.22-.03.43995-.06.65992-.08a.68464.68464,0,0,0,.03.08,2.70239,2.70239,0,0,0,.28-.04c-.22.19-.42993.36-.63989.53a.71564.71564,0,0,1,.07984.1c.40014-.2.79-.4,1.26-.63-.22.19-.42994.36-.64014.53a.71815.71815,0,0,0,.08008.1c.07007-.04.14013-.07.21-.11-.04.05-.08985.11-.12988.16.03.02.05.04.08007.06.35987-.23.73-.46,1.08985-.69a.0098.0098,0,0,0,.01.01c-.11988.15-.22.28-.30982.4-.22021.15-.43017.31005-.64013.47a3.389,3.389,0,0,0-.43995.48c-.09008.11-.13012.28-.24.37-.27.21-.2102.37.03.53.21.13.41993.25.67994.39-.17994.12-.29.2-.51.34.41992.03.74.06,1.04.09.1001.37.35987.78.26,1.07-.22.68.22.75995.62989.95.13012.05.22.19.42016.39.14991,0,.43994.01.83985.02-.25.36-.45.64-.73,1.04a9.14865,9.14865,0,0,0,1.3999.46,7.46938,7.46938,0,0,0,1.06006.05c.24.01.46.01.58008.01a4.4112,4.4112,0,0,1,.16992.88c-.27979,1.92-.60987,5.26-1.36988,8.92-.8601,4.1-1.72,8.6-2.15014,12.01a28.21967,28.21967,0,0,1-5.09986,13.21,4.69346,4.69346,0,0,0,1.37989.22,18.23039,18.23039,0,0,0,3.09009-.27c.10986-.02.22-.04.33007-.05a3.54243,3.54243,0,0,1,1.79981.16,3.27093,3.27093,0,0,0,.71,2.9c4.20019-.04,5.65015-1.41,5.65015-1.41l.1499,1.05a6.63576,6.63576,0,0,0,3.57007-.39,8.90454,8.90454,0,0,1,.07006,2.11c-.37011,1.07-.07006,1.42-.17016,2.51a19.01848,19.01848,0,0,1-1.27979,3.69,1.56222,1.56222,0,0,0-.49023.1.78455.78455,0,0,0-.29981.42l-.16015.1a4.221,4.221,0,0,0-.41992.78c.10986.05.3999-.15.45-.17-.01.05-.10987.25-.35987.8-.3.66-.04.94.22.99a13.38963,13.38963,0,0,0,3.52-.28c1.31006-.34,1.33985-.64,1.6399-2.31a4.01745,4.01745,0,0,1,1.2-2.37,6.312,6.312,0,0,1-.15991,1.81c-.09009.26.09008.3.09008.3a.38887.38887,0,0,0-.01.19c.03.1.26.2.42994.21a1.46888,1.46888,0,0,0,.53-.13,3.054,3.054,0,0,0-.37011,1.05,2.26594,2.26594,0,0,1-.75-.01c-.0398.03-.07007.19-.07007.19l-.26978-.01a4.56343,4.56343,0,0,0-.04,1.06,2.34737,2.34737,0,0,0,.89991-.11,2.37016,2.37016,0,0,0,.79,2.26,6.896,6.896,0,0,0,3.88012-1.35c.58985-.51.56983-2.06.79-2.98a20.995,20.995,0,0,0,.40991-3.06,1.11085,1.11085,0,0,0,.14991-.7c-.04-.42-.26-.53-.26-.53a.34612.34612,0,0,0-.14991-.11s-.02-.34-.10009-1.38a10.07846,10.07846,0,0,1,.21-2.43,11.46966,11.46966,0,0,0,3.83008-.21,8.07514,8.07514,0,0,0,5.39013.36005,6.86321,6.86321,0,0,0-.18017-2.22c1.83008-1.73,3.96.07,7.59008-.93C115.22393,72.56279,115.304,45.8928,108.71392,40.56279Zm-19.60987-23.81a.784.784,0,0,1,.42994-.42l.32006.72-.79.16A1.01667,1.01667,0,0,1,89.10405,16.75279Zm.10987.76.66015-.16a2.88275,2.88275,0,0,0,.23,1.1A3.15229,3.15229,0,0,1,89.21392,17.5128Z"/>
  </g>
  <path class="cls-2" d="M206.63924,35.74v.02l-.01-.04A.031.031,0,0,0,206.63924,35.74Z"/>
  <path class="cls-2" d="M206.65926,35.82a1.97,1.97,0,0,0,.06006.24h-.04l-.04-.3c.01.00995.01.03.02.05Z"/>
  <path class="cls-2" d="M213.07421,46.31731a.14813.14813,0,0,0-.00582.07048,1.99443,1.99443,0,0,0-.03448.26252,1.11967,1.11967,0,0,1-.02746.212c-.00677.05048-.014.10105-.02079.15153-.00845.03053-.00667.0605-.01522.08107l-.18112-.85077C212.881,46.26873,212.98249,46.2927,213.07421,46.31731Z"/>
  <g>
    <path class="cls-1" d="M213.58777,23.48289c-.66016-4.73-1.91016-4.19-1.91016-4.19-.37988-.68-1.07007-.72-2.03-1.16a24.20593,24.20593,0,0,1-3.03362-1.31434c-.7-.43-.87988-1.06-.57007-1.3a4.69878,4.69878,0,0,0,2.84368.32436h.02a1.63889,1.63889,0,0,0,.41993-.41,11.21935,11.21935,0,0,0,.43017-1.68994c.10986-.16.29981-.34.29981-.56006a.7797.7797,0,0,0-.08985-.37c.21-.04.26-.17.3-.37a2.51768,2.51768,0,0,0-.01-.69995s.56006.12994.79-.14a.67869.67869,0,0,0,.04-.67,10.4797,10.4797,0,0,0,.66992-1.75.80546.80546,0,0,0-.91016-.15l-.2-.03a.5507.5507,0,0,0-.22-.14,1.89619,1.89619,0,0,0,.48-1.28c2.12989-1.79.87989-2.8.87989-2.8.81005-1.14-3.81983-3.39-4.14991-3.5a5.26252,5.26252,0,0,0-3.10986-1.3,1.96427,1.96427,0,0,0-2.21,1.5c-5.37012-.31-3.52,8.23-3.22022,8.84.72022,1.46-.88552,3.43308-2.20558,4.60307a.031.031,0,0,0-.02.01,14.645,14.645,0,0,1-3.79441.97694,2.75159,2.75159,0,0,0-2.02979,1.35,26.39351,26.39351,0,0,0-2.56006,8.97,86.7,86.7,0,0,0,.81006,10.35c.00977,0,.00977,0,.00977.01.20019,1.06.65014,3.34.72021,3.69v.1c-.17017.72-1.8501,6.65-2.65015,9.43a1.15148,1.15148,0,0,0,1.14014,1.46c.09985,0,.18994-.01.26978-.01a.25.25,0,0,1,.26025.25l.04,1.68s.15991,15.31.90991,18.41c.01.01.01.01995.01.04,0,.56.04,12.38.34985,14.45a28.33905,28.33905,0,0,1,.54,3.32c-.01.67-.21,1.33-.3,2.21a7.556,7.556,0,0,0,.26,3.66,7.221,7.221,0,0,0-.08984,2.63,2.32938,2.32938,0,0,0,2.07983,2.05,4.84992,4.84992,0,0,0,1.38013-.05c1.29-.26,1.17993-1.93,1.18994-2.56a19.0101,19.0101,0,0,1,.40015-2.61.24633.24633,0,0,1,.11987-.21,2.52124,2.52124,0,0,0,1.2-1.67,11.425,11.425,0,0,0-.24-5.5.24661.24661,0,0,1,.09009-.28c.25-.17.68994-.75.62988-2.79-.08984-2.79-.02-8.91.12012-9.76a.08994.08994,0,0,1,.01-.05,12.93817,12.93817,0,0,0,.6499-3.78c.2-2.77.92994-7.97.92994-7.97s-.09986,8.69,1.01025,11.75a.14254.14254,0,0,1,.00976.09,33.91914,33.91914,0,0,0-.12988,5.26,6.33691,6.33691,0,0,1-.07007,3.29,6.6,6.6,0,0,0,.51,4.93006.25987.25987,0,0,1-.02.27c-.33007.41-1.33984,1.7-1.31005,2.32a3.362,3.362,0,0,0,.72021,1.6,2.75077,2.75077,0,0,1,.13989,1.06995.18318.18318,0,0,0,.06006.17,3.35946,3.35946,0,0,0,1.55.83l.62988-.06a3.2582,3.2582,0,0,1,.85987,1.15,2.85652,2.85652,0,0,0,1.16015,1.57,4.80157,4.80157,0,0,0,4.14014.58,5.07222,5.07222,0,0,0,.65991-.24.71435.71435,0,0,0,.32984-.85,7.01391,7.01391,0,0,0-1.22-2.36,12.21308,12.21308,0,0,1-2.03979-2.18.228.228,0,0,1-.04-.14l-.11011-7.36a.26083.26083,0,0,0-.3-.25,18.607,18.607,0,0,1-2.18994.32c-.10986.00995-.22.00995-.33984.00995-.12012,0-.25-.00995-.38013-.02a.10884.10884,0,0,1-.05-.01,2.24037,2.24037,0,0,1-.43994-.07c-.01,0-.02-.01-.03-.01-.11987-.03-.24-.07-.3601-.11a29.51051,29.51051,0,0,0,4.70019-13.22c.38989-3.41,1.17993-7.92,1.97-12.00995a.0098.0098,0,0,1,.01-.01c.54-2.81,1.08008-5.42005,1.49-7.35q.07507-.33.1499-.72c.07007-.3.13013-.57.17017-.82.09985-.43.17993-.79.25-1.07l.02978-.15c-.00976,0-.02978.01-.04.01.45019-2.27.98-5.01,1.3601-6.97a6.50992,6.50992,0,0,0,.03-1.77c-.16992-1-1.02-3.8-1.2-4.39V35.8029a.24046.24046,0,0,1-.02-.08l-.01-.02c-.01-.06-.06006-.26-.11011-.55a.0098.0098,0,0,1-.01-.01,9.21536,9.21536,0,0,1-.1499-3.35c.33985-1.46,1.58008-2.4,1.97-3.56,0,0-.01-.17-.01-.47a10.70776,10.70776,0,0,1,.23-2.22A9.12722,9.12722,0,0,1,213.58777,23.48289Zm-2.18018-14.02a.25291.25291,0,0,1-.01.11l-.29-.04A.3745.3745,0,0,1,211.40759,9.46287Zm-.41992.18.3501.07a1.18791,1.18791,0,0,1-.07007.44,7.63752,7.63752,0,0,1-.29.76l-.25-.53A5.66638,5.66638,0,0,1,210.98767,9.64286Z"/>
    <g>
      <path class="cls-2" d="M229.92582,40.90287a5.56782,5.56782,0,0,0,1.3501-3.52c.0498-7.88-1.58423-11.03138-1.58423-11.03138a1.42545,1.42545,0,0,0-.1998-1.80933s-.16992-1.06-.6101-1.18c-.43995-.11-.44971-.35-.44971-.35.5.03.46759-.22873.46759-.22873a.64331.64331,0,0,1-.46759-.17129c-.04-.41.11987-.45.15991-.82.0398-.36-.59634-.76927-.59634-.76927.34847-.01721.596-.55578.596-.55578-.23.23-.81276.24466-1.12257-.72531-.32007-.97.21671-1.05894.06657-1.48893-.07984-.25-.52-.42-.92994-.72a1.70891,1.70891,0,0,1-.6499-1.43,9.69426,9.69426,0,0,0-.07007-2.77,4.26449,4.26449,0,0,0-1.41992-2.27,2.08581,2.08581,0,0,0-1.38013-.86.352.352,0,0,0-.35986-.18c-.12012-.15-.49-.18-.49-.18a.51291.51291,0,0,0-.49023-.27.47243.47243,0,0,0-.41993-.17.44285.44285,0,0,0-.17993-.09c-.09009-.03-.23.07-.23.07a.60012.60012,0,0,0-.28-.17.3408.3408,0,0,0-.32007.09s-.09985-.16-.2-.17a.78519.78519,0,0,0-.29.1.58609.58609,0,0,0-.48-.19,1.16053,1.16053,0,0,0-.5498.31,1.64526,1.64526,0,0,0-.93018-.04c-.51.13-.6499,1.08-.6499,1.08a2.69538,2.69538,0,0,0-.62012.41c-.22.22-.45.62-.78,1.04a2.42851,2.42851,0,0,0-.41992.73l-.54-.1c-.04-.47-.15991-.48-.23-.46-.07983.03-.1101.39-.1101.39-.10987.01-.11988.09-.12989.2s.06006.12.06006.12c-.05.37-.12012,1.32-.12012,1.32-.22.13-.85986.4-.90991.74a.54957.54957,0,0,0,.31006.6,1.93606,1.93606,0,0,1,.35986.27,1.38891,1.38891,0,0,0-.22.28c-.12011.18006.02.6.02.6a.506.506,0,0,0-.37011.67v.44a1.73505,1.73505,0,0,0-.48975,1.3,1.155,1.155,0,0,0,.87988.88c1.3999.35,2.37989,2.75,2.37989,2.75a4.741,4.741,0,0,0-2.52.47,8.096,8.096,0,0,0-.44.81,9.1275,9.1275,0,0,0-.7,2.06,10.70782,10.70782,0,0,0-.23,2.22c0,.3.01.47.01.47-.39013,1.16-1.62988,2.1-1.97,3.56a9.21543,9.21543,0,0,0,.1499,3.35.0098.0098,0,0,0,.01.01c.05.29.1001.49.11011.55a.031.031,0,0,0,.01.02.17275.17275,0,0,0,.02.07v.01c.16992.57,1.02979,3.4,1.2,4.4a6.50034,6.50034,0,0,1-.03,1.77.14812.14812,0,0,0-.01.07,1.99527,1.99527,0,0,0-.05.26,1.12015,1.12015,0,0,1-.04.21c-.00976.05-.02.1-.02978.15-.01025.03-.01025.06-.02.08v.00994c-.36011,1.87006-.82007,4.21-1.21,6.19.00976,0,.02978-.00995.03979-.00995l-.03.15c-.06982.28-.1499.64-.25,1.07-.04.25-.09985.52-.16992.82q-.07507.39-.1499.72c-.41016,1.93005-.95019,4.54-1.49023,7.35a.00973.00973,0,0,0-.00977.01c-.79,4.09-1.58008,8.6-1.97021,12.00995a29.51206,29.51206,0,0,1-4.7,13.22c.12012.04.24.08.36011.11.01,0,.02.01.03.01a3.63664,3.63664,0,0,0,.43994.07.10884.10884,0,0,0,.05.01c.12988.01.26.01995.37988.01995.12012,0,.23,0,.34009-.00994.75-.06,1.47-.26,2.15991-.36005a3.03288,3.03288,0,0,1,1.66016.15,3.47221,3.47221,0,0,0,.6499,2.91c3.87012-.04,5.21-1.42,5.21-1.42l.14991,1.06c3.57006.3,3.69018-.4,3.69018-.5a15.96746,15.96746,0,0,1,.21,2.22,8.84633,8.84633,0,0,0-.15014,2.52c-.09986,1.09-1.85987,3.59-1.85987,3.59a1.58756,1.58756,0,0,0-.45.09.8788.8788,0,0,0-.28.43006l-.14013.1a4.23562,4.23562,0,0,0-.3899.78c.1001.04.3501-.12.40992-.17-.00977.05-.08985.25-.32984.8-.28.66-.04.94.2.99a11.183,11.183,0,0,0,3.25-.29c1.21-.34,1.24-.63,1.52-2.31a3.06461,3.06461,0,0,1,1.78-2.26,6.67344,6.67344,0,0,1-.15015,1.8c-.07983.25995.08008.31.08008.31a.30506.30506,0,0,0,0,.18c.02.11.23.21.39014.22a1.49813,1.49813,0,0,0,.48975-.14,4.71955,4.71955,0,0,1,.62011-2.63c.35987-.74-.17993-2.34-.18994-3.65a18.253,18.253,0,0,1,.06006-1.96l.5.02a26.29193,26.29193,0,0,1,.40991,5.59c-.26,1.4-.72,3.69-.72,3.69a1.92694,1.92694,0,0,1-.68994-.00994c-.04.03-.07007.19-.07007.19l-.25-.01a5.71845,5.71845,0,0,0-.03,1.05,1.93023,1.93023,0,0,0,.83008-.1,2.45649,2.45649,0,0,0,.73,2.25995c1.04.18,2.72-1.21,3.11987-1.84a7.05678,7.05678,0,0,0,.75-2.23.71486.71486,0,0,0,.6001-.13995l-.13989-3.19a1.13087,1.13087,0,0,0,.13989-.69c-.03-.43-.24-.54-.24-.54a.34871.34871,0,0,0-.14014-.11s-.00976-.34-.08984-1.38a6.92992,6.92992,0,0,1,.37988-2.32,5.38611,5.38611,0,0,0,2.12012-.31995c2.22,1.25995,3.29.33,3.29.33a7.36468,7.36468,0,0,0-.17017-2.22c1.67994-1.73005,4.14014.62,7.33008-1.21C234.01567,72.58287,236.59574,46.53288,229.92582,40.90287Zm-15.1001-27.24a.556.556,0,0,1,0-.34.18308.18308,0,0,0-.09985-.12l.07983-.41.48.14A.86587.86587,0,0,1,214.82572,13.66288Z"/>
      <path class="cls-2" d="M221.49565,41.34288s-5.94-1.36-7.90992-2.12a32.689,32.689,0,0,1-4.99-2.48s-1.01-.86005-1.97-1.7a20.5597,20.5597,0,0,1-1.59008-1.5,2.84061,2.84061,0,0,0-.8899-.81l2.11011-2.67a2.58421,2.58421,0,0,0,.63989.43,37.76789,37.76789,0,0,0,4.38013,1.85c2.15636.7013,5.40541,1.18593,10.91542,2.93593C222.19134,35.27881,223.7559,39.41288,221.49565,41.34288Z"/>
      <path class="cls-2" d="M205.8057,29.44285a4.82123,4.82123,0,0,0-.99-1.61c-.33984-.36-1.05981-1.02-1.46-1.44a2.27674,2.27674,0,0,0-.63989-.55c-.13013-.24-.52-.43-.66992-.25-.19019.17-.03027.47-.03027.47.01025.97.88012,1.48.93017,1.7.03.21-.23.24-.23.24a5.0019,5.0019,0,0,0-1.43193-.20552c-.96.04-3.4198-1.54446-3.63708-1.25394-.22806.30492,1.64176,1.69255,2.4467,2.17473-.2312-.10571-1.21265-.67151-1.34815-.68109a5.05924,5.05924,0,0,0-.95312-.58014s-.7395-.41511-.88959-.279c-.07639.06931.01414.63769,1.03436,1.29183.44327.28421,1.61475,1.01184,1.97364,1.22174-.02735-.0014-.81836-.48627-.8418-.48474a5.06163,5.06163,0,0,0-1.02246-.447s-.729-.31254-.78516-.20954c-.04215.07728-.08386.48813,1.07952,1.16514.31943.18589,1.38606.79977,1.66267.91836-.15991-.045-1.08179-.56274-1.2063-.57092,0,0-.70735-.27075-.80664-.09937-.083.14318.53467,1.075,1.979,1.516,1.00171.30591,1.76416.49091,2.17261.58277a1.477,1.477,0,0,0,1.39356.54059,1.15966,1.15966,0,0,1,.6101.13l2.11011-2.67A1.55269,1.55269,0,0,1,205.8057,29.44285Z"/>
    </g>
  </g>
  <line class="cls-3" x1="259.03156" y1="24.4" x2="256.96156" y2="27.06"/>
  <g>
    <path class="cls-1" d="M268.18665,18.52538c-.01-.01-.01-.01-.02-.01-.86987-.42-1.78-.93-1.83984-2.03a.63019.63019,0,0,1,.55981-.67,11.63615,11.63615,0,0,1,1.31006-.01,1.028,1.028,0,0,0,.16992.01,1.44062,1.44062,0,0,0,.76026-.18c.56982-.35.37988-1.47.46972-1.63.1001-.16.49024-.59.37012-1a1.25573,1.25573,0,0,0,.33008-.53,1.72909,1.72909,0,0,0-.09009-.55c.09009.02.59009.18.82007.03.25-.17.27-.53.08008-.94a5.39694,5.39694,0,0,1-.28-.92s.37988-.87.38989-.98c.01-.1-.26-.17-.29-.1l-.18994-.05a2.68107,2.68107,0,0,0,.3501-.77c.06982-.34.0498-.37.0498-.37a1.87152,1.87152,0,0,0,.8-1.23.33315.33315,0,0,0,.36011-.13995,1.71855,1.71855,0,0,0-.5-1.75s.15991-.47-.43994-.71a2.20184,2.20184,0,0,0-1.17017-1.32,13.26358,13.26358,0,0,1-2.72-1.48c-.31983-.4-3.51-2.45-5.01,0,0,0-3.1499.1-3.23,3.85,0,0-.57007.44-.13013,2.69.44019,2.25.71021,4.19.99024,4.49a.43418.43418,0,0,0,.27978.15c-.12988.33-.75,1.55-3.10986,2.94a9.4118,9.4118,0,0,1-2,.63,2.7523,2.7523,0,0,0-2.03,1.35,26.405,26.405,0,0,0-2.56006,8.97,86.75091,86.75091,0,0,0,.81006,10.35c.01,0,.01,0,.01.01.19995,1.06.6499,3.34.72,3.69v.1c-.16992.72-1.84985,6.65-2.6499,9.43a1.15122,1.15122,0,0,0,1.13989,1.46c.1001,0,.18994-.01.27-.01a.24979.24979,0,0,1,.26.25l.04,1.68s.15991,15.31.90991,18.41c.01.01.01.02.01.04,0,.56-1.19995,12.38-.88989,14.45.31982,2.12.31982,1.04.31006,1.89-.01026.67-.21,1.33-.3,2.21-.14014,1.32.41992,3.95.25,5.04-.08008.43.72,1.05,1.02.9a3.234,3.234,0,0,1,1.24,1.77,3.43887,3.43887,0,0,0,2.65991,2.05,8.91455,8.91455,0,0,0,1.38013-.05c1.00976-.14.58984-2.4.25976-2.96-.96973-1.61-.83984-1.47-.78979-2.2a.24634.24634,0,0,1,.11987-.21,7.5732,7.5732,0,0,0,1.18018-3.16,14.08907,14.08907,0,0,0,.13989-4.01.24661.24661,0,0,1,.09009-.28c.25-.17.27-.75.21-2.79-.09009-2.79-.02-8.91.11987-9.76a.08994.08994,0,0,1,.01-.05,12.93815,12.93815,0,0,0,.6499-3.78c.2002-2.77.42017-7.97.42017-7.97s-.1001,8.69,1.01,11.75a.141.141,0,0,1,.01.09,33.91336,33.91336,0,0,0-.13013,5.26,6.33978,6.33978,0,0,1-.06982,3.29,6.59953,6.59953,0,0,0,.50976,4.93.26041.26041,0,0,1-.01977.27c-.33008.41-1.34009,1.7-1.31006,2.32a3.36441,3.36441,0,0,0,.72,1.6,2.75123,2.75123,0,0,1,.14014,1.07.18236.18236,0,0,0,.05981.17,3.361,3.361,0,0,0,1.55.83l.62988-.06a3.2606,3.2606,0,0,1,.86011,1.15,2.8569,2.8569,0,0,0,1.15991,1.57,4.80181,4.80181,0,0,0,4.14014.58,5.0579,5.0579,0,0,0,.65991-.24.71474.71474,0,0,0,.33008-.85,7.01825,7.01825,0,0,0-1.22-2.36,12.20531,12.20531,0,0,1-2.04-2.18.22958.22958,0,0,1-.04-.14l-.10986-7.36a.26106.26106,0,0,0-.30005-.25,18.60571,18.60571,0,0,1-2.19019.32c-.10986.01-.21973.01-.33984.01s-.25-.01-.37989-.02a.10921.10921,0,0,1-.05029-.01,2.2433,2.2433,0,0,1-.43994-.07c-.00977,0-.02-.01-.02978-.01-.12012-.03-.24024-.07-.36011-.11a29.512,29.512,0,0,0,4.7-13.22c.39014-3.41,1.18017-7.92,1.97-12.01a.0098.0098,0,0,1,.01-.01c.54-2.81,1.08008-5.42,1.49-7.35q.07507-.33.15015-.72c.06982-.3.12988-.57.16992-.82.1001-.43.17993-.79.25-1.07l.03-.15c-.01,0-.03.01-.04.01.45-2.27-.71-5.01-.33008-6.97,0,0,.15015-4.25.2-6.49.08008.05.17017.09.26026.14a42.83037,42.83037,0,0,1-.43018-6.36l-.03-.67a5.35722,5.35722,0,0,1,.16016-1.25v-.01a2.724,2.724,0,0,1,.67993-1.39v-.00995c.58008-.87006,1.07007-1.53,1.47-2.03C270.30677,18.76537,269.03675,18.83538,268.18665,18.52538Zm2.44019-9.4c.11987.03.25.04.21.23a1.334,1.334,0,0,1-.19.39S270.46668,9.34533,270.62684,9.12536Z"/>
    <g>
      <path class="cls-2" d="M291.66663,41.30535c-2.24-3.5-1.21-4.17-1.07007-4.43a7.16927,7.16927,0,0,0,.83008-1.58,9.34939,9.34939,0,0,0,.38013-2.88c-.09009-6.88-.86638-6.725-.86638-6.725a1.24757,1.24757,0,0,0-.25925-1.70272s.06494-1.24112-.375-1.36111c-.43994-.11-.45-.35-.45-.35a.86165.86165,0,0,0,.75-.36,4.0187,4.0187,0,0,1-.75-.04,1.87128,1.87128,0,0,1,.03792-.67593.69231.69231,0,0,0-.28241-.588c.34383-.11731.345-.58722.345-.58722-.23.23-.90065.36737-1.21071-.6026-.31983-.97.14064-1.07745-.00926-1.50744-.07007-.24-.48-.4-.87012-.68a1.69168,1.69168,0,0,1-.71-1.42,10.05746,10.05746,0,0,0-.06982-2.82,4.2657,4.2657,0,0,0-1.42017-2.27,2.08551,2.08551,0,0,0-1.37988-.86.35243.35243,0,0,0-.36011-.18c-.11987-.15-.49-.18-.49-.18a.51263.51263,0,0,0-.49-.27.4724.4724,0,0,0-.41992-.17.44268.44268,0,0,0-.18018-.09c-.08984-.03-.23.07-.23.07a.59843.59843,0,0,0-.27978-.17.34078.34078,0,0,0-.32007.09s-.1001-.16-.2-.17a.78339.78339,0,0,0-.29.1.58609.58609,0,0,0-.48-.19,1.16189,1.16189,0,0,0-.55.31,1.64424,1.64424,0,0,0-.92993-.04c-.51.13-.65015,1.08-.65015,1.08a2.69575,2.69575,0,0,0-.61987.41c-.22.22-.4502.62-.78,1.04a2.42664,2.42664,0,0,0-.42017.73l-.53979-.1c-.04-.47-.15992-.48-.23-.46-.08008.03-.11011.39-.11011.39-.10986.01-.12012.09-.12988.2-.01.11.06.12.06.12-.05029.37-.12011,1.32-.12011,1.32-.22.13-.86011.4-.91016.74a.55017.55017,0,0,0,.31006.6,1.932,1.932,0,0,1,.36011.27,1.3785,1.3785,0,0,0-.22.28c-.12012.18.02.6.02.6a.506.506,0,0,0-.37012.67v.44a1.73586,1.73586,0,0,0-.49,1.3,1.15552,1.15552,0,0,0,.88013.88c1.3999.35,2.37988,2.75,2.37988,2.75a5.011,5.011,0,0,0-2,.25h-.01a4.388,4.388,0,0,0-.40991.17l-.06006.03c-.02.02-.04.03-.06006.05a7.10981,7.10981,0,0,0-1.22,1.2c-.3999.5-.88989,1.16-1.47,2.03v.00995a2.724,2.724,0,0,0-.67993,1.39v.01a5.35722,5.35722,0,0,0-.16016,1.25l.03.67a42.83037,42.83037,0,0,0,.43018,6.36c.02978.15.06982.33.10986.54.35986,1.9,1.12012,5.81,1.12012,5.81-.38013,1.96-.91016,4.7-1.36011,6.97.01,0,.03-.01.04-.01l-.03.15c-.07007.28-.1499.64-.25,1.07-.04.25-.1001.52-.16992.82q-.07508.39-.15015.72c-.40991,1.93-.95,4.54-1.49,7.35a.0098.0098,0,0,0-.01.01c-.7898,4.09-1.57983,8.6-1.97,12.01a29.512,29.512,0,0,1-4.7,13.22c.11987.04.24.08.36011.11.00976,0,.02.01.02978.01a3.64434,3.64434,0,0,0,.43994.07.10921.10921,0,0,0,.05029.01c.12989.01.25977.02.37989.02s.23,0,.33984-.01c.75-.06,1.47022-.26,2.16016-.36a3.032,3.032,0,0,1,1.65991.15,3.47274,3.47274,0,0,0,.65015,2.91c3.86987-.04,5.21-1.42,5.21-1.42l.1499,1.06c3.57007.3,3.68994-.4,3.68994-.5a15.92731,15.92731,0,0,1,.21,2.22,8.85569,8.85569,0,0,0-.1499,2.52c-.1001,1.09-1.85986,3.59-1.85986,3.59a1.591,1.591,0,0,0-.4502.09.87748.87748,0,0,0-.27978.43006l-.14014.1a4.21813,4.21813,0,0,0-.38989.78c.09985.04.34985-.12.40991-.17-.01.05-.08985.25-.33008.8-.27978.66-.04.94.2002.99a11.18418,11.18418,0,0,0,3.25-.29c1.21-.34,1.23974-.63,1.52-2.31a3.06453,3.06453,0,0,1,1.77978-2.26,6.665,6.665,0,0,1-.1499,1.8c-.08008.26.08008.31.08008.31a.30506.30506,0,0,0,0,.18c.02.11.23.21.38989.22a1.49991,1.49991,0,0,0,.49-.14,4.71739,4.71739,0,0,1,.62012-2.63c.35986-.74-.18018-2.34-.19-3.65a18.32577,18.32577,0,0,1,.05982-1.96l.5.02.63989.03a24.71128,24.71128,0,0,1,.84009,5.45c-.13989,1.41-.40991,3.73-.40991,3.73a1.83667,1.83667,0,0,1-.68994.05c-.04.03-.06006.19-.06006.19l-.25.02a6.03906,6.03906,0,0,0,.06006,1.04,1.95422,1.95422,0,0,0,.81982-.16,2.46142,2.46142,0,0,0,.91016,2.19c1.0498.1,2.60986-1.43,2.96-2.09a7.05824,7.05824,0,0,0,.56982-2.28.67992.67992,0,0,0,.58008-.19l-.3999-3.17a1.13029,1.13029,0,0,0,.08984-.7c-.06982-.42-.28979-.51-.28979-.51a.27854.27854,0,0,0-.14014-.1s-.0398-.34-.21-1.37a5.91772,5.91772,0,0,1,.11011-1.91,5.18312,5.18312,0,0,0,1.57983-.32c2.22,1.26,3.29.33,3.29.33a7.36035,7.36035,0,0,0-.16992-2.22c1.67993-1.73,2.76.62,5.95-1.21C294.9867,72.55535,296.27674,48.50536,291.66663,41.30535Zm-15.63989-27.98a.55589.55589,0,0,1,0-.34.183.183,0,0,0-.1001-.12l.08008-.41.48.14A.8665.8665,0,0,1,276.02674,13.32537Z"/>
      <path class="cls-2" d="M279.34656,36.20538s-5.87988-1.57-7.81982-2.4a27.67649,27.67649,0,0,1-9.05-6.73l2.07007-2.66a2.7463,2.7463,0,0,0,.60009.42s3.15666,1.33277,5.00652,2.30274c2.22222,1.09948,4.72672.53835,10.16666,2.48837C280.32,29.62649,281.68665,34.35534,279.34656,36.20538Z"/>
      <path class="cls-2" d="M264.48925,24.288a3.54734,3.54734,0,0,0-.6871-1.5194c-.26033-.42107-.83255-1.21264-1.13986-1.70463a2.27692,2.27692,0,0,0-.51595-.66765c-.0791-.26128-.42272-.526-.60581-.37985-.22054.12817-.12435.45423-.12435.45423-.18541.9522.56386,1.627.56856,1.85257-.01291.21176-.27362.18873-.27362.18873a7.53474,7.53474,0,0,0-1.62252-.665c-.94834-.1542-2.68139-2.11582-3.079-1.76486-.27935.24659,1.29758,1.96763,1.98885,2.60211-.20516-.15013-1.05248-.90207-1.18326-.93876a5.05889,5.05889,0,0,0-.81669-.76029s-.63078-.531-.79112-.4264c-.13866.09042-.18824.495.72884,1.44767.36518.37936,1.37775,1.31645,1.687,1.59436-.0265-.00688-.70359-.64119-.72686-.64442a5.062,5.062,0,0,0-.91143-.64381s-.48553-.49806-.72683-.36344c-.14447.0807-.41135.485.80232,1.38383.297.22,1.21677,1.03757,1.46382,1.20947-.14757-.07628-.98-.72267-1.10029-.75577,0,0-.56819-.43922-.73631-.30636-.12983.10259.3071,1.16069,1.63294,1.88371a9.09677,9.09677,0,0,0,2.05137.8146,8.85471,8.85471,0,0,1,1.46222.40309,2.80589,2.80589,0,0,1,.69659.55646l2.46961-2.25274C264.84833,24.68056,264.52712,24.551,264.48925,24.288Z"/>
    </g>
  </g>
  <path class="cls-1" d="M404.25425,40.42334c-.00811.11972-.36081.2963-.62766.38845a.53555.53555,0,0,0-.11312.04244,2.07586,2.07586,0,0,1-.2163.08555.16109.16109,0,0,1-.07255.03522c-.0712.01518-.13309.04108-.21489.06558-.03063.008-.0712.01524-.12248.03183-.13235.0311-.30471.05956-.507.08592a8.69588,8.69588,0,0,1-.93666.06685s.56195.13827.80935.18513a4.54608,4.54608,0,0,1,.96038.17531c.20219-.02637.47685.0624.46671.212-.00946.1397-.132.32183-.7048.34316-.15171.01976-.4637.03875-.79493.04635-.12046.00187-.23087.00442-.35194.01628a1.11314,1.11314,0,0,0-.17094.00843,8.71114,8.71114,0,0,1-4.55738-.48918s-.7787.98967-1.65528.91021c-.86671-.07878-1.33223-.75181-3.50355-1.24969l-3.80078-.60277c-.05.147.374-1.37783.62322-2.98466a4.40131,4.40131,0,0,0-.34068-2.36847c.00925.01066,2.69681.3275,2.70679.32817a1.92361,1.92361,0,0,1,.94935.48527.32847.32847,0,0,0,.32386.10214,1.25117,1.25117,0,0,1,1.01228.14879,6.921,6.921,0,0,0,.92261.58366c.1955.07338.77907-.10756,1.10745.075s.44207.28052.62165.29269a1.756,1.756,0,0,1,1.02174.00909.34847.34847,0,0,0,.37726-.09471,2.04127,2.04127,0,0,1,1.14364-.75438c.69789-.09305,2.41964-.94865,2.63505-.87392.21614.0648.29936.61166.10153.86889a13.979,13.979,0,0,1-1.66849.809c-.10792.113.94056.615,1.30175.60941a9.02914,9.02914,0,0,1,1.80586.12235c.61181.14166,1.27642.09645,1.25006.48557-.035.36848-.84585.35367-1.75327.43246l-.0299-.002-.70247.01254s1.33291.15044,1.66413.14285l.03995.0027c.28136-.011,1.089-.09659,1.05788.36232-.01892.27939-.774.32844-.917.36885a17.60043,17.60043,0,0,1-1.85948.22486s.06985.00473.18026.00218c.36982.015,1.14146.0172,1.68494-.01615l.03994.00271C404.13558,40.10459,404.26845,40.2138,404.25425,40.42334Z"/>
  <g>
    <path class="cls-2" d="M352.66683,41.30535c-2.24-3.5-1.21-4.17-1.07007-4.43a7.17986,7.17986,0,0,0,.83008-1.58,9.932,9.932,0,0,0,.37988-2.88c.05-6.17774-.81106-6.09441-.81106-6.09441.15483-1.20864.26075-1.86594-.02778-2.38889-.44444-.80555-.82125-.7601-1.02778-1.16667-.26257-.5169.11112-1.05555-.19444-1.63888-.36451-.6959-.718-.33559-1.02778-1.30556-.32007-.97.16892-1.4756.01877-1.90559-.07432-.62219-.33558-.7-.72547-.98a1.69107,1.69107,0,0,1-.71-1.42,8.54382,8.54382,0,0,0-.21447-2.52,4.26449,4.26449,0,0,0-1.41992-2.27,2.08581,2.08581,0,0,0-1.38013-.86.352.352,0,0,0-.35986-.18c-.12012-.15-.49-.18-.49-.18a.51263.51263,0,0,0-.49-.27.473.473,0,0,0-.42017-.17.44071.44071,0,0,0-.17993-.09c-.09009-.03-.23.07-.23.07a.59838.59838,0,0,0-.28-.17.34018.34018,0,0,0-.31982.09s-.1001-.16-.2002-.17a.78519.78519,0,0,0-.29.1.58609.58609,0,0,0-.48-.19,1.16054,1.16054,0,0,0-.5498.31,1.64531,1.64531,0,0,0-.93018-.04c-.51.13-.6499,1.08-.6499,1.08a2.70055,2.70055,0,0,0-.62012.41c-.22.22-.45.62-.77978,1.04a2.42664,2.42664,0,0,0-.42017.73l-.54-.1c-.03979-.47-.15991-.48-.23-.46-.07983.03-.11011.39-.11011.39-.10986.01-.11987.09-.12988.2s.06006.12.06006.12c-.05.37-.12012,1.32-.12012,1.32-.22.13-.85986.4-.90991.74a.54957.54957,0,0,0,.31006.6,1.93606,1.93606,0,0,1,.35986.27,1.38891,1.38891,0,0,0-.22.28c-.11987.18.02.6.02.6a.506.506,0,0,0-.37012.67v.44a1.73506,1.73506,0,0,0-.48974,1.3,1.155,1.155,0,0,0,.87988.88c1.3999.35,2.37988,2.75,2.37988,2.75a5.01233,5.01233,0,0,0-2,.25h-.00976a4.37165,4.37165,0,0,0-.41016.17l-.06006.03c-.02.02-.04.03-.05981.05a7.10981,7.10981,0,0,0-1.22,1.2c-.40015.5-.89014,1.16-1.47022,2.03v.00995a2.724,2.724,0,0,0-.67993,1.39v.01a5.35842,5.35842,0,0,0-.15991,1.25l.03.67a54.65889,54.65889,0,0,0,.53979,6.88c.04.2.07007.4.11011.6.38013,2.01,1.01,5.23,1.01,5.23-.37988,1.96-.90991,4.7-1.35986,6.97.00976,0,.02978-.01.03979-.01l-.03.15c-.06982.28-.1499.64-.25,1.07-.04.25-.09985.52-.16992.82q-.07508.39-.1499.72c-.41016,1.93-.9502,4.54-1.49,7.35a.0098.0098,0,0,0-.01.01c-.79,4.09-1.58008,8.6-1.97022,12.01a29.51365,29.51365,0,0,1-4.6997,13.22c.11987.04.23974.08.35986.11.01,0,.02.01.03.01a3.63656,3.63656,0,0,0,.43994.07.10884.10884,0,0,0,.05.01c.12988.01.26.02.37988.02.12012,0,.23,0,.34009-.01.75-.06,1.47-.26,2.15991-.36a3.03288,3.03288,0,0,1,1.66016.15,3.47223,3.47223,0,0,0,.6499,2.91c3.87012-.04,5.21-1.42,5.21-1.42l.15015,1.06c3.57007.3,3.68994-.4,3.68994-.5a15.96733,15.96733,0,0,1,.21,2.22,8.84662,8.84662,0,0,0-.1499,2.52c-.1001,1.09-1.86011,3.59-1.86011,3.59a1.58756,1.58756,0,0,0-.45.09.8788.8788,0,0,0-.28.43006l-.14014.1a4.236,4.236,0,0,0-.38989.78c.1001.04.3501-.12.40991-.17-.00976.05-.08984.25-.32983.8-.28.66-.04.94.2.99a11.18368,11.18368,0,0,0,3.25-.29c1.21-.34,1.24-.63,1.52-2.31a3.06461,3.06461,0,0,1,1.78-2.26,6.67385,6.67385,0,0,1-.15015,1.8c-.07983.26.08008.31.08008.31a.30506.30506,0,0,0,0,.18c.02.11.23.21.39014.22a1.49824,1.49824,0,0,0,.48974-.14,4.71958,4.71958,0,0,1,.62012-2.63c.36011-.74-.17993-2.34-.18994-3.65a18.253,18.253,0,0,1,.06006-1.96l.5.02.63989.03a24.741,24.741,0,0,1,.84009,5.45c-.14014,1.41-.41016,3.73-.41016,3.73a1.83661,1.83661,0,0,1-.68994.05c-.04.03-.06006.19-.06006.19l-.25.02a6.03906,6.03906,0,0,0,.06006,1.04,1.95589,1.95589,0,0,0,.82007-.16,2.46165,2.46165,0,0,0,.90991,2.19c1.05.1,2.61011-1.43,2.96-2.09a7.06417,7.06417,0,0,0,.57007-2.28.67992.67992,0,0,0,.58008-.19l-.40015-3.17a1.12922,1.12922,0,0,0,.09009-.7c-.07007-.42-.29-.51-.29-.51a.27742.27742,0,0,0-.13989-.1s-.04-.34-.21-1.37a5.911,5.911,0,0,1,.10986-1.91,5.186,5.186,0,0,0,1.58008-.32c2.22,1.26,3.29.33,3.29.33a7.36478,7.36478,0,0,0-.17017-2.22c1.67993-1.73,2.76.62,5.95-1.21C355.98665,72.55535,357.27669,48.50536,352.66683,41.30535Zm-15.64014-27.98a.55589.55589,0,0,1,0-.34.1821.1821,0,0,0-.09985-.12l.07983-.41.48.14A.86585.86585,0,0,1,337.02669,13.32537Z"/>
    <path class="cls-2" d="M337.05672,34.13537a66.16953,66.16953,0,0,1-7.35986-3.58,35.94027,35.94027,0,0,1-7.94019-8.08l2.99289-2.11a.63062.63062,0,0,0,.39334.66781,20.67578,20.67578,0,0,1,3.51017,2.76c1.92618,1.99337,5.21023,1.57333,10.29031,4.33334C338.94338,28.12649,339.64681,32.67535,337.05672,34.13537Z"/>
    <path class="cls-2" d="M324.7537,20.68205a3.54735,3.54735,0,0,0-.388-1.62175c-.1762-.46264-.58877-1.348-.79772-1.88911a2.277,2.277,0,0,0-.3807-.753c-.02838-.27152-.31587-.59627-.52325-.48734-.24076.08425-.20782.4226-.20782.4226-.36176.90011.24671,1.7042.20876,1.92658-.05263.20552-.30432.1337-.30432.1337a7.53456,7.53456,0,0,0-1.46787-.95924c-.90221-.33039-2.349-2.494-2.70051-2.30854-.39869.21038.91284,2.17152,1.472,2.925-.17315-.18615-.86335-1.08447-.98486-1.14518a5.05913,5.05913,0,0,0-.65855-.90074s-.52082-.59048-.68055-.5244c-.13509.05589-.27138.51437.42668,1.51558.30126.43186,1.10458,1.55277,1.35582,1.884-.02473-.01176-.57-.76243-.5922-.77a5.062,5.062,0,0,0-.77357-.80424s-.47653-.64956-.71566-.51111c-.13246.07669-.18126.59956.59724,1.52742.23755.28312.99913,1.24853,1.20929,1.464-.13052-.10275-.78407-.9339-.896-.98911,0,0-.4595-.52258-.7072-.4005-.14843.07315.08255,1.19779,1.24815,2.158a9.09726,9.09726,0,0,0,1.8608,1.18706,8.8543,8.8543,0,0,1,1.35988.67176,2.80583,2.80583,0,0,1,.57908.67791l2.85033-1.74626C325.03224,21.13536,324.74125,20.94749,324.7537,20.68205Z"/>
  </g>
  <path class="cls-1" d="M343.76319,40.23012c-.02046.11824-.38955.25737-.6645.32142a.53548.53548,0,0,0-.1169.0305,2.07527,2.07527,0,0,1-.224.06271.161.161,0,0,1-.07581.02752c-.07238.00773-.13662.0271-.22051.043-.0313.00474-.0724.00779-.12513.019-.13485.01724-.30924.02771-.51313.033a8.69646,8.69646,0,0,1-.93855-.03044s.54462.19568.78585.26789a4.54511,4.54511,0,0,1,.93708.27374c.20384-.00531.46783.11141.44227.25918-.02387.138-.16463.30644-.73653.26839-.15293.004-.46522-.00944-.79545-.03616-.12-.0106-.23009-.01949-.35174-.02022a1.11275,1.11275,0,0,0-.1709-.00931,8.711,8.711,0,0,1-4.48229-.95812s-.87693.90378-1.74058.73405c-.85391-.16805-1.24729-.88563-3.35544-1.60552l-3.718-.99281c-.065.141.51458-1.33174.92871-2.90415a4.40124,4.40124,0,0,0-.09378-2.391c.0081.01155,2.64845.60479,2.65831.60649a1.92365,1.92365,0,0,1,.894.5809.32845.32845,0,0,0,.31155.1351,1.25121,1.25121,0,0,1,.99144.25273,6.9199,6.9199,0,0,0,.85728.676c.18685.09321.786-.02637,1.09373.18922s.41068.32476.588.35544a1.75609,1.75609,0,0,1,1.01532.11477.34848.34848,0,0,0,.385-.05517,2.04125,2.04125,0,0,1,1.21555-.632c.70377-.02034,2.50481-.69319,2.71133-.59657.20828.08682.23447.63935.01108.87473a13.97906,13.97906,0,0,1-1.74325.63206c-.119.10119.87188.709,1.23171.74084a9.029,9.029,0,0,1,1.7835.30855c.59388.2042,1.2596.228,1.19311.61232-.07294.36287-.8779.26424-1.78861.24872l-.02953-.00511-.7-.06021s1.31019.28755,1.64042.31427l.03946.00683c.281.01813,1.09312.0166,1.01471.46983-.04773.27593-.8038.24659-.95023.272a17.60014,17.60014,0,0,1-1.87276.03124s.069.01194.17906.02082c.36629.05321,1.13356.13522,1.67757.15829l.03945.00683C343.67813,39.9008,343.799,40.02317,343.76319,40.23012Z"/>
  <path class="cls-1" d="M278.52673,42.28922c-.03122.11586-.41151.22054-.69118.25909a.535.535,0,0,0-.11921.01965,2.07422,2.07422,0,0,1-.22879.04189.161.161,0,0,1-.078.02045c-.07279.00106-.13853.01444-.22353.02258-.0316.00185-.07281.00112-.12634.00742-.13587.0048-.31047-.00078-.514-.01421a8.69719,8.69719,0,0,1-.93179-.11643s.52437.24483.75795.33887a4.546,4.546,0,0,1,.908.35856c.20347.01342.45564.15387.41662.29867-.03642.1352-.19205.29-.758.19968-.15266-.0101-.4624-.05209-.78879-.109-.11852-.02157-.22732-.04052-.3484-.0524a1.11168,1.11168,0,0,0-.16932-.025,8.71107,8.71107,0,0,1-4.37547-1.36535,2.3231,2.3231,0,0,1-1.80059.57124c-.83488-.24569-1.16076-.99634-3.194-1.90663l-3.61123-1.32978c-.07763.13446.63461-1.2789,1.19127-2.80668a4.40122,4.40122,0,0,0,.126-2.38953c.007.01225,2.58178.84525,2.59145.84786a1.92361,1.92361,0,0,1,.837.66047.32848.32848,0,0,0,.29784.16313,1.2512,1.2512,0,0,1,.96408.34263,6.9202,6.9202,0,0,0,.79162.7518c.17752.11.78513.04587,1.07177.28878s.37913.36108.55293.4079a1.75613,1.75613,0,0,1,1.0005.20745.34847.34847,0,0,0,.38847-.01961A2.04126,2.04126,0,0,1,273.732,37.445c.70267.04432,2.55785-.46044,2.75464-.34528.19943.10557.17481.65817-.06924.87206a13.97948,13.97948,0,0,1-1.79389.46944c-.12781.08984.80315.786,1.15853.85073a9.02853,9.02853,0,0,1,1.74767.4709c.57264.25783,1.23336.34262,1.1319.71921-.10593.35465-.89845.18257-1.80389.08355l-.02894-.00779-.69151-.12419s1.27827.40656,1.60466.46347l.03866.01041c.27814.04385,1.087.11684.96732.561-.07285.27039-.823.1718-.97117.18365a17.59959,17.59959,0,0,1-1.86774-.14073s.0676.01822.1764.03717c.35986.08659,1.11637.23866,1.656.31155l.03866.01041C278.47225,41.95348,278.58137,42.08643,278.52673,42.28922Z"/>
</svg>
