<svg id="Capa_1" data-name="Capa 1" xmlns="http://www.w3.org/2000/svg" viewBox="0 0 52.59343 100">
  <defs>
    <style>
      .cls-1 {
        fill: #e9e9e9;
      }

      .cls-2 {
        fill: #dbdbdb;
      }
    </style>
  </defs>
  <path class="cls-1" d="M26.2491,23.5c-.65991-4.73-1.90991-4.19-1.90991-4.19-.38013-.68-1.07007-.72-2.03-1.16a13.3567,13.3567,0,0,1-2.17993-1.04c-.7-.43-.88013-1.06-.57007-1.3,1.77.26,1.87988.09,1.99.05h.02a1.63562,1.63562,0,0,0,.41992-.41,11.18223,11.18223,0,0,0,.42993-1.69c.11011-.16.3003-.34.3003-.56a.77824.77824,0,0,0-.09009-.37005c.21-.04.26-.17.3-.37a2.51544,2.51544,0,0,0-.01026-.7s.56006.13.79-.14a.67857.67857,0,0,0,.04-.67A10.45708,10.45708,0,0,0,24.419,9.2a.805.805,0,0,0-.90991-.15l-.2-.03a.54915.54915,0,0,0-.22-.14,1.89616,1.89616,0,0,0,.48-1.28c2.13013-1.79.88013-2.8.88013-2.8.80981-1.14-3.82007-3.39-4.15015-3.5A5.26359,5.26359,0,0,0,17.189,0a1.96427,1.96427,0,0,0-2.21,1.5c-5.36987-.31-3.52,8.23-3.22,8.84.72,1.46-1.32983,3.01-2.6499,4.18a.031.031,0,0,0-.02.01,13.36959,13.36959,0,0,1-3.3501,1.4,2.75331,2.75331,0,0,0-2.03,1.35,26.4,26.4,0,0,0-2.55981,8.97A86.76652,86.76652,0,0,0,1.95906,36.6c.01026,0,.01026,0,.01026.01.1997,1.06.6499,3.34.71972,3.69v.1c-.16992.72-1.84985,6.65-2.6499,9.43a1.15148,1.15148,0,0,0,1.14014,1.46c.09985,0,.18994-.01.27-.01a.24972.24972,0,0,1,.25976.25l.04,1.68s.16016,15.31.91016,18.41c.00976.01.00976.02.00976.04,0,.56.04,12.38.3501,14.45a28.33905,28.33905,0,0,1,.54,3.32c-.01.67-.21,1.33-.3,2.21a7.55577,7.55577,0,0,0,.26,3.66,7.221,7.221,0,0,0-.08984,2.63,2.32916,2.32916,0,0,0,2.07983,2.05,4.84993,4.84993,0,0,0,1.38013-.05c1.29-.26,1.17993-1.93,1.18994-2.56a19.05754,19.05754,0,0,1,.3999-2.61.24659.24659,0,0,1,.12012-.21,2.52124,2.52124,0,0,0,1.19995-1.67,11.425,11.425,0,0,0-.24-5.5.2466.2466,0,0,1,.09009-.28c.25-.17.68994-.75.62988-2.79-.09009-2.79-.02-8.91.12012-9.76a.08994.08994,0,0,1,.01-.05,12.94849,12.94849,0,0,0,.6499-3.78c.19995-2.77.92993-7.97.92993-7.97s-.09985,8.69,1.01,11.75a.141.141,0,0,1,.01.09,33.91788,33.91788,0,0,0-.12988,5.26,6.33715,6.33715,0,0,1-.07007,3.29,6.601,6.601,0,0,0,.51,4.93.25987.25987,0,0,1-.02.27c-.32983.41-1.34009,1.7-1.31006,2.32a3.3645,3.3645,0,0,0,.72,1.6,2.74653,2.74653,0,0,1,.14014,1.07.18313.18313,0,0,0,.06006.17,3.35789,3.35789,0,0,0,1.5498.83l.63013-.06a3.26375,3.26375,0,0,1,.86011,1.15,2.85429,2.85429,0,0,0,1.15991,1.57,4.80115,4.80115,0,0,0,4.13989.58,5.07673,5.07673,0,0,0,.66016-.24.71462.71462,0,0,0,.32983-.85,7.01369,7.01369,0,0,0-1.22-2.36,12.22389,12.22389,0,0,1-2.04-2.18.23122.23122,0,0,1-.04-.14l-.10986-7.36a.261.261,0,0,0-.30005-.25,18.607,18.607,0,0,1-2.18994.32c-.11011.01-.22.01-.34009.01-.11987,0-.25-.01-.37988-.02a.10884.10884,0,0,1-.05005-.01,2.23743,2.23743,0,0,1-.43994-.07c-.01,0-.02-.01-.03-.01-.12012-.03-.24-.07-.36011-.11A29.512,29.512,0,0,0,19.439,71.08c.39014-3.41,1.18018-7.92,1.97022-12.00995a.00973.00973,0,0,1,.00976-.01c.54-2.81,1.08008-5.42,1.49024-7.35q.0747-.33.1499-.72c.07007-.3.12988-.57.16992-.82.1001-.43.18018-.79.25-1.07l.03-.15c-.01,0-.03.01-.03979.01.4497-2.27.98-5.01,1.35986-6.97-2.12988-.7-4.42993-1.7-4.42993-1.7s-3.44019-1.81-4.06006-2.3c-.61011-.5-1.1001-.73-1.61987-.58a1.31858,1.31858,0,0,1-1.52-.28,1.11156,1.11156,0,0,1-.81006-.7.82273.82273,0,0,1-.36011-.61A1.26171,1.26171,0,0,1,11.60921,34.71s-.94019-.46-.96-1a.72214.72214,0,0,1,.30981-.7l.17017.17a.62416.62416,0,0,1,.57983.16,3.43093,3.43093,0,0,1,.51026.02c.1499.02.38989-.31.71-.23,0,0,.23-.09.1499-.29-.09009-.2-1.59009-.89-1.81006-1.83,0,0-.22-.27-.08984-.47.11987-.2.50976-.11.69995.08a2.58435,2.58435,0,0,1,.72.4c.46.32,1.8501,1.19,2.25,1.46a4.82359,4.82359,0,0,1,1.3,1.35,2.19228,2.19228,0,0,0,1.25.77,42.47023,42.47023,0,0,0,4.57007,1.21c.73974.11,1.33984.2,1.75.25a2.89831,2.89831,0,0,1-.08008-.32l-.01-.02c-.01-.06-.06006-.26-.11011-.55a.0098.0098,0,0,1-.01-.01,9.21536,9.21536,0,0,1-.1499-3.35c.34009-1.46,1.57983-2.4,1.97-3.56,0,0-.01-.17-.01-.47a10.70776,10.70776,0,0,1,.23-2.22A9.12691,9.12691,0,0,1,26.2491,23.5ZM24.06917,9.48a.25291.25291,0,0,1-.01.11l-.29-.04A.3745.3745,0,0,1,24.06917,9.48Zm-.41992.18.34985.07a1.18256,1.18256,0,0,1-.06982.44,7.63752,7.63752,0,0,1-.29.76l-.25-.53A5.66638,5.66638,0,0,1,23.64925,9.66Z"/>
  <path class="cls-2" d="M42.85343,40.54805a5.56782,5.56782,0,0,0,1.3501-3.52c.04981-7.88-1.89013-11.79-1.89013-11.79.66015-.99-.28-1.28-.28-1.28s-.16993-1.06-.60987-1.18c-.44018-.11-.44995-.35-.44995-.35a.86168.86168,0,0,0,.75-.36,4.01669,4.01669,0,0,1-.75-.04c-.04-.41.11988-.45.15991-.82a.59546.59546,0,0,0-.21-.54.88183.88183,0,0,0,.76-.66c-.23.23-1.47021.64-1.78-.33-.32006-.97.71-1.35.55982-1.78-.07984-.25-.51978-.42-.92993-.72a1.70892,1.70892,0,0,1-.64991-1.43,9.69422,9.69422,0,0,0-.07006-2.77,4.26459,4.26459,0,0,0-1.41993-2.27,2.08548,2.08548,0,0,0-1.37988-.86.35243.35243,0,0,0-.36011-.18c-.12011-.15-.49-.18-.49-.18a.51265.51265,0,0,0-.49-.27.473.473,0,0,0-.42016-.17.44088.44088,0,0,0-.17993-.09c-.09009-.03-.23.07-.23.07a.59845.59845,0,0,0-.28-.17.3402.3402,0,0,0-.31983.09s-.1001-.16-.20019-.17a.78512.78512,0,0,0-.29.1.58611.58611,0,0,0-.48-.19,1.16058,1.16058,0,0,0-.54981.31,1.64532,1.64532,0,0,0-.93017-.04c-.51.13-.64991,1.08-.64991,1.08a2.70054,2.70054,0,0,0-.62011.41c-.22.22-.45.62-.77979,1.04a2.42647,2.42647,0,0,0-.42016.73l-.54-.1c-.0398-.47-.15992-.48-.23-.46-.07984.03-.10987.39-.10987.39-.1101.01-.12011.09-.13012.2s.06.12.06.12c-.05.37-.12011,1.32-.12011,1.32-.22.13-.85987.4-.90991.74a.54958.54958,0,0,0,.31.6,1.94107,1.94107,0,0,1,.36011.27,1.38378,1.38378,0,0,0-.22021.28c-.11988.18.02.6.02.6a.506.506,0,0,0-.36988.67v.44a1.73485,1.73485,0,0,0-.49,1.3,1.155,1.155,0,0,0,.87989.88c1.3999.35,2.37988,2.75,2.37988,2.75a4.73984,4.73984,0,0,0-2.51978.47,8.05041,8.05041,0,0,0-.44018.81,9.1385,9.1385,0,0,0-.7,2.06,10.70706,10.70706,0,0,0-.23,2.22c0,.3.01.47.01.47-.3899,1.16-1.62989,2.1-1.97,3.56a9.20964,9.20964,0,0,0,.15015,3.35.00964.00964,0,0,0,.00977.01c.05.29.10009.49.1101.55l.01.02a2.89831,2.89831,0,0,0,.08008.32c-.41015-.05-1.01025-.14-1.75-.25a42.48755,42.48755,0,0,1-4.57007-1.21,2.19225,2.19225,0,0,1-1.25-.77,4.82331,4.82331,0,0,0-1.3-1.35c-.3999-.27-1.79-1.14-2.25-1.46a2.58435,2.58435,0,0,0-.72-.4c-.18994-.19-.58007-.28-.69995-.08-.13012.2.08985.47.08985.47.22021.94,1.72021,1.63,1.81006,1.83.08007.2-.14991.29-.14991.29-.32007-.08-.56006.25-.71.23a3.43078,3.43078,0,0,0-.51025-.02.62408.62408,0,0,0-.57984-.16l-.17016-.17a.72215.72215,0,0,0-.30982.7c.02.54.96,1,.96,1a1.26239,1.26239,0,0,0,.41993,1.11005.82276.82276,0,0,0,.3601.61,1.1116,1.1116,0,0,0,.81006.7,1.31872,1.31872,0,0,0,1.52.28c.52-.15,1.00977.08,1.61988.58.61987.49,4.06,2.3,4.06,2.3s2.30005,1,4.42994,1.7c-.37989,1.96-.90992,4.7-1.35987,6.97.00977,0,.02979-.00995.04-.00995l-.03027.15c-.06983.28-.1499.64-.25,1.07-.0398.25-.09986.52-.16992.82q-.07472.39-.14991.72c-.41015,1.93006-.95019,4.54-1.49,7.35a.0098.0098,0,0,0-.01.01c-.79,4.09-1.58007,8.6-1.97,12.00995a29.51541,29.51541,0,0,1-4.69995,13.22c.11987.04.23975.08.35986.11.01,0,.02.01.03.01a3.63868,3.63868,0,0,0,.44.07.1088.1088,0,0,0,.05.01c.12989.01.26.02.37989.02.12011,0,.23,0,.34009-.01.75-.06,1.47-.26,2.15991-.36a3.03284,3.03284,0,0,1,1.66015.15,3.47218,3.47218,0,0,0,.64991,2.91c3.87011-.04,5.21-1.42,5.21-1.42l.15014,1.06c3.57007.3,3.68994-.4,3.68994-.5a15.96621,15.96621,0,0,1,.21,2.22,8.85533,8.85533,0,0,0-.14991,2.52c-.10009,1.09-1.8601,3.59-1.8601,3.59a1.58726,1.58726,0,0,0-.45.09.87874.87874,0,0,0-.28.43l-.1399.1a4.22667,4.22667,0,0,0-.39013.78c.10009.04.35009-.12.40991-.17-.00977.05-.08985.25-.32984.8-.28.66-.04.94.2.99a11.18321,11.18321,0,0,0,3.25-.29c1.21-.34,1.24-.63,1.52-2.31a3.06461,3.06461,0,0,1,1.78-2.26,6.66375,6.66375,0,0,1-.15014,1.8c-.07984.26.08008.31.08008.31a.3051.3051,0,0,0,0,.18c.02.11.23.21.39013.22a1.50136,1.50136,0,0,0,.49-.14,4.71667,4.71667,0,0,1,.61988-2.63c.3601-.74-.17994-2.34-.19-3.65a18.2534,18.2534,0,0,1,.06006-1.96l.5.02a26.292,26.292,0,0,1,.40992,5.59c-.26,1.4-.72,3.69-.72,3.69a1.92685,1.92685,0,0,1-.68994-.01c-.04.03-.07007.19-.07007.19l-.25-.01a5.71911,5.71911,0,0,0-.03,1.05,1.93007,1.93007,0,0,0,.83007-.1,2.45652,2.45652,0,0,0,.73,2.26c1.04.18,2.72-1.21,3.12012-1.84a7.069,7.069,0,0,0,.75-2.23.71449.71449,0,0,0,.59985-.14l-.13989-3.19a1.13085,1.13085,0,0,0,.13989-.69c-.03-.43-.24-.54-.24-.54a.34854.34854,0,0,0-.14013-.11s-.00977-.34-.08985-1.38a6.93619,6.93619,0,0,1,.37989-2.32,5.386,5.386,0,0,0,2.12011-.31994c2.22,1.26,3.29.32995,3.29.32995a7.36956,7.36956,0,0,0-.16992-2.22c1.67993-1.73,4.13989.62,7.32984-1.21C46.94352,72.228,49.52336,46.17806,42.85343,40.54805Zm-15.10009-27.24a.558.558,0,0,1,0-.34.18213.18213,0,0,0-.09986-.12l.07984-.41.48.14A.86587.86587,0,0,1,27.75334,13.30806Z"/>
</svg>
