<svg id="Capa_1" data-name="Capa 1" xmlns="http://www.w3.org/2000/svg" viewBox="0 0 42.74743 100">
  <defs>
    <style>
      .cls-1 {
        fill: #dbdbdb;
      }

      .cls-2 {
        fill: #e9e9e9;
      }
    </style>
  </defs>
  <path class="cls-1" d="M34.3492,43.98a1.60388,1.60388,0,0,0,1.60986.35c-2.54-1.3-1.27-4.41-1.27-4.41a2.48114,2.48114,0,0,1,.40015,1.45c.38013-2.16-.76-2.33-.90015-3.25-.12988-.93.65015-.83.71021-1.61.05-.77-.63013-1.44-1.1001-2.77a2.10179,2.10179,0,0,1,.17017-2.06c-.16016,1.15.41992,1.39.41992,1.39a2.08951,2.08951,0,0,1-.02-1.89,1.62309,1.62309,0,0,0-.41016-1.74,2.34713,2.34713,0,0,1-.5-1.05l.34009-.79a1.97052,1.97052,0,0,0-.06006-1.9,2.68873,2.68873,0,0,1-.36987-.61,1.46769,1.46769,0,0,0-.2002-1.15c1.32007-1.29.19019-2.12.19019-2.12a2.17225,2.17225,0,0,0-.33008-1.33c2.23-1.98-.12988-3.1-.02-4.87a7.8302,7.8302,0,0,0-1.11987-4.51A3.08686,3.08686,0,0,0,29.9493,9.74a.90731.90731,0,0,0-.58008-.31c-.27-.37-.91992-.32-.91992-.32a.575.575,0,0,0-.52-.13.4072.4072,0,0,0-.43018-.05.51324.51324,0,0,0-.48-.16c-.24-.23-.63989-.00995-.63989-.00995-1.06006-.35-2.09009,1.08-2.09009,1.08a1.295,1.295,0,0,0-.55.43,6.74652,6.74652,0,0,1-.63989.57,1.36483,1.36483,0,0,0-.36011.66.20623.20623,0,0,0-.18994.11.83929.83929,0,0,0-.18994-.06.89156.89156,0,0,0-.02-.35.70247.70247,0,0,0-.43994-.45c-.21021-.05-.34009.38-.34009.38s-.08984-.01-.1499.11a.16184.16184,0,0,0,0,.17,6.74246,6.74246,0,0,0-.33008,1.32.60922.60922,0,0,0-.39014.51c0,.25.32007.5.32007.5a.8646.8646,0,0,1-.10986.45.47219.47219,0,0,0-.02.39c-.40015-.00995-.40015.65-.48.79-.07007.14-.65015.46-.69019.94-.04.47.09009.86.43018.98a2.61462,2.61462,0,0,1,1.58008,1.68c-.8003-.19-5.19019-.6-5.19019-.6a44.2712,44.2712,0,0,1-3.84985-2.57,27.94727,27.94727,0,0,0-3.67017-2.39,5.1867,5.1867,0,0,0-2.68994-.26,5.64612,5.64612,0,0,0-1.25.21l.38989-.57a10.45158,10.45158,0,0,0-1.34985-.23,2.05448,2.05448,0,0,0-1.22.41c-.33008.01-.61011.33-.77.47a1.1552,1.1552,0,0,0-.38013.6c-.05.27-.08984.33-.22.91a2.36277,2.36277,0,0,0,0,1.06,1.01759,1.01759,0,0,0,.06006.44995,2.00264,2.00264,0,0,1,.16992.48,2.48555,2.48555,0,0,0,.43994.67v.15c-.17993.11-.36987.65-.27978.69.07983.04.18994-.08.18994-.08a.42513.42513,0,0,0,.22.02.56089.56089,0,0,0,.3-.17.91613.91613,0,0,0,0,.72c.22-.01.33008-.46.33008-.46a6.28167,6.28167,0,0,0,.75-1.27,1.59845,1.59845,0,0,1,1.52-.91,4.50751,4.50751,0,0,0,1.80981-.56c.13989.58,3.57007,1.39,5.48,5.13a12.10472,12.10472,0,0,0,3,3.3c.51.42.99.77,1.34009,1.02s.56982.39.56982.39a28.64807,28.64807,0,0,1-1.21,2.65,22.0045,22.0045,0,0,1-.13989,5A10.22422,10.22422,0,0,0,17.189,35.37a1.88873,1.88873,0,0,1,.98.42.33421.33421,0,0,0,.33008.08,1.2754,1.2754,0,0,1,1.03.08,7.10482,7.10482,0,0,0,.95.52c.2002.06.77-.16,1.11011,0s.47.25.6499.25a1.70759,1.70759,0,0,1,1.01-.06.3431.3431,0,0,0,.37012-.12,2.07985,2.07985,0,0,1,1.08984-.83c.69019-.13995,2.36011-1.11,2.58008-1.05.22.05.33008.59.16016.86a14.046,14.046,0,0,1-1.62012.92c-.1001.12.99.55,1.33984.52a9.14026,9.14026,0,0,1,1.82007,0c.61011.1,1.28.01,1.28.4-.01.37-.81982.41-1.72.55h-.03l-.7.06s1.33008.06,1.66992.03h.04c.28-.03,1.07007-.17,1.07007.29,0,.28-.75.38-.87988.43a18.20445,18.20445,0,0,1-1.8501.35s.06982,0,.18994-.01c.3501-.02,1.12012-.08,1.67993-.13h.04c.69019-.1.82007,0,.82007.21,0,.12-.33008.32-.6001.43a.98172.98172,0,0,0-.10986.05,1.40084,1.40084,0,0,1-.21.1.16134.16134,0,0,1-.07007.04c-.06006.02-.13013.05-.21.08a.76136.76136,0,0,0-.11011.04,2.62687,2.62687,0,0,1-.5.12,8.55364,8.55364,0,0,1-.93994.13s.56982.1.81982.13a4.47173,4.47173,0,0,1,.97022.11c.19995-.04.48.03.48.18,0,.14-.1001.33-.66992.39-.15015.03-.47022.07-.80005.1-.11011.01-.23023.02-.34009.04a1.097,1.097,0,0,0-.17993.02,8.67579,8.67579,0,0,1-4.57007-.18s-.72,1.04-1.58984,1.02c-.88013-.02-1.39014-.66-3.59009-1.01l-1.14014-.21c-.66992,2.37-1.05981,4.72-1.05981,4.72-.26026,1.31-1.01026,5.09-1.77,9.37-.33008,1.89-.67017,5.86-.96,9.75-.29,3.88-.55,7.68-.71021,9.26a28.80462,28.80462,0,0,1-3.99,12.25c1.14014.47,2.18994.01,3.18994-.14a2.43789,2.43789,0,0,1,1.41016.14,3.41081,3.41081,0,0,0,.55005,2.7c3.28-.04,4.40991-1.31,4.40991-1.31l.12988.98h.02l.92017.03a22.75735,22.75735,0,0,0,3.87988-.57A34.92028,34.92028,0,0,1,22.8492,93.26a20.63441,20.63441,0,0,1-1.39014,3.12.80639.80639,0,0,1-.37988.22s-.1499-.38-.24-.42c-.1001-.03-1.05.36-1.05.5s.3.26.3.26c-2.08008.48-2.13013.96-2.08008,1.16a7.01228,7.01228,0,0,0,4.22,1.16c1.92017-.18,2.71-2.43,3.78-2.94,1.08008-.52,1.40015.05,1.37012.62a12.73314,12.73314,0,0,1-.37012,1.81l.82007-.01.1499-.15a8.25819,8.25819,0,0,1-.06006-1.52c.03028-.89.93018-1.59,1-1.89.08008-.3.08008-.76-.07983-.87s-.42993.03-.42993.03c-.93018-2.26-.22022-5.85-.22022-5.85.61011.1.89014.18,1.43018.23.0498,0,.10986.01.15991.01l1.04.03a4.046,4.046,0,0,0,1.15015-.29,2.62368,2.62368,0,0,0,.36987.2c.95.77.8,4.66.82983,4.95A22.01141,22.01141,0,0,1,33.08919,96l-.05.39s-1.06006-.01-1.23.2v1.07a2.52342,2.52342,0,0,0,.7-.21s-.01.22.05.24c.06006.03.23-.06.23-.06s-.06006,1.84.18018,2.02c.23974.17005,1.77978-.62,2.63989-1.28.86011-.65,1.92993-1.41,1.82007-2.7-.1001-1.29-.11011-2.01-.11011-2.01l.36987-.01.26026-.57c-.2002-2.68-2.04-4.34-1.41016-6.4,1.41992-.94,3.51.58,6.21-1.11C39.08919,77.36,37.189,50.14,34.3492,43.98ZM21.7491,12.49l-.43994.15a5.09764,5.09764,0,0,1,.46-1.54c.14014-.18.24-.2.33008.08A1.90636,1.90636,0,0,1,21.7491,12.49Z"/>
  <g>
    <path class="cls-2" d="M16.82971,4.6865s.15861-.464-.43876-.70874a2.22271,2.22271,0,0,0-1.17109-1.31622A13.6838,13.6838,0,0,1,12.49965,1.185c-.31722-.4033-3.51326-2.45188-5.01344,0,0,0-3.1471.09787-3.23317,3.84235,0,0-.567.44549-.12825,2.69657.43874,2.24938.7138,4.19.98886,4.4819a.64161.64161,0,0,0,.68172.12319l-.34087.4573-.3898.57205a5.5539,5.5539,0,0,1,1.25042-.20587,5.16662,5.16662,0,0,1,2.6898.25481,27.32013,27.32013,0,0,1,3.67193,2.3962c.23962-.11982.9163.16367,1.485-.18394.567-.34762.3763-1.47315.47081-1.6284.09618-.15694.48935-.59568.3611-.99729,0,0,.31726-.31218.3358-.53156a1.71837,1.71837,0,0,0-.1046-.56023s.58048.21261.83022.04219.26832-.53156.08437-.945a5.32123,5.32123,0,0,1-.28517-.91629s.38306-.87072.39317-.97872c.00843-.10632-.25985-.17887-.29361-.09957l-.18224-.05906a2.65819,2.65819,0,0,0,.3476-.761c.0692-.34255.04557-.37462.04557-.37462a1.88462,1.88462,0,0,0,.80492-1.22509.34068.34068,0,0,0,.35774-.14176A1.71048,1.71048,0,0,0,16.82971,4.6865Zm-.96525,4.649a1.44592,1.44592,0,0,1-.189.39824S15.5,9.33208,15.662,9.111C15.77336,9.1414,15.90665,9.1549,15.86446,9.33546Z"/>
    <path class="cls-2" d="M30.5992,39.14c0,.12-.33008.32-.6001.43a.98172.98172,0,0,0-.10986.05,1.40084,1.40084,0,0,1-.21.1.16134.16134,0,0,1-.07007.04c-.06006.02-.13013.05-.21.08a.76136.76136,0,0,0-.11011.04c-.13989.04-.3.08-.5.12a8.55364,8.55364,0,0,1-.93994.13s.56982.1.81982.13a4.47173,4.47173,0,0,1,.97022.11c.19995-.04.48.03.48.18,0,.14-.1001.33-.66992.39-.15015.03-.47022.07-.80005.1-.11011.01-.23023.02-.34009.04a1.097,1.097,0,0,0-.17993.02,8.67579,8.67579,0,0,1-4.57007-.18s-.72,1.04-1.58984,1.02c-.88013-.02-1.39014-.66-3.59009-1.01l-1.14014-.21c-.66992,2.37-1.05981,4.72-1.05981,4.72-.26026,1.31-1.01026,5.09-1.77,9.37-.33008,1.89-.67017,5.86-.96,9.75-.29,3.88-.55,7.68-.71021,9.26a28.80462,28.80462,0,0,1-3.99,12.25c1.14014.47,2.18994.01,3.18994-.14l-.57983,4.59a22.135,22.135,0,0,0,2.49-.08,1.55058,1.55058,0,0,1,1.43994.21A1.1084,1.1084,0,0,1,15.67928,91.95c-.2002.59-2.75,1.83-5.71,2a1.57759,1.57759,0,0,1,.21.72,22.08886,22.08886,0,0,0,3.10986,2.06c1.21.56,1.64014.74,1.76,1.13,0,0,.18994,0,.29.29a.52161.52161,0,0,1-.24.68c-.27.2-1.59009,1.48-5.12988,1.1-3.53028-.39-3.89014-1.69-5.24024-2.24l-.29.66a7.23294,7.23294,0,0,1-2.46-.83c-.62988-.53-.23-1.86-.23-1.86a5.94867,5.94867,0,0,1,.2002-1.92c.25-.57.5-1.21.5-1.21a1.98093,1.98093,0,0,1-.07007-.73s-.53,0-.44019-1.61c.09009-1.6.4502-6.68.59009-9.11a41.98272,41.98272,0,0,1,.51-5.17,6.05949,6.05949,0,0,1,.58008-1.05,9.9436,9.9436,0,0,1-.26-2.11c.09985-1.05.25-12.41.25-12.41s-.83008-3.8-1.25-5.94a18.83971,18.83971,0,0,1-.40991-2.81,4.72389,4.72389,0,0,1-1.14014-.4,2.91339,2.91339,0,0,1-.74-2.82C.21932,47.53.919,39.51,1.169,36.44c.24024-3.08.07007-9.71.12012-12.42a22.04752,22.04752,0,0,1,1.03-5.63.56089.56089,0,0,0,.3-.17.91613.91613,0,0,0,0,.72c.22-.01.33008-.46.33008-.46a6.28167,6.28167,0,0,0,.75-1.27,1.59845,1.59845,0,0,1,1.52-.91,4.50751,4.50751,0,0,0,1.80981-.56c.13989.58,3.57007,1.39,5.48,5.13a12.10472,12.10472,0,0,0,3,3.3c.01.03.14014.45.29,1.16a24.16529,24.16529,0,0,1,.40991,2.9,22.0045,22.0045,0,0,1-.13989,5c-.05.36-.11011.73-.17993,1.09a.3568.3568,0,0,0,.08008.3,3.77719,3.77719,0,0,0,.71.63,2.01431,2.01431,0,0,0,.50976.12,1.88873,1.88873,0,0,1,.98.42.33421.33421,0,0,0,.33008.08,1.2754,1.2754,0,0,1,1.03.08,7.10482,7.10482,0,0,0,.95.52c.2002.06.77-.16,1.11011,0s.47.25.6499.25a1.70759,1.70759,0,0,1,1.01-.06.3431.3431,0,0,0,.37012-.12,2.07985,2.07985,0,0,1,1.08984-.83c.69019-.13995,2.36011-1.11,2.58008-1.05.22.05.33008.59.16016.86a14.046,14.046,0,0,1-1.62012.92c-.1001.12.99.55,1.33984.52a9.14026,9.14026,0,0,1,1.82007,0c.61011.1,1.28.01,1.28.4-.01.37-.81982.41-1.72.55h-.03l-.7.06s1.33008.06,1.66992.03h.04c.28-.03,1.07007-.17,1.07007.29,0,.28-.75.38-.87988.43a18.20445,18.20445,0,0,1-1.8501.35s.06982,0,.18994-.01c.35986-.01,1.12988-.06,1.67993-.13h.04C30.46932,38.83,30.5992,38.93,30.5992,39.14Z"/>
  </g>
</svg>
