<svg id="Capa_1" data-name="Capa 1" xmlns="http://www.w3.org/2000/svg" viewBox="0 0 48.45203 100">
  <defs>
    <style>
      .cls-1 {
        fill: #e9e9e9;
      }

      .cls-2 {
        fill: #dbdbdb;
      }
    </style>
  </defs>
  <g>
    <path class="cls-1" d="M27.68434,88.63116a5.772,5.772,0,0,0,.66944,1.924,4.29825,4.29825,0,0,0,.62182-1.71789c-.4104-.15137-1.26562-.52887-1.32031-.55072C27.66091,88.4032,27.66994,88.51624,27.68434,88.63116Z"/>
    <path class="cls-1" d="M21.66628,83.68719a3.01923,3.01923,0,0,1-2.06617-.43219,7.77757,7.77757,0,0,1-2.02612.55988s.37769,2.22119,1.56665,3.07288c0,0-.26977.01458-.26977.95922,0,.94648.02734,1.97321.02734,1.97321a3.8174,3.8174,0,0,0,.00342,1.40967c.166.41034,1.585.527,2.47656.55621.89185.031,2.03516-.02917,2.03516-.02917.03662-.92646.02734-1.25287.02734-1.25287A63.45918,63.45918,0,0,0,21.66628,83.68719Z"/>
    <path class="cls-1" d="M37.7361,45.81c.8501.39,1.56006.8,1.77.49.22-.33-.3999-.63-.87012-1.05a9.89355,9.89355,0,0,0-1.5498-1.02c-.31006-.16-1-1.14-.8501-1.18a13.55223,13.55223,0,0,0,1.89014.11c.28979-.13.5-.65.34985-.81-.15991-.19-2.11987-.29-2.78-.56a2.18328,2.18328,0,0,0-1.3999.11.29964.29964,0,0,1-.29-.04l-.3999-.37c-1.58008,1.58-2.43018,1.89-3.53028,2.03A2.21949,2.21949,0,0,1,28.416,43.2c-1.94995-.46-6.62988-3.77-6.62988-3.77s-3-2.47-3.5-3.08c-.51-.6-.92993-.93-1.48-.89a1.31518,1.31518,0,0,1-1.42993-.59,1.09977,1.09977,0,0,1-.65015-.84.84011.84011,0,0,1-.23-.68,1.2153,1.2153,0,0,1-.17993-1.16s-.83008-.65-.74024-1.18a.725.725,0,0,1,.44019-.62l.12988.2a.64438.64438,0,0,1,.54.27s.3501.07.5.12c.13989.05.44019-.22.74-.08,0,0,.24-.04.2002-.25a1.11018,1.11018,0,0,0-.23023-.29,1.13878,1.13878,0,0,0-.10986-.11c-.04-.04-.07007-.08-.11011-.12a3.27371,3.27371,0,0,1-.92993-1.46,1.1006,1.1006,0,0,1-.02-.18.55842.55842,0,0,1-.05-.38.20735.20735,0,0,1,.06006-.1c.15991-.17.51,0,.66992.23a2.55536,2.55536,0,0,1,.62012.53c.38989.41,1.58008,1.54,1.90991,1.89a4.715,4.715,0,0,1,.99,1.58,2.21151,2.21151,0,0,0,1.08008,1.01,42.11825,42.11825,0,0,0,4.22,2.11c1.42993.53,2.28.8,2.33008.82A3.47894,3.47894,0,0,0,25.396,35.1a3.10354,3.10354,0,0,1-1.22-1.03,2.53982,2.53982,0,0,0-.56006-.6,3.81319,3.81319,0,0,1,1.6001-3.97c.99-.62,2.03-1.27,2.96-1.79a3.40241,3.40241,0,0,0-.48-1.49,11.17559,11.17559,0,0,0-.66992-2.44,1.70385,1.70385,0,0,0-.27-.88,10.45609,10.45609,0,0,0-.09009-1.08,3.5012,3.5012,0,0,0-.27-.83,5.28882,5.28882,0,0,0-2.15991-2.95,1.33133,1.33133,0,0,0,.14014-.47,1.76824,1.76824,0,0,0,.01977-.34.26406.26406,0,0,0,.01-.24c-.0498-.14-.52-.48-.52-.48s.68994-.18005.88013-.6c.2-.41.01-1.14.09009-1.46.06982-.33.3999-.62005.13989-1.05005,0,0,.32983-.19995.34985-.38A5.60768,5.60768,0,0,0,25.3362,12.39s.43994.03.60986-.25a.75671.75671,0,0,0,.1001-.52.983.983,0,0,0,.62988-.47c.18018-.38.4502-1.32.49-1.39.04-.06.15991-.27.13013-.36-.03-.1-.41016-.16-.68018-.15L25.75612,9a.87048.87048,0,0,0,.29-.34.79286.79286,0,0,0,.02-.37,2.19048,2.19048,0,0,0,.93994-1.37,3.7961,3.7961,0,0,0-.31006-1.95.39168.39168,0,0,0-.02-.54s.05-.53-.45-.56c0,0,.09009-.55-.38013-.7,0,0-.00976-.33-.2998-.35a.45563.45563,0,0,0-.54-.34s-.33008-.21-.51-.36a1.03383,1.03383,0,0,0-.67017-.25C23.54616,1.85,21.47609.04,19.69606,0c-1.79-.04-2.1499.83-2.29,1.53,0,0-1.25-.42-2.52,1.35a7.03611,7.03611,0,0,0-.86987,5.23,49.53516,49.53516,0,0,0,1.02,5l.27-.07s-.40015.8-.40015.85a.46454.46454,0,0,0,.08008.16,3.03671,3.03671,0,0,1-.30005.8,1.82663,1.82663,0,0,0-.98.31,32.94664,32.94664,0,0,0-2.98,2.9,4.38664,4.38664,0,0,0-.99,2.65,20.7685,20.7685,0,0,0-.27,6.1,2.18917,2.18917,0,0,0-.26,1.53,15.11281,15.11281,0,0,1,.11011,2.63,5.12941,5.12941,0,0,0-.48,1.86,2.22575,2.22575,0,0,0,.3999,1.19,4.20514,4.20514,0,0,0-.73.87,11.37187,11.37187,0,0,0-.78,1.48,5.39067,5.39067,0,0,1-.11011,1.4,46.075,46.075,0,0,0-1.38989,5.36c-.03.92-.81006,5-.97,5.81-.16016.81-.49,1.27.3999,1.7,0,0,.06006,2.51-.08008,4.11a23.28158,23.28158,0,0,0,.12012,5.57c.33008,2.66.33008,2.78.33008,2.78a11.83833,11.83833,0,0,0-1.82007,4.88C3.636,71.22,2.866,76.35,2.676,78.11c-.17993,1.77-.47293,8.9-.47293,8.9A8.55935,8.55935,0,0,0,.82322,88.32a6.79458,6.79458,0,0,0-.82006,2.63,10.9515,10.9515,0,0,0,1.05,3.35,4.79507,4.79507,0,0,1-.05,1.44c-.1399.73-.58008,1.88-.07007,2.77a3.07214,3.07214,0,0,0,2.47,1.51,6.5046,6.5046,0,0,0,2.81006-.24005,1.84727,1.84727,0,0,0,.35009-1.67,18.08512,18.08512,0,0,0-.13012-3.32,13.301,13.301,0,0,0,1.38012-2.35c.66993-1.44-.4602-2.77-.38012-3.38a7.31358,7.31358,0,0,1,1.66015-2.17c1.37989-1.4,2.14286-4.16,2.70292-6.41.56982-2.24,2.98-11.22,2.98-11.22l.62988,3.41c.64014-3.2,1.28-7.28,1.84009-12.49.90991-8.39,2.16992-16.65,4.27-20.31a86.812,86.812,0,0,0,8.5,6.49,4.89156,4.89156,0,0,0,.5-.51c.11011-.16.3-.61.75-.61,1.19995,1.63,3.8999,2.84,4.32983,3.05a.916.916,0,0,1,.17017.09,2.93175,2.93175,0,0,1,.30981.15c.3003.16.59009.31.74024.37.52.27.71.15.79.04.07983-.13-.12012-.35-.31006-.42a4.42335,4.42335,0,0,0-.77-.64c-.18994-.16-.62012-.57-.62012-.57a8.01308,8.01308,0,0,0,.87012.41c.2.08.3501.14.49.18l.11987.03c.09009.02.16016.04.22022.05a.21841.21841,0,0,0,.07983.01c.09009.02.17017.02.23.03a.57571.57571,0,0,1,.14014.01c.28.06.67993.08.74-.02.11987-.19.06006-.35-.58008-.65l-.03-.02c-.51-.25-1.18994-.63-1.51-.83l-.03-.02a15.52779,15.52779,0,0,0,1.63013.66c.13989.03.83984.37,1,.13.26-.39-.5-.71-.76-.84l-.03-.02c-.27-.15-1.1499-.77-1.35986-.93l.58984.3Zm-10.99-36.43c.27,0,.24.13.21.33a6.53782,6.53782,0,0,1-.29.93,1.25639,1.25639,0,0,1-.35986.58.55132.55132,0,0,1-.27.06,4.45348,4.45348,0,0,0-.19995-1.21A.8323.8323,0,0,1,26.74611,9.38Zm-.93994-.28.41992.13a1.328,1.328,0,0,0-.36011.12.324.324,0,0,0-.08984-.13A.1808.1808,0,0,0,25.80617,9.1Z"/>
  </g>
  <path class="cls-2" d="M39.97609,46.36c.38013.08.71,1.34,1.13989,2.09.44019.75.93018.88,1.08008.88.14014,0,.33008-.23.3501-.25995a3.25036,3.25036,0,0,0,.0498,1.62,2.52045,2.52045,0,0,0,1.03028,1.5,3.701,3.701,0,0,1-.38013-1.88,2.79959,2.79959,0,0,0,1.26,1.6,1.66823,1.66823,0,0,1-.23-.73,1.148,1.148,0,0,0,.8999.15c-.62988-.09-1.12988-1.04-1.12988-1.04a2.35957,2.35957,0,0,0,.72-1.01A4.66937,4.66937,0,0,0,46.156,51.06a5.87575,5.87575,0,0,1-1.21-2.02,2.56878,2.56878,0,0,0,.26-1.78,1.47,1.47,0,0,1,.42017,1.88c1.09985-.84-.19019-2.31-.19019-2.31a3.70265,3.70265,0,0,0,.26-.77,2.95343,2.95343,0,0,0,.59009.64,2.45984,2.45984,0,0,1-.3-1.75,6.05058,6.05058,0,0,0,.78,1.14,2.027,2.027,0,0,1,.49,1.37c.53-1.02-.75-2.12-.87012-2.55-.11987-.42.3501-.98.76-1.5a.92329.92329,0,0,0-.03-1.1,5.32522,5.32522,0,0,0,1.34009-2.37c.02-.95-1.31006-1.79-1.38989-2.41-.08008-.62.92993-2.16.87988-2.97-.06006-.82-.68994-1.71-.76-2.69a5.30969,5.30969,0,0,1,.76-2.5c.34009-.81-.23-1.94-.77-2.83-.53-.9-.2998-1.32-.2998-1.32a.85313.85313,0,0,0,.96-.16c-.71.09-.53-.45-.53-.45.30981-1.07,1.25-1.76,1.13989-2.31-.10986-.55-.58008-.78-1.12988-1.94-.54-1.17.10986-3.08-.14014-4.91-.24-1.82-.98-2.16-.98-2.16a1.73117,1.73117,0,0,0-1.58984-1.02c-.19019-.56-.98-.56995-.98-.56995a.42267.42267,0,0,0-.36011-.13c-.05-.09-.22-.09-.22-.09a.28945.28945,0,0,0-.37012-.25c-.11987-.32-.40991-.05-.40991-.05-.15015-.34-.57007-.15-.57007-.15-.08984-.3-.42993-.18-.42993-.18-.06006-.18-.38989-.09-.38989-.09-.34009-.32-.92017-.04-.92017-.04-1.59985-.64-2.77,1.7-2.77,1.7a2.1104,2.1104,0,0,0-.52.47c-.66992-.04-1.09009,1.21-1.09009,1.21a.6486.6486,0,0,0-.17993.04s-.17993-.25-.58984.02a2.48813,2.48813,0,0,0-.66016,1c-.12988-.04-.22.18-.22.22a.14463.14463,0,0,0,.04.09.48878.48878,0,0,0-.17993.38.41789.41789,0,0,0,.1499.35,1.50752,1.50752,0,0,0,0,.58.45393.45393,0,0,0,.38013-.03,2.30793,2.30793,0,0,0-.38013,1.19.40013.40013,0,0,0-.17993.43,1.03606,1.03606,0,0,1-.01.48s-.63013.64-.61011,1.09c.02.44.24024.57,1.03,1.28a7.09691,7.09691,0,0,1,1.38013,2.16,4.175,4.175,0,0,1-1.05,1.77c-.7.74005-3.74,1.56-3.74,1.56a1.36045,1.36045,0,0,0-.62012.08c-.15991-.19-.5498-.65-.84985-1a4.71888,4.71888,0,0,1-.8501-1.55,2.20273,2.20273,0,0,0-.72-1.27,6.323,6.323,0,0,0-.79-1.4s-.10986-.94-.22-.89a.27014.27014,0,0,0-.11011.22.16736.16736,0,0,0-.2.09,3.5012,3.5012,0,0,1,.27.83,10.45609,10.45609,0,0,1,.09009,1.08,1.70385,1.70385,0,0,1,.27.88,11.17559,11.17559,0,0,1,.66992,2.44,3.40241,3.40241,0,0,1,.48,1.49c-.92993.52-1.97,1.17-2.96,1.79a3.81319,3.81319,0,0,0-1.6001,3.97,2.53982,2.53982,0,0,1,.56006.6,3.10354,3.10354,0,0,0,1.22,1.03,3.47894,3.47894,0,0,1,1.16016,1.08c-.05005-.02-.90015-.29-2.33008-.82a42.11825,42.11825,0,0,1-4.22-2.11A2.21151,2.21151,0,0,1,18.926,32.24a4.715,4.715,0,0,0-.99-1.58c-.32983-.35-1.52-1.48-1.90991-1.89a2.55536,2.55536,0,0,0-.62012-.53c-.15991-.23-.51-.4-.66992-.23a.20735.20735,0,0,0-.06006.1.55842.55842,0,0,0,.05.38,1.1006,1.1006,0,0,0,.02.18,3.27371,3.27371,0,0,0,.92993,1.46c.04.04.07007.08.11011.12a1.13878,1.13878,0,0,1,.10986.11,1.11018,1.11018,0,0,1,.23023.29c.03979.21-.2002.25-.2002.25-.2998-.13995-.6001.13-.74.08-.1499-.05-.5-.12-.5-.12a.64438.64438,0,0,0-.54-.27l-.12988-.2a.725.725,0,0,0-.44019.62c-.08984.53.74024,1.18.74024,1.18a1.2153,1.2153,0,0,0,.17993,1.16.84011.84011,0,0,0,.23.68,1.09977,1.09977,0,0,0,.65015.84,1.31518,1.31518,0,0,0,1.42993.59c.55-.04.97.29,1.48.89.5.61,3.5,3.08,3.5,3.08s4.67993,3.31,6.62988,3.77a2.21949,2.21949,0,0,0,1.65991.31995c1.1001-.14,1.9502-.44995,3.53028-2.03l.3999.37a.29964.29964,0,0,0,.29.04,2.18328,2.18328,0,0,1,1.3999-.11c.66016.27,2.62012.37,2.78.56.15015.16-.06006.68-.34985.81a13.55223,13.55223,0,0,1-1.89014-.11c-.1499.04.54,1.02.8501,1.18a9.89355,9.89355,0,0,1,1.5498,1.02c.47022.42,1.09009.72.87012,1.05-.21.31-.91992-.1-1.77-.49l-.02-.02-.58984-.3c.21.16,1.08984.78,1.35986.93l.03.02c.26.13,1.02.45.76.84-.16016.24-.86011-.1-1-.13a15.52779,15.52779,0,0,1-1.63013-.66l.03.02c.32007.2,1,.58,1.51.83l.03.02c.64014.3.7.46.58008.65-.06006.1-.46.08-.74.02a.57571.57571,0,0,0-.14014-.01c-.05981-.00995-.13989-.00995-.23-.03a.21841.21841,0,0,1-.07983-.01c-.06006-.01-.13013-.03-.22022-.05l-.11987-.03c-.13989-.04-.29-.1-.49-.18a8.01308,8.01308,0,0,1-.87012-.41s.43018.41.62012.57a4.42335,4.42335,0,0,1,.77.64c.18994.07.38989.29.31006.42-.08008.11-.27.23-.79-.04-.15015-.06-.43994-.21-.74024-.37a2.93175,2.93175,0,0,0-.30981-.15.916.916,0,0,0-.17017-.09c-.42993-.21-3.12988-1.42-4.32983-3.05-.45,0-.63989.45-.75.61a4.89156,4.89156,0,0,1-.5.51,86.812,86.812,0,0,1-8.5-6.49c-2.1001,3.66-3.36011,11.92-4.27,20.31-.56006,5.21-1.2,9.29-1.84009,12.49a44.58759,44.58759,0,0,1-2.5498,8.98,6.73373,6.73373,0,0,1-1.16016,2.04A14.33883,14.33883,0,0,0,15.386,82.8v1.09a9.05406,9.05406,0,0,0,2.18994-.08,7.33881,7.33881,0,0,0,2.02-.56,3.04535,3.04535,0,0,0,2.07007.44,63.428,63.428,0,0,1,1.77,6.81s.01.33-.02,1.26a.16979.16979,0,0,1-.01.07,9.65678,9.65678,0,0,1-.67993,3.54,3.31585,3.31585,0,0,0-.49,1.16l-.33008.2a2.65283,2.65283,0,0,0-.88989-.76s-.61011.42-.72.5c-.11011.07-.33008.24-.31006.38.02.15.12012.15.27.15.13989,0,.16992.08.16992.08a.18275.18275,0,0,0,.05.29c-1.66992.84-2.04,1.09-2.02,1.39.01.3.28.41,1.48.75a21.82941,21.82941,0,0,0,4.55.49c1.12988,0,1.96-1.51,2.95-2.92.98-1.41,1.92017-1.28,1.92017-1.28a13.04506,13.04506,0,0,1-.05,1.33c-.06006.48-.19019,1.03-.19019,1.03l.32007.36.8501-.11a12.90476,12.90476,0,0,1-.11011-2.05,3.0274,3.0274,0,0,1,.96-1.59.57609.57609,0,0,0,.2002-.55c-.02-.29-.08008-.33-.08008-.33a1.35592,1.35592,0,0,1,.85986-.35c1.32007,0,1.33008.56,1.33008,1.07a10.38831,10.38831,0,0,1-.33984,1.76l.80981.2.27-.23a9.33854,9.33854,0,0,0,.01-1.17,2.78151,2.78151,0,0,1,.77-2.26.89034.89034,0,0,0,.49-1.06c-.06006-.31-.74-.09-.74-.09a2.08055,2.08055,0,0,0-.6499-1.85,5.9376,5.9376,0,0,1-.48-3.37c.23974-.93.55981-2.85.55981-2.85a3.91179,3.91179,0,0,0,2.67993-1.02l-.03979-.89c2.23,2.07,6.32007,1.06,6.32007,1.06l-.33008-1.59c1.46.13,2.1499,1.14,3.36987,1.18a4.48706,4.48706,0,0,0,2.31006-.69c-6.76-10.59-7.54-27.03-7.57983-30.27A13.6524,13.6524,0,0,0,39.97609,46.36Zm-5.5-29.8s-.33008.14-.36011-.04a1.76021,1.76021,0,0,1,0-.23c.04.01.28.12.44019.16Zm.86987-1.41a3.39529,3.39529,0,0,1-1.03979.11c.2-.57.57007-1.1.90991-1.05.34009.04.32007.52.32007.52A.82933.82933,0,0,0,35.346,15.15ZM28.97609,88.84a4.50431,4.50431,0,0,1-.61987,1.72,5.79371,5.79371,0,0,1-.67017-1.93,1.95176,1.95176,0,0,1-.03-.34,44.02643,44.02643,0,0,0-.21-4.6,4.24285,4.24285,0,0,0,.93018-.47s.55981.22.88989.35A28.04348,28.04348,0,0,1,28.97609,88.84Z"/>
</svg>
