<svg id="Capa_1" data-name="Capa 1" xmlns="http://www.w3.org/2000/svg" viewBox="0 0 49.97332 100">
  <defs>
    <style>
      .cls-1 {
        fill: #e9e9e9;
      }

      .cls-2 {
        fill: #dbdbdb;
      }
    </style>
  </defs>
  <path class="cls-1" d="M18.67151,18.51c-.01-.01-.01-.01-.02-.01-.86987-.42-1.78-.93-1.83985-2.03a.6302.6302,0,0,1,.55982-.67,11.63614,11.63614,0,0,1,1.31006-.01,1.028,1.028,0,0,0,.16992.01,1.4406,1.4406,0,0,0,.76025-.18c.56983-.35.37989-1.47.46973-1.63.1001-.16.49023-.59.37012-1a1.25579,1.25579,0,0,0,.33008-.53,1.72948,1.72948,0,0,0-.09009-.55c.09009.02.59009.18.82007.03.25-.17.27-.53.08007-.94a5.398,5.398,0,0,1-.28-.92s.37989-.87.3899-.98c.01-.1-.26-.17-.29-.1l-.18994-.05a2.68072,2.68072,0,0,0,.35009-.77c.06983-.34.04981-.37.04981-.37a1.87156,1.87156,0,0,0,.80005-1.23.33316.33316,0,0,0,.36011-.14,1.71855,1.71855,0,0,0-.5-1.75s.15991-.47-.43995-.71a2.2018,2.2018,0,0,0-1.17016-1.32,13.2631,13.2631,0,0,1-2.72-1.48c-.31983-.4-3.51-2.45-5.01,0,0,0-3.1499.1-3.23,3.85,0,0-.57007.44-.13013,2.69.44019,2.25.71021,4.19.99023,4.49a.43419.43419,0,0,0,.27979.15c-.12988.33-.75,1.55-3.10986,2.94a9.41136,9.41136,0,0,1-2,.63,2.75228,2.75228,0,0,0-2.03,1.35,26.40473,26.40473,0,0,0-2.56006,8.97A86.75111,86.75111,0,0,0,1.96155,36.6c.01,0,.01,0,.01.01.2,1.06.6499,3.34.72,3.69v.1c-.16992.72-1.84986,6.65-2.6499,9.43a1.15122,1.15122,0,0,0,1.13989,1.46c.1001,0,.18994-.01.27-.01a.24979.24979,0,0,1,.26.25l.04,1.68s.15991,15.31.90991,18.41c.01.01.01.02.01.04,0,.56-1.19995,12.38-.88989,14.45.31982,2.12.31982,1.04.31005,1.89-.01025.67-.21,1.33-.3,2.21-.14014,1.32.41992,3.95.25,5.04-.08008.43.72,1.05,1.02.9a3.23391,3.23391,0,0,1,1.24,1.77,3.43888,3.43888,0,0,0,2.65992,2.05,8.91313,8.91313,0,0,0,1.38012-.05c1.00977-.14.58985-2.4.25977-2.96-.96973-1.61-.83984-1.47-.7898-2.2a.24634.24634,0,0,1,.11988-.21,7.57313,7.57313,0,0,0,1.18017-3.16,14.08875,14.08875,0,0,0,.1399-4.01.24661.24661,0,0,1,.09008-.28c.25-.17.27-.75.21-2.79-.09008-2.79-.02-8.91.11988-9.76a.08994.08994,0,0,1,.01-.05,12.93817,12.93817,0,0,0,.6499-3.78c.2002-2.77.42017-7.97.42017-7.97s-.1001,8.69,1.01,11.75a.141.141,0,0,1,.01.09,33.91336,33.91336,0,0,0-.13013,5.26,6.33964,6.33964,0,0,1-.06983,3.29,6.59961,6.59961,0,0,0,.50977,4.93.26039.26039,0,0,1-.01978.27c-.33007.41-1.34008,1.7-1.31005,2.32a3.3645,3.3645,0,0,0,.72,1.6,2.75122,2.75122,0,0,1,.14013,1.07.18241.18241,0,0,0,.05982.17,3.361,3.361,0,0,0,1.55005.83l.62988-.06a3.26063,3.26063,0,0,1,.86011,1.15,2.85686,2.85686,0,0,0,1.15991,1.57,4.8018,4.8018,0,0,0,4.14014.58,5.05936,5.05936,0,0,0,.65991-.24.71474.71474,0,0,0,.33008-.85,7.01825,7.01825,0,0,0-1.22-2.36,12.2057,12.2057,0,0,1-2.04-2.18.22955.22955,0,0,1-.04-.14l-.10987-7.36a.26105.26105,0,0,0-.3-.25,18.60421,18.60421,0,0,1-2.19019.32c-.10986.01-.21973.01-.33984.01s-.25-.01-.37989-.02a.10921.10921,0,0,1-.05029-.01,2.24332,2.24332,0,0,1-.43994-.07c-.00977,0-.02-.01-.02979-.01-.12011-.03-.24023-.07-.3601-.11a29.512,29.512,0,0,0,4.7-13.22c.39013-3.41,1.18017-7.92,1.97-12.00995a.0098.0098,0,0,1,.01-.01c.54-2.81,1.08008-5.42,1.49-7.35q.07507-.33.15014-.72c.06983-.3.12989-.57.16993-.82.10009-.43.17993-.79.25-1.07l.03-.15c-.01,0-.03.01-.04.01.44995-2.27-.71-5.01-.33008-6.97,0,0,.15014-4.25.2-6.49a30.32175,30.32175,0,0,1-4.77-3.2s-.88989-.98-1.73-1.94a19.90961,19.90961,0,0,1-1.37988-1.7c-.40992-.69-.80005-1.08-1.35987-1.13a1.42631,1.42631,0,0,1-1.38012-.82,1.1606,1.1606,0,0,1-.54-.94995.85208.85208,0,0,1-.11988-.71l-.01-.01a1.21018,1.21018,0,0,1-.01-1.17s-.74-.78-.56-1.29a.7241.7241,0,0,1,.55-.54l.10986.22a.72829.72829,0,0,1,.19995.06.64428.64428,0,0,1,.41016.22,1.91982,1.91982,0,0,1,.49.3c.16992-.01.42993-.12.6499.03,0,0,.26,0,.26-.21-.02-.23-1.23-1.42-1.10987-2.38,0,0-.12011-.32.08985-.46.18017-.16.54.08.64014.33a2.44953,2.44953,0,0,1,.56005.63c.33985.47,1.36988,1.79,1.65992,2.19a4.79756,4.79756,0,0,1,.77,1.73,2.258,2.258,0,0,0,.93994,1.18s2.35009,1.27,4.10009,2.41a15.65312,15.65312,0,0,1,1.36988.99l-.03-.67a5.35773,5.35773,0,0,1,.16015-1.25v-.01a2.724,2.724,0,0,1,.67994-1.39V25.95c.58007-.87,1.07006-1.53,1.47-2.03C20.79163,18.75,19.52161,18.82,18.67151,18.51Zm2.44018-9.4c.11988.03.25.04.21.23a1.33383,1.33383,0,0,1-.18994.39S20.95154,9.33,21.11169,9.11Z"/>
  <path class="cls-2" d="M42.15149,41.29c-2.24-3.5-1.21-4.17-1.07007-4.43a7.16949,7.16949,0,0,0,.83008-1.58,9.34971,9.34971,0,0,0,.38013-2.88c-.09009-6.88-1.22-7.16-1.22-7.16.65992-.99-.28-1.28-.28-1.28s-.17017-1.06-.61011-1.18c-.43994-.11-.45-.35-.45-.35a.86166.86166,0,0,0,.75-.36,4.01839,4.01839,0,0,1-.75-.04c-.04-.41.11987-.45.15991-.82a.59549.59549,0,0,0-.21-.54.88145.88145,0,0,0,.76-.66c-.23.23-1.47.63995-1.78-.33-.31983-.97.71-1.35.56006-1.78-.07007-.24-.48-.4-.87012-.68a1.69166,1.69166,0,0,1-.71-1.42,10.05711,10.05711,0,0,0-.06983-2.82,4.26571,4.26571,0,0,0-1.42016-2.27,2.08548,2.08548,0,0,0-1.37988-.86.35242.35242,0,0,0-.36011-.18c-.11987-.15-.49-.18-.49-.18a.51263.51263,0,0,0-.49-.27.47242.47242,0,0,0-.41992-.17.44277.44277,0,0,0-.18018-.09c-.08984-.03-.23.07-.23.07a.59834.59834,0,0,0-.27979-.17.34078.34078,0,0,0-.32006.09s-.1001-.16-.2-.17a.78343.78343,0,0,0-.29.1.5861.5861,0,0,0-.48-.19,1.16188,1.16188,0,0,0-.55.31,1.64433,1.64433,0,0,0-.92994-.04c-.51.13-.65014,1.08-.65014,1.08a2.69593,2.69593,0,0,0-.61987.41c-.22.22-.4502.62-.78,1.04a2.42654,2.42654,0,0,0-.42017.73l-.53979-.1c-.04-.47-.15992-.48-.23-.46-.08007.03-.1101.39-.1101.39-.10987.01-.12012.09-.12989.2-.01.11.06006.12.06006.12-.05029.37-.12011,1.32-.12011,1.32-.22.13-.86011.4-.91016.74a.55017.55017,0,0,0,.31006.6,1.9324,1.9324,0,0,1,.36011.27,1.37835,1.37835,0,0,0-.22.28c-.12011.18.02.6.02.6a.506.506,0,0,0-.37011.67v.44a1.7358,1.7358,0,0,0-.49,1.3,1.15548,1.15548,0,0,0,.88012.88c1.39991.35,2.37989,2.75,2.37989,2.75a5.01113,5.01113,0,0,0-2,.25h-.01a4.39529,4.39529,0,0,0-.40992.17l-.06005.03c-.02.02-.04.03-.06006.05a7.11021,7.11021,0,0,0-1.22,1.2c-.39991.5-.8899,1.16-1.47,2.03V25.96a2.724,2.724,0,0,0-.67994,1.39v.01a5.35773,5.35773,0,0,0-.16015,1.25l.03.67a15.65312,15.65312,0,0,0-1.36988-.99c-1.75-1.14-4.10009-2.41-4.10009-2.41a2.258,2.258,0,0,1-.93994-1.18,4.79756,4.79756,0,0,0-.77-1.73c-.29-.4-1.32007-1.72-1.65992-2.19a2.44953,2.44953,0,0,0-.56005-.63c-.1001-.25-.46-.49-.64014-.33-.21.13995-.08985.46-.08985.46-.12011.96,1.08985,2.15,1.10987,2.38,0,.21-.26.21-.26.21-.22-.15-.48-.04-.6499-.03a1.91982,1.91982,0,0,0-.49-.3.64428.64428,0,0,0-.41016-.22.72829.72829,0,0,0-.19995-.06l-.10986-.22a.7241.7241,0,0,0-.55.54c-.17994.51.56,1.29.56,1.29a1.21018,1.21018,0,0,0,.01,1.17l.01.01a.85208.85208,0,0,0,.11988.71,1.1606,1.1606,0,0,0,.54.94995,1.42631,1.42631,0,0,0,1.38012.82c.55982.05.95.44,1.35987,1.13a19.90961,19.90961,0,0,0,1.37988,1.7c.84009.96,1.73,1.94,1.73,1.94a30.32175,30.32175,0,0,0,4.77,3.2c.08008.05.17017.09.26025.14.02979.15.06983.33.10987.54.35986,1.9,1.12011,5.81,1.12011,5.81-.38012,1.96-.91015,4.7-1.3601,6.97.01,0,.03-.01.04-.01l-.03.15c-.07007.28-.14991.64-.25,1.07-.04.25-.1001.52-.16993.82q-.07506.39-.15014.72c-.40991,1.93-.95,4.54-1.49,7.35a.0098.0098,0,0,0-.01.01c-.7898,4.09-1.57984,8.6-1.97,12.00995a29.512,29.512,0,0,1-4.7,13.22c.11987.04.24.08.3601.11.00977,0,.02.01.02979.01a3.64443,3.64443,0,0,0,.43994.07.10921.10921,0,0,0,.05029.01c.12989.01.25977.02.37989.02s.23,0,.33984-.01c.75-.06,1.47021-.26,2.16016-.36005a3.03209,3.03209,0,0,1,1.65991.15,3.47273,3.47273,0,0,0,.65014,2.91c3.86988-.04,5.21-1.42,5.21-1.42l.1499,1.06c3.57007.3,3.68994-.4,3.68994-.5a15.92731,15.92731,0,0,1,.21,2.22,8.85567,8.85567,0,0,0-.1499,2.52c-.1001,1.09-1.85987,3.59-1.85987,3.59a1.59073,1.59073,0,0,0-.45019.09.87748.87748,0,0,0-.27979.43005l-.14013.1a4.21849,4.21849,0,0,0-.3899.78c.09986.04.34986-.12.40992-.17-.01.05-.08985.25-.33008.8-.27979.66-.04.94.20019.99005a11.18343,11.18343,0,0,0,3.25-.29c1.21-.34,1.23975-.63,1.52-2.31a3.06453,3.06453,0,0,1,1.77979-2.26,6.6653,6.6653,0,0,1-.1499,1.8c-.08008.25995.08007.31.08007.31a.30517.30517,0,0,0,0,.18c.02.11.23.21.3899.22a1.49966,1.49966,0,0,0,.49-.14,4.71741,4.71741,0,0,1,.62011-2.63c.35987-.74-.18017-2.34-.18994-3.65a18.32577,18.32577,0,0,1,.05982-1.96l.5.02.63989.03a24.71177,24.71177,0,0,1,.84009,5.45c-.13989,1.41-.40991,3.73-.40991,3.73a1.8366,1.8366,0,0,1-.69.05c-.04.03-.06.19-.06.19l-.25.02a6.03941,6.03941,0,0,0,.06,1.04,1.95424,1.95424,0,0,0,.81983-.16,2.46143,2.46143,0,0,0,.91015,2.19c1.04981.1,2.60987-1.43,2.96-2.09a7.05817,7.05817,0,0,0,.56982-2.28.67992.67992,0,0,0,.58008-.19l-.3999-3.17a1.13029,1.13029,0,0,0,.08984-.7c-.06982-.42-.2898-.51-.2898-.51a.2785.2785,0,0,0-.14013-.1s-.0398-.34-.21-1.37a5.9178,5.9178,0,0,1,.1101-1.91A5.18314,5.18314,0,0,0,40.90149,86.89c2.22,1.25995,3.29.33,3.29.33A7.36025,7.36025,0,0,0,44.02161,85c1.67993-1.73,2.76.62,5.94995-1.21C45.47156,72.54,46.7616,48.49,42.15149,41.29ZM26.5133,13.31a.556.556,0,0,1,0-.34.183.183,0,0,0-.10009-.12l.08008-.41.48.14A.86649.86649,0,0,1,26.5133,13.31Z"/>
</svg>
